<?xml version="1.0" encoding="UTF-8" standalone="no"?>
<!-- Created with Inkscape (http://www.inkscape.org/) -->

<svg
   xmlns:dc="http://purl.org/dc/elements/1.1/"
   xmlns:cc="http://creativecommons.org/ns#"
   xmlns:rdf="http://www.w3.org/1999/02/22-rdf-syntax-ns#"
   xmlns:svg="http://www.w3.org/2000/svg"
   xmlns="http://www.w3.org/2000/svg"
   xmlns:sodipodi="http://sodipodi.sourceforge.net/DTD/sodipodi-0.dtd"
   xmlns:inkscape="http://www.inkscape.org/namespaces/inkscape"
   width="102.2911mm"
   height="88.036049mm"
   viewBox="0 0 362.44878 311.93875"
   id="svg4417"
   version="1.1"
   inkscape:version="0.91 r13725"
   sodipodi:docname="medium.svg">
  <defs
     id="defs4419" />
  <sodipodi:namedview
     id="base"
     pagecolor="#ffffff"
     bordercolor="#666666"
     borderopacity="1.0"
     inkscape:pageopacity="0.0"
     inkscape:pageshadow="2"
     inkscape:zoom="0.49497475"
     inkscape:cx="-203.19813"
     inkscape:cy="212.73324"
     inkscape:document-units="px"
     inkscape:current-layer="layer1"
     showgrid="false"
     fit-margin-top="0"
     fit-margin-left="0"
     fit-margin-right="0"
     fit-margin-bottom="0"
     inkscape:window-width="1366"
     inkscape:window-height="705"
     inkscape:window-x="-8"
     inkscape:window-y="-8"
     inkscape:window-maximized="1" />
  <metadata
     id="metadata4422">
    <rdf:RDF>
      <cc:Work
         rdf:about="">
        <dc:format>image/svg+xml</dc:format>
        <dc:type
           rdf:resource="http://purl.org/dc/dcmitype/StillImage" />
        <dc:title></dc:title>
      </cc:Work>
    </rdf:RDF>
  </metadata>
  <g
     inkscape:label="Layer 1"
     inkscape:groupmode="layer"
     id="layer1"
     transform="translate(-195.91847,-384.96426)">
    <path
       id="path110"
       style="fill:#ffffff;fill-opacity:1;fill-rule:nonzero;stroke:none"
       d="m 555.71974,442.78176 -114.815,-57.4075 c -0.52125,-0.26125 -1.08875,-0.3825 -1.65625,-0.3975 -0.0375,-0.001 -0.0737,-0.0125 -0.11125,-0.0125 -1.39625,0 -2.78625,0.70125 -3.53875,1.9225 l -70.7675,114.99875 78.9975,128.3725 112.9925,-183.6125 c 0.8375,-1.3625 0.32875,-3.14875 -1.10125,-3.86375"
       inkscape:connector-curvature="0" />
    <path
       id="path112"
       style="fill:#ffffff;fill-opacity:1;fill-rule:nonzero;stroke:none"
       d="m 327.41724,461.46426 0,123.91005 110.1425,55.0712 -110.1425,-178.98125"
       inkscape:connector-curvature="0" />
    <path
       id="path114"
       style="fill:#ffffff;fill-opacity:1;fill-rule:nonzero;stroke:none"
       d="m 447.18224,645.18281 101.14875,50.5737 c 5.52,2.7603 10.03625,-0.031 10.03625,-6.2036 l 0,-225.0449 -111.185,180.6748"
       inkscape:connector-curvature="0" />
    <path
       id="path116"
       style="fill:#ffffff;fill-opacity:1;fill-rule:nonzero;stroke:none"
       d="m 315.24899,443.36676 -105.94825,-52.975 -6.69135,-3.345 c -0.96386,-0.4825 -1.88232,-0.71 -2.71289,-0.71 -1.18116,0 -2.18213,0.465 -2.88526,1.31375 -0.68945,0.83 -1.09277,2.03 -1.09277,3.53125 l 0,241.78225 c 0,4.1153 3.01075,8.9864 6.69092,10.8263 l 104.09223,52.0463 c 1.44637,0.7236 2.82424,1.0664 4.06987,1.0664 3.50737,0 5.96725,-2.7139 5.96725,-7.269 l 0,-243.85725 c 0,-1.02 -0.57663,-1.95375 -1.48975,-2.41"
       inkscape:connector-curvature="0" />
  </g>
</svg>
