<?xml version="1.0" encoding="UTF-8" standalone="no"?>
<!-- Generator: Adobe Illustrator 16.0.0, SVG Export Plug-In . SVG Version: 6.00 Build 0)  -->

<svg
   xmlns:dc="http://purl.org/dc/elements/1.1/"
   xmlns:cc="http://creativecommons.org/ns#"
   xmlns:rdf="http://www.w3.org/1999/02/22-rdf-syntax-ns#"
   xmlns:svg="http://www.w3.org/2000/svg"
   xmlns="http://www.w3.org/2000/svg"
   xmlns:sodipodi="http://sodipodi.sourceforge.net/DTD/sodipodi-0.dtd"
   xmlns:inkscape="http://www.inkscape.org/namespaces/inkscape"
   version="1.1"
   id="Layer_1"
   x="0px"
   y="0px"
   width="53.521px"
   height="44.858px"
   viewBox="-4.771 0.104 53.521 44.858"
   enable-background="new -4.771 0.104 53.521 44.858"
   xml:space="preserve"
   inkscape:version="0.91 r13725"
   sodipodi:docname="reddit.svg"><metadata
   id="metadata14"><rdf:RDF><cc:Work
       rdf:about=""><dc:format>image/svg+xml</dc:format><dc:type
         rdf:resource="http://purl.org/dc/dcmitype/StillImage" /></cc:Work></rdf:RDF></metadata><defs
   id="defs12">
	
	
</defs><sodipodi:namedview
   pagecolor="#ffffff"
   bordercolor="#666666"
   borderopacity="1"
   objecttolerance="10"
   gridtolerance="10"
   guidetolerance="10"
   inkscape:pageopacity="0"
   inkscape:pageshadow="2"
   inkscape:window-width="1366"
   inkscape:window-height="705"
   id="namedview10"
   showgrid="false"
   inkscape:zoom="10.522092"
   inkscape:cx="25.778276"
   inkscape:cy="23.272674"
   inkscape:window-x="-8"
   inkscape:window-y="-8"
   inkscape:window-maximized="1"
   inkscape:current-layer="Layer_1" />
<path
   inkscape:connector-curvature="0"
   id="path7"
   d="m 21.879,44.963 c -13.191,0 -23.922,-7.16 -23.922,-15.961 0,-0.608 0.051,-1.21 0.151,-1.801 -1.772,-1.093 -2.879,-3.039 -2.879,-5.161 0,-3.342 2.719,-6.061 6.06,-6.061 1.493,0 2.916,0.546 4.017,1.522 4.149,-2.663 9.73,-4.339 15.887,-4.455 L 25.235,0.71 26.117,0.918 c 0.007,0.001 0.014,0.003 0.021,0.005 l 9.421,2.218 c 0.763,-1.783 2.533,-3.036 4.592,-3.036 2.752,0 4.99,2.239 4.99,4.991 0,2.751 -2.238,4.99 -4.99,4.99 -2.75,0 -4.987,-2.235 -4.99,-4.984 l -8.596,-2.024 -3.273,9.99 c 5.933,0.231 11.291,1.912 15.291,4.517 1.113,-1.029 2.567,-1.605 4.108,-1.605 3.342,0 6.061,2.719 6.061,6.061 0,2.227 -1.185,4.217 -3.08,5.28 0.087,0.553 0.132,1.113 0.132,1.681 C 45.802,37.803 35.07,44.963 21.879,44.963 Z M 0.157,27.11 c -0.132,0.619 -0.2,1.25 -0.2,1.892 0,7.699 9.834,13.961 21.922,13.961 12.088,0 21.922,-6.263 21.922,-13.961 0,-0.612 -0.062,-1.215 -0.183,-1.807 C 43.606,27.171 43.596,27.147 43.586,27.122 43.54,27.003 43.519,26.88 43.519,26.76 42.85,24.133 41.025,21.748 38.389,19.826 38.289,19.79 38.195,19.737 38.108,19.668 38.052,19.624 38.004,19.575 37.96,19.522 33.953,16.767 28.228,15.04 21.879,15.04 15.594,15.04 9.918,16.733 5.917,19.441 5.884,19.479 5.847,19.515 5.807,19.549 5.718,19.624 5.619,19.681 5.516,19.72 2.823,21.643 0.951,24.044 0.256,26.694 0.254,26.822 0.227,26.953 0.172,27.078 0.167,27.089 0.163,27.1 0.157,27.11 Z m 40.097,-8.319 c 2.319,1.855 4.021,4.064 4.891,6.488 1,-0.753 1.605,-1.936 1.605,-3.239 0,-2.239 -1.821,-4.061 -4.061,-4.061 -0.891,0 -1.74,0.289 -2.435,0.812 z M 1.289,17.979 c -2.239,0 -4.06,1.822 -4.06,4.061 0,1.213 0.54,2.34 1.436,3.1 0.899,-2.405 2.618,-4.596 4.946,-6.433 C 2.936,18.238 2.129,17.979 1.289,17.979 Z M 40.15,2.104 c -1.648,0 -2.99,1.342 -2.99,2.991 0,1.649 1.342,2.99 2.99,2.99 1.648,0 2.99,-1.341 2.99,-2.99 0,-1.649 -1.341,-2.991 -2.99,-2.991 z M 21.988,39.271 c -4.005,0 -6.827,-0.875 -8.626,-2.675 -0.39,-0.391 -0.39,-1.023 0,-1.414 0.39,-0.391 1.024,-0.391 1.415,0 1.405,1.405 3.763,2.089 7.211,2.089 3.447,0 5.807,-0.684 7.214,-2.089 0.39,-0.391 1.023,-0.391 1.414,0 0.39,0.391 0.39,1.024 -0.001,1.414 -1.801,1.8 -4.622,2.675 -8.627,2.675 z"
   style="fill:#ffffff" />
<path
   id="eyes"
   fill="#FF4500"
   d="M30.097,22.35c-2.038,0-3.749,1.707-3.749,3.745c0,2.037,1.711,3.688,3.749,3.688  s3.688-1.651,3.688-3.688C33.785,24.057,32.134,22.35,30.097,22.35z M13.939,22.35c-2.036,0-3.745,1.709-3.745,3.745  s1.708,3.688,3.745,3.688s3.688-1.652,3.688-3.688S15.975,22.35,13.939,22.35z"
   style="fill:#ffffff" />
</svg>