<?xml version="1.0" encoding="UTF-8" standalone="no"?>
<svg
   xmlns:dc="http://purl.org/dc/elements/1.1/"
   xmlns:cc="http://creativecommons.org/ns#"
   xmlns:rdf="http://www.w3.org/1999/02/22-rdf-syntax-ns#"
   xmlns:svg="http://www.w3.org/2000/svg"
   xmlns="http://www.w3.org/2000/svg"
   xmlns:sodipodi="http://sodipodi.sourceforge.net/DTD/sodipodi-0.dtd"
   xmlns:inkscape="http://www.inkscape.org/namespaces/inkscape"
   viewBox="0 0 799.76398 799.91199"
   height="799.91199"
   width="799.76398"
   xml:space="preserve"
   id="svg2"
   version="1.1"
   inkscape:version="0.91 r13725"
   sodipodi:docname="telegram.svg"><sodipodi:namedview
     pagecolor="#ffffff"
     bordercolor="#666666"
     borderopacity="1"
     objecttolerance="10"
     gridtolerance="10"
     guidetolerance="10"
     inkscape:pageopacity="0"
     inkscape:pageshadow="2"
     inkscape:window-width="1366"
     inkscape:window-height="705"
     id="namedview20"
     showgrid="false"
     inkscape:zoom="0.59006492"
     inkscape:cx="327.70129"
     inkscape:cy="408.17518"
     inkscape:window-x="-8"
     inkscape:window-y="-8"
     inkscape:window-maximized="1"
     inkscape:current-layer="svg2" /><metadata
     id="metadata8"><rdf:RDF><cc:Work
         rdf:about=""><dc:format>image/svg+xml</dc:format><dc:type
           rdf:resource="http://purl.org/dc/dcmitype/StillImage" /><dc:title></dc:title></cc:Work></rdf:RDF></metadata><defs
     id="defs6"><clipPath
       id="clipPath18"
       clipPathUnits="userSpaceOnUse"><path
         id="path16"
         d="M 0,599.934 H 599.823 V 0 H 0 Z" /></clipPath></defs><g
     transform="matrix(1.3333333,0,0,-1.3333333,0,799.912)"
     id="g10"
     style="fill:#ffffff"><g
       id="g12"
       style="fill:#ffffff"><g
         clip-path="url(#clipPath18)"
         id="g14"
         style="fill:#ffffff"><g
           transform="translate(299.9627,553.3486)"
           id="g20"
           style="fill:#ffffff"><path
             id="path22"
             style="fill:#ffffff;fill-opacity:1;fill-rule:nonzero;stroke:none"
             d="m 0,0 c -139.715,0 -253.381,-113.667 -253.381,-253.382 0,-139.715 113.666,-253.381 253.381,-253.381 139.715,0 253.382,113.666 253.382,253.381 C 253.382,-113.667 139.715,0 0,0 m 0,-533.763 c -74.893,0 -145.303,29.165 -198.259,82.122 -52.957,52.956 -82.122,123.366 -82.122,198.259 0,74.893 29.165,145.303 82.122,198.26 C -145.303,-2.165 -74.893,27 0,27 c 74.893,0 145.303,-29.165 198.26,-82.122 52.957,-52.957 82.122,-123.367 82.122,-198.26 0,-74.893 -29.165,-145.303 -82.122,-198.259 C 145.303,-504.598 74.893,-533.763 0,-533.763" /></g><g
           transform="translate(362.4295,173.5151)"
           id="g24"
           style="fill:#ffffff"><path
             id="path26"
             style="fill:#ffffff;fill-opacity:1;fill-rule:nonzero;stroke:none"
             d="M 0,0 C 2.55,-0.952 4.622,-1.115 6.168,-0.48 7.934,0.244 9.17,2.001 9.695,2.872 l 46.721,235.563 c -2.123,-0.298 -4.95,-1.09 -6.799,-1.902 -0.128,-0.056 -0.258,-0.111 -0.389,-0.162 l -267.667,-105 c -0.144,-0.056 -0.289,-0.109 -0.435,-0.16 -1.253,-0.448 -2.766,-1.253 -3.822,-1.989 0.908,-0.792 2.358,-1.692 3.615,-2.183 l 67.158,-22.609 c 0.416,-0.14 0.823,-0.307 1.218,-0.497 l 40,-19.332 c 0.643,-0.312 1.253,-0.687 1.82,-1.121 z m 4.097,-21.848 c -3.896,0 -8.448,0.802 -13.57,3.036 -0.779,0.341 -1.514,0.774 -2.189,1.291 l -109.148,83.681 -38.439,18.577 -66.708,22.458 c -0.053,0.018 -0.107,0.036 -0.16,0.056 -1.683,0.597 -16.489,6.236 -18.242,20.259 -1.507,12.057 8.942,20.161 18.448,23.488 L 41.378,255.85 c 4.377,1.893 18.331,7.014 28.324,0.49 3.059,-1.997 8.192,-6.8 8.192,-16.528 0,-0.686 -0.068,-1.37 -0.201,-2.043 L 30.026,-2.564 C 29.9,-3.199 29.716,-3.82 29.476,-4.421 29.025,-5.547 24.768,-15.547 14.14,-19.908 c -2.547,-1.046 -5.93,-1.94 -10.043,-1.94" /></g><g
           transform="translate(289.3329,216.3257)"
           id="g28"
           style="fill:#ffffff"><path
             id="path30"
             style="fill:#ffffff;fill-opacity:1;fill-rule:nonzero;stroke:none"
             d="m 0,0 -43.51,-39.67 c 0,-1.284 -7.122,-1.284 -7.122,0 l 8.331,72.723 0.458,1.283 c 0,0 122,109.665 127,114.332 5,4.667 3.333,5.667 3.333,5.667 0.333,5.666 -9,0 -9,0 L -82.177,51.668 c 0,0 20.334,-66.666 24.334,-79.332 4,-12.668 6.355,-12.438 7.211,-12.438" /></g><g
           transform="translate(219.5315,263.4146)"
           id="g32"
           style="fill:#ffffff"><path
             id="path34"
             style="fill:#ffffff;fill-opacity:1;fill-rule:nonzero;stroke:none"
             d="m 0,0 c 3.069,-10.053 8.641,-28.293 13.488,-44.1 l 3.581,31.259 c 0.091,0.795 0.273,1.577 0.541,2.331 l 0.458,1.283 c 0.586,1.644 1.573,3.117 2.87,4.283 18.76,16.862 45.163,40.603 69.037,62.083 z m 22.73,-98.222 c -1.943,0 -3.637,0.221 -5.109,0.609 -8.995,0.953 -12.807,10.612 -15.676,19.699 -3.969,12.57 -23.533,76.706 -24.364,79.43 -1.377,4.516 0.429,9.396 4.415,11.926 L 143.663,116.11 c 0.059,0.038 0.119,0.076 0.18,0.112 5.158,3.132 12.643,6.06 19.003,2.229 3.149,-1.896 5.192,-5.033 5.779,-8.713 0.175,-0.62 0.3,-1.258 0.369,-1.908 0.64,-6.061 -3.336,-10.626 -6.871,-13.926 C 157.459,89.55 55.79,-1.853 37.591,-18.213 l -5.633,-49.171 30.769,28.054 c 4.285,3.908 10.927,3.6 14.834,-0.685 3.906,-4.285 3.6,-10.926 -0.685,-14.833 L 34.25,-93.712 c -2.088,-2.513 -5.676,-4.51 -11.52,-4.51" /></g><g
           transform="translate(289.3255,205.8257)"
           id="g36"
           style="fill:#ffffff"><path
             id="path38"
             style="fill:#ffffff;fill-opacity:1;fill-rule:nonzero;stroke:none"
             d="m 0,0 c -2.261,0 -4.538,0.727 -6.458,2.227 l -42.3,33.052 c -4.57,3.571 -5.38,10.169 -1.809,14.739 3.57,4.568 10.169,5.378 14.738,1.808 L 6.472,18.773 C 11.042,15.203 11.852,8.604 8.281,4.035 6.21,1.386 3.121,0 0,0" /></g></g></g></g></svg>