<svg xmlns="http://www.w3.org/2000/svg" viewBox="0 0 75 75"><defs><style>.a,.c{fill:none;stroke-linecap:round;stroke-miterlimit:10;stroke-width:2px;}.a{stroke:#010101;}.b{fill:#fff;}.c{stroke:#1d1d1b;}.d{fill:#1d1d1b;}</style></defs><title>token_use_modified</title><path class="a" d="M60.6,52H13.4A2.4,2.4,0,0,1,11,49.6V23.8a2.4,2.4,0,0,1,2.4-2.4H60.5a2.4,2.4,0,0,1,2.4,2.4V49.5A2.3,2.3,0,0,1,60.6,52Z"/><circle cx="54.2" cy="31.9" r="5.5"/><path class="b" d="M55.3,32.1a1.2,1.2,0,0,0,.7.3,1,1,0,0,0,1-1,.9.9,0,0,0-1-1l-.7.3V29.6l1-.2a2.1,2.1,0,0,1,2.2,2.1,2.1,2.1,0,0,1-2.2,2.2l-.9-.2Z"/><path class="b" d="M51.9,33.6a1.5,1.5,0,0,0,1.3-.6h0v2.3h0v2h1.4V29.5H53.2v2c0,.5-.2.9-.7.9s-.6-.5-.6-.9V26.9a5.5,5.5,0,0,0-1.4,1v4C50.4,32.9,50.9,33.6,51.9,33.6Z"/><line class="c" x1="24.9" y1="43.4" x2="18" y2="43.4"/><line class="c" x1="35.9" y1="43.4" x2="28.9" y2="43.4"/><line class="c" x1="46.8" y1="43.4" x2="39.9" y2="43.4"/><line class="c" x1="57.8" y1="43.4" x2="50.8" y2="43.4"/><rect class="d" x="17" y="29.2" width="8" height="5.33" rx="1.1" ry="1.1"/></svg>