<svg xmlns="http://www.w3.org/2000/svg" viewBox="0 0 75 75"><defs><style>.a,.c{fill:none;stroke-linecap:round;stroke-miterlimit:10;stroke-width:2px;}.a{stroke:#010101;}.b{opacity:0.5;isolation:isolate;}.c{stroke:#e84146;}</style></defs><title>token_use_modified</title><path class="a" d="M66,33.6C52,45.9,41.3,50.3,24.4,51.9c-4.4.2-10.9.3-16.4-1.1"/><g class="b"><polyline class="a" points="7.5 63.5 8.6 63.5 9.7 63.5 10.9 63.5 12 63.5 13.1 63.5 14.2 63.5 15.3 63.5 16.5 63.5 17.6 63.5 18.7 63.5 19.8 63.5 21 63.5 22.1 63.5 23.2 63.5 24.3 63.5 25.4 63.5 26.6 63.5 27.7 63.5 28.8 63.5 29.9 63.5 31 63.5 32.1 63.5 33.3 63.5 34.4 63.5 35.5 63.5 36.6 63.5 37.8 63.5 38.9 63.5 40 63.5 41.1 63.5 42.2 63.5 43.4 63.5 44.5 63.5 45.6 63.5 46.7 63.5 47.9 63.5 49 63.5 50.1 63.5 51.2 63.5 52.4 63.5 53.5 63.5 54.6 63.5 55.7 63.5 56.9 63.5 58 63.5 59.1 63.5 60.2 63.5 61.4 63.5 62.5 63.5 63.6 63.5 64.7 63.5 65.9 63.5 67 63.5"/></g><path class="c" d="M66,11A65.3,65.3,0,0,1,24.3,44.6,64.6,64.6,0,0,1,8,46.6"/></svg>