<svg xmlns="http://www.w3.org/2000/svg" viewBox="0 0 75 75"><defs><style>.a{fill:#e84146;opacity:0.5;}.b{fill:#1d1d1b;}.c{fill:#e73936;}.d{fill:#fff;stroke:#fff;stroke-width:0.5px;}</style></defs><title>token_use_modified</title><path class="a" d="M55.3,56.1A7.8,7.8,0,0,0,52,55,21.9,21.9,0,0,0,24.7,20.8a6.4,6.4,0,0,1-5.6-.3.9.9,0,0,0-.9,1.6,8.2,8.2,0,0,0,3.8,1A21.9,21.9,0,0,0,48.5,57.5h.3a6,6,0,0,1,5.6.3.9.9,0,1,0,.9-1.6ZM17.8,38.4a19.9,19.9,0,0,1,6.1-14.3,7.8,7.8,0,0,0,1.6,4.4.9.9,0,1,0,1.5-1.1,5.9,5.9,0,0,1-1.1-5A19.9,19.9,0,0,1,49.6,54.3a8.3,8.3,0,0,0-1.5-4.7.9.9,0,1,0-1.5,1.1,6.4,6.4,0,0,1,1.1,4.9A19.9,19.9,0,0,1,17.8,38.4Z"/><path class="b" d="M63.3,30.7a3.2,3.2,0,0,0-2.3-1c-1,0-1.6.4-1.6,1.3S65,32.8,65,36.8a3.9,3.9,0,0,1-3.3,4V43h-2V40.9A6.9,6.9,0,0,1,56,39.3l1.3-2.1a5,5,0,0,0,3,1.2c1.2,0,1.7-.5,1.7-1.4s-5.5-2.1-5.5-5.9a3.7,3.7,0,0,1,3.2-3.9V25.1h2v2.1a5.2,5.2,0,0,1,3.1,1.7Z"/><circle class="c" cx="24.3" cy="51.3" r="12.3"/><path class="d" d="M26.8,51.8a2.8,2.8,0,0,0,1.6.6,2.1,2.1,0,0,0,2.2-2.2,2.1,2.1,0,0,0-2.2-2.2,2.4,2.4,0,0,0-1.6.6V46.1a4.9,4.9,0,0,1,2.2-.5,4.7,4.7,0,0,1,4.8,4.6,4.8,4.8,0,0,1-5,4.8,4.2,4.2,0,0,1-2.1-.5Z"/><path class="d" d="M19.3,55.1a3.3,3.3,0,0,0,2.8-1.4h0v5.2h0v4.5l2.2.2h1V45.9H22.1v4.5c0,1-.4,2.1-1.6,2.1s-1.4-1.1-1.4-2.1V40.2a12.4,12.4,0,0,0-3.1,2.1v9C15.9,53.6,17,55.1,19.3,55.1Z"/><polygon class="b" points="43.5 10 43.4 10.5 43.4 23.6 43.5 23.7 49.6 20.1 43.5 10"/><polygon class="b" points="43.5 10 37.4 20.1 43.5 23.7 43.5 17.4 43.5 10"/><polygon class="b" points="43.5 24.9 43.4 25 43.4 29.6 43.5 29.8 49.6 21.3 43.5 24.9"/><polygon class="b" points="43.5 29.8 43.5 24.9 37.4 21.3 43.5 29.8"/><polygon class="b" points="43.5 23.7 49.6 20.1 43.5 17.4 43.5 23.7"/><polygon class="b" points="37.4 20.1 43.5 23.7 43.5 17.4 37.4 20.1"/></svg>