<svg xmlns="http://www.w3.org/2000/svg" viewBox="0 0 75 75"><defs><style>.a,.b{fill:none;stroke-linecap:round;stroke-miterlimit:10;stroke-width:2px;}.a{stroke:#e84146;}.b{stroke:#010101;}</style></defs><title>token_use_modified</title><path class="a" d="M38,27.4v.8A8.2,8.2,0,0,1,33.8,32H28a8,8,0,0,1,1.5-15.4,8.1,8.1,0,0,0,8,7.4h1.2A8.4,8.4,0,0,0,38,27.4Z"/><path class="a" d="M38.7,24c0-.1.1-.2.1-.3"/><path class="a" d="M38.7,24c0-.1.1-.2.1-.3"/><path class="a" d="M38.7,24H37.5a8.1,8.1,0,0,1-8-7.4v-.6a8,8,0,0,1,16,0,7.7,7.7,0,0,1-.8,3.4"/><path class="b" d="M47.7,35.2,38,67.5,27.2,32H39.4a8.1,8.1,0,0,0,6.5,3.4A5,5,0,0,0,47.7,35.2Z"/><path class="b" d="M47,37.6,32,46"/><path class="a" d="M38.9,23.7a7.9,7.9,0,0,1,5.9-4.2H46a8,8,0,0,1,1.7,15.8l-1.8.2A7.7,7.7,0,0,1,39.4,32,7.3,7.3,0,0,1,38,28.2v-.8a7.7,7.7,0,0,1,.8-3.4"/></svg>