<svg xmlns="http://www.w3.org/2000/svg" width="160" height="33" viewBox="0 0 160 33">
    <path fill="#FFF" fill-rule="evenodd" d="M160 11.58h-1.462V8.439h-2.982v3.143h-1.466V4.017h1.466V7.27h2.982V4.017H160v7.564zM147.911 7.67h1.446c.41 0 .719-.115.93-.345.211-.231.316-.525.316-.88 0-.365-.105-.665-.314-.902-.209-.237-.52-.356-.932-.356h-1.446V7.67zm0 1.17v2.742h-1.465V4.017h2.911c.84 0 1.502.222 1.984.665.482.444.724 1.027.724 1.75 0 .725-.242 1.306-.724 1.746-.482.44-1.143.66-1.984.66h-1.446zm-7.277-.08h1.843l-.905-2.97h-.03l-.908 2.97zm2.204 1.19h-2.565l-.498 1.632h-1.481l2.515-7.564h1.501l2.507 7.564h-1.482l-.497-1.632zm-10.2-2.56h1.264c.412 0 .72-.09.922-.27.203-.18.304-.448.304-.8 0-.347-.101-.622-.304-.826-.202-.205-.501-.307-.896-.307h-1.29V7.39zm0 1.168v3.024h-1.467V4.017h2.757c.833 0 1.485.197 1.956.59.47.393.705.94.705 1.644 0 .391-.099.727-.296 1.008-.198.28-.487.507-.869.68.432.132.742.352.932.66.189.308.283.69.283 1.143v.556c0 .21.028.432.083.662.056.23.15.4.283.511v.11h-1.51c-.134-.111-.222-.296-.262-.556a4.985 4.985 0 0 1-.06-.738v-.535c0-.377-.1-.671-.299-.88-.2-.21-.48-.315-.84-.315h-1.397zm-3.674 1.99c-.218.298-.556.563-1.016.795-.461.232-1.042.348-1.746.348-.893 0-1.623-.288-2.189-.863-.566-.574-.848-1.32-.848-2.238v-1.58c0-.914.27-1.66.816-2.236.544-.577 1.244-.865 2.1-.865.89 0 1.573.224 2.048.673.472.449.715 1.038.725 1.768l-.01.032h-1.381c-.028-.402-.151-.72-.372-.954-.22-.233-.544-.35-.969-.35-.449 0-.81.179-1.085.537-.275.358-.412.82-.412 1.384v1.587c0 .575.143 1.04.428 1.399.283.358.667.537 1.149.537.341 0 .616-.036.824-.11.207-.072.365-.161.471-.268V8.744h-1.295V7.695h2.762v2.852zm-7.971-2.291h-3.028v2.156h3.54v1.169h-5.006V4.017h4.996v1.17h-3.53v1.9h3.028v1.169zm-9.538 2.156h3.255v1.169h-4.721V4.017h1.466v6.395zm-3.824-2.156h-3.028v2.156h3.54v1.169h-5.006V4.017h4.997v1.17h-3.53v1.9h3.027v1.169zm-6.258-3.07h-2.069v6.395h-1.466V5.186h-2.059V4.017h5.594v1.17zm-7.369 6.395h-1.461L89.59 6.41l-.03.006v5.164h-1.465V4.017h1.465l2.953 5.164.03-.005V4.017h1.461v7.564zm-9.783 0h1.465V4.017h-1.465v7.564zm-3.648-4.469c0-.59-.143-1.074-.428-1.452-.284-.379-.676-.568-1.174-.568-.499 0-.886.189-1.16.565-.275.376-.412.862-.412 1.455v1.374c0 .6.14 1.09.417 1.468.278.378.664.567 1.16.567.502 0 .893-.19 1.175-.567.281-.378.422-.867.422-1.468V7.112zm1.466 1.367c0 .928-.285 1.696-.852 2.302-.566.605-1.305.909-2.212.909-.9 0-1.631-.304-2.194-.91-.563-.605-.844-1.373-.844-2.3V7.118c0-.925.28-1.692.842-2.299.56-.608 1.291-.912 2.192-.912.907 0 1.645.304 2.214.912.569.607.854 1.374.854 2.299v1.36zm-7.882.525l.01.031c.014.814-.226 1.46-.72 1.938-.494.477-1.18.717-2.056.717-.881 0-1.596-.293-2.145-.878-.549-.585-.824-1.339-.824-2.26v-1.5c0-.92.269-1.672.804-2.261.536-.589 1.232-.883 2.09-.883.903 0 1.61.24 2.118.72.509.48.757 1.133.743 1.96l-.01.032h-1.426c0-.499-.116-.88-.347-1.146-.23-.264-.59-.397-1.079-.397-.438 0-.786.184-1.044.553-.258.369-.387.837-.387 1.409v1.51c0 .578.135 1.05.407 1.419.271.369.638.553 1.1.553.458 0 .798-.127 1.017-.382.219-.254.329-.633.329-1.135h1.42zm-11.383-.748h-3.027v2.156h3.54v1.169h-5.006V4.017h4.996v1.17h-3.53v1.9h3.027v1.169zm-6.81 3.325h-1.462V8.438H51.52v3.143h-1.466V4.017h1.466V7.27h2.983V4.017h1.461v7.564zm-7.675-6.395h-2.07v6.395h-1.466V5.186h-2.058V4.017h5.594v1.17zM22.873 17.288l6.383-2.128-7.979 10.638 1.064-4.255-5.851 3.192 3.724-14.363H13.83l1.064-5.319h19.15l-1.065 5.32h-7.446l-2.66 6.915zm-12.102 9.308c-5.352 0-9.707-2.863-9.707-6.383v-1.05c1.737 2.504 5.43 4.242 9.707 4.242 1.754 0 3.407-.295 4.87-.81l-.993 3.73.079-.298a13.92 13.92 0 0 1-3.956.57zM1.064 14.908c1.737 2.503 5.43 4.241 9.707 4.241 2.29 0 4.403-.506 6.15-1.35l.369-1.385c-1.725 1.033-4.007 1.672-6.519 1.672-5.352 0-9.707-2.864-9.707-6.384v-1.05c1.737 2.504 5.43 4.242 9.707 4.242 2.908 0 5.546-.805 7.486-2.104l.36-1.354-2.64 9.9c-1.505.633-3.289 1.005-5.206 1.005-5.352 0-9.707-2.863-9.707-6.383v-1.05zM10.77 1.064c3.415 0 6.412 1.168 8.142 2.925H13.83l-1.596 7.447h6.087c-1.78 1.454-4.496 2.394-7.55 2.394-5.352 0-9.707-2.864-9.707-6.383 0-3.52 4.355-6.383 9.707-6.383zm23.273 10.372l1.595-7.447H20.305C18.5 1.62 14.906 0 10.77 0 4.832 0 0 3.34 0 7.447v13.032h.02c.205 3.983 4.942 7.18 10.751 7.18 1.278 0 2.501-.158 3.639-.442l-.048.177 5.888-3.06-2.164 8.379L32.979 12.5 25 15.16l1.596-3.724h7.448zm76.953 13.95l.056.28h.027l.968-3.216h1.469l-2.053 5.816a2.686 2.686 0 0 1-.584.914c-.247.248-.616.372-1.108.372-.116 0-.223-.01-.32-.029a5.876 5.876 0 0 1-.358-.079l.159-.995.13.018a.965.965 0 0 0 .127.01c.224 0 .397-.056.519-.167.121-.11.215-.248.28-.413l.16-.393-1.796-5.054h1.468l.856 2.936zm-4.895-1.977a.712.712 0 0 0-.6.29c-.145.193-.236.446-.27.762l.014.023h1.674v-.122c0-.289-.068-.52-.204-.694-.135-.173-.34-.26-.614-.26zm.12 4.198c-.728 0-1.31-.234-1.748-.701-.436-.468-.654-1.062-.654-1.781v-.187c0-.752.206-1.37.62-1.856.412-.487.966-.729 1.662-.725.682 0 1.212.206 1.59.617.376.411.565.968.565 1.669v.743h-3.02l-.01.028c.025.333.136.605.335.82.197.214.467.321.806.321.303 0 .553-.03.753-.091.199-.06.417-.157.654-.288l.37.844c-.206.169-.476.31-.81.42a3.504 3.504 0 0 1-1.112.167zm-6.585-5.157l.06.725c.169-.259.375-.46.622-.603.246-.143.522-.215.827-.215.512 0 .91.16 1.197.481.287.322.43.825.43 1.51v3.16h-1.37v-3.162c0-.34-.068-.582-.205-.724-.138-.142-.344-.213-.622-.213-.18 0-.343.037-.486.11a1.013 1.013 0 0 0-.36.311v3.679h-1.365V22.45h1.272zm-5.695 2.579c0 .46.081.83.243 1.109.162.278.424.417.785.417.352 0 .61-.14.775-.42.162-.28.245-.65.245-1.106v-.099c0-.448-.083-.813-.248-1.096-.165-.283-.425-.425-.78-.425-.353 0-.61.142-.775.427-.163.284-.245.65-.245 1.094v.099zm-1.36-.096c0-.754.21-1.372.63-1.854.421-.481 1.004-.722 1.75-.722.747 0 1.333.24 1.757.72.424.48.635 1.098.635 1.856v.098c0 .76-.21 1.38-.633 1.858-.422.479-1.006.718-1.75.718-.75 0-1.333-.24-1.756-.718-.423-.478-.633-1.098-.633-1.858v-.098zm-7-2.483l.056.669c.163-.243.366-.431.611-.564.244-.132.527-.198.849-.198.324 0 .6.072.831.215.231.143.406.36.524.65.156-.272.359-.483.608-.636.25-.153.542-.23.88-.23.498 0 .891.173 1.18.517.287.345.432.869.432 1.574v3.062h-1.365v-3.074c0-.384-.062-.651-.187-.802-.125-.15-.31-.224-.557-.224a.948.948 0 0 0-.502.128.933.933 0 0 0-.34.36c0 .058.003.11.005.152.004.041.005.085.005.128v3.332h-1.36v-3.074c0-.375-.062-.64-.188-.795-.123-.154-.31-.231-.56-.231-.184 0-.345.035-.485.105a.926.926 0 0 0-.343.298v3.697h-1.36V22.45h1.267zm-7.1 5.059v-4.1h-.753v-.959h.752v-.56c0-.568.165-1.005.492-1.312.326-.307.786-.46 1.379-.46.115 0 .232.008.353.025.12.017.252.041.395.073l-.117 1.014a11.189 11.189 0 0 0-.218-.033 1.926 1.926 0 0 0-.245-.014c-.22 0-.39.062-.503.183-.114.121-.17.296-.17.523v.561h1.005v.959h-1.005v4.1h-1.366zm-4.802-2.48c0 .46.081.83.243 1.109.163.278.424.417.786.417.352 0 .61-.14.774-.42.163-.28.245-.65.245-1.106v-.099c0-.448-.083-.813-.248-1.096-.165-.283-.425-.425-.78-.425-.353 0-.61.142-.774.427-.164.284-.246.65-.246 1.094v.099zm-1.36-.096c0-.754.21-1.372.631-1.854.42-.481 1.004-.722 1.749-.722.748 0 1.333.24 1.757.72.424.48.636 1.098.636 1.856v.098c0 .76-.21 1.38-.634 1.858-.421.479-1.005.718-1.75.718-.749 0-1.333-.24-1.756-.718-.422-.478-.633-1.098-.633-1.858v-.098zm-5.507-1.524a.71.71 0 0 0-.598.29c-.147.193-.237.446-.271.762l.013.023h1.674v-.122c0-.289-.067-.52-.204-.694-.134-.173-.34-.26-.614-.26zm.122 4.198c-.73 0-1.313-.234-1.749-.701-.436-.468-.654-1.062-.654-1.781v-.187c0-.752.206-1.37.62-1.856.412-.487.966-.729 1.661-.725.683 0 1.213.206 1.59.617.377.411.565.968.565 1.669v.743h-3.02l-.01.028c.026.333.136.605.335.82.198.214.466.321.807.321.302 0 .553-.03.752-.091.2-.06.418-.157.655-.288l.369.844c-.206.169-.475.31-.809.42a3.497 3.497 0 0 1-1.112.167zm-3.124-3.983l-.499-.014a.907.907 0 0 0-.5.126.8.8 0 0 0-.3.355v3.418h-1.36V22.45h1.267l.06.749c.12-.265.272-.472.462-.62.187-.148.406-.222.651-.222.07 0 .132.005.19.017.057.01.116.023.175.04l-.146 1.21zm-5.165 3.156a1.702 1.702 0 0 1-.594.612c-.24.143-.515.215-.827.215-.534 0-.95-.17-1.25-.512-.302-.34-.452-.872-.452-1.592V22.45h1.361v3.07c0 .368.061.633.187.794.124.16.308.241.551.241.219 0 .405-.035.562-.105a.952.952 0 0 0 .382-.312V22.45h1.366v5.059h-1.164l-.122-.73zm-5.002-5.569v1.24h.85v.958h-.85v2.576c0 .196.04.336.12.42.082.085.191.126.329.126.071 0 .133-.003.184-.01.052-.009.112-.022.18-.041l.117.986a2.462 2.462 0 0 1-.827.14c-.471.001-.834-.128-1.088-.387-.253-.259-.38-.669-.38-1.23v-2.58h-.739v-.959h.738v-1.239h1.366zm-4.127 5.569a1.708 1.708 0 0 1-.595.612c-.24.143-.516.215-.827.215-.533 0-.95-.17-1.25-.512-.302-.34-.452-.872-.452-1.592V22.45h1.36v3.07c0 .368.063.633.187.794.125.16.309.241.553.241.217 0 .404-.035.56-.105a.95.95 0 0 0 .384-.312V22.45H50.8v5.059h-1.163l-.121-.73zm-6.35.729v-4.1h-.752v-.959h.752v-.56c0-.568.164-1.005.491-1.312.327-.307.787-.46 1.38-.46.115 0 .232.008.353.025.12.017.25.041.394.073l-.117 1.014a10.39 10.39 0 0 0-.217-.033 1.945 1.945 0 0 0-.245-.014c-.222 0-.39.062-.503.183-.114.121-.17.296-.17.523v.561h1.004v.959h-1.004v4.1h-1.366z"/>
</svg>
