<?xml version="1.0" encoding="utf-8"?>
<!-- Generator: Adobe Illustrator 21.1.0, SVG Export Plug-In . SVG Version: 6.00 Build 0)  -->
<svg version="1.1" id="Layer_1" xmlns="http://www.w3.org/2000/svg" xmlns:xlink="http://www.w3.org/1999/xlink" x="0px" y="0px"
	 width="91.8px" height="20px" viewBox="0 0 91.8 20" style="enable-background:new 0 0 91.8 20;" xml:space="preserve">
<style type="text/css">
	.st0{fill:#FFFFFF;}
</style>
<path class="st0" d="M47.3,9c-0.1-0.3-0.3-0.6-0.5-0.8c-0.9-1-2.4-1-3.4,0c0-0.7-0.5-0.6-1-0.6h-0.3v11.1l1.4,0c0-1.2,0-2.4,0-3.5
	c0.2,0.1,0.5,0.2,0.7,0.3c1.3,0.3,2.7-0.5,3-1.8C47.4,12.1,47.4,10.5,47.3,9z M46,13.2c-0.2,1.1-2.1,1.3-2.3,0.1
	c-0.1-1.1,0-2.2,0-3.2c0-0.4,0.1-0.7,0.5-0.9c0.2-0.2,0.5-0.2,0.7-0.2c0.5,0,0.9,0.2,1.2,0.6C46,10.7,46.1,11.9,46,13.2z M34.7,7.9
	c-0.2,0.4-0.3,0.9-0.5,1.3c-0.6-0.5-1.5-0.3-2,0.3c0,0,0,0.1-0.1,0.1c0,1.9,0,3.9,0,5.8l-1.4,0c0-2.6,0-5.2,0-7.8c0.2,0,0.3,0,0.5,0
	c0.4,0,0.9-0.1,0.8,0.6C32.7,7.4,33.9,7.3,34.7,7.9z M85.3,10c-0.1-1-0.7-2-1.7-2.3c-1-0.3-2.1-0.1-2.9,0.6c0.2,0.4,0.5,0.9,0.7,1.3
	c0.5-0.3,0.9-0.7,1.5-0.6c0.7,0.1,1,0.9,1.1,1.4c-0.5-0.3-1-0.5-1.5-0.5c-1.4,0.1-2.4,1.2-2.4,2.6c0,0.1,0,0.2,0,0.2
	c-0.1,1.5,1.1,2.7,2.5,2.8c0.4,0,0.8-0.1,1.2-0.4c0.5,0.2,1,0.3,1.5,0.3C85.3,13.6,85.3,11.8,85.3,10z M82.5,14.2
	c-0.3,0-0.6-0.1-0.7-0.3c-0.6-0.6-0.5-1.7,0.1-2.2c0.2-0.2,0.5-0.3,0.7-0.3h0c0,0,0.1,0,0.1,0c0.6,0,1.3,0.7,1.1,1.7
	C83.9,13.7,83.5,14.2,82.5,14.2z M40.7,7.6c0,2.8,0,5.6,0,8.4c0,1.2-0.8,2.2-2,2.5c-0.2,0.1-0.4,0.1-0.6,0.1c-0.9-0.1-1.7-0.4-2.3-1
	v0c0.3-0.3,0.6-0.7,0.9-1c0.6,0.3,1.4,0.9,2.1,0.3c0.6-0.4,0.4-1.3,0.5-1.9c-1.1,0.8-2.6,0.5-3.4-0.6c-0.2-0.3-0.3-0.5-0.4-0.8
	c-0.1-2-0.2-4-0.1-6c0.5,0,0.9,0,1.4,0c0,1.9,0,3.8,0,5.7c0.3,0.7,1.1,1,1.8,0.7c0.2-0.1,0.4-0.3,0.6-0.5c0.1-2,0-3.9,0.1-5.9
	C39.7,7.6,40.2,7.6,40.7,7.6z M88.2,10.4c0.4,0.9,1.9,0.4,2.7,0.9c1.5,1,0.9,3.6-0.9,4.1c-0.3,0.1-0.6,0.2-0.8,0.2
	c-1.1-0.1-2.1-0.7-2.8-1.7v0c0.4-0.2,0.8-0.4,1.3-0.7c0.5,0.6,1.5,1.3,2.3,0.6c0.7-0.5,0.4-1.5-0.2-1.7c-0.9-0.2-1.7-0.1-2.3-0.8
	c-1-1-0.9-2.6,0.2-3.4c0.2-0.1,0.4-0.3,0.6-0.3c1-0.3,2.1-0.2,2.9,0.9c0.2,0.3,0.3,0.4,0.3,0.5l0,0c-0.3,0.4-0.5,0.5-0.8,0.8
	c-0.5-0.4-1-1.1-1.7-0.9C88.3,9.1,87.9,9.8,88.2,10.4z M18,12.1c-1.2-0.8-2.4-1.6-3.6-2.4c-0.1-1.2,0-2.3,0.4-3.4l3.6-6
	c-0.6,0.2-1.2,0.3-1.8,0.5c-1.4,0.4-2.9,0.9-4.3,1.3c-0.8,1.2-1.5,2.4-2.3,3.6C8.7,5.8,7.3,5.6,6.2,5C4.3,3.9,2.4,2.6,0.6,1.4L2,6.6
	C2.1,7,2.2,7.4,2.4,7.8C3.6,8.5,4.8,9.3,6,10.1c0.2,1.3-0.1,2.6-0.7,3.8c-1.2,1.9-2.4,3.8-3.7,5.6c0,0,0,0.1,0.1,0.1l0.5-0.2
	l0.6-0.2l3.8-1.1l0.2-0.1C7.2,18,7.6,17.8,8,17.7c0.7-1.2,1.5-2.4,2.4-3.5c1.4-0.3,2.9,0,4.1,0.8c1.8,1.2,3.7,2.4,5.5,3.6
	C19.3,16.4,18.6,14.2,18,12.1z M11.3,10c0,0,0,0.1,0,0.2c0,0.1-0.1,0.3-0.2,0.4c0,0-0.1,0.1-0.1,0.1c-0.1,0.1-0.1,0.1-0.2,0.2
	c-0.1,0.1-0.2,0.1-0.3,0.2c-0.1,0-0.1,0-0.2,0c-0.1,0-0.1,0-0.2,0h0C9.5,11,9,10.5,9,9.9v0c0-0.1,0-0.1,0-0.2c0-0.1,0-0.1,0.1-0.2
	c0,0,0,0,0,0c0.1-0.3,0.3-0.5,0.6-0.6c0.1-0.1,0.3-0.1,0.4-0.1C10.8,8.8,11.3,9.3,11.3,10C11.3,9.9,11.3,9.9,11.3,10z M24.6,6.8
	c0,1.9,0,3.8,0,5.7c0,0.9,0.8,1.6,1.7,1.6c0.4,0,0.7-0.2,1-0.4c0.4-0.4,0.6-0.9,0.7-1.5c0.5,0,0.9,0,1.4,0c0,0.8-0.2,1.5-0.7,2.1
	c-0.6,0.7-1.5,1.2-2.5,1.1c-0.9,0-1.8-0.4-2.4-1l0,0c-0.4-0.6-0.6-1.3-0.5-2c0-2,0-4.1,0-6.1c0-2.1,2.7-3.1,4.3-2.2
	c1.2,0.6,1.9,1.7,1.8,3c-0.5,0-0.9,0-1.4,0c-0.1-0.6-0.3-1.1-0.8-1.6c-0.7-0.5-1.7-0.4-2.3,0.3C24.7,6.3,24.6,6.5,24.6,6.8z
	 M66.1,14.8c-0.4,0.8-1.2,0.6-1.8,0.2c-1.1-3-2.6-6-3.1-9.2c0.2,3.2,0.1,6.4,0.1,9.6l-1.4,0c0-3.4,0-6.9,0-10.3
	c-0.2-1.1,1.6-1.4,1.9-0.4c1,2.9,2.1,5.7,3,8.6c-0.3-3-0.2-6.1-0.2-9.1h1.4C66.1,7.7,66.1,11.3,66.1,14.8z M52.1,14.1
	c0,0.4,0,0.8,0,1.3c-0.1,0-0.2,0-0.3,0c-1.5,0.1-2.7-1-2.9-2.5l0,0c0-2.8,0-5.7,0-8.5l1.3,0c0,1.1,0,2.1,0,3.2c0.5,0,1.1,0,1.6,0V9
	h-1.6c0,1.3,0,2.6,0,3.9C50.4,13.7,51.4,14,52.1,14.1z M75.8,9.7c0.1,1.9,0,3.8,0,5.7l-1.3,0c-0.1-1.8,0-3.6,0-5.3l0,0
	c-0.1-0.7-0.6-1.2-1.3-1.1c-0.5,0-0.8,0.3-1,0.8c-0.1,1.9,0,3.8,0,5.7c-0.5,0-1,0-1.4,0c0-2.6,0-5.1,0-7.7c0.5-0.1,1.3-0.3,1.3,0.5
	C73.2,6.7,75.7,7.9,75.8,9.7z M78.9,7.6c0,2.8,0,5.7,0,8.5c-0.1,1.5-1.4,2.6-2.9,2.5c0-0.5,0-0.9,0-1.4v0c0.6-0.2,1.5-0.4,1.5-1.1
	c0.1-2.8,0-5.7,0-8.5C78,7.6,78.5,7.6,78.9,7.6z M69.4,6.4c-0.3,0.2-0.6,0.4-1,0.4c-0.2,0-0.4-0.1-0.6-0.3c-0.3-0.4-0.2-0.9,0.1-1.2
	c0.3-0.2,0.6-0.3,0.9-0.1C69.4,5.3,69.3,6,69.4,6.4z M58.4,12.5c-0.1-1.4,0.4-3.1-0.7-4.3c-0.9-0.8-2.2-1-3.3-0.5
	c-2,1-1.4,3.6-1.4,5.5c0.1,1.4,1.3,2.4,2.7,2.3c0.4,0,0.9-0.1,1.2-0.3C58,14.8,58.6,13.7,58.4,12.5z M57,13.3
	c-0.3,1.3-2.6,1-2.5-0.4C54.7,11.6,54,10,55.1,9c0.2-0.1,0.4-0.1,0.6-0.1c0.5,0,1,0.3,1.2,0.8C57,10.9,57,12.1,57,13.3z M78.8,6.7
	c-0.1,0.1-0.3,0.2-0.5,0.2c-0.7,0-1.4-1.1-0.6-1.6C78.6,4.6,79.7,6,78.8,6.7z M69.1,7.6c0.1,2.6,0,5.2,0,7.8h-1.3c0-2.6,0-5.2,0-7.8
	C68.1,7.6,68.8,7.6,69.1,7.6z M11,10.7c-0.1,0.2-0.3,0.3-0.5,0.3c0.1,0,0.2-0.1,0.3-0.2C10.9,10.8,10.9,10.7,11,10.7z"/>
</svg>
