<svg xmlns="http://www.w3.org/2000/svg" width="160" height="37" viewBox="0 0 160 37">
    <path fill="#FFF" fill-rule="evenodd" d="M160 2.436V4.49h-.63V2.515c0-.67-.248-1.073-.768-1.073-.366 0-.652.266-.761.576-.03.087-.052.202-.052.317V4.49h-.63V2.4c0-.555-.249-.958-.739-.958-.403 0-.696.316-.798.634a.856.856 0 0 0-.052.31V4.49h-.63V1.946c0-.36-.006-.656-.028-.944h.563l.03.562h.021c.198-.331.528-.642 1.114-.642.482 0 .849.288 1.003.7h.014c.11-.195.25-.346.395-.454.213-.16.447-.246.784-.246.469 0 1.164.303 1.164 1.514zm-6.706-1.434h.922v.483h-.922v1.881c0 .432.124.677.483.677.169 0 .293-.021.373-.042l.03.475a1.61 1.61 0 0 1-.571.086c-.301 0-.543-.093-.696-.266-.183-.188-.249-.498-.249-.909V1.485h-.549v-.483h.549V.166l.63-.166v1.002zM56.53 30.01h-6.888c-.282-1.038.367-2.85 1.193-3.428 1.123-.784 3.124-.812 4.235-.056.935.634 1.727 2.497 1.46 3.484zm-1.452-5.357c-.85-.293-1.713-.355-2.593-.305-2.15.122-3.73 1.15-4.378 3.228-.584 1.871-.596 3.778-.108 5.663.455 1.76 1.626 2.906 3.43 3.317 1.821.416 3.638.288 5.415-.297.264-.087.547-.146.771-.41.032-.494.08-1.02-.016-1.527-.234-.056-.364.048-.508.1-1.646.604-3.331.846-5.067.464-.808-.178-1.496-.567-1.922-1.296-.344-.588-.584-1.212-.497-2.003h8.652c.07-.125.104-.163.113-.205.018-.09.029-.184.032-.276.033-.99.003-1.98-.294-2.933-.495-1.592-1.307-2.927-3.03-3.52zm65.007-12.049c.008.957-.055 1.782-.339 2.58-.334.938-1.05 1.44-1.991 1.637-.738.154-1.491.137-2.24.01-1.21-.206-1.97-.979-2.24-2.41a8.773 8.773 0 0 1 .09-3.803c.3-1.203 1.099-1.864 2.315-2.055a5.954 5.954 0 0 1 1.917.004c1.19.203 1.976.874 2.274 2.05a6.98 6.98 0 0 1 .214 1.987zm-.901-5.627c-1.553-.599-3.152-.638-4.735-.138-1.56.495-2.684 1.478-3.203 3.059a8.238 8.238 0 0 0-.397 2.8c-.03 1.05.106 2.1.504 3.104.342.865.862 1.599 1.68 2.106 1.95 1.211 4.016 1.293 6.124.54 1.29-.46 2.236-1.334 2.714-2.642.662-1.812.7-3.65.234-5.505-.401-1.591-1.368-2.725-2.921-3.324zm-23.872 7.746c-.207.874-.728 1.45-1.626 1.675a4.136 4.136 0 0 1-1.997.001c-.992-.237-1.494-.916-1.668-1.854a9.754 9.754 0 0 1 .008-3.681c.235-1.197.904-1.766 2.144-1.917.474-.057.943-.04 1.404.052.963.193 1.527.796 1.739 1.728.15.665.182 1.343.211 2.008-.036.676-.062 1.338-.215 1.988zm2.867-4.377c-.546-1.88-1.73-3.145-3.697-3.628a7.691 7.691 0 0 0-2.794-.154c-1.972.24-3.469 1.169-4.226 3.013-.811 1.976-.797 4.012-.101 6.02.479 1.383 1.444 2.364 2.837 2.905.983.383 2.014.468 3.051.396 2.09-.148 3.736-1.007 4.621-2.966.464-1.029.64-2.125.583-3.28.056-.766-.054-1.546-.274-2.306zM73.876 14.52c-.263 1.476-1.236 2.214-2.84 2.183-.545-.01-1.095-.029-1.632-.173-.113-.205-.084-.378-.084-.545a1998.09 1998.09 0 0 1 0-5.364c0-.975.302-1.335 1.266-1.519.496-.093.987-.128 1.492-.037.867.156 1.398.654 1.63 1.47.375 1.314.407 2.65.168 3.985zm-.322-7.688c-1.136-.43-2.3-.408-3.47-.242-2.346.332-3.788 2.119-3.744 4.241.078 3.899.022 7.8.025 11.701 0 .209-.057.432.13.685.888-.005 1.816.053 2.807-.04v-4.394c.967.243 1.841.234 2.715.192 2.164-.103 3.9-1.377 4.565-3.4.654-1.991.565-3.981-.154-5.944-.505-1.379-1.496-2.278-2.874-2.799zm53.732-4.314c.101.768.063 1.48.03 2.205-.48.113-1.82.117-2.308.012-.094-.708-.062-1.43-.015-2.19.782-.095 1.519-.053 2.293-.027zm-.083 4.188v11.908c-.391.132-1.574.15-2.115.03V6.702a10.272 10.272 0 0 1 2.115.005zM46.19 18.75V7.688A18.094 18.094 0 0 1 52.25 6.46c.077.874.04 1.663.025 2.482-1.054.13-2.076.127-3.11.48v9.281c-1.022.133-1.978.003-2.976.046zM85.583 34.41c-.387 1.188-1.31 1.813-2.48 2.105-1.798.448-3.538.246-5.205-.554-.056-.027-.104-.068-.201-.13-.08-.502-.034-1.029-.023-1.558.3-.024.481.106.675.2 1.45.708 2.965.814 4.521.44.635-.154 1.047-.572 1.153-1.206.12-.703-.101-1.312-.69-1.76-.7-.534-1.543-.728-2.371-.957-.812-.225-1.626-.422-2.341-.916-1.295-.893-1.361-2.57-.863-3.613.521-1.088 1.396-1.708 2.613-1.963 1.408-.297 2.727-.093 4.039.396.335.125.52.321.486.689-.029.318.06.645-.068.967-.2.048-.318-.032-.445-.091-1.189-.558-2.433-.666-3.711-.42-.865.166-1.46.802-1.497 1.556-.034.677.202 1.063.831 1.357 1.066.499 2.224.728 3.328 1.12 1.86.661 2.843 2.511 2.25 4.338zM109.29 16.33c.086.62.068 1.238.005 1.855-.378.269-.802.33-1.207.432-1.354.341-2.72.414-4.091.102-1.684-.383-2.875-1.377-3.453-2.97-.734-2.023-.742-4.087.009-6.115.642-1.734 1.973-2.696 3.783-3.028 1.611-.294 3.178-.07 4.709.47.072.025.136.07.233.122.11.63.06 1.266.039 1.98-.347-.115-.627-.195-.895-.3-1.127-.436-2.303-.459-3.474-.33-1.372.148-2.231.984-2.49 2.394-.225 1.237-.23 2.487.058 3.721.312 1.339 1.154 2.048 2.547 2.212a7.772 7.772 0 0 0 3.688-.454c.143-.053.28-.149.539-.091zM45.6 28.287c.038 2.606.013 5.212.013 7.819 0 .137.005.278-.118.44a6.239 6.239 0 0 1-1.55.003c-.169-.239-.122-.462-.122-.673-.003-2.39-.006-4.78.005-7.17a3.083 3.083 0 0 0-.296-1.296c-.407-.91-1.238-1.192-2.136-1.276a9.834 9.834 0 0 0-3.626.33c-.12.035-.241.072-.433.206v9.85c-.612.102-1.149.077-1.738.032V25.508a8.496 8.496 0 0 1 2.263-.854c1.492-.34 2.996-.48 4.514-.16 1.927.405 3.198 1.855 3.225 3.793zm106.362-12.6c-.101 1.441-1.299 2.728-2.902 3.06-1.523.315-3.022.203-4.473-.377-.677-.272-.709-.315-.697-1.022.006-.378-.067-.764.053-1.125.18-.086.294.023.416.078 1.258.562 2.568.76 3.938.547.936-.146 1.52-.744 1.458-1.515-.041-.531-.327-.91-.781-1.192-.839-.519-1.81-.68-2.722-.995-.578-.2-1.156-.386-1.638-.779-1.386-1.131-1.475-3.251-.192-4.622a3.6 3.6 0 0 1 1.74-1.043c1.58-.419 3.101-.217 4.588.39.144.06.288.126.432.307.021.535.038 1.081-.01 1.61-.258.09-.424-.022-.591-.09-1.056-.434-2.163-.489-3.279-.388-.877.08-1.408.506-1.517 1.143-.098.57.061.906.585 1.18.485.256 1.003.44 1.532.582.56.15 1.105.34 1.648.54 1.67.62 2.534 1.954 2.412 3.71zM77.694 9.094c-.068-.785-.044-1.56-.012-2.373.653-.161 1.301 0 2.025-.123V3.116c1.029-.07 1.959-.038 2.975-.027v3.56h2.864c.086.854.05 1.631.026 2.455-.93.166-1.855-.018-2.737.108-.147.168-.134.346-.134.51-.003 1.85-.051 3.701.024 5.55.033.828.307 1.075 1.16 1.126.55.032 1.09-.033 1.69-.19.03.807.035 1.553-.003 2.264-.055.058-.073.087-.098.1-1.73.966-4.434.158-5.305-1.587-.347-.694-.452-1.439-.452-2.203l-.001-4.904c0-.198.024-.4-.065-.63-.613-.202-1.287.046-1.957-.153zm63.252 9.007c0 .182.032.372-.128.58a10.93 10.93 0 0 1-2.059 0c-.179-.236-.132-.46-.132-.67-.004-2.406-.001-4.812-.005-7.218 0-.245.007-.497-.039-.737-.139-.727-.537-1.26-1.301-1.415-1.41-.288-2.799-.156-4.255.272v9.763c-.8.073-1.508.059-2.262.007V7.764c.648-.42 1.38-.65 2.113-.858 1.396-.398 2.814-.552 4.27-.35 2.254.314 3.783 1.989 3.795 4.237.013 2.437.005 4.873.003 7.31zm-104.581-.877c-.547.246-.893.73-1.471.946l-1.005-1.313c.446-.51 1.06-.764 1.514-1.247-.188-.675-.36-1.362-.402-2.07-.116-1.98.053-3.891 1.476-5.468.94-1.043 2.181-1.476 3.542-1.595a9.262 9.262 0 0 1 4.058.565c.072.027.136.073.254.137.057.756.042 1.526.005 2.38-.746-.23-1.402-.414-2.082-.5-.768-.1-1.524-.089-2.28.098-.959.236-1.565.801-1.79 1.753a8.44 8.44 0 0 0-.19 2.434c.005.09.005.188.128.265.44-.16.73-.588 1.22-.78.393.393.696.85 1.045 1.321-.521.51-1.147.842-1.693 1.329.267.357.623.56 1.025.682 1.307.4 2.599.245 3.882-.125.208-.06.403-.171.735-.148.047.762.043 1.53-.006 2.334a8.86 8.86 0 0 1-4.184.713c-1.472-.105-2.776-.6-3.781-1.711zm39.926 7.377l-3.997 11.895c-.532.119-1.043.065-1.655.05-1-2.906-1.79-5.893-2.79-8.811l-.197-.012-2.737 8.8c-.578.076-1.09.06-1.705.02L59.19 24.692c.42-.19 1.218-.212 1.827-.061l3.013 8.963.176.014 2.743-9.022c.57-.078 1.079-.06 1.634-.013.998 3.01 1.809 6.068 2.824 9.06l.176-.005 3.054-9.04a6.094 6.094 0 0 1 1.653.013zm-15.805-5.435c-.361.99-.816 1.936-1.465 2.783a4.026 4.026 0 0 1-4.632 1.29c-.071-.028-.132-.08-.231-.142-.036-.764-.061-1.538.016-2.335.443.021.808.179 1.202.184.474.006.856-.145 1.171-.483.595-.638.947-1.41 1.248-2.209.077-.2.003-.39-.07-.582-1.34-3.456-2.678-6.914-4.011-10.373-.07-.18-.19-.358-.127-.614h3.065l2.658 8.1.12.01 2.613-8.1h2.864c.07.214-.011.356-.062.496-1.45 3.993-2.9 7.986-4.359 11.975zm-39.082-1.18c0 .137-.054.167-.186.11a12.16 12.16 0 0 0-1.27-.491 10.159 10.159 0 0 0-1.827-.398c-.311-.036-.625-.05-.938-.064-.499-.022-.986.025-1.456.19-.808.284-1.373.813-1.652 1.624a5.68 5.68 0 0 0-.28 1.426c-.025.315-.044.63-.04.946.001.027 0 .054.003.081.004.064.033.079.087.043.093-.064.185-.13.278-.195.144-.08.269-.187.404-.28.201-.137.399-.279.598-.419.092-.064.141-.06.211.03.22.287.425.585.638.877.113.157.233.31.336.475.064.079.145.148.136.264-.064.107-.179.156-.276.224-.619.436-1.237.872-1.858 1.304-.068.048-.075.092-.037.162.101.182.224.349.364.505.305.287.65.511 1.047.656.281.101.57.157.865.19.252.027.503.02.755.013.164-.005.33-.002.492-.034a9.143 9.143 0 0 0 1.24-.187c.254-.045.5-.12.747-.192.24-.07.477-.153.711-.24.046-.017.09-.036.14-.011.167-.05.322-.13.483-.197l.161-.067c.063.008.048.056.048.094v2.892c0 .036-.004.074.006.11l.02-.007c.003.063-.047.077-.092.094-.527.203-1.064.38-1.61.528-.371.102-.747.19-1.128.255-.366.063-.735.11-1.106.14-.383.03-.766.019-1.148.014a7.103 7.103 0 0 1-1.048-.106 6.773 6.773 0 0 1-1.53-.42 6.818 6.818 0 0 1-1.713-1.018c-.118-.097-.207-.218-.313-.322a4.16 4.16 0 0 1-.466-.57c-.042-.06-.088-.036-.133-.004-.201.143-.405.284-.606.426a99.35 99.35 0 0 1-.471.332c-.087.061-.119.057-.178-.025l-.69-.951c-.004-.005-.002-.012 0-.02l-.016-.017a6.537 6.537 0 0 0-.353-.486c-.011-.02-.02-.043-.036-.058-.054-.052-.035-.09.019-.124.044-.11.15-.155.238-.217.404-.285.808-.567 1.212-.849.079-.053.097-.112.076-.197a8.18 8.18 0 0 1-.172-.908c-.03-.243-.052-.485-.08-.728-.019-.17.032-.334.02-.501-.003-.034.007-.068-.01-.101.002-.374 0-.748.02-1.12.05-.912.184-1.808.496-2.671a5.9 5.9 0 0 1 .962-1.75c.328-.403.732-.717 1.172-.993.6-.374 1.24-.656 1.93-.824.023-.005.046-.013.069-.02.033-.072.106-.072.167-.084.26-.055.522-.096.786-.124a8.92 8.92 0 0 1 1.24-.064 11.05 11.05 0 0 1 2.072.247c.07.014.154.011.2.085.2.052.4.104.599.159.525.143 1.037.322 1.548.511.06.023.073.056.073.114-.001.132-.008.264.004.396.04.035.048.08.048.13 0 .802.001 1.605-.002 2.406zM15.327 6.014C6.862 6.015 0 12.77 0 21.104s6.862 15.089 15.327 15.089 15.327-6.755 15.327-15.089S23.792 6.015 15.327 6.015z"/>
</svg>
