<?xml version="1.0" encoding="utf-8"?>
<!-- Generator: Adobe Illustrator 21.1.0, SVG Export Plug-In . SVG Version: 6.00 Build 0)  -->
<svg version="1.1" id="Layer_1" xmlns="http://www.w3.org/2000/svg" xmlns:xlink="http://www.w3.org/1999/xlink" x="0px" y="0px"
	 width="988.8px" height="295.8px" viewBox="0 0 988.8 295.8" style="enable-background:new 0 0 988.8 295.8;" xml:space="preserve"
	>
<style type="text/css">
	.st0{fill:#FFFFFF;}
</style>
<path class="st0" d="M84.9,239.8c-7.8,0-15.4,0-23.6,0c14.3-40.4,28.5-80.3,42.7-120.6c7.9,0,15.8,0,24,0
	c6.6,18.1,13.3,36.2,19.8,54.1c0.4,0.1,0.6,0.2,0.7,0.2c0.1,0,0.3-0.1,0.4-0.2c0.3-0.4,0.6-0.8,0.8-1.2
	c10.4-28.4,20.9-56.8,31.5-85.6c7.5-0.9,15.1-0.2,23.4-0.5c-14.9,41-29.5,81.3-44.3,122.1c-4,0-7.8,0-11.5,0c-3.8,0-7.6,0-12,0
	c-6.8-18.6-13.6-37-20.4-55.5c-0.3,0-0.6,0-0.9,0c-5.1,14.6-10.2,29.2-15.3,43.7C95,210.9,90,225.3,84.9,239.8z M189.3,138.3
	c-2.4,5.7-3,11.5-2.9,17.5c0.2,10.8,0,21.7,0,32.5c0,1.8,0,3.6,0,5.6c-18,10.4-35.7,20.6-53.5,30.9c-10.8-6.1-21.4-12.2-32.7-18.6
	c-2.7,7.7-5.1,14.7-7.7,22.2c13.5,7.8,26.9,15.5,40.3,23.2c25.7-14.9,51.1-29.5,76.3-44c0-29.7,0-59,0-88.5
	c-3.4-1.9-6.7-3.8-10.2-5.9C195.7,121.9,192.8,130.2,189.3,138.3z M132.9,101.3c10.9,5.6,20.9,12.5,32.1,18
	c2.7-7.5,5.1-14.3,7.8-21.5c-13.5-7.8-26.6-15.5-40-23.2c-25.6,14.8-50.9,29.5-76.1,44.1c0,30,0,59.4,0,88.9
	c3.6,1.7,6.3,4.6,10.6,5.3c3.2-9.2,5.9-18.3,9.4-27c2.6-6.4,2.8-12.9,2.8-19.6c-0.1-9.5,0-19,0-28.5c0-1.8,0-3.6,0-5.6
	C97.4,121.7,115.1,111.5,132.9,101.3z M437.9,101.3c8.4,22,16.5,43.3,24.7,64.4c6.7,0,12.6,0,18.7,0c3.2-8.3,6.4-16.3,9.6-24.3
	c3.1-7.9,6.3-15.8,9.8-24.5c3.6,9.1,6.8,17.1,10,25.1c3.2,8,5.9,16.2,9.6,23.7c6.4,0,12.3,0,18.5,0c4.2-11,8.2-21.7,12.3-32.4
	c4-10.6,8.4-21.1,12.1-32.2c-5.5,0-10.2,0-15.3,0c-6.3,16.8-12.5,33.5-19,51c-6.9-17.6-13.4-34.3-19.9-51c-5.7,0-11,0-16.7,0
	c-6.5,16.6-13,33.2-19.6,49.8c-0.3,0-0.6-0.1-0.9-0.1c-6.1-16.5-12.2-33-18.5-50C447.9,101,443.2,100.3,437.9,101.3z M570.1,150.5
	c-0.7,8.1,4.6,13.4,11.3,14.7c4.5,0.9,9.2,1.6,13.8,1.7c9.8,0.2,19.7,0.3,29.5,0c5.5-0.2,11-0.8,16.3-1.9
	c7.5-1.5,11.3-6.6,11.6-14.2c0.1-2.8,0.1-5.7,0-8.5c-0.2-6.6-3.6-11.6-9.9-13.4c-3.6-1.1-7.5-1.6-11.3-1.7c-8-0.3-16,0-24-0.1
	c-5.5-0.1-11-0.3-16.4-1.1c-4.5-0.6-5.6-2.5-5.6-6.8c0-4.3,1.2-6,5.4-7c1.9-0.5,3.9-0.8,5.9-0.9c9.2-0.1,18.3-0.1,27.5,0
	c2,0,3.9,0.6,5.9,0.8c2.7,0.3,4.1,2,4.9,4.4c0.3,1.1,0.5,2.2,0.8,3.5c5,0.5,9.7,0.5,14.3,0.1c2.1-12.1-4.2-17-11.5-18.9
	c-2.7-0.7-5.6-1.2-8.4-1.2c-13.3-0.1-26.7-0.2-40,0.1c-3.7,0.1-7.6,1.1-11.1,2.4c-5.5,2-8.4,6.4-8.8,12.2c-0.2,3.2-0.1,6.3,0,9.5
	c0.2,7,3.8,11.6,10.7,13.1c4.7,1,9.5,1.7,14.3,1.8c10.2,0.3,20.3,0.1,30.5,0.3c2,0,4,0.3,5.9,0.8c4.5,1.1,5.6,2.4,5.7,6.2
	c0.1,4.7-1.5,7-5.7,8.2c-1.3,0.3-2.6,0.5-3.9,0.5c-11,0-22,0-33,0c-1,0-2,0-3-0.2c-4.2-0.7-5.6-2.2-6.2-6.5c-0.1-1-0.4-1.9-0.6-3.1
	c-4.8,0-9.4,0-14.8,0C570.1,147.2,570.3,148.9,570.1,150.5z M343.7,100.8c-4.6,0-9.4-0.5-14.5,0.3c0,5.9,0,11.4,0,16.8
	c0,5.5,0.1,11,0,16.5c-0.1,5.4,0.5,10.8-0.6,17.1c-17-17.4-33.4-34.1-49.8-50.8c-7.5,0-14.6,0-21.8,0c-0.6,0-1.2,0.3-2.1,0.5
	c-0.2,1.2-0.5,2.3-0.5,3.4c0,19,0,38,0,57c0,1.3,0.4,2.5,0.7,4.1c5.2,0.2,10.1,0.5,15.3-0.3c0-6,0-11.4,0-16.9c0-5.7-0.1-11.3,0-17
	c0.1-5.4-0.5-10.8,0.3-15.6c7.6,7.2,15.2,14.4,22.6,21.8c8.2,8.2,16.3,16.7,24.4,25c1.5,1.6,3.1,3.1,5.5,3.1c6.8,0,13.6,0,20.6,0
	C345.1,159.5,344.8,104.6,343.7,100.8z M360.2,116.7c-0.1,5.5,0,11,0,16.5c0,5.3,0,10.7,0,16c0.1,5.4-0.2,10.9,0.2,16.1
	c6.5,1.1,68.3,0.9,71.9-0.2c0-3.5,0-7.1,0-11.2c-2.2,0-3.9,0-5.7,0c-15.2,0-30.3,0-45.5,0c-1.7,0-3.5-0.2-5.4-0.2
	c0-5.5-0.2-10.5,0.2-15.6c9.3,0,18,0.1,26.6,0c8.8-0.1,17.5,0.5,26.3-0.4c1-3.7,1-6.9,0-10.7c-17.6,0-35.2,0-53.1,0
	c0-2.9,0-5.2,0-7.5c0-2.3,0.1-4.5,0.1-7.3c18.8,0,37.1,0,55.6,0c0-3.9,0-7.3,0-11c-23.6,0-46.9,0-70.7,0
	C359.7,106.2,360.3,111.5,360.2,116.7z M748.6,118c-0.1-1.3,0-2.7,0-4c-0.2-6.5-4.2-11.5-10.5-12.9c-3.1-0.7-6.2-1.1-9.4-1.1
	c-17.3-0.1-34.7-0.1-52,0c-1.6,0-3.2,0.2-4.7,0.3c-1,4.8-1,61.1,0,65.4c1.3,0.1,2.8,0.3,4.3,0.3c17.8,0,35.7,0.1,53.5,0
	c2.8,0,5.7-0.4,8.4-1c7.1-1.7,10.4-6.3,10.5-13.7c0-2.2-0.1-4.3,0-6.5c0.3-5.1-0.7-9.6-5.1-13.1C748.1,127.9,749,123.2,748.6,118z
	 M678.9,136.4c1.3-0.2,2.4-0.4,3.5-0.4c16.3,0,32.7,0,49,0c1.2,0,2.4,0,3.5,0.2c3,0.5,5.4,1.9,5.7,5.3c0.2,3.6,0.5,7.3,0.2,10.9
	c-0.3,3.1-2.2,5.1-5.5,5.6c-1.8,0.3-3.6,0.8-5.4,0.8c-16.2,0.1-32.3,0-48.5,0c-0.6,0-1.3-0.2-2.4-0.3
	C678.9,150.9,678.9,143.8,678.9,136.4z M678.9,107.5c1.5-0.1,2.8-0.2,4-0.2c15,0,29.9-0.1,44.9,0c2.6,0,5.3,0.4,7.8,1.1
	c3.4,0.9,5.4,3.3,5.5,6.8c0,2.5-0.2,5-0.5,7.4c-0.4,2.8-2.3,4.4-4.9,5c-2.6,0.6-5.2,1.1-7.9,1.1c-15.1,0.1-30.2,0.1-45.4,0
	c-1,0-2-0.2-3.6-0.3C678.9,121.3,678.9,114.5,678.9,107.5z M921.3,150c-0.7,5-3.9,8.1-8.8,8.8c-2.6,0.4-5.3,0.9-7.9,0.9
	c-13-0.1-26,0.8-38.9-0.8c-5-0.6-9.2-4-10-8.4c-0.6-3.1-0.9-6.3-1-9.4c-0.2-5.2-0.2-10.3,0-15.5c0.1-3.1,0.4-6.3,1-9.4
	c0.7-3.9,3-6.7,6.9-7.8c2-0.6,4.2-1.1,6.3-1.1c10.5-0.2,21-0.2,31.5-0.2c3.5,0,7,0,10.5,0.2c6.2,0.4,9.7,3.9,10.5,9.9
	c0.4,2.6,0.8,5.2,1.3,7.8c2.2,0,4.2,0,6.1,0c1.3-3.1,0.2-5.8,0-8.6c-1-11.4-8.2-16.1-17.9-16.4c-15-0.5-30-0.3-45,0
	c-8.6,0.2-14.6,4.8-17,12.3c-0.8,2.4-1.4,4.9-1.5,7.3c-0.2,9.2-0.7,18.4,0.1,27.5c1,11.4,5.1,16.5,15.3,18.9c3.5,0.8,7.3,1,10.9,1
	c9,0.1,18,0.1,27,0c4.1-0.1,8.3-0.3,12.4-0.8c11.8-1.6,18.6-12.1,15.5-24c-1.8,0-3.8,0-6.1,0C922,145,921.7,147.5,921.3,150z
	 M796.2,107.3c0,5.3,0,10.1,0,14.9c0,4.8,0,9.7,0,14.5c0,4.8-0.1,9.7,0,14.5c0.1,4.7-0.6,9.6,0.6,14.8c2.2-0.2,4.2-0.4,6.6-0.7
	c0-6.9,0-13.2,0-19.5c0-6.5,0-13,0-19.5c0.1-6.3-0.3-12.5,0.3-18.9c11.9-0.6,23.3,0.3,34.7-0.5c0.1-1.6,0.3-2.6,0.2-3.6
	c0-0.9-0.3-1.9-0.4-2.7c-5-1-73.6-0.9-77.7,0.1c0,1.8,0,3.8,0,6.6C772.6,107.3,784.2,107.3,796.2,107.3z M661.3,205.2
	c0.4-3.1-1.5-5.9-5-6.3c-5.3-0.6-10.6-0.7-15.9-0.8c-2.1-0.1-4.3,0.1-6.4,0.6c-4.6,1.1-6.2,3.8-5.6,9c0.4,3.6,2.6,5.3,7,5.4
	c5,0.1,10,0,15,0c2.7,0,5.3,0.2,7.9,2.5c-0.2,2.1-0.3,4.4-0.5,7.1c-7.9,0.5-15.2,0.4-22.5,0.1c-1.9-0.1-3-1.2-3.6-2.9
	c-0.3-0.9-0.5-1.8-1-3.4c-1,0.9-2,1.4-2.1,2.1c-0.7,3.8,2,7.1,6.3,7.3c7,0.3,14,0.1,21,0.1c2.2,0,3.8-1.2,4.9-3
	c3-5,0.4-11.2-5.3-12.5c-1.4-0.3-3-0.4-4.4-0.4c-4.5-0.1-9,0-13.5-0.1c-1.8,0-3.5-0.4-5.6-0.7c0-2.4,0-4.3,0-6.6
	c1.7-0.5,3.4-1.6,5-1.5c6.7,0.3,13.6-1.3,20.1,1.2c0.7,1.6,1.3,2.9,2.3,5.3C660.3,206.5,661.2,205.9,661.3,205.2z M718.9,206.3
	c0.9-2.9-0.8-6.7-3.6-7.2c-7.9-1.5-15.9-1.8-23.8-0.3c-4.3,0.8-5.7,3.8-5.2,8.8c0.4,3.6,2.5,5.4,7,5.5c5,0.1,10-0.1,15,0.1
	c2.3,0.1,4.5,0.7,6.5,1c1.9,3.4,2.2,6.1-0.8,8.9c-5.7,0-11.7,0-17.7,0c-5.5-0.1-5.6-0.2-7.4-5.3c-0.1-0.2-0.5-0.3-1.1-0.7
	c-0.4,0.5-1.2,1-1.3,1.6c-0.7,3.9,1.8,7.2,6.2,7.4c6.8,0.3,13.7,0.2,20.5,0.1c2.4,0,4.7-1,5.5-3.6c1.8-5.9,1.2-11.1-6.5-12.2
	c-1.3-0.2-2.7-0.1-4-0.1c-4.3,0-8.7,0.1-13,0c-1.7,0-3.5-0.5-5.4-0.7c0-2.4,0-4.3,0-6.8c8.5-2.3,16.7-1.7,24.7-0.5
	c1,2.1,1.8,3.6,2.7,5.4C718.2,206.8,718.8,206.7,718.9,206.3z M260.9,226c7.2,0,14.3,0.1,21.5,0c1.1,0,2.3-0.3,3.4-0.6
	c3.3-1,4.5-2.2,4.5-5.7c0-2.6-0.7-5.2-1.2-8.7c-0.1,0.2,0.3-0.5,0.5-1.3c2.4-6.7-0.3-10.8-7.4-10.9c-6.5,0-13,0-19.5,0
	c-1.4,0-2.8,0.3-4.3,0.4c0,9,0,17.4,0,26.3C259.7,225.8,260.3,226,260.9,226z M261,213.8c1.1-0.2,2-0.6,3-0.6c6-0.1,12-0.1,18,0
	c3.8,0.1,5.3,1.7,5.3,5.1c0,2.9-1.2,4.5-4.1,4.5c-7,0.1-14-0.1-21-0.2c-0.3,0-0.6-0.3-1.2-0.7C261,219.5,261,216.8,261,213.8z
	 M286,202.6c1.7,2.2,1.7,4.4-0.3,7.1c-8,0-16.2,0-24.7,0c0-2.7,0-5.3,0-7.7C266.8,200.5,281.6,200.9,286,202.6z M584.5,216.4
	c-2.2-5-4.3-10.1-6.5-15.1c-0.6-1.4-1.2-2.8-3.8-1.6c3.5,8.3,6.9,16.5,10.4,24.7c0.8,1.8,2.5,1.9,4.5,1c3.7-7.1,6.1-15,10.4-22.6
	c3.6,8.1,6.8,15.5,10,22.9c1.4,0,2.4,0,3.7,0c4-8.7,7.8-17.3,10.7-26.5c-1.2,0.1-2.2,0.4-2.6,1c-1.1,2-2,4.2-3,6.3
	c-2.2,4.9-4.3,9.9-6.9,15.8c-3.6-8.3-6.9-15.7-10.1-23.2c-1.4,0-2.5,0-4,0c-3.2,7.4-6.5,14.8-10.2,23.3
	C585.9,219.8,585.2,218.1,584.5,216.4z M411.3,226.1c5.2-0.2,7.9-2.9,8.2-8.1c0.2-3.8,0.3-7.7,0-11.5c-0.5-6-2.8-7.2-6.7-7.8
	c-7.8-1.1-15.5-1.1-23.3,0.1c-3.9,0.6-6.5,2.9-6.8,6.8c-0.3,4.3-0.4,8.7,0,12.9c0.5,5.3,3.2,7.4,8.7,7.5c3.2,0.1,6.3,0,9.5,0
	C404.3,226.1,407.8,226.2,411.3,226.1z M385.9,205.7c0.3-2.8,2.5-4.4,5.7-4.5c6.3-0.2,12.6-0.2,18.9,0c4.1,0.2,5.8,2.3,5.9,6.5
	c0.1,3.5,0.1,7,0,10.4c-0.1,3.2-1.4,4.7-4.5,4.8c-7.1,0.2-14.3,0.1-21.4,0c-1.1,0-2.2-0.6-3.5-1C384.7,216.3,385.4,211,385.9,205.7z
	 M761.4,199.8c0,8.2,0,16.5,0,24.7c0,0.4,0.7,0.8,1.8,2c0.2-4.3,0.4-7.7,0.5-10.9c6-1.6,10.6,0.2,14.9,3.4c2.8,2.1,5.8,3.9,8.7,5.7
	c2.6,1.6,2.7,1.6,6.3,0.3c-4.6-3.2-9.6-5.7-14.5-10c3.1,0,5.3,0,7.4,0c2.6-0.1,4.9-1.4,5.3-3.7c0.8-4,1.5-8.3-1.8-11.9
	C783.8,198.4,765.2,198.6,761.4,199.8z M763.9,201.4c3-0.1,5.8-0.2,8.5-0.2c2.8,0,5.6,0,8.4,0c2.8,0,5.7-0.4,8.2,2.2
	c0,2.3,0,4.9,0,7.3c-3.5,1.6-17.3,2-25.2,0.8C763.9,208.1,763.9,205.1,763.9,201.4z M728.9,213.1c4.2,0,8.2,0.2,12.1-0.1
	c3.8-0.2,7.8,1.1,11.5-0.9c-0.6-2.5-2.3-2-3.7-2.1c-5.3-0.1-10.7,0-16,0c-1.3,0-2.5-0.3-3.8-0.4c0-2.9,0-5.4,0-8.5
	c4.4,0,8.4,0.2,12.3,0c3.9-0.2,8,1,12.3-1c-3.7-1.5-22-1.8-27.4-0.7c-1.2,4.9-1,22.5,0.5,26.4c8.6,0,17.4,0,26.2,0
	c0.5,0,1-0.7,1.4-1c-0.2-0.6-0.3-1.1-0.5-1.1c-8.2-0.4-16.4-0.7-25-1.1C728.9,219.2,728.9,216.5,728.9,213.1z M532.3,221.8
	c-1.2-0.9-1.7-1.3-2.2-1.7c-8.1-6.4-16.1-12.8-24.2-19.3c-2-1.6-3.8-2.6-6.1-1c-1.1,9.5-0.6,23.2,0.9,26c2.1,0,1.8-1.6,1.8-2.8
	c0-5.3,0-10.7,0-16c0-1.4,0.2-2.8,0.3-4.6c2.3,1.8,4.2,3.2,6,4.7c7.2,5.9,14.5,11.7,21.7,17.6c1.4,1.1,2.7,1.9,4.4,0.8
	c1-5.4,0.8-22.7-0.3-26.2c-0.5,0-1,0-2.4,0C532.3,206.8,532.3,214,532.3,221.8z M892,201.2c4.4,0,8.4,0.2,12.3,0c3.9-0.2,8,1,12.3-1
	c-3.9-1.7-23.6-1.8-28.2-0.2c0.4,8.4-0.6,16.9,0.6,26c9,0,17.6,0,26.2-0.1c0.6,0,1.3-1.1,2.9-2.6c-5.3-0.5-9.4-0.2-13.4-0.3
	c-4.3-0.2-8.6,0.5-12.8-0.5c0-3.2,0-6.1,0-9.3c2,0,3.7,0,5.3,0c5.2,0,10.3,0,15.5-0.1c1,0,1.9-0.6,2.9-1c-0.4-0.8-0.6-1.3-0.7-1.3
	c-7.6-0.4-15.1-0.7-22.9-1C892,206.6,892,204.1,892,201.2z M543.1,199.5c-1,4.7-0.9,22.4,0.3,26.5c8.3,0,16.8,0,25.3-0.1
	c0.6,0,1.3-1,2.8-2.4c-2.6-0.3-4-0.6-5.3-0.6c-5.5-0.1-11,0-16.5,0c-1.3,0-2.5-0.3-3.7-0.4c0-3.3,0-6.2,0-9.4c4.2,0,8,0.1,11.8,0
	c3.8-0.2,7.8,0.9,11.5-0.8c-0.1-0.7-0.1-1.3-0.2-1.3c-7.5-2.4-15.4,0.2-23.3-1.5c0-2.7,0-5.2,0-8.4c4.2,0,8.2,0.1,12.1,0
	c4-0.1,8.2,0.5,12.1-0.9C566.6,198.6,548,198.4,543.1,199.5z M376.1,208.2c1.3-4.2-0.9-8.3-5.1-9.2c-6.9-1.4-13.9-1.4-20.8-0.2
	c-4.9,0.8-7,2.4-7.4,7.2c-0.4,4.3-0.4,8.7,0,12.9c0.4,4.2,3,6.9,6.6,7.1c7,0.3,14,0.4,21,0c4.8-0.3,7.2-5.5,5-9.7
	c-0.3,0-0.8,0-0.9,0.2c-0.4,0.5-0.7,1.1-0.9,1.7c-1.2,4.5-1.6,4.9-6,5c-5.2,0.1-10.3,0.1-15.5,0c-1.7-0.1-3.4-0.7-5-1.1
	c-2.4-5.6-1.7-11-1.2-16.2c0.3-2.9,2.5-4.4,5.7-4.5c5.3-0.2,10.7-0.1,16,0c1.6,0,3.1,0.9,4.8,1.3c0.6,2.2,1.2,4.2,1.9,6.8
	C375.4,208.7,376,208.5,376.1,208.2z M875.4,222.8c-6.7,0.1-13.3,0.3-20,0.1c-2.7-0.1-3.9-1.6-4-4.8c-0.2-3.5-0.1-7,0-10.5
	c0.1-4.2,1.9-6.2,6-6.4c5.3-0.2,10.7-0.1,16,0c3,0.1,5,1.7,5.8,4.6c0.3,1,0.6,2,0.9,3.1c0.7-0.2,1.2-0.2,1.3-0.4
	c1.4-5.5-1.4-9-5-9.6c-7.3-1.1-14.6-1.4-21.8,0c-4.3,0.8-6,2.8-6.1,7.2c-0.2,4.2-0.1,8.3,0,12.5c0.2,4.5,3,7.4,7.6,7.5
	c6,0.1,12,0.1,18,0c5.3-0.1,7.9-2.8,7.9-8.2c0-0.6-0.9-1.2-1.7-2.3c-0.8,2.4-1.4,4.1-2.1,6.1C876.9,222.2,876.1,222.8,875.4,222.8z
	 M455.1,213.2c4.7,3.7,9.3,7.5,14,11.2c1.1,0.9,2.3,2.1,4.6,0.5c0-2.5,0-5.5,0-8.4c0-3,0.1-6,0-9c-0.2-2.8,0.9-5.7-1.4-8.2
	c-1.7,7-0.2,14.3-1.5,22.1c-1.9-1.3-3.2-2.2-4.5-3.2c-7.4-5.9-14.7-11.9-22.1-17.9c-1.7-1.4-3.4-1.8-5.4-0.8
	c-1.1,7.2-0.7,23.1,0.5,26.1c0.3-0.1,0.8,0,0.9-0.2c2.8-7.1-0.1-14.7,1.8-22.7C446.8,206.6,450.9,209.9,455.1,213.2z M833,199.5
	c-3.4-1.3-4.1,1.1-5,2.7c-3.2,5.3-6.1,10.6-9.2,15.9c-1,1.8-2.3,3.4-3.9,5.9c-1.4-1.9-2.3-2.9-3-4.1c-3.6-6.2-7.2-12.3-10.7-18.5
	c-1-1.7-1.9-3.1-4.5-1.5c5.2,8.8,10.3,17.5,15.3,26.1c1.9,0,3.4,0,5.8,0C822.8,217.1,827.9,208.4,833,199.5z M324.4,222.3
	c0.1-5.7,0-11.3,0-17c0-1.3,0.3-2.5,0.5-4.2c2.6,0,4.9,0.1,7.2,0c2-0.2,4.5,1,6.3-1.4c-0.8-0.4-1.2-0.7-1.6-0.7
	c-9.5,0-19-0.1-28.5,0c-0.6,0-1.1,0.7-1.7,1.1c0.1,0.3,0.1,0.6,0.2,0.9c4.7,0.1,9.4,0.2,14.2,0.4c0.7,8.5-0.2,16.4,0.6,24.6
	C324.8,225.4,324.4,223.7,324.4,222.3z M838.1,225.6c1.5,0.5,2.3-0.3,2.3-1.7c0-7.6,0-15.3,0-22.9c0-1.4-0.7-2.2-2.5-1.7
	C836.9,205.1,837.1,222.1,838.1,225.6z M299,225.6c0.5,0.1,1.1,0.1,1.7,0.2c1.1-3.7,1.2-20.8,0.3-26.4c-0.5-0.1-1.1-0.1-1.7-0.2
	C298.1,202.8,298,220.1,299,225.6z M426.7,200.7c-0.1,7.6-0.1,15.2,0,22.8c0,0.8,1.1,1.6,1.9,2.8c1.4-5.1,1.3-23.5-0.1-27.6
	C427.7,199.5,426.7,200.1,426.7,200.7z"/>
</svg>
