<svg xmlns="http://www.w3.org/2000/svg" viewBox="0 0 320.167 219"><defs><style>.a,.f{fill:#e84146;}.a{opacity:0.35;}.b,.c{fill:none;stroke-linejoin:round;stroke-width:2px;}.b{stroke:#e84146;}.c{stroke:#fff;stroke-linecap:round;opacity:0.65;}.d,.e{fill:#fff;}.e{opacity:0.7;}</style></defs><title>bonus_web</title><rect class="a" x="38.099" y="119.458" width="61.201" height="30.542"/><rect class="a" x="129.9" y="88.916" width="61.201" height="61.084"/><rect class="a" x="221.701" y="58.374" width="61.201" height="91.626"/><polyline class="b" points="129.9 150 129.9 88.916 191.1 88.916 191.1 150"/><polyline class="b" points="38.099 150 38.099 119.458 99.299 119.458 99.299 150"/><polyline class="b" points="221.701 150 221.701 58.374 282.901 58.374 282.901 150"/><line class="c" x1="300.167" y1="151" x2="21.703" y2="151"/><path class="d" d="M110.426,176.9H114.2v.7h-2.948v2.059h2.488v.709h-2.488v2.379H114.3v.709h-3.878Z"/><path class="d" d="M117.055,177.6h-1.979v-.7h4.8v.7H117.9v5.857h-.84Z"/><path class="d" d="M121.056,176.9h.83v2.749h3.048V176.9h.84v6.557h-.84v-3.088h-3.048v3.088h-.83Z"/><path class="d" d="M128.816,178.6h.85l.919,2.759c.141.479.3.969.45,1.429h.04c.14-.46.3-.95.439-1.429l.92-2.759h.81l-1.72,4.857h-.959Z"/><path class="d" d="M136.734,180.375c0-.62-.21-1.22-1-1.22a2.615,2.615,0,0,0-1.449.52l-.329-.57a3.6,3.6,0,0,1,1.908-.629c1.189,0,1.689.79,1.689,2v2.979h-.68l-.07-.58h-.02a2.64,2.64,0,0,1-1.609.7,1.324,1.324,0,0,1-1.429-1.379C133.746,181.135,134.665,180.6,136.734,180.375Zm-1.329,2.539a1.989,1.989,0,0,0,1.329-.65v-1.349c-1.63.2-2.179.6-2.179,1.219A.744.744,0,0,0,135.4,182.914Z"/><path class="d" d="M139.105,176.337h.819v6.2c0,.26.11.36.23.36a.686.686,0,0,0,.18-.02l.11.62a1.107,1.107,0,0,1-.47.08c-.62,0-.87-.39-.87-1.1Z"/><path class="d" d="M141.586,178.6h.829v2.968c0,.91.27,1.3.909,1.3.5,0,.85-.25,1.31-.819V178.6h.819v4.857h-.68l-.069-.76h-.03a2.054,2.054,0,0,1-1.6.88c-1.03,0-1.489-.66-1.489-1.9Z"/><path class="d" d="M148.914,178.477c1.239,0,1.938.889,1.938,2.278a2.971,2.971,0,0,1-.029.45h-3.278a1.616,1.616,0,0,0,1.619,1.709,2.191,2.191,0,0,0,1.209-.38l.29.54a2.892,2.892,0,0,1-1.6.5,2.569,2.569,0,0,1-.149-5.1Zm1.219,2.188c0-.989-.439-1.539-1.2-1.539a1.515,1.515,0,0,0-1.4,1.539Z"/><path class="d" d="M155.964,178.477a2.569,2.569,0,1,1-2.249,2.559A2.321,2.321,0,0,1,155.964,178.477Zm0,4.417c.839,0,1.4-.75,1.4-1.859s-.56-1.879-1.4-1.879-1.4.76-1.4,1.879S155.133,182.894,155.964,182.894Z"/><path class="d" d="M161.683,177.007a1.367,1.367,0,0,0-.55-.12c-.46,0-.68.32-.68.939v.77h1.029v.67h-1.029v4.188h-.82v-4.187h-.659v-.62l.659-.05v-.77c0-.989.45-1.609,1.42-1.609a2.2,2.2,0,0,1,.81.16Z"/><path class="d" d="M164.284,177.067a.571.571,0,0,1,1.139,0,.571.571,0,0,1-1.139,0Zm.149,1.529h.819v4.857h-.819Z"/><path class="d" d="M166.893,178.6h.68l.07.7h.029a2.29,2.29,0,0,1,1.63-.819c1.02,0,1.479.66,1.479,1.9v3.078h-.819v-2.968c0-.91-.279-1.3-.919-1.3-.5,0-.84.26-1.33.75v3.518h-.819Z"/><path class="d" d="M171.664,178.6h.85l.919,2.759c.141.479.3.969.45,1.429h.04c.14-.46.3-.95.439-1.429l.92-2.759h.81l-1.72,4.857h-.959Z"/><path class="d" d="M178.812,178.477c1.239,0,1.938.889,1.938,2.278a2.971,2.971,0,0,1-.029.45h-3.278a1.616,1.616,0,0,0,1.619,1.709,2.191,2.191,0,0,0,1.209-.38l.29.54a2.892,2.892,0,0,1-1.6.5,2.569,2.569,0,0,1-.149-5.1Zm1.219,2.188c0-.989-.439-1.539-1.2-1.539a1.515,1.515,0,0,0-1.4,1.539Z"/><path class="d" d="M181.823,182.354a2.185,2.185,0,0,0,1.43.58c.64,0,.959-.34.959-.76,0-.5-.579-.72-1.109-.919-.689-.25-1.449-.58-1.449-1.4,0-.779.62-1.379,1.669-1.379a2.425,2.425,0,0,1,1.51.549l-.39.52a1.8,1.8,0,0,0-1.109-.43c-.61,0-.89.33-.89.7,0,.46.529.63,1.079.84.7.26,1.479.55,1.479,1.469,0,.79-.63,1.449-1.779,1.449a2.921,2.921,0,0,1-1.809-.67Z"/><path class="d" d="M186.282,179.266h-.719v-.62l.759-.05.1-1.359h.689V178.6h1.31v.67h-1.31v2.7c0,.6.189.939.75.939a1.752,1.752,0,0,0,.549-.13l.16.62a3,3,0,0,1-.9.18c-1.039,0-1.39-.66-1.39-1.619Z"/><path class="d" d="M189.522,178.6h.68l.07.7h.029a2.134,2.134,0,0,1,1.51-.819,1.274,1.274,0,0,1,1.339.929,2.3,2.3,0,0,1,1.6-.929c1,0,1.479.66,1.479,1.9v3.078h-.819v-2.968c0-.91-.29-1.3-.9-1.3a1.781,1.781,0,0,0-1.219.75v3.518h-.82v-2.968c0-.91-.289-1.3-.909-1.3a1.826,1.826,0,0,0-1.22.75v3.518h-.819Z"/><path class="d" d="M199.632,178.477c1.239,0,1.938.889,1.938,2.278a2.971,2.971,0,0,1-.029.45h-3.278a1.616,1.616,0,0,0,1.619,1.709,2.191,2.191,0,0,0,1.209-.38l.29.54a2.892,2.892,0,0,1-1.6.5,2.569,2.569,0,0,1-.149-5.1Zm1.219,2.188c0-.989-.439-1.539-1.2-1.539a1.515,1.515,0,0,0-1.4,1.539Z"/><path class="d" d="M202.772,178.6h.68l.07.7h.029a2.29,2.29,0,0,1,1.63-.819c1.02,0,1.479.66,1.479,1.9v3.078h-.819v-2.968c0-.91-.279-1.3-.919-1.3-.5,0-.84.26-1.33.75v3.518h-.819Z"/><path class="d" d="M208.382,179.266h-.719v-.62l.759-.05.1-1.359h.689V178.6h1.31v.67h-1.31v2.7c0,.6.189.939.75.939a1.752,1.752,0,0,0,.549-.13l.16.62a3,3,0,0,1-.9.18c-1.039,0-1.39-.66-1.39-1.619Z"/><path class="e" d="M60.954,164.357h1.459v-4.7H61.254v-.53a3.793,3.793,0,0,0,1.349-.47h.63v5.7h1.319v.68h-3.6Z"/><path class="e" d="M67.563,162.218h2.3v.629h-2.3Z"/><path class="e" d="M72.932,163.748a2.171,2.171,0,0,0,1.609.729,1.376,1.376,0,0,0,1.4-1.459,1.281,1.281,0,0,0-1.359-1.4,1.8,1.8,0,0,0-1.09.39l-.439-.28.21-3.068h3.188v.709H73.982l-.17,1.889a1.956,1.956,0,0,1,.979-.26,1.835,1.835,0,0,1,1.979,2,2.085,2.085,0,0,1-2.148,2.159,2.8,2.8,0,0,1-2.089-.87Z"/><path class="f" d="M66.913,130.978a2.131,2.131,0,0,0,1.489.68,1.152,1.152,0,0,0,1.229-1.22,1.092,1.092,0,0,0-1.17-1.189,1.633,1.633,0,0,0-1.02.359l-.549-.35.189-3.138h3.4v.969h-2.4l-.13,1.54a1.8,1.8,0,0,1,.84-.21,1.847,1.847,0,0,1,2,1.989,2.143,2.143,0,0,1-2.239,2.189,2.916,2.916,0,0,1-2.168-.88Z"/><path class="f" d="M155.651,101.537h1.42V97.359H155.9v-.72a4.274,4.274,0,0,0,1.47-.52h.859v5.417h1.249v.939h-3.828Z"/><path class="f" d="M160.441,99.269c0-2.149.84-3.269,2.159-3.269s2.159,1.129,2.159,3.269-.84,3.328-2.159,3.328S160.441,101.417,160.441,99.269Zm3.219,0c0-1.8-.439-2.369-1.06-2.369s-1.06.57-1.06,2.369.45,2.428,1.06,2.428S163.66,101.067,163.66,99.269Z"/><path class="f" d="M247.985,69.871h1.42V65.693h-1.17v-.72a4.274,4.274,0,0,0,1.47-.52h.859v5.417h1.249v.939h-3.828Z"/><path class="f" d="M253.145,69.311a2.131,2.131,0,0,0,1.489.68,1.152,1.152,0,0,0,1.229-1.22,1.092,1.092,0,0,0-1.17-1.189,1.633,1.633,0,0,0-1.02.359l-.549-.35.189-3.138h3.4v.969h-2.4l-.13,1.54a1.8,1.8,0,0,1,.84-.21,1.847,1.847,0,0,1,2,1.989,2.143,2.143,0,0,1-2.239,2.189,2.916,2.916,0,0,1-2.168-.88Z"/><path class="e" d="M153.437,159.729a1.392,1.392,0,0,0-1.05-.5c-.89,0-1.64.689-1.679,2.708a2.035,2.035,0,0,1,1.488-.8,1.727,1.727,0,0,1,1.819,1.969,1.928,1.928,0,0,1-1.889,2.049c-1.249,0-2.2-1.02-2.2-3.068,0-2.559,1.159-3.548,2.429-3.548a2.011,2.011,0,0,1,1.539.68Zm-.2,3.378c0-.83-.39-1.35-1.18-1.35a1.73,1.73,0,0,0-1.329.84c.1,1.239.59,1.909,1.4,1.909C152.757,164.507,153.237,163.947,153.237,163.108Z"/><path class="e" d="M156.848,162.218h2.3v.629h-2.3Z"/><path class="e" d="M161.967,164.547c1.919-1.909,3-3.058,3-4.088a1.13,1.13,0,0,0-1.21-1.249,1.881,1.881,0,0,0-1.359.77l-.47-.47a2.505,2.505,0,0,1,1.93-.97,1.771,1.771,0,0,1,1.908,1.879c0,1.2-1.089,2.389-2.6,3.968.351-.03.74-.06,1.07-.06h1.849v.709h-4.118Z"/><path class="e" d="M167.187,163.748a2.171,2.171,0,0,0,1.609.729,1.376,1.376,0,0,0,1.4-1.459,1.281,1.281,0,0,0-1.359-1.4,1.8,1.8,0,0,0-1.09.39l-.439-.28.21-3.068h3.188v.709h-2.469l-.17,1.889a1.956,1.956,0,0,1,.979-.26,1.835,1.835,0,0,1,1.979,2,2.085,2.085,0,0,1-2.148,2.159,2.8,2.8,0,0,1-2.089-.87Z"/><path class="e" d="M248.642,162.048l-4.288,1.679v-.71l2.108-.779,1.34-.5v-.04l-1.34-.5-2.108-.78v-.709l4.288,1.679Z"/><path class="e" d="M251.4,164.547c1.919-1.909,3-3.058,3-4.088a1.13,1.13,0,0,0-1.21-1.249,1.881,1.881,0,0,0-1.359.77l-.47-.47a2.505,2.505,0,0,1,1.93-.97,1.771,1.771,0,0,1,1.908,1.879c0,1.2-1.089,2.389-2.6,3.968.351-.03.74-.06,1.07-.06h1.849v.709H251.4Z"/><path class="e" d="M256.623,163.748a2.171,2.171,0,0,0,1.609.729,1.376,1.376,0,0,0,1.4-1.459,1.281,1.281,0,0,0-1.359-1.4,1.8,1.8,0,0,0-1.09.39l-.439-.28.21-3.068h3.188v.709h-2.469l-.17,1.889a1.956,1.956,0,0,1,.979-.26,1.835,1.835,0,0,1,1.979,2,2.085,2.085,0,0,1-2.148,2.159,2.8,2.8,0,0,1-2.089-.87Z"/><path class="f" d="M311.875,144.8c0-.55-.44-.9-1.04-1.1l-.36-.11-4.867,1.949v-.85l2.688-.989c.42-.149.919-.319,1.369-.47v-.04c-.439-.14-.939-.279-1.369-.409l-2.688-.87v-.8l5.257,1.829c.959.34,1.689.84,1.689,1.819a1.606,1.606,0,0,1-.1.569l-.649-.159A1.443,1.443,0,0,0,311.875,144.8Z"/><path class="f" d="M305.608,140.236v-.829h2.968c.91,0,1.3-.27,1.3-.909,0-.5-.25-.85-.819-1.31h-3.448v-.819h4.857v.68l-.76.069v.03a2.054,2.054,0,0,1,.88,1.6c0,1.03-.66,1.489-1.9,1.489Z"/><path class="f" d="M310.875,133.908h1.639v.819h-6.906v-.68l.56-.07v-.029a2.516,2.516,0,0,1-.679-1.55c0-1.249.969-1.919,2.479-1.919,1.649,0,2.619.989,2.619,2.1a2.252,2.252,0,0,1-.56,1.35Zm-.979-1.189c0-.8-.729-1.39-1.929-1.39-1.069,0-1.789.36-1.789,1.279a2.049,2.049,0,0,0,.66,1.3h2.548A1.923,1.923,0,0,0,309.9,132.719Z"/><path class="f" d="M304.079,129.327a.571.571,0,0,1,0-1.139.571.571,0,0,1,0,1.139Zm1.529-.149v-.819h4.857v.819Z"/><path class="f" d="M305.488,124.9c0-1.239.889-1.938,2.278-1.938a2.971,2.971,0,0,1,.45.029v3.278a1.616,1.616,0,0,0,1.709-1.619,2.191,2.191,0,0,0-.38-1.209l.54-.29a2.892,2.892,0,0,1,.5,1.6,2.569,2.569,0,0,1-5.1.149Zm2.188-1.219c-.989,0-1.539.439-1.539,1.2a1.515,1.515,0,0,0,1.539,1.4Z"/><path class="f" d="M306.278,119.6v.719h-.62l-.05-.759-1.359-.1v-.689h1.359v-1.31h.67v1.31h2.7c.6,0,.939-.189.939-.75a1.752,1.752,0,0,0-.13-.549l.62-.16a3,3,0,0,1,.18.9c0,1.039-.66,1.39-1.619,1.39Z"/><path class="f" d="M305.488,114.568a2.569,2.569,0,1,1,2.559,2.249A2.321,2.321,0,0,1,305.488,114.568Zm4.417,0c0-.839-.75-1.4-1.859-1.4s-1.879.56-1.879,1.4.76,1.4,1.879,1.4S309.906,115.4,309.906,114.568Z"/><path class="f" d="M303.349,111.038v-.81h4.817v-.03l-2.559-2.068v-.91l1.949,1.629L310.465,107v.9l-2.339,1.419,1.06.91h1.279v.81Z"/><path class="f" d="M305.488,104.449c0-1.239.889-1.938,2.278-1.938a2.971,2.971,0,0,1,.45.029v3.278a1.616,1.616,0,0,0,1.709-1.619,2.191,2.191,0,0,0-.38-1.209l.54-.29a2.892,2.892,0,0,1,.5,1.6,2.569,2.569,0,0,1-5.1.149Zm2.188-1.219c-.989,0-1.539.439-1.539,1.2a1.515,1.515,0,0,0,1.539,1.4Z"/><path class="f" d="M305.608,101.309v-.68l.7-.07v-.03a2.286,2.286,0,0,1-.819-1.629c0-1.02.66-1.479,1.9-1.479h3.078v.819H307.5c-.91,0-1.3.279-1.3.919,0,.5.26.84.75,1.33h3.518v.819Z"/><path class="f" d="M303.349,93.819V93h1.939l.879.02a2.4,2.4,0,0,1-.679-1.52c0-1.259.969-1.929,2.468-1.929,1.659,0,2.629.989,2.629,2.1a2.2,2.2,0,0,1-.6,1.39v.03l.479.069v.66Zm6.546-2.009c0-.8-.729-1.39-1.929-1.39-1.069,0-1.789.36-1.789,1.279a2,2,0,0,0,.66,1.3h2.548A1.9,1.9,0,0,0,309.9,91.811Z"/><path class="f" d="M305.488,86.38a2.569,2.569,0,1,1,2.559,2.249A2.321,2.321,0,0,1,305.488,86.38Zm4.417,0c0-.839-.75-1.4-1.859-1.4s-1.879.56-1.879,1.4.76,1.4,1.879,1.4S309.906,87.21,309.906,86.38Z"/><path class="f" d="M305.608,82.85v-.68l.7-.07v-.03a2.286,2.286,0,0,1-.819-1.629c0-1.02.66-1.479,1.9-1.479h3.078v.819H307.5c-.91,0-1.3.279-1.3.919,0,.5.26.84.75,1.33h3.518v.819Z"/><path class="f" d="M305.608,77.449V76.62h2.968c.91,0,1.3-.27,1.3-.909,0-.5-.25-.85-.819-1.31h-3.448v-.819h4.857v.68l-.76.069v.03a2.054,2.054,0,0,1,.88,1.6c0,1.03-.66,1.489-1.9,1.489Z"/><path class="f" d="M309.366,72.07a2.185,2.185,0,0,0,.58-1.43c0-.64-.34-.959-.76-.959-.5,0-.72.579-.919,1.109-.25.689-.58,1.449-1.4,1.449-.779,0-1.379-.62-1.379-1.669a2.425,2.425,0,0,1,.549-1.51l.52.39a1.8,1.8,0,0,0-.43,1.109c0,.61.33.89.7.89.46,0,.63-.529.84-1.079.26-.7.55-1.479,1.469-1.479.79,0,1.449.63,1.449,1.779a2.921,2.921,0,0,1-.67,1.809Z"/><path class="f" d="M307.687,65.731a8.315,8.315,0,0,1-4.538-1.319l.24-.51a8.609,8.609,0,0,0,8.6,0l.24.51A8.313,8.313,0,0,1,307.687,65.731Z"/><path class="f" d="M305.848,63.171c-1.319,0-2.059-.59-2.059-1.489s.74-1.489,2.059-1.489,2.079.6,2.079,1.489S307.167,63.171,305.848,63.171Zm0-2.349c-1.049,0-1.549.35-1.549.859s.5.869,1.549.869,1.569-.35,1.569-.869S306.887,60.822,305.848,60.822Zm4.738.669-6.8-3.617v-.55l6.8,3.618ZM308.507,58.6c-1.309,0-2.059-.59-2.059-1.489s.75-1.489,2.059-1.489c1.329,0,2.079.6,2.079,1.489S309.836,58.6,308.507,58.6Zm0-2.349c-1.04,0-1.549.35-1.549.859s.51.869,1.549.869,1.569-.359,1.569-.869S309.546,56.255,308.507,56.255Z"/><path class="f" d="M307.687,53.751a8.316,8.316,0,0,0-4.3,1.149l-.24-.51a8.462,8.462,0,0,1,9.075,0l-.24.51A8.315,8.315,0,0,0,307.687,53.751Z"/></svg>