<svg xmlns="http://www.w3.org/2000/svg" viewBox="0 0 319 219"><defs><style>.a,.d{fill:#e84146;}.a{opacity:0.35;}.b,.c{fill:none;stroke-linejoin:round;stroke-width:2px;}.b{stroke:#e84146;}.c{stroke:#fff;stroke-linecap:round;opacity:0.65;}.e,.f{fill:#fff;}.e{opacity:0.7;}</style></defs><title>bonus_web</title><rect class="a" x="83.067" y="28.069" width="61.201" height="121.931"/><rect class="a" x="174.869" y="89.034" width="61.201" height="60.966"/><polyline class="b" points="83.067 150 83.067 28.069 144.268 28.069 144.268 150"/><polyline class="b" points="174.869 150 174.869 89.034 236.069 89.034 236.069 150"/><line class="c" x1="254.429" y1="151" x2="66.237" y2="151"/><path class="d" d="M108.459,40.141c1.769-1.709,2.878-2.829,2.878-3.8a.985.985,0,0,0-1.049-1.1,1.755,1.755,0,0,0-1.239.709l-.64-.64a2.6,2.6,0,0,1,2.028-.979,1.858,1.858,0,0,1,2.009,1.949c0,1.129-1.049,2.289-2.309,3.618.33-.03.75-.07,1.06-.07h1.56v.979h-4.3Z"/><path class="d" d="M113.608,37.6c0-2.149.84-3.269,2.159-3.269s2.159,1.129,2.159,3.269-.84,3.328-2.159,3.328S113.608,39.75,113.608,37.6Zm3.219,0c0-1.8-.439-2.369-1.06-2.369s-1.06.57-1.06,2.369.45,2.428,1.06,2.428S116.827,39.4,116.827,37.6Z"/><path class="d" d="M201.234,101.412h1.42V97.234h-1.17v-.72a4.274,4.274,0,0,0,1.47-.52h.859v5.417h1.249v.939h-3.828Z"/><path class="d" d="M206.024,99.144c0-2.149.84-3.269,2.159-3.269s2.159,1.129,2.159,3.269-.84,3.328-2.159,3.328S206.024,101.292,206.024,99.144Zm3.219,0c0-1.8-.439-2.369-1.06-2.369s-1.06.57-1.06,2.369.45,2.428,1.06,2.428S209.243,100.942,209.243,99.144Z"/><path class="e" d="M87.8,161.829c0-2.139.77-3.289,2.049-3.289s2.039,1.149,2.039,3.289-.77,3.328-2.039,3.328S87.8,163.967,87.8,161.829Zm3.288,0c0-1.869-.5-2.629-1.239-2.629s-1.249.76-1.249,2.629.5,2.668,1.249,2.668S91.086,163.7,91.086,161.829Z"/><path class="e" d="M93.118,164.357h1.459v-4.7H93.418v-.53a3.793,3.793,0,0,0,1.349-.47h.63v5.7h1.319v.68h-3.6Z"/><path class="e" d="M100.066,157.94h.6L98,166.636h-.6Z"/><path class="e" d="M101.588,164.357h1.459v-4.7h-1.159v-.53a3.793,3.793,0,0,0,1.349-.47h.63v5.7h1.319v.68h-3.6Z"/><path class="e" d="M106.558,164.357h1.459v-4.7h-1.159v-.53a3.793,3.793,0,0,0,1.349-.47h.63v5.7h1.319v.68h-3.6Z"/><path class="e" d="M113.167,162.218h2.3v.629h-2.3Z"/><path class="e" d="M118.326,161.829c0-2.139.77-3.289,2.049-3.289s2.039,1.149,2.039,3.289-.77,3.328-2.039,3.328S118.326,163.967,118.326,161.829Zm3.288,0c0-1.869-.5-2.629-1.239-2.629s-1.249.76-1.249,2.629.5,2.668,1.249,2.668S121.614,163.7,121.614,161.829Z"/><path class="e" d="M123.506,163.748a2.171,2.171,0,0,0,1.609.729,1.376,1.376,0,0,0,1.4-1.459,1.281,1.281,0,0,0-1.359-1.4,1.8,1.8,0,0,0-1.09.39l-.439-.28.21-3.068h3.188v.709h-2.469l-.17,1.889a1.956,1.956,0,0,1,.979-.26,1.835,1.835,0,0,1,1.979,2,2.085,2.085,0,0,1-2.148,2.159,2.8,2.8,0,0,1-2.089-.87Z"/><path class="e" d="M130.595,157.94h.6l-2.669,8.7h-.6Z"/><path class="e" d="M132.116,164.357h1.459v-4.7h-1.159v-.53a3.793,3.793,0,0,0,1.349-.47h.63v5.7h1.319v.68h-3.6Z"/><path class="e" d="M137.086,164.357h1.459v-4.7h-1.159v-.53a3.793,3.793,0,0,0,1.349-.47h.63v5.7h1.319v.68h-3.6Z"/><path class="e" d="M178.985,161.829c0-2.139.77-3.289,2.049-3.289s2.039,1.149,2.039,3.289-.77,3.328-2.039,3.328S178.985,163.967,178.985,161.829Zm3.288,0c0-1.869-.5-2.629-1.239-2.629s-1.249.76-1.249,2.629.5,2.668,1.249,2.668S182.273,163.7,182.273,161.829Z"/><path class="e" d="M187.5,159.729a1.392,1.392,0,0,0-1.05-.5c-.89,0-1.64.689-1.679,2.708a2.035,2.035,0,0,1,1.488-.8,1.727,1.727,0,0,1,1.819,1.969,1.928,1.928,0,0,1-1.889,2.049c-1.249,0-2.2-1.02-2.2-3.068,0-2.559,1.159-3.548,2.429-3.548a2.011,2.011,0,0,1,1.539.68Zm-.2,3.378c0-.83-.39-1.35-1.18-1.35a1.73,1.73,0,0,0-1.329.84c.1,1.239.59,1.909,1.4,1.909C186.824,164.507,187.3,163.947,187.3,163.108Z"/><path class="e" d="M191.254,157.94h.6l-2.669,8.7h-.6Z"/><path class="e" d="M192.775,164.357h1.459v-4.7h-1.159v-.53a3.793,3.793,0,0,0,1.349-.47h.63v5.7h1.319v.68h-3.6Z"/><path class="e" d="M197.745,164.357H199.2v-4.7h-1.159v-.53a3.793,3.793,0,0,0,1.349-.47h.63v5.7h1.319v.68h-3.6Z"/><path class="e" d="M204.354,162.218h2.3v.629h-2.3Z"/><path class="e" d="M209.864,164.357h1.459v-4.7h-1.159v-.53a3.793,3.793,0,0,0,1.349-.47h.63v5.7h1.319v.68h-3.6Z"/><path class="e" d="M214.693,163.748a2.171,2.171,0,0,0,1.609.729,1.376,1.376,0,0,0,1.4-1.459,1.281,1.281,0,0,0-1.359-1.4,1.8,1.8,0,0,0-1.09.39l-.439-.28.21-3.068h3.188v.709h-2.469l-.17,1.889a1.956,1.956,0,0,1,.979-.26,1.835,1.835,0,0,1,1.979,2,2.085,2.085,0,0,1-2.148,2.159,2.8,2.8,0,0,1-2.089-.87Z"/><path class="e" d="M221.782,157.94h.6l-2.669,8.7h-.6Z"/><path class="e" d="M223.3,164.357h1.459v-4.7H223.6v-.53a3.793,3.793,0,0,0,1.349-.47h.63v5.7H226.9v.68h-3.6Z"/><path class="e" d="M228.273,164.357h1.459v-4.7h-1.159v-.53a3.793,3.793,0,0,0,1.349-.47h.63v5.7h1.319v.68h-3.6Z"/><path class="f" d="M123.386,178.477a2,2,0,0,1,1.359.56l-.04-.83v-1.869h.83v7.116h-.68l-.07-.57h-.029a2.192,2.192,0,0,1-1.47.69c-1.219,0-2.009-.92-2.009-2.539A2.3,2.3,0,0,1,123.386,178.477Zm.08,4.407a1.642,1.642,0,0,0,1.239-.669v-2.539a1.687,1.687,0,0,0-1.179-.51c-.78,0-1.4.75-1.4,1.859C122.127,182.184,122.616,182.884,123.466,182.884Z"/><path class="f" d="M129.926,180.375c0-.62-.21-1.22-1-1.22a2.615,2.615,0,0,0-1.449.52l-.329-.57a3.6,3.6,0,0,1,1.908-.629c1.189,0,1.689.79,1.689,2v2.979h-.68l-.07-.58h-.02a2.64,2.64,0,0,1-1.609.7,1.324,1.324,0,0,1-1.429-1.379C126.938,181.135,127.856,180.6,129.926,180.375Zm-1.33,2.539a1.989,1.989,0,0,0,1.33-.65v-1.349c-1.63.2-2.179.6-2.179,1.219A.744.744,0,0,0,128.6,182.914Z"/><path class="f" d="M132.438,179.266h-.72v-.62l.759-.05.1-1.359h.689V178.6h1.31v.67h-1.31v2.7c0,.6.189.939.75.939a1.752,1.752,0,0,0,.549-.13l.16.62a3,3,0,0,1-.9.18c-1.039,0-1.389-.66-1.389-1.619Z"/><path class="f" d="M137.4,178.477c1.239,0,1.938.889,1.938,2.278a2.971,2.971,0,0,1-.029.45h-3.278a1.616,1.616,0,0,0,1.619,1.709,2.191,2.191,0,0,0,1.209-.38l.29.54a2.892,2.892,0,0,1-1.6.5,2.569,2.569,0,0,1-.149-5.1Zm1.219,2.188c0-.989-.439-1.539-1.2-1.539a1.515,1.515,0,0,0-1.4,1.539Z"/><path class="f" d="M144.446,178.477a2.569,2.569,0,1,1-2.249,2.559A2.321,2.321,0,0,1,144.446,178.477Zm0,4.417c.839,0,1.4-.75,1.4-1.859s-.56-1.879-1.4-1.879-1.4.76-1.4,1.879S143.616,182.894,144.446,182.894Z"/><path class="f" d="M150.166,177.007a1.367,1.367,0,0,0-.55-.12c-.46,0-.68.32-.68.939v.77h1.029v.67h-1.029v4.188h-.819v-4.187h-.66v-.62l.66-.05v-.77c0-.989.449-1.609,1.419-1.609a2.2,2.2,0,0,1,.81.16Z"/><path class="f" d="M152.767,177.067a.571.571,0,0,1,1.139,0,.571.571,0,0,1-1.139,0Zm.149,1.529h.819v4.857h-.819Z"/><path class="f" d="M155.376,178.6h.68l.07.7h.03a2.286,2.286,0,0,1,1.629-.819c1.02,0,1.479.66,1.479,1.9v3.078h-.819v-2.968c0-.91-.279-1.3-.919-1.3-.5,0-.84.26-1.33.75v3.518h-.819Z"/><path class="f" d="M160.146,178.6H161l.919,2.759c.141.479.3.969.45,1.429h.04c.14-.46.3-.95.439-1.429l.92-2.759h.81l-1.72,4.857H161.9Z"/><path class="f" d="M167.295,178.477c1.239,0,1.938.889,1.938,2.278a2.971,2.971,0,0,1-.029.45h-3.278a1.616,1.616,0,0,0,1.619,1.709,2.191,2.191,0,0,0,1.209-.38l.29.54a2.892,2.892,0,0,1-1.6.5,2.569,2.569,0,0,1-.149-5.1Zm1.219,2.188c0-.989-.439-1.539-1.2-1.539a1.515,1.515,0,0,0-1.4,1.539Z"/><path class="f" d="M170.306,182.354a2.185,2.185,0,0,0,1.43.58c.64,0,.959-.34.959-.76,0-.5-.579-.72-1.109-.919-.689-.25-1.449-.58-1.449-1.4,0-.779.62-1.379,1.669-1.379a2.425,2.425,0,0,1,1.51.549l-.39.52a1.8,1.8,0,0,0-1.109-.43c-.61,0-.89.33-.89.7,0,.46.529.63,1.079.84.7.26,1.479.55,1.479,1.469,0,.79-.63,1.449-1.779,1.449a2.921,2.921,0,0,1-1.809-.67Z"/><path class="f" d="M174.766,179.266h-.72v-.62l.759-.05.1-1.359h.689V178.6h1.31v.67h-1.31v2.7c0,.6.189.939.75.939a1.752,1.752,0,0,0,.549-.13l.16.62a3,3,0,0,1-.9.18c-1.039,0-1.389-.66-1.389-1.619Z"/><path class="f" d="M178,178.6h.68l.07.7h.03a2.13,2.13,0,0,1,1.509-.819,1.274,1.274,0,0,1,1.339.929,2.3,2.3,0,0,1,1.6-.929c1,0,1.479.66,1.479,1.9v3.078h-.819v-2.968c0-.91-.29-1.3-.9-1.3a1.781,1.781,0,0,0-1.219.75v3.518h-.82v-2.968c0-.91-.289-1.3-.909-1.3a1.826,1.826,0,0,0-1.22.75v3.518H178Z"/><path class="f" d="M188.114,178.477c1.239,0,1.938.889,1.938,2.278a2.971,2.971,0,0,1-.029.45h-3.278a1.616,1.616,0,0,0,1.619,1.709,2.191,2.191,0,0,0,1.209-.38l.29.54a2.892,2.892,0,0,1-1.6.5,2.569,2.569,0,0,1-.149-5.1Zm1.219,2.188c0-.989-.439-1.539-1.2-1.539a1.515,1.515,0,0,0-1.4,1.539Z"/><path class="f" d="M191.255,178.6h.68l.07.7h.03a2.286,2.286,0,0,1,1.629-.819c1.02,0,1.479.66,1.479,1.9v3.078h-.819v-2.968c0-.91-.279-1.3-.919-1.3-.5,0-.84.26-1.33.75v3.518h-.819Z"/><path class="f" d="M196.865,179.266h-.72v-.62l.759-.05.1-1.359h.689V178.6H199v.67h-1.31v2.7c0,.6.189.939.75.939a1.752,1.752,0,0,0,.549-.13l.16.62a3,3,0,0,1-.9.18c-1.039,0-1.389-.66-1.389-1.619Z"/><path class="d" d="M272.531,144.8c0-.55-.44-.9-1.04-1.1l-.36-.11-4.867,1.949v-.85l2.688-.989c.42-.149.919-.319,1.369-.47v-.04c-.439-.14-.939-.279-1.369-.409l-2.688-.87v-.8l5.257,1.829c.959.34,1.689.84,1.689,1.819a1.606,1.606,0,0,1-.1.569l-.649-.159A1.443,1.443,0,0,0,272.531,144.8Z"/><path class="d" d="M266.264,140.236v-.829h2.968c.91,0,1.3-.27,1.3-.909,0-.5-.25-.85-.819-1.31h-3.448v-.819h4.857v.68l-.76.069v.03a2.054,2.054,0,0,1,.88,1.6c0,1.03-.66,1.489-1.9,1.489Z"/><path class="d" d="M271.532,133.908h1.639v.819h-6.906v-.68l.56-.07v-.029a2.516,2.516,0,0,1-.679-1.55c0-1.249.969-1.919,2.479-1.919,1.649,0,2.619.989,2.619,2.1a2.252,2.252,0,0,1-.56,1.35Zm-.979-1.189c0-.8-.729-1.39-1.929-1.39-1.069,0-1.789.36-1.789,1.279a2.049,2.049,0,0,0,.66,1.3h2.548A1.923,1.923,0,0,0,270.552,132.719Z"/><path class="d" d="M264.735,129.327a.571.571,0,0,1,0-1.139.571.571,0,0,1,0,1.139Zm1.529-.149v-.819h4.857v.819Z"/><path class="d" d="M266.145,124.9c0-1.239.889-1.938,2.278-1.938a2.971,2.971,0,0,1,.45.029v3.278a1.616,1.616,0,0,0,1.709-1.619,2.191,2.191,0,0,0-.38-1.209l.54-.29a2.892,2.892,0,0,1,.5,1.6,2.569,2.569,0,0,1-5.1.149Zm2.188-1.219c-.989,0-1.539.439-1.539,1.2a1.515,1.515,0,0,0,1.539,1.4Z"/><path class="d" d="M266.934,119.6v.719h-.62l-.05-.759-1.359-.1v-.689h1.359v-1.31h.67v1.31h2.7c.6,0,.939-.189.939-.75a1.752,1.752,0,0,0-.13-.549l.62-.16a3,3,0,0,1,.18.9c0,1.039-.66,1.39-1.619,1.39Z"/><path class="d" d="M266.145,114.568a2.569,2.569,0,1,1,2.559,2.249A2.321,2.321,0,0,1,266.145,114.568Zm4.417,0c0-.839-.75-1.4-1.859-1.4s-1.879.56-1.879,1.4.76,1.4,1.879,1.4S270.562,115.4,270.562,114.568Z"/><path class="d" d="M264.006,111.038v-.81h4.817v-.03l-2.559-2.068v-.91l1.949,1.629L271.122,107v.9l-2.339,1.419,1.06.91h1.279v.81Z"/><path class="d" d="M266.145,104.449c0-1.239.889-1.938,2.278-1.938a2.971,2.971,0,0,1,.45.029v3.278a1.616,1.616,0,0,0,1.709-1.619,2.191,2.191,0,0,0-.38-1.209l.54-.29a2.892,2.892,0,0,1,.5,1.6,2.569,2.569,0,0,1-5.1.149Zm2.188-1.219c-.989,0-1.539.439-1.539,1.2a1.515,1.515,0,0,0,1.539,1.4Z"/><path class="d" d="M266.264,101.309v-.68l.7-.07v-.03a2.286,2.286,0,0,1-.819-1.629c0-1.02.66-1.479,1.9-1.479h3.078v.819h-2.968c-.91,0-1.3.279-1.3.919,0,.5.26.84.75,1.33h3.518v.819Z"/><path class="d" d="M264.006,93.819V93h1.939l.879.02a2.4,2.4,0,0,1-.679-1.52c0-1.259.969-1.929,2.468-1.929,1.659,0,2.629.989,2.629,2.1a2.2,2.2,0,0,1-.6,1.39v.03l.479.069v.66Zm6.546-2.009c0-.8-.729-1.39-1.929-1.39-1.069,0-1.789.36-1.789,1.279a2,2,0,0,0,.66,1.3h2.548A1.9,1.9,0,0,0,270.552,91.811Z"/><path class="d" d="M266.145,86.38a2.569,2.569,0,1,1,2.559,2.249A2.321,2.321,0,0,1,266.145,86.38Zm4.417,0c0-.839-.75-1.4-1.859-1.4s-1.879.56-1.879,1.4.76,1.4,1.879,1.4S270.562,87.21,270.562,86.38Z"/><path class="d" d="M266.264,82.85v-.68l.7-.07v-.03a2.286,2.286,0,0,1-.819-1.629c0-1.02.66-1.479,1.9-1.479h3.078v.819h-2.968c-.91,0-1.3.279-1.3.919,0,.5.26.84.75,1.33h3.518v.819Z"/><path class="d" d="M266.264,77.449V76.62h2.968c.91,0,1.3-.27,1.3-.909,0-.5-.25-.85-.819-1.31h-3.448v-.819h4.857v.68l-.76.069v.03a2.054,2.054,0,0,1,.88,1.6c0,1.03-.66,1.489-1.9,1.489Z"/><path class="d" d="M270.022,72.07a2.185,2.185,0,0,0,.58-1.43c0-.64-.34-.959-.76-.959-.5,0-.72.579-.919,1.109-.25.689-.58,1.449-1.4,1.449-.779,0-1.379-.62-1.379-1.669a2.425,2.425,0,0,1,.549-1.51l.52.39a1.8,1.8,0,0,0-.43,1.109c0,.61.33.89.7.89.46,0,.63-.529.84-1.079.26-.7.55-1.479,1.469-1.479.79,0,1.449.63,1.449,1.779a2.921,2.921,0,0,1-.67,1.809Z"/><path class="d" d="M268.344,65.731a8.315,8.315,0,0,1-4.538-1.319l.24-.51a8.609,8.609,0,0,0,8.6,0l.24.51A8.313,8.313,0,0,1,268.344,65.731Z"/><path class="d" d="M266.5,63.171c-1.319,0-2.059-.59-2.059-1.489s.74-1.489,2.059-1.489,2.079.6,2.079,1.489S267.824,63.171,266.5,63.171Zm0-2.349c-1.049,0-1.549.35-1.549.859s.5.869,1.549.869,1.569-.35,1.569-.869S267.544,60.822,266.5,60.822Zm4.738.669-6.8-3.617v-.55l6.8,3.618ZM269.163,58.6c-1.309,0-2.059-.59-2.059-1.489s.75-1.489,2.059-1.489c1.329,0,2.079.6,2.079,1.489S270.492,58.6,269.163,58.6Zm0-2.349c-1.04,0-1.549.35-1.549.859s.51.869,1.549.869,1.569-.359,1.569-.869S270.2,56.255,269.163,56.255Z"/><path class="d" d="M268.344,53.751a8.316,8.316,0,0,0-4.3,1.149l-.24-.51a8.462,8.462,0,0,1,9.075,0l-.24.51A8.315,8.315,0,0,0,268.344,53.751Z"/></svg>