<svg xmlns="http://www.w3.org/2000/svg" viewBox="0 0 450 450"><defs><style>.a,.b,.f,.i,.j{fill:none;stroke:#fff;}.a,.b,.i{stroke-miterlimit:10;}.a,.f{stroke-width:2px;}.b,.i,.j{stroke-width:3px;}.c,.g{fill:#e84146;}.d,.h{opacity:0.5;}.e,.h{fill:#fff;}.f,.i,.j{stroke-linecap:round;}.f,.j{stroke-linejoin:round;}.g{opacity:0.76;}</style></defs><title>chinese_diagram</title><path class="a" d="M155.4,72.4a21.8,21.8,0,0,1-21.8,21.8H90.2a21.8,21.8,0,0,1,0-43.5h43.5A21.8,21.8,0,0,1,155.4,72.4Z"/><path class="a" d="M155.4,72.4a21.8,21.8,0,0,1-21.8,21.8H90.2a21.8,21.8,0,0,1,0-43.5h43.5A21.8,21.8,0,0,1,155.4,72.4Z"/><path class="a" d="M155.4,72.4a21.8,21.8,0,0,1-21.8,21.8H90.2a21.8,21.8,0,0,1,0-43.5h43.5A21.8,21.8,0,0,1,155.4,72.4Z"/><path class="b" d="M155.4,72.4a21.8,21.8,0,0,1-21.8,21.8H90.2a21.8,21.8,0,0,1,0-43.5h43.5A21.8,21.8,0,0,1,155.4,72.4Z"/><path class="c" d="M125.6,72.8a3,3,0,0,1-1.5-5.7L136,60.6a3,3,0,0,1,2.9,5.3L127,72.5A3,3,0,0,1,125.6,72.8Z"/><g class="d"><path class="e" d="M125.6,84.2a3,3,0,0,1-1.5-5.7L136,71.9a3,3,0,0,1,2.9,5.3L127,83.8A3,3,0,0,1,125.6,84.2Z"/></g><path class="e" d="M21.5,135H35.1v1.2H21.5Z"/><path class="e" d="M43.2,129.6l-.2.3a12.4,12.4,0,0,0,6.2,5.2l-.7,1.2a15.3,15.3,0,0,1-6.1-5.4,18.2,18.2,0,0,1-6.1,5.6l-.7-1.1a16.3,16.3,0,0,0,6.3-5.9Zm-1.5,4.7h1.2v8.5H41.6Z"/><path class="e" d="M49.5,134h2.2l-1.1-1.6.7-.5,1.2,1.5-.8.6h1.8l1.4-2.1,1,.5L54.6,134h2.1v.9H49.5Zm1.4,4,.9.4-1.5,2.8-.9-.5A21.5,21.5,0,0,0,50.9,138.1Zm-1.1-1.5h2.8v-1.3h1v1.3h2.7v.9H53.6V141q0,1.4-1.4,1.4H50.9l-.2-1H52q.6,0,.6-.7v-3.3H49.9Zm.1-5.7h3l-.7-1.2.9-.4.8,1.4-.5.2h2.9v.9H49.9Zm4.9,7.3,1.3,1.9-.9.6-1.3-2Zm2.3-7.7a25.1,25.1,0,0,0,5.2-.6l.4,1.1-4.6.5v3.2h5v.9h-2v7.2h-1v-7.2h-2v.7a9.7,9.7,0,0,1-2,6.5l-.7-.9a8.2,8.2,0,0,0,1.8-5.7Z"/><path class="e" d="M64.9,134.8h6.5q.9-1.4,1.7-2.7l1.1.7-1.5,2h4v1H66v1a13.1,13.1,0,0,1-.4,3.6,6.2,6.2,0,0,1-1.4,2.5l-.7-.9a4.8,4.8,0,0,0,1.1-2,12.3,12.3,0,0,0,.3-3.1Zm-1.1-3.9H70l-.7-1.1,1-.5.9,1.7H77v1H63.8Zm2.9,1.8.9-.6,1.5,2-1,.7Z"/><path class="e" d="M78.2,136.4h5.2v6.3h-1v-.9H79.3v.9h-1Zm4.2,1H79.3v3.5h3.1Zm-2.8-7.5H89v5.4H87.9v-.4H80.7v.4H79.6Zm8.3,1H80.7v3.1h7.2Zm-2.8,5.6h5.2v6.3h-1v-.9H86.2v.9h-1Zm4.2,1H86.2v3.5h3.1Z"/><path class="e" d="M93.3,132.4h2.9q.3-1.4.6-3.1l1.2.2q-.2,1.6-.6,3H105v1H97.1l-.5,1.7h6.8v.9a9.9,9.9,0,0,1-2.8,3.9,13.2,13.2,0,0,0,4.5,1.6l-1,1.1a20.2,20.2,0,0,1-4.4-2.1,21,21,0,0,1-5.1,2.2l-.8-1a20.6,20.6,0,0,0,5-1.9,8.4,8.4,0,0,1-2.6-3.9,16.8,16.8,0,0,1-4.1,6.2l-.7-.9a16.3,16.3,0,0,0,4.5-7.9H92.2v-1l1-2.6,1.1.3Zm8.8,3.7H97.2a6.6,6.6,0,0,0,2.4,3.3A8.3,8.3,0,0,0,102.2,136.1Zm-2.1-5.9.6-.8,2.6,1.8-.7.9Z"/><path class="e" d="M112.4,132.9h1.1V135h4.2v4.7q0,1.6-1.4,1.6h-2l-.2-1.1h1.6q.9,0,.9-.8V136h-3.1v6.7h-1.1V136h-3.1v5.7h-1.1v-5.4l-2,2.4-.8-.9a26.2,26.2,0,0,0,4.1-5.6h-3.9v-1h4.4l.9-2,1.1.4-.7,1.6H119v1h-8.1a32.5,32.5,0,0,1-1.7,2.8h3.2Z"/><path class="e" d="M125.9,134.4l4.3-2.9H120v-1.1h12.2v1.4l-5,3.3v5a2.6,2.6,0,0,1-.5,1.9,2.5,2.5,0,0,1-1.9.6h-2.2q-.1-.7-.2-1.3l2.4.2a1.1,1.1,0,0,0,1.3-1.2Z"/><path class="e" d="M138.3,137.3v-1h4v1Z"/><path class="e" d="M149.6,129.7v4.1h3.9v1h-3.9v5.8l3.7-1.7q0,.6.1,1.2l-3.4,1.5-1.1.8-.8-1.1a1.2,1.2,0,0,0,.4-1V129.7Zm4.7-.4h1.1v5.8a23,23,0,0,0,4.4-4l1,.7a32.1,32.1,0,0,1-5.3,4.6v4q0,.9.8.9h2.3a.9.9,0,0,0,1-.8q.2-1,.2-2.3l1.2.4a22.5,22.5,0,0,1-.3,2.3,1.6,1.6,0,0,1-1.8,1.4h-3q-1.6,0-1.6-1.7Z"/><path class="e" d="M161.7,131.7h6.6l-1.1-1.9,1.1-.5,1.1,1.9-1,.5h6.5v1h-8.3q0,1.2-.1,2.1h6.6q-.2,3-.4,5.2t-2.4,2.5h-2.8l-.2-1.3,2.8.2q1.3,0,1.4-1.5t.3-4h-5.4a8.9,8.9,0,0,1-4.2,7l-.8-.9a8,8,0,0,0,3.9-6.4q.1-1.1.2-2.8h-3.7Z"/><path class="e" d="M180,138.4a10.4,10.4,0,0,0,.2,1.1l-2.1,1.7-.6.6-.8-.9a1.7,1.7,0,0,0,.4-1.3v-4.9h-1.6v-1h2.6v6.1Zm-2.9-9,2.1,2.2-.9.8-2-2.4Zm10.8,2.6v5.6h-1v-.5h-1.3v3.6q0,.8.7.8h.9q.6,0,.7-.6a15.1,15.1,0,0,0,.1-1.8l1.1.4q-.1.9-.2,1.8a1.3,1.3,0,0,1-1.5,1.2h-1.3a1.4,1.4,0,0,1-1.5-1.6v-3.7h-1.4a7,7,0,0,1-.7,3.4,6.1,6.1,0,0,1-2.9,2.3l-.7-.9a5.1,5.1,0,0,0,2.6-1.8,5.4,5.4,0,0,0,.6-2.9h-1v.5h-1V132h4.3l1.7-2.7,1.1.6-1.6,2.1Zm-7.2-2.2.8-.6,1.7,2-.9.6Zm6.2,3.1h-5.7v3.2h5.7Z"/><path class="e" d="M197,139.2l-1.2,3.6h-1l.8-3.6Z"/><path class="e" d="M63.5,151.8H77.1V153H63.5Z"/><path class="e" d="M85.2,146.4l-.2.3a12.4,12.4,0,0,0,6.2,5.2l-.7,1.2a15.3,15.3,0,0,1-6.1-5.4,18.2,18.2,0,0,1-6.1,5.6l-.7-1.1a16.3,16.3,0,0,0,6.3-5.9Zm-1.5,4.7h1.2v8.5H83.6Z"/><path class="e" d="M92.2,147.9h5v-1.7h1.1v1.8h5.1v7.7H98.3v1.6q0,.8.9.8h3.2q.9,0,1.1-.6a8.7,8.7,0,0,0,.3-1.9l1.1.4a17.9,17.9,0,0,1-.4,1.9,1.7,1.7,0,0,1-1.9,1.3H99.1a1.7,1.7,0,0,1-1.9-1.9v-1.6H93.3v.9H92.2Zm1.1,3.3h3.9v-2.3H93.3Zm0,3.3h3.9v-2.3H93.3Zm9-5.6H98.3v2.3h3.9Zm0,5.6v-2.3H98.3v2.3Z"/><path class="e" d="M105.6,152.3h6.4v-1.5l3.9-2.9H107v-1h10.7V148l-4.6,3.3v1h6v1h-6v4.3q0,1.8-1.9,1.8H109l-.2-1.2h2.1a.9.9,0,0,0,1-1v-4h-6.4Z"/><path class="e" d="M120,149.8l2.2,1.7-.7.8-2.1-1.8Zm1.1,4,1.1.4-1.2,5.2-1.1-.4A46.5,46.5,0,0,0,121.1,153.8Zm-.5-7.4,2,1.7-.8.8-1.9-1.8Zm1.8,2.3h4.9v.9h-2.8q0,1.1,0,2.1h2.5q-.1,3.9-.2,5.9t-1.5,1.6H124l-.2-1h1.2q.7,0,.8-.8t.2-4.8h-1.6q-.1,4.9-2,7l-.7-.8a6.7,6.7,0,0,0,1.4-3.2,36.3,36.3,0,0,0,.4-6h-1.1Zm1.4-2.1.9-.5,1.1,1.9-.9.5Zm3.5,7.2h2.5V153l1.6-1.7H128v-.8l-.6.9-.7-.8a11.2,11.2,0,0,0,1.9-4.6l1,.2a15.2,15.2,0,0,1-.5,1.9H133v.9h-4.3l-.6,1.3h4.5v1l-1.9,1.9v.5h2.4v.9h-2.4v3.2a1.3,1.3,0,0,1-1.5,1.4h-1.4l-.2-1h1.4q.6,0,.6-.7v-3h-2.5Z"/><path class="e" d="M134.7,149.8l2.1,3.1a18.4,18.4,0,0,0,.9-4.1h-4v-1h5v1a19.8,19.8,0,0,1-1.3,5.2l1.9,3-.9.6-1.5-2.5a14.2,14.2,0,0,1-2.9,3.9l-.7-.9a13.1,13.1,0,0,0,2.9-4.1l-2.5-3.7Zm4,8.6a16.9,16.9,0,0,0,3.4-2.6,20,20,0,0,1-.8-4.7l-2.1.2-.2-1,2.2-.3q-.1-1.7-.2-3.9h1.1q0,2.1.1,3.7l4.5-.5v1l-4.5.5a19.7,19.7,0,0,0,.6,4,18.1,18.1,0,0,0,2.3-3.4l1,.5a20.2,20.2,0,0,1-2.9,4,4.9,4.9,0,0,0,1.2,1.8l.7.4q.3,0,.5-.6t.3-2.1l1.1.4a19.3,19.3,0,0,1-.5,2.4q-.4,1.1-1.2,1.1a2.1,2.1,0,0,1-1.4-.6,5.6,5.6,0,0,1-1.5-2,18.4,18.4,0,0,1-3.1,2.4Zm4.4-11.2.6-.7,2.3,1.7-.7.8-.3-.2Z"/><path class="e" d="M149.9,155.9a1.6,1.6,0,0,1,1.2.5,1.8,1.8,0,0,1,0,2.5,1.7,1.7,0,0,1-2.9-1.3,1.6,1.6,0,0,1,.5-1.3A1.8,1.8,0,0,1,149.9,155.9Zm0,2.5.5-.2a.7.7,0,0,0,.2-.5.7.7,0,0,0-.2-.6l-.5-.2-.5.2a.7.7,0,0,0-.2.6.6.6,0,0,0,.2.5Z"/><path class="e" d="M289,135.8a15.8,15.8,0,0,0,4.6-5.9l1.1.5a18.6,18.6,0,0,1-4.8,6.3Zm8.9,1.7q2,2.6,3.3,4.6l-1,.7-.8-1.3-7.3.4-1.3.2-.6-1.2a3.5,3.5,0,0,0,1.1-.8,28.8,28.8,0,0,0,3.5-5.5l1.2.5a52.6,52.6,0,0,1-3.6,5.4l6.4-.3L297,138Zm-1.2-7.4,1-.4a10.8,10.8,0,0,0,4.9,5.7l-.8,1.1A12.9,12.9,0,0,1,296.7,130.1Z"/><path class="e" d="M303.2,132.7h10.4v1H303.2Zm.8-1.7v-1h11.8v10.6q0,1.9-1.7,1.9h-2.7a7.1,7.1,0,0,0-.2-1.2h2.6q.9,0,.9-1.1V131Zm.6,4.3h7.2v4.8h-6.1v1h-1.1Zm6.1,3.9v-2.9h-5v2.9Z"/><path class="e" d="M319.4,129.4h1.1v13.4h-1.1v-5.3l-1.8,2.1-.7-1,2.6-2.7ZM317,132l.9-.5,1.3,2.5-1,.6Zm3.9.8a14.9,14.9,0,0,0,3.8-3.5l1,.5-1.1,1.2H330v.9q-1.9,2.8-8.3,4.5l-.5-1a21,21,0,0,0,3.4-1l-1.4-1.1.7-.7,1.6,1.4a11.1,11.1,0,0,0,3.1-2.1h-5l-2.1,1.7Zm.2,4h6.4V135h1.1v1.7h2v1h-2v3.2q0,1.7-1.6,1.7h-1.9l-.2-1.2h1.8q.8,0,.8-.9v-2.9h-6.4Zm1.5,1.8.8-.6,1.9,2-.9.7Z"/><path class="e" d="M331,136a21.5,21.5,0,0,0,2.8-6.6l1,.3q-.6,1.8-1.2,3.4v9.7h-1v-7.6l-1.2,2Zm4.8-6h7.6v5.2h-1v-.5h-2.3v1.8h4.5v.9h-3.7a8.5,8.5,0,0,0,3.8,3.3l-.7,1a10.4,10.4,0,0,1-3.9-4.2v5.3h-1v-5.3a12.2,12.2,0,0,1-4.1,4.5l-.8-.8a10.7,10.7,0,0,0,4-3.7h-3.6v-.9h4.5v-1.8h-2.3v.6h-1Zm6.6.9h-5.6v2.8h5.6Z"/><path class="e" d="M349.3,137.6a7.6,7.6,0,0,0,.3,1.2l-2.5,2.6-.8-.9a2.3,2.3,0,0,0,.4-1.4v-4.3H345v-1h2.7v5.3Zm-2.9-8.1,2.2,2.4-1,.8-2.1-2.4Zm2.1,11.5h1.9v-7.6h1.1V141h2.2V131h-4.4v-1h9.1v1h-3.7v4.1h3.2v1h-3.2V141h3.9v1H348.5Z"/><path class="e" d="M360.7,137.5l2.8-.2v.9l-3.9.4-.2-.9a14.3,14.3,0,0,0,2.1-2.9l-2.1.2-.3-.9a18,18,0,0,0,2.6-4.7l1.1.4a42.7,42.7,0,0,1-2.5,4.2h1.6l1-1.9,1,.4Q362,135.7,360.7,137.5Zm-1.6,3.2,4.6-.9q0,.5,0,1l-4.2,1Zm9.6-11.3-.3.5a13,13,0,0,0,4.4,4.3l-.8.9a15.2,15.2,0,0,1-4.2-4.3,16.8,16.8,0,0,1-3.9,4.5l-.8-.8a15,15,0,0,0,4.3-5.1Zm-4.2,7.6h6.9v5.8h-1v-.9h-4.8v.9h-1Zm.5-2.6h6v.9h-6Zm5.4,3.5h-4.8v3h4.8Z"/><path class="e" d="M373.3,134.9h6.5l-3.5-2.5.7-.8,2.6,1.7,3.2-2.1h-8.2v-1.1h10.2v1.1l-4.2,2.8.5.3-.5.5h5.1V136l-.9,2.7-1.1-.3.8-2.4h-4v4.4a1.9,1.9,0,0,1-2.2,2.2h-2.3l-.3-1.2h2.4a1.1,1.1,0,0,0,1.2-1.2V136h-6Z"/><path class="e" d="M282,151.8h13.6V153H282Z"/><path class="e" d="M296,158.6a8.2,8.2,0,0,0,2.6-5.7l1.1.2a14.3,14.3,0,0,1-.5,2.4,4.2,4.2,0,0,0,3.3,2.6v-6h-6.2v-1h13v1h-5.6v2.2h4.8v1h-4.8V158h5.9l-.4,1.1h-5.9a4.9,4.9,0,0,1-4.5-2.5,9,9,0,0,1-2.1,3.1Zm.8-10.8h5.8l-.9-1.1,1-.6,1.2,1.4-.6.3h5.5v2.6h-1.1v-1.6h-9.9v1.6h-1.1Z"/><path class="e" d="M311.6,149.7h4.2l.4-1.9h-6v-1h13.3v1h-6.2l-.4,1.9h5.2v9.7H321v-1h-8.3v1h-1.1Zm9.4,1h-8.3v2.8H321Zm-8.3,6.7H321v-2.9h-8.3Z"/><path class="e" d="M323.9,151.7a16.9,16.9,0,0,0,4.8-5.4l1,.5a19,19,0,0,1-5,5.8Zm1.9.5h9.1q-.1,2.3-.2,4.5t-2.4,2.5h-2.3l-.2-1.2,2.4.2q1.4,0,1.5-1.6t.2-3.4h-4.2a8.8,8.8,0,0,1-1,3.7,6.7,6.7,0,0,1-3.5,2.8l-.8-.9a6.2,6.2,0,0,0,3.3-2.5,6.9,6.9,0,0,0,.8-3.1h-2.6Zm5.7-5.7,1-.4a10.3,10.3,0,0,0,5.3,5.5l-.9,1A12.3,12.3,0,0,1,331.5,146.5Z"/><path class="e" d="M340.2,146.5v4.1H344v1h-3.9v5.8l3.7-1.7q0,.6.1,1.2l-3.4,1.5-1.1.8-.8-1.1a1.2,1.2,0,0,0,.4-1V146.5Zm4.7-.4H346v5.8a23,23,0,0,0,4.4-4l1,.7a32.1,32.1,0,0,1-5.3,4.6v4q0,.9.8.9h2.3a.9.9,0,0,0,1-.8q.2-1,.2-2.3l1.2.4a22.5,22.5,0,0,1-.3,2.3,1.6,1.6,0,0,1-1.8,1.4h-3q-1.6,0-1.6-1.7Z"/><path class="e" d="M352.6,148.4H354l.8-2.3,1.1.3-.8,1.9h2.7v10.9h-1.1v-1.1h-3.1v1.2h-1.1Zm4.2,1h-3.1v3.3h3.1Zm-3.1,7.8h3.1v-3.5h-3.1Zm4.4-6a20,20,0,0,0,2.2-5.1l1.1.3-.7,1.9h4.4q-.2,7-.3,8.8a2,2,0,0,1-2.3,2.1H360a9.4,9.4,0,0,0-.2-1.2h0l2.5.2a1.2,1.2,0,0,0,1.3-1.3q.2-2,.2-7.5h-3.7a18.8,18.8,0,0,1-1.2,2.3Zm1.2.9.8-.6q1.5,1.8,2.4,3.1l-1,.7A33,33,0,0,0,359.3,152.1Z"/><path class="e" d="M369.5,146.2h1v13.4h-1v-4.2l-1.7,1-.7.6-.8-.9a1.6,1.6,0,0,0,.4-1.2v-6.8h1v7l1.7-.9Zm1.2,5.8a25.2,25.2,0,0,0,2.5-5.9l1.1.3-.9,2.4h6v1h-1.6a11.7,11.7,0,0,1-2,6.4,12,12,0,0,0,3.9,2.1l-.8,1.1a13.2,13.2,0,0,1-3.9-2.4,15.4,15.4,0,0,1-3.7,2.5l-.7-.9a14.2,14.2,0,0,0,3.6-2.4,10.3,10.3,0,0,1-2-4.9l-.8,1.4Zm6-2.1h-3.6a10.1,10.1,0,0,0,1.9,5.6A10.3,10.3,0,0,0,376.7,149.8Z"/><path class="e" d="M383.8,146.9l.9-.6q1.5.9,3.4,4.8,2.6,5.6,5.6,6.8l-1,1.2q-3-1.8-5.5-7.5l-.4-.9a15.1,15.1,0,0,1-5.9,8.4l-.8-1a14,14,0,0,0,6-8.8A6.8,6.8,0,0,0,383.8,146.9Z"/><path class="e" d="M71.2,337.7a16.5,16.5,0,0,0,3-5.5l1,.3-.4,1.1H78v1a10.8,10.8,0,0,1-5.7,7.8l-.8-.8a11.2,11.2,0,0,0,3.1-2.3l-1.7-1.3.5-.7,1.9,1.3.7-1L74,336.4l.5-.7,1.8,1.1a9.2,9.2,0,0,0,.6-2.1H74.3a25.1,25.1,0,0,1-2.4,3.9Zm1.9,4.6,1,.4a28.4,28.4,0,0,1-1.5,3l-1-.4A19.1,19.1,0,0,0,73.1,342.3Zm2.3.6.9-.4,1.3,2.5-1,.4Q76.1,344.3,75.4,342.9Zm2.7-7.4h2.2q0-1.4,0-3.1h1q0,1.8,0,3.1h3.4v1H81.4a6.6,6.6,0,0,0,3.6,4.6l-.8.9a7.4,7.4,0,0,1-3.3-4.3,7.7,7.7,0,0,1-3.8,4.5l-.7-.9q3.3-1.8,3.8-4.8H78Zm.8,7.3.9-.4,1.3,2.5-1,.4Zm3.1-9.6.6-.6,1.8,1.6-.7.7Zm.2,9.4.9-.5,1.8,2.8-1,.6Z"/><path class="e" d="M88,337.4a21.6,21.6,0,0,1-.4,5.1,10.8,10.8,0,0,1-1.6,3.3l-.8-1a8.3,8.3,0,0,0,1.3-2.8,17,17,0,0,0,.3-3.9v-4.6a102.4,102.4,0,0,0,10.6-.8l.7,1.1q-5.7.6-10.1.7v1.8H98.8v1Zm1.3,2.2h8.3v6.2H96.4v-.9H90.3v.9H89.2Zm7.2,1H90.3v3.3h6.1Z"/><path class="e" d="M99.3,339a21.7,21.7,0,0,0,3.3-6.8l1.1.3q-.6,1.7-1.3,3.2v9.9h-1.1v-7.9a19.5,19.5,0,0,1-1.6,2.4Zm7.1-.2-2,4.7-1-.5a43.6,43.6,0,0,0,2-4.6Zm4.3-1.2.9-2.1h-5.7a21.5,21.5,0,0,1-1.4,2.4l-.8-.7a19,19,0,0,0,2.5-4.9l1.1.4-.8,1.8h6.4v1.1l-1,2.4Zm-3-1.1h1.1v7.2q0,1.8-1.7,1.8h-1.8l-.2-1.2h1.7q.9,0,.9-.9Zm3.2,2,2.1,4.5-1,.5q-.9-2.2-2-4.5Z"/><path class="e" d="M113.2,342.8a9.5,9.5,0,0,0,3.2-3l-.4-.9-2.2,1.5-.6-.8a13.8,13.8,0,0,0,2.3-1.5,11.2,11.2,0,0,0-1.4-1.7l.7-.6a11.6,11.6,0,0,1,1.5,1.7l1.4-1.5.8.6-1.7,1.8A8.6,8.6,0,0,1,118,343q-.1,2.5-2.2,2.5h-1.4l-.2-1.1h1.5q1.2,0,1.3-1.5a8,8,0,0,0-.2-2.1,11.4,11.4,0,0,1-2.9,2.7Zm.2-9.1h3.8v-1.5h1.1v1.5H122v-1.5h1.1v1.5h3.7v1h-3.7v.9H122v-.9h-3.7v.9h-1.1v-.9h-3.8Zm5,4.8h3.3q0-1,0-2.5h1.1q0,1.2,0,2.5h3.9v1h-3.8a7,7,0,0,0,4,5.3l-.9.9a7.6,7.6,0,0,1-3.7-4.7,7.8,7.8,0,0,1-3.8,4.8l-.7-.9a6.8,6.8,0,0,0,3.9-5.4h-3.3Zm5.2-1.9.5-.7,2,1.3-.6.8Z"/><path class="e" d="M127.3,340.3a18.5,18.5,0,0,0,3.3-4.5l1,.5-1.2,1.9v7.5h-1v-6l-1.5,1.7Zm.1-4.3a13.3,13.3,0,0,0,3.3-3.8l1,.6a21.5,21.5,0,0,1-3.7,4.3Zm4,4.9h6.6v-1.1h-6V339h8.7v.9h-1.7V341h2v.9h-2v2a1.4,1.4,0,0,1-1.6,1.6h-2l-.2-1.1h2a.8.8,0,0,0,.8-.9v-1.7h-6.6Zm1.3,1.5.8-.6,1.5,1.7-.8.6Zm0-9.7h7v5.4h-1v-.5h-5v.5h-1Zm6,.9h-5V335h5Zm-5,3.3h5v-1.2h-5Z"/><path class="e" d="M36.3,354.8H49.9V356H36.3Z"/><path class="e" d="M50.4,354.5h4.4a27,27,0,0,0,1.3-2.6l1,.5-1.3,2.1h2.4v.9H50.4Zm.3-3.6h3.4l-.8-1.5.9-.4.9,1.6-.7.3h3.5v.9H50.7Zm.7,5.9h5.9v5.6h-1v-1H52.4v1h-1Zm.2-4.3.8-.5,1.2,1.9-.9.5Zm4.7,5.2H52.4v2.7h3.9Zm7.6.2q0,2.4-1.8,2.5H60.1l-.2-1.2,1.7.2q1.2,0,1.1-1.7t-2.1-3q.9-1.8,1.8-3.9H59.7v11.7h-1V349.9h4.9V351q-.5,1.4-1.7,3.6A4.3,4.3,0,0,1,63.8,358Z"/><path class="e" d="M64.2,354.7a16.9,16.9,0,0,0,4.8-5.4l1,.5a19,19,0,0,1-5,5.8Zm1.9.5h9.1q-.1,2.3-.2,4.5t-2.4,2.5H70.2L70,361l2.4.2q1.4,0,1.5-1.6t.2-3.4H69.8a8.8,8.8,0,0,1-1,3.7,6.7,6.7,0,0,1-3.5,2.8l-.8-.9a6.2,6.2,0,0,0,3.3-2.5,6.9,6.9,0,0,0,.8-3.1H66.1Zm5.7-5.7,1-.4a10.3,10.3,0,0,0,5.3,5.5l-.9,1A12.3,12.3,0,0,1,71.7,349.4Z"/><path class="e" d="M78.3,355.5a15.8,15.8,0,0,0,4.6-5.9l1.1.5a18.6,18.6,0,0,1-4.8,6.3Zm8.9,1.7q2,2.6,3.3,4.6l-1,.7-.8-1.3-7.3.4-1.3.2-.6-1.2a3.5,3.5,0,0,0,1.1-.8,28.8,28.8,0,0,0,3.5-5.5l1.2.5a52.7,52.7,0,0,1-3.6,5.4l6.4-.3-1.7-2.5ZM86,349.9l1-.4a10.8,10.8,0,0,0,4.9,5.7l-.8,1.1A12.9,12.9,0,0,1,86,349.9Z"/><path class="e" d="M92.5,352.5h10.4v1H92.5Zm.8-1.7v-1h11.8v10.6q0,1.9-1.7,1.9h-2.7a7.1,7.1,0,0,0-.2-1.2H103q.9,0,.9-1.1v-9.4Zm.6,4.3H101v4.8H94.9v1H93.8Zm6.1,3.9v-2.9h-5V359Z"/><path class="e" d="M106.4,356.4l2-.5v-3.2h-1.9v-1h1.9v-2.6h1.1v2.6h1.8v1h-1.8v2.9l1.9-.5v1.1l-1.9.5v4q0,1.5-1.4,1.5h-1.3a8.9,8.9,0,0,0-.2-1.1h1.2q.6,0,.6-.6V357l-1.9.5Zm4.3,4.5h9v1h-9Zm1.1-10.9h7v9.4h-1v-.8h-4.9v.8h-1Zm5.9.9h-4.9v2.9h4.9Zm-4.9,6.7h4.9v-2.9h-4.9Z"/><path class="e" d="M120.2,355.8a21.6,21.6,0,0,0,2.8-6.6l1,.3q-.6,1.8-1.2,3.4v9.7h-1v-7.6l-1.2,2Zm4.8-6h7.6v5.2h-1v-.5h-2.3v1.8h4.5v.9h-3.7a8.5,8.5,0,0,0,3.8,3.3l-.7,1a10.4,10.4,0,0,1-3.9-4.2v5.3h-1v-5.3a12.2,12.2,0,0,1-4.1,4.5l-.8-.8a10.7,10.7,0,0,0,4-3.7h-3.6v-.9h4.5v-1.8h-2.3v.6h-1Zm6.6.9h-5.6v2.8h5.6Z"/><path class="e" d="M134.9,351.3h1.4l.8-2.3,1.1.3-.8,1.9h2.7v10.9H139v-1.1H136v1.2h-1.1Zm4.2,1H136v3.3H139Zm-3.1,7.8H139v-3.5H136Zm4.4-6a20.1,20.1,0,0,0,2.2-5.1l1.1.3-.7,1.9h4.4q-.2,7-.3,8.8a2,2,0,0,1-2.3,2.1h-2.5a9.4,9.4,0,0,0-.2-1.2h0l2.5.2a1.2,1.2,0,0,0,1.3-1.3q.2-2,.2-7.5h-3.7a18.9,18.9,0,0,1-1.2,2.3Zm1.2.9.8-.6q1.5,1.8,2.4,3.1l-1,.7A32.9,32.9,0,0,0,141.5,355.1Z"/><path class="e" d="M151.8,349.1h1v13.4h-1v-4.2l-1.7,1-.7.6-.8-.9a1.6,1.6,0,0,0,.4-1.2v-6.8h1v7l1.7-.9Zm1.2,5.8a25.2,25.2,0,0,0,2.5-5.9l1.1.3-.9,2.4h6v1h-1.6a11.7,11.7,0,0,1-2,6.4,12,12,0,0,0,3.9,2.1l-.8,1.1a13.2,13.2,0,0,1-3.9-2.4,15.4,15.4,0,0,1-3.7,2.5l-.7-.9a14.2,14.2,0,0,0,3.6-2.4,10.3,10.3,0,0,1-2-4.9l-.8,1.4Zm6-2.1h-3.6a10.1,10.1,0,0,0,1.9,5.6A10.3,10.3,0,0,0,159,352.8Z"/><path class="e" d="M166.1,349.9l.9-.6q1.5.9,3.4,4.8,2.6,5.6,5.6,6.8l-1,1.2q-3-1.8-5.5-7.5l-.4-.9a15.1,15.1,0,0,1-5.9,8.4l-.8-1a14,14,0,0,0,6-8.8A6.8,6.8,0,0,0,166.1,349.9Z"/><path class="e" d="M272.5,339a21.8,21.8,0,0,0,3.3-6.8l1.1.3q-.6,1.7-1.3,3.2v9.9h-1.1v-7.9a19.8,19.8,0,0,1-1.6,2.4Zm7.1-.2-2,4.7-1-.5a43.8,43.8,0,0,0,2-4.6Zm4.3-1.2.9-2.1H279a21.6,21.6,0,0,1-1.4,2.4l-.8-.7a19.1,19.1,0,0,0,2.5-4.9l1.1.4-.8,1.8h6.4v1.1l-1,2.4Zm-3-1.1H282v7.2q0,1.8-1.7,1.8h-1.8l-.2-1.2H280q.9,0,.9-.9Zm3.2,2,2.1,4.5-1,.5q-.9-2.2-2-4.5Z"/><path class="e" d="M287.1,335.8h5.1a31,31,0,0,0,.2-3.6h1.2a30.8,30.8,0,0,1-.2,3.6h5.8q-.1,4.2-.2,7a2.4,2.4,0,0,1-2.7,2.6h-2.5q-.1-.5-.2-1.3l2.5.2a1.5,1.5,0,0,0,1.7-1.6q.2-2.7.2-5.7h-4.8a12.5,12.5,0,0,1-5.6,9l-.8-1a11,11,0,0,0,5.3-8h-5Zm1-2.7.7-.7,2.2,2-.8.8Zm5.5,6.2.8-.7,2.4,2.4-.8.8Z"/><path class="e" d="M300.6,336.9a14.3,14.3,0,0,0,3.2-4.6H305l-.7,1.5h9.3v1h-7.2v1.4h6.2v1h-6.2v1.4h6.3v1h-6.3v1h-1.1v-5.7h-1.5a17.3,17.3,0,0,1-2.4,3Zm1.4,3.9,1,.4a34.1,34.1,0,0,1-1.4,3.5l-1-.4A19.4,19.4,0,0,0,302.1,340.8Zm2,.2h1.1v2.5a.7.7,0,0,0,.8.9h2.8q.9,0,1.1-.7a16.5,16.5,0,0,0,.3-1.7l1.1.4q-.2,1-.4,1.7a1.7,1.7,0,0,1-1.9,1.3h-3.2a1.5,1.5,0,0,1-1.7-1.7Zm2.3-.2.8-.6,1.7,2-.9.7Zm4.8.5.8-.6,2.2,2.9-.9.7Z"/><path class="e" d="M314.5,339.5a25.1,25.1,0,0,0,6.3-7.2l1.1.6a25.8,25.8,0,0,1-6.6,7.6Zm10,.1q1.8,2.6,3.5,5.3l-1.1.7-.7-1.2-8.1.5-1.7.2-.6-1.2a5.3,5.3,0,0,0,1.6-1.1,44.7,44.7,0,0,0,6.3-8l1.2.6a54,54,0,0,1-6.7,8.2l7.4-.4-2-3.1Z"/><path class="e" d="M328.6,340.9a16.5,16.5,0,0,0,2.1-4.9h-1.9v-.9h2v-2.7h1v2.7h1.6v.9h-1.6v2.1l.5-.5,1.8,1.8-.8.7-1.5-1.7v7.3h-1v-7.5a18.4,18.4,0,0,1-1.7,3.8Zm4.5.4h4V339h-3v-1h3v-2.1h-3.3v-1H338a30.3,30.3,0,0,0,1.7-2.7l1,.6-1.6,2.1h2.5v1h-3.5v2.1h3.1v1h-3.1v2.2h4v1h-4v3.6h-1.1v-3.6h-4Zm1.5-8.4.8-.6,1.5,1.9-.9.6Z"/><path class="e" d="M342.5,339.5l1.8-.8v-2.9h-1.7v-.9h1.7v-2.5h1v2.5h1.8v.9h-1.7v2.4l1.6-.8v1.1l-1.7.8v4.8q0,1.3-1,1.4h-1.6l-.2-1.1h1.3q.5,0,.5-.5v-4.1l-1.6.9Zm3.3,5.6a6.4,6.4,0,0,0,2.2-4.6h1a10.3,10.3,0,0,1-.3,1.8,4.3,4.3,0,0,0,2.3,1.8V340h-4.2v-.9H356v.9h-4v1.5h3.4v.9H352v1.9h4.1l-.3,1h-3.4a4.6,4.6,0,0,1-4.1-1.9,6.7,6.7,0,0,1-1.7,2.4Zm2.1-12.2h6.8v5.4h-1v-.4H349v.4h-1Zm5.8.9H349v1.2h4.9ZM349,337h4.9v-1.2H349Z"/><path class="e" d="M356.7,337.8h3.6v-3.3l-3.1.3-.2-1q4.3-.3,7.4-.8l.3,1.1-3.3.4v3.4h4.4v-5.4h1.1v5.4h3.3v1.1h-3.3v6.8h-1.1v-6.8h-4.4a9.6,9.6,0,0,1-.7,4.1,7.7,7.7,0,0,1-2.9,2.9l-.8-1a7.2,7.2,0,0,0,2.7-2.5,8,8,0,0,0,.6-3.5h-3.6Z"/><path class="e" d="M371.1,336l2.2,1.7-.7.8-2.1-1.8Zm1.1,4,1.1.4-1.2,5.2-1.1-.4A46.5,46.5,0,0,0,372.1,339.9Zm-.5-7.4,2,1.7-.8.8-1.9-1.8Zm1.8,2.3h4.9v.9h-2.8q0,1.1,0,2.1H378q-.1,3.9-.2,5.9t-1.5,1.6H375l-.2-1H376q.7,0,.8-.8t.2-4.8h-1.6q-.1,4.9-2,7l-.7-.8a6.7,6.7,0,0,0,1.4-3.2,36.3,36.3,0,0,0,.4-6h-1.1Zm1.4-2.1.9-.5,1.1,1.9-.9.5Zm3.5,7.2h2.5v-.7l1.6-1.7h-3.4v-.8l-.6.9-.7-.8a11.2,11.2,0,0,0,1.9-4.6l1,.2a15.2,15.2,0,0,1-.5,1.9h3.9v.9h-4.3l-.6,1.3h4.5v1l-1.9,1.9v.5h2.4v.9h-2.4V344a1.3,1.3,0,0,1-1.5,1.4h-1.4l-.2-1h1.4q.6,0,.6-.7v-3h-2.5Z"/><path class="e" d="M385.8,336l2.1,3.1a18.4,18.4,0,0,0,.9-4.1h-4v-1h5v1a19.8,19.8,0,0,1-1.3,5.2l1.9,3-.9.6-1.5-2.5a14.3,14.3,0,0,1-2.9,3.9l-.7-.9a13.1,13.1,0,0,0,2.9-4.1l-2.5-3.7Zm4,8.6a16.9,16.9,0,0,0,3.4-2.6,20,20,0,0,1-.8-4.7l-2.1.2-.2-1,2.2-.3q-.1-1.7-.2-3.9h1.1q0,2.1.1,3.7l4.5-.5v1l-4.5.5a19.8,19.8,0,0,0,.6,4,18.1,18.1,0,0,0,2.3-3.4l1,.5a20.3,20.3,0,0,1-2.9,4,4.9,4.9,0,0,0,1.2,1.8l.7.4q.3,0,.5-.6t.3-2.1l1.1.4a19.3,19.3,0,0,1-.5,2.4q-.4,1.1-1.2,1.1a2.1,2.1,0,0,1-1.4-.6,5.6,5.6,0,0,1-1.5-2,18.4,18.4,0,0,1-3.1,2.4Zm4.4-11.2.6-.7,2.3,1.7-.7.8-.3-.2Z"/><path class="e" d="M399.3,339.4h5.2v6.3h-1v-.9h-3.1v.9h-1Zm4.2,1h-3.1v3.5h3.1Zm-2.8-7.5h9.4v5.4H409v-.4h-7.2v.4h-1.1Zm8.3,1h-7.2v3.1H409Zm-2.8,5.6h5.2v6.3h-1v-.9h-3.1v.9h-1Zm4.2,1h-3.1v3.5h3.1Z"/><path class="e" d="M294.9,349.9a110.1,110.1,0,0,0,11.5-.6l.4,1.1-10.8.5v4.2q0,5.3-1.8,7.5l-.8-.9q1.5-1.8,1.5-6.6Zm7.2,6.7a10.8,10.8,0,0,1-.2,2.6l5.1,2.4-.6,1-4.9-2.5q-1.1,1.8-5.3,2.5l-.6-1q4.3-.7,5-2.1a6.7,6.7,0,0,0,.4-2.9Zm-4.7-1.7H301v-1.6h-4.5v-1H301v-1.5h1.1v1.5h4.6v1h-4.6V355h3.7v4.8h-1.1v-3.9h-6.3v3.9h-1.1Z"/><path class="e" d="M308.5,353.2h4.6l.5-2.3h-5.9v-1h13.2v1h-6.1l-.7,2.3h6v7.7q0,1.6-1.4,1.6h-1.8l-.2-1.1h1.6a.7.7,0,0,0,.7-.8v-6.4h-2.5v7.5h-1v-7.5h-2.5v7.5h-1v-7.5h-2.5v8.3h-1.1Z"/><path class="e" d="M321.5,356.3l1.8-.8v-2.9h-1.7v-.9h1.7v-2.5h1v2.5h1.8v.9h-1.7V355l1.6-.8v1.1l-1.7.8v4.8q0,1.3-1,1.4h-1.6l-.2-1.1h1.3q.5,0,.5-.5v-4.1l-1.6.9Zm3.3,5.6a6.4,6.4,0,0,0,2.2-4.6h1a10.3,10.3,0,0,1-.3,1.8,4.3,4.3,0,0,0,2.3,1.8v-4.1h-4.2v-.9H335v.9h-4v1.5h3.4v.9H331v1.9h4.1l-.3,1h-3.4a4.6,4.6,0,0,1-4.1-1.9,6.7,6.7,0,0,1-1.7,2.4Zm2.1-12.2h6.8v5.4h-1v-.4H328v.4h-1Zm5.8.9H328v1.2h4.9Zm-4.9,3.3h4.9v-1.2H328Z"/><path class="e" d="M335.4,355.7a23.2,23.2,0,0,0,3.4-6.6l1.1.4q-.7,1.8-1.5,3.3v9.7h-1.1v-7.7l-1.4,2.1Zm7.9,3.4a30.4,30.4,0,0,1-3.4,3.5l-.8-.8a16.3,16.3,0,0,0,3.3-3.4Zm2.3-9.9h1.1v3h2v1h-2V357h2.4v1h-9.9v-1h2.3v-3.8h-1.8v-1h1.8v-3h1.1v3h3Zm-3,7.8h3v-3.8h-3Zm2.3,2.1.8-.7,3.4,3.3-.9.8Q346.8,360.9,344.9,359Z"/><path class="e" d="M351.3,350a94.1,94.1,0,0,0,10.6-.7l.4,1.1-10,.6v2.3h9.3v1a12.7,12.7,0,0,1-3.4,5.1,12.4,12.4,0,0,0,4.9,1.8l-.9,1.2a15.4,15.4,0,0,1-4.9-2.3,15.8,15.8,0,0,1-5,2.5l-.8-1.1a15.4,15.4,0,0,0,4.8-2.2,10.6,10.6,0,0,1-3.1-5.1h-1.1v.8q0,4.9-2.1,7.5l-.8-.9q1.8-2.2,1.8-6.6Zm9.1,4.3h-5.9a10,10,0,0,0,2.9,4.4A10.3,10.3,0,0,0,360.4,354.3Z"/><path class="e" d="M363.5,354.2a14.8,14.8,0,0,0,1.7-5l1,.2-.5,1.9h2.4v.8l-.8,2.5-.9-.3.7-2.1h-1.8a21.8,21.8,0,0,1-1.2,2.9Zm1.7-.4h.9v6.3l1.7-1.5.3,1.1-1.9,1.7-.7.7-.7-.8a1.6,1.6,0,0,0,.4-1.2Zm7.7,3.7a5.9,5.9,0,0,1-.2,1.9l4.1,2.1-.6.9-3.8-2.2a7.7,7.7,0,0,1-4.1,2.3l-.6-1q2.9-.6,3.8-1.8a3.3,3.3,0,0,0,.5-2.2Zm-5-3.2H372v-1.1h-2.4v.3h-.9v-3.3H372v-1.1h.9v1.1h3.3v3.3h-.9v-.3h-2.4v1.1h4.2v.9h-9.2Zm1.8,5.7h-.9v-3.8h7.5V360h-.9v-3h-5.7Zm-.1-7.6H372v-1.3h-2.4Zm5.7-1.3h-2.4v1.3h2.4Z"/><path class="e" d="M380,358.8a1.5,1.5,0,0,1,1.2.5,1.8,1.8,0,0,1,0,2.5,1.7,1.7,0,0,1-1.2.5,1.7,1.7,0,0,1-1.7-1.7,1.6,1.6,0,0,1,.5-1.3A1.8,1.8,0,0,1,380,358.8Zm0,2.5.5-.2a.7.7,0,0,0,.2-.5.7.7,0,0,0-.2-.6l-.5-.2-.5.2a.7.7,0,0,0-.2.6.6.6,0,0,0,.2.5Z"/><path class="f" d="M176.9,36.6a188.2,188.2,0,0,1,96.1,0"/><line class="f" x1="267.6" y1="40.2" x2="273.1" y2="36.6"/><line class="f" x1="270.3" y1="30.6" x2="273.1" y2="36.6"/><line class="f" x1="267.6" y1="40.2" x2="273.1" y2="36.6"/><line class="f" x1="270.3" y1="30.6" x2="273.1" y2="36.6"/><path class="f" d="M176.9,36.6a188.2,188.2,0,0,1,96.1,0"/><path class="f" d="M405.4,169.3a188.2,188.2,0,0,1,0,96.1"/><line class="f" x1="401.8" y1="259.9" x2="405.4" y2="265.5"/><line class="f" x1="411.4" y1="262.7" x2="405.4" y2="265.5"/><line class="f" x1="401.8" y1="259.9" x2="405.4" y2="265.5"/><line class="f" x1="411.4" y1="262.7" x2="405.4" y2="265.5"/><path class="f" d="M405.4,169.3a188.2,188.2,0,0,1,0,96.1"/><path class="f" d="M272.7,397.7a188.2,188.2,0,0,1-96.1,0"/><line class="f" x1="182.1" y1="394.2" x2="176.5" y2="397.8"/><line class="f" x1="179.3" y1="403.7" x2="176.5" y2="397.8"/><line class="f" x1="182.1" y1="394.2" x2="176.5" y2="397.8"/><line class="f" x1="179.3" y1="403.7" x2="176.5" y2="397.8"/><path class="f" d="M272.7,397.7a188.2,188.2,0,0,1-96.1,0"/><path class="e" d="M362.7,275.2c.1-.8.1-1.5.1-2.3C362.8,273.7,362.8,274.4,362.7,275.2Z"/><path class="e" d="M362.7,275.2a19.7,19.7,0,0,1-1.9,7.2A21.7,21.7,0,0,0,362.7,275.2Z"/><path class="e" d="M359.7,277l.2-1.1C359.9,276.2,359.8,276.6,359.7,277Z"/><path class="e" d="M359.7,277a16.1,16.1,0,0,1-.5,2A20.6,20.6,0,0,0,359.7,277Z"/><path class="e" d="M354.8,285.8a14.6,14.6,0,0,0,4-5.6,15.4,15.4,0,0,1-4.2,6.1l-.2.2A1.4,1.4,0,0,1,354.8,285.8Z"/><path class="e" d="M352.1,309.5a1.4,1.4,0,0,1,0,2.7H331.7a1.4,1.4,0,0,1,0-2.7Z"/><path class="e" d="M356.5,288.2c-.4.7-1.1,1.9-1.5,3h0a22.7,22.7,0,0,1-3.3,1.8c.1-.5.1-.9.2-1.2a26.6,26.6,0,0,1,2.4-5.2h.1a1.3,1.3,0,0,0,.3,1.2,1.4,1.4,0,0,0,1.9.1,17.3,17.3,0,0,0,4.2-5.4A18.1,18.1,0,0,1,356.5,288.2Z"/><path class="e" d="M342.1,302.7a1.4,1.4,0,1,1-1.2,1.4A1.4,1.4,0,0,1,342.1,302.7Z"/><path class="e" d="M355,291.3a8.3,8.3,0,0,0-.5,1.3c-.3,1.1-.8,7.7-1.1,11.5a1.4,1.4,0,0,1-1.4,1.3h-9.9a1.4,1.4,0,0,0,0-2.7h8.7c.2-2.4.5-7.1.9-9.6A22.7,22.7,0,0,0,355,291.3Z"/><path class="e" d="M330.8,304.1c-.3-3.9-.8-10.4-1.1-11.5a7.4,7.4,0,0,0-.5-1.3,22.9,22.9,0,0,0,3.3,1.8c.3,2.4.7,7.2.8,9.6h8.7a1.4,1.4,0,0,0,0,2.7h-9.9A1.3,1.3,0,0,1,330.8,304.1Z"/><path class="e" d="M329.9,286.6l-.2-.2a15.3,15.3,0,0,1-4.2-6.1,14.6,14.6,0,0,0,4,5.6A1.4,1.4,0,0,1,329.9,286.6Z"/><path class="e" d="M324.5,277c.1.7.3,1.4.5,2A16.3,16.3,0,0,1,324.5,277Z"/><path class="e" d="M324.5,277c-.1-.4-.2-.9-.2-1.4Z"/><path class="e" d="M324.2,274.1c0,.5.1,1,.1,1.5s.1,1,.2,1.4a16.3,16.3,0,0,0,.5,2l.2.6.3.7a15.3,15.3,0,0,0,4.2,6.1l.2.2h0a1.4,1.4,0,0,1-2.2,1.3,17.4,17.4,0,0,1-4.2-5.4h0a22,22,0,0,1-1.9-7.2,0,0,0,0,1,0,0,1.2,1.2,0,0,1,0-.2c-.1-.7-.1-1.4-.1-2h0a20.7,20.7,0,0,1,41.3,0c0,.8,0,1.6-.1,2.3s0,0,0,0a21.7,21.7,0,0,1-1.9,7.2h0a17.3,17.3,0,0,1-4.2,5.4,1.4,1.4,0,0,1-1.9-.1,1.3,1.3,0,0,1-.3-1.2l.2-.2a15.4,15.4,0,0,0,4.2-6.1l.3-.7.2-.6a16.1,16.1,0,0,0,.5-2c.1-.4.1-.7.2-1.1s.1-1.2.2-1.8,0-.8,0-1.2a17.9,17.9,0,0,0-35.9,0C324.2,273.3,324.2,273.7,324.2,274.1Z"/><path class="e" d="M323.5,282.5a17.4,17.4,0,0,0,4.2,5.4,1.4,1.4,0,0,0,2.2-1.3h.1a26.6,26.6,0,0,1,2.4,5.2c.1.3.1.7.2,1.2a22.9,22.9,0,0,1-3.3-1.8h0a32.9,32.9,0,0,0-1.5-3A18.2,18.2,0,0,1,323.5,282.5Z"/><path class="e" d="M321.6,275.2a22,22,0,0,0,1.9,7.2A19.7,19.7,0,0,1,321.6,275.2Z"/><path class="e" d="M321.5,272.9c0,.7,0,1.4.1,2S321.5,273.6,321.5,272.9Z"/><path class="g" d="M320.9,284.3a20.8,20.8,0,0,0,4.8,6.6,37.6,37.6,0,0,1,1.7,3.4,26.3,26.3,0,1,1,29.4,0c.5-1.2,1.3-2.7,1.8-3.4a20.7,20.7,0,0,0,4.8-6.6h0a22.5,22.5,0,0,0,2.2-8.3s0,0,0,0,.1-1.7.1-2.6a23.6,23.6,0,0,0-47.2,0h0c0,.8,0,1.6.1,2.3a1.4,1.4,0,0,0,0,.2,0,0,0,0,0,0,0,22.5,22.5,0,0,0,2.2,8.3Z"/><path class="h" d="M99.4,69.1H93.5V63.2a3,3,0,0,0-6.1,0v5.9H81.5a3,3,0,1,0,0,6.1h5.9v5.9a3,3,0,1,0,6.1,0V75.2h5.9a3,3,0,0,0,0-6.1Z"/><circle class="b" cx="338" cy="72.7" r="32.5"/><path class="c" d="M338.2,71.9l11.7-31.1a33.3,33.3,0,0,0-11.7-2.1Z"/><ellipse class="i" cx="107.1" cy="251.3" rx="9" ry="11.9"/><path class="j" d="M84.5,295a23,23,0,0,1,46,0"/><path class="j" d="M107.5,297.1a16.4,16.4,0,0,1-23-2.1"/><circle class="c" cx="113" cy="293.4" r="3" transform="translate(-161.4 139.9) rotate(-39.7)"/><g class="d"><circle class="c" cx="85.5" cy="309.2" r="3" transform="translate(-177.8 125.9) rotate(-39.7)"/><circle class="c" cx="96.5" cy="309.2" r="3" transform="translate(-175.3 133) rotate(-39.7)"/><circle class="c" cx="107.5" cy="309.2" r="3" transform="translate(-172.7 140) rotate(-39.7)"/><circle class="c" cx="118.5" cy="309.2" r="3" transform="translate(-170.2 147) rotate(-39.7)"/><circle class="c" cx="129.5" cy="309.2" r="3" transform="translate(-167.7 154) rotate(-39.7)"/></g></svg>