<svg xmlns="http://www.w3.org/2000/svg" viewBox="0 0 450 450"><defs><style>.a,.b,.f,.i,.j{fill:none;stroke:#fff;}.a,.b,.i{stroke-miterlimit:10;}.a,.f{stroke-width:2px;}.b,.i,.j{stroke-width:3px;}.c,.g{fill:#ff3b3f;}.d,.h{opacity:0.5;}.e,.h{fill:#fff;}.f,.i,.j{stroke-linecap:round;}.f,.j{stroke-linejoin:round;}.g{opacity:0.76;}</style></defs><title>russian</title><path class="a" d="M155.442,74.242A21.756,21.756,0,0,1,133.69,96H90.181a21.755,21.755,0,0,1,0-43.51h43.51A21.751,21.751,0,0,1,155.442,74.242Z"/><path class="a" d="M155.442,74.242A21.756,21.756,0,0,1,133.69,96H90.181a21.755,21.755,0,0,1,0-43.51h43.51A21.751,21.751,0,0,1,155.442,74.242Z"/><path class="a" d="M155.442,74.242A21.756,21.756,0,0,1,133.69,96H90.181a21.755,21.755,0,0,1,0-43.51h43.51A21.751,21.751,0,0,1,155.442,74.242Z"/><path class="b" d="M155.442,74.242A21.756,21.756,0,0,1,133.69,96H90.181a21.755,21.755,0,0,1,0-43.51h43.51A21.751,21.751,0,0,1,155.442,74.242Z"/><path class="c" d="M125.56,74.649a3.041,3.041,0,0,1-1.474-5.7L135.96,62.38A3.041,3.041,0,0,1,138.9,67.7l-11.875,6.567A3.026,3.026,0,0,1,125.56,74.649Z"/><g class="d"><path class="e" d="M125.56,86a3.041,3.041,0,0,1-1.474-5.7l11.875-6.567a3.041,3.041,0,0,1,2.943,5.322L127.028,85.62A3.026,3.026,0,0,1,125.56,86Z"/></g><path class="e" d="M36.011,124.352v10.789H34.618v-9.62h-5.01v9.62H28.215V124.352Z"/><path class="e" d="M38.392,129.922c0-.992-.032-1.792-.064-2.529h1.265l.064,1.329h.032a3.046,3.046,0,0,1,2.753-1.5c1.873,0,3.281,1.585,3.281,3.937,0,2.785-1.7,4.162-3.521,4.162a2.716,2.716,0,0,1-2.385-1.217h-.032v4.21H38.392Zm1.393,2.065a3.194,3.194,0,0,0,.064.576,2.174,2.174,0,0,0,2.113,1.649c1.489,0,2.353-1.217,2.353-2.993,0-1.553-.816-2.881-2.3-2.881a2.248,2.248,0,0,0-2.129,1.745,2.273,2.273,0,0,0-.1.576Z"/><path class="e" d="M48.279,131.523a2.482,2.482,0,0,0,2.657,2.689,5.094,5.094,0,0,0,2.145-.4l.24,1.008a6.271,6.271,0,0,1-2.577.48,3.6,3.6,0,0,1-3.81-3.906c0-2.337,1.376-4.178,3.633-4.178,2.529,0,3.2,2.225,3.2,3.649a5.3,5.3,0,0,1-.048.656Zm4.13-1.008a2.005,2.005,0,0,0-1.953-2.289,2.335,2.335,0,0,0-2.161,2.289Z"/><path class="e" d="M61.561,127.394v6.69l.8.016-.08,3.505h-1.1l-.064-2.465H55.751l-.064,2.465h-1.1l-.064-3.505.656-.016a6.042,6.042,0,0,0,.769-1.584,10.226,10.226,0,0,0,.448-3.089v-2.017Zm-3.921,2.353a10.26,10.26,0,0,1-.4,2.881,7.4,7.4,0,0,1-.624,1.441h3.569v-5.6H57.64Z"/><path class="e" d="M70.409,127.394v7.747H69v-6.626H65.4v6.626H64.006v-7.747Z"/><path class="e" d="M79.705,131.2a3.786,3.786,0,0,1-3.857,4.114,3.683,3.683,0,0,1-3.713-3.986,3.783,3.783,0,0,1,3.841-4.114A3.669,3.669,0,0,1,79.705,131.2Zm-6.146.08c0,1.7.977,2.977,2.353,2.977,1.345,0,2.353-1.265,2.353-3.009,0-1.312-.656-2.977-2.321-2.977S73.559,129.811,73.559,131.283Z"/><path class="e" d="M87.353,127.394v7.747H85.961V128.5H83.3v2.017c0,2.177-.208,3.634-1.216,4.29a2.264,2.264,0,0,1-1.537.48l-.144-1.1a1.746,1.746,0,0,0,.768-.32c.72-.528.8-1.617.8-3.346v-3.121Z"/><path class="e" d="M96.665,131.2a3.786,3.786,0,0,1-3.857,4.114,3.683,3.683,0,0,1-3.713-3.986,3.783,3.783,0,0,1,3.841-4.114A3.669,3.669,0,0,1,96.665,131.2Zm-6.146.08c0,1.7.977,2.977,2.353,2.977,1.345,0,2.353-1.265,2.353-3.009,0-1.312-.656-2.977-2.321-2.977S90.519,129.811,90.519,131.283Z"/><path class="e" d="M98.966,127.394l2.561,3.377h.288v-3.377h1.345v3.377h.272l2.561-3.377h1.617l-3.057,3.521a2.707,2.707,0,0,1,2.321,2.049,18.8,18.8,0,0,0,.848,2.177h-1.408a11.384,11.384,0,0,1-.7-1.777,2.142,2.142,0,0,0-2.209-1.648h-.24v3.425h-1.345v-3.425h-.256a2.12,2.12,0,0,0-2.225,1.665,13.583,13.583,0,0,1-.736,1.761h-1.36a22.539,22.539,0,0,0,.848-2.161,2.739,2.739,0,0,1,2.337-2.065l-3.073-3.521Z"/><path class="e" d="M110.278,127.394v3.265c0,1.232-.016,2-.08,3.105l.048.016c.464-.944.736-1.489,1.249-2.385l2.417-4h1.648v7.747h-1.344v-3.281c0-1.265.032-1.921.1-3.169h-.048c-.5.993-.833,1.617-1.281,2.4-.736,1.2-1.584,2.689-2.417,4.05H108.95v-7.747Z"/><path class="e" d="M117.926,127.394h1.729l1.409,3.905c.192.577.528,1.521.7,2.129h.032c.176-.576.608-1.809.913-2.657l1.248-3.377h1.745l.544,7.747H124.9l-.176-3.7c-.048-.833-.112-1.825-.144-2.77h-.048c-.208.7-.417,1.329-.849,2.513l-1.488,3.906h-1.024l-1.377-3.826c-.24-.736-.576-1.857-.768-2.577h-.064c-.032.913-.08,1.937-.128,2.785l-.192,3.666h-1.3Z"/><path class="e" d="M127.654,137.093a2.152,2.152,0,0,0,1.44-1.953.54.54,0,0,1-.16.016.882.882,0,0,1-.944-.913.921.921,0,0,1,.977-.928c.688,0,1.1.592,1.1,1.553a3.18,3.18,0,0,1-2.1,2.993Z"/><path class="e" d="M135.254,127.49a16.488,16.488,0,0,1,2.465-.176c1.3,0,3.441.208,3.441,1.937A1.834,1.834,0,0,1,139.544,131v.032c1.136.16,1.969.8,1.969,1.921,0,2.033-2.561,2.289-4.082,2.289-.864,0-1.761-.064-2.177-.1Zm1.329,6.723a8.564,8.564,0,0,0,1.137.064c.944,0,2.353-.224,2.353-1.345s-1.121-1.36-2.465-1.36h-1.024Zm.016-3.57h1.057c1.04,0,2.113-.3,2.113-1.216,0-.768-.672-1.136-2.081-1.136a9.919,9.919,0,0,0-1.088.064Z"/><path class="e" d="M144.646,127.394v2.641a6.658,6.658,0,0,1,1.265-.1c1.665,0,3.345.688,3.345,2.593a2.192,2.192,0,0,1-.8,1.792,4.883,4.883,0,0,1-3.121.9,19.077,19.077,0,0,1-2.081-.112v-7.715Zm0,6.771a7.821,7.821,0,0,0,.977.064c1.072,0,2.241-.448,2.241-1.648,0-1.249-1.12-1.633-2.177-1.633a6.421,6.421,0,0,0-1.041.08Zm6.979-6.771v7.747h-1.393v-7.747Z"/><path class="e" d="M160.3,127.394v7.747h-1.409v-6.626h-3.6v6.626h-1.393v-7.747Z"/><path class="e" d="M163.03,127.394l1.7,4.578c.176.512.368,1.121.5,1.585h.032c.144-.464.3-1.057.5-1.617l1.537-4.546h1.488l-2.113,5.522c-1.008,2.657-1.7,4.018-2.657,4.85a3.818,3.818,0,0,1-1.729.913l-.352-1.185a3.732,3.732,0,0,0,1.232-.688,4.271,4.271,0,0,0,1.185-1.568,1.015,1.015,0,0,0,.112-.336,1.233,1.233,0,0,0-.1-.368l-2.865-7.139Z"/><path class="e" d="M171.4,127.394v6.643H174.1v-6.643h1.376v6.643h2.705v-6.643h1.393v6.69l.784.016-.08,3.505h-1.088l-.064-2.465h-9.108v-7.747Z"/><path class="e" d="M182.757,131.523a2.482,2.482,0,0,0,2.657,2.689,5.094,5.094,0,0,0,2.145-.4l.24,1.008a6.271,6.271,0,0,1-2.577.48,3.6,3.6,0,0,1-3.81-3.906c0-2.337,1.376-4.178,3.633-4.178,2.529,0,3.2,2.225,3.2,3.649a5.3,5.3,0,0,1-.048.656Zm4.13-1.008a2.005,2.005,0,0,0-1.953-2.289,2.335,2.335,0,0,0-2.161,2.289Z"/><path class="e" d="M191.35,127.394v3.121h3.682v-3.121h1.393v7.747h-1.393v-3.505H191.35v3.505h-1.393v-7.747Z"/><path class="e" d="M40.64,146.593v3.121h3.682v-3.121h1.393v7.747H44.321v-3.505H40.64v3.505H39.247v-7.747Z"/><path class="e" d="M55.026,150.4a3.786,3.786,0,0,1-3.857,4.114,3.683,3.683,0,0,1-3.713-3.986,3.783,3.783,0,0,1,3.841-4.114A3.669,3.669,0,0,1,55.026,150.4Zm-6.146.08c0,1.7.977,2.977,2.353,2.977,1.345,0,2.353-1.265,2.353-3.009,0-1.312-.656-2.977-2.321-2.977S48.879,149.01,48.879,150.483Z"/><path class="e" d="M56.767,146.689a16.488,16.488,0,0,1,2.465-.176c1.3,0,3.441.208,3.441,1.937a1.834,1.834,0,0,1-1.617,1.745v.032c1.136.16,1.969.8,1.969,1.921,0,2.033-2.561,2.289-4.082,2.289-.864,0-1.761-.064-2.177-.1Zm1.329,6.723a8.564,8.564,0,0,0,1.137.064c.944,0,2.353-.224,2.353-1.345s-1.121-1.36-2.465-1.36H58.1Zm.016-3.57h1.057c1.04,0,2.113-.3,2.113-1.216,0-.768-.672-1.136-2.081-1.136a9.927,9.927,0,0,0-1.088.064Z"/><path class="e" d="M66.159,146.593v2.641a6.658,6.658,0,0,1,1.265-.1c1.665,0,3.345.688,3.345,2.593a2.191,2.191,0,0,1-.8,1.792,4.883,4.883,0,0,1-3.121.9,19.077,19.077,0,0,1-2.081-.112v-7.715Zm0,6.771a7.821,7.821,0,0,0,.977.064c1.072,0,2.241-.448,2.241-1.648,0-1.249-1.12-1.633-2.177-1.633a6.426,6.426,0,0,0-1.041.08Zm6.979-6.771v7.747H71.746v-7.747Z"/><path class="e" d="M76.735,146.593v3.265c0,1.232-.016,2-.08,3.105l.048.016c.464-.945.736-1.489,1.249-2.385l2.417-4h1.648v7.747H80.672v-3.281c0-1.265.032-1.921.1-3.169h-.048c-.5.993-.833,1.617-1.281,2.4-.736,1.2-1.584,2.689-2.417,4.05H75.406v-7.747Zm.913-3.153c.048.688.384,1.216,1.024,1.216.688,0,1.008-.512,1.088-1.216h1.008a1.937,1.937,0,0,1-2.129,1.985,1.865,1.865,0,0,1-2.017-1.985Z"/><path class="e" d="M93.9,146.593v7.747H92.5v-6.626h-3.6v6.626H87.5v-7.747Z"/><path class="e" d="M96.19,149.122c0-.992-.032-1.792-.064-2.529h1.265l.064,1.329h.032a3.046,3.046,0,0,1,2.753-1.5c1.873,0,3.281,1.585,3.281,3.938,0,2.785-1.7,4.162-3.521,4.162a2.716,2.716,0,0,1-2.385-1.217h-.032v4.21H96.19Zm1.393,2.065a3.194,3.194,0,0,0,.064.576,2.174,2.174,0,0,0,2.113,1.649c1.489,0,2.353-1.217,2.353-2.993,0-1.553-.816-2.881-2.3-2.881a2.248,2.248,0,0,0-2.129,1.745,2.273,2.273,0,0,0-.1.576Z"/><path class="e" d="M112.3,150.4a3.786,3.786,0,0,1-3.857,4.114,3.683,3.683,0,0,1-3.713-3.986,3.783,3.783,0,0,1,3.841-4.114A3.669,3.669,0,0,1,112.3,150.4Zm-6.146.08c0,1.7.977,2.977,2.353,2.977,1.345,0,2.353-1.265,2.353-3.009,0-1.312-.656-2.977-2.321-2.977S106.158,149.01,106.158,150.483Z"/><path class="e" d="M119.969,146.593v6.69l.8.016-.08,3.505h-1.1l-.064-2.465h-5.362l-.064,2.465h-1.1l-.064-3.505.656-.016a6.042,6.042,0,0,0,.769-1.584,10.226,10.226,0,0,0,.448-3.089v-2.017Zm-3.921,2.353a10.26,10.26,0,0,1-.4,2.881,7.4,7.4,0,0,1-.624,1.441h3.569v-5.6h-2.545Z"/><path class="e" d="M122.911,146.593l1.7,4.578c.176.512.368,1.121.5,1.585h.032c.144-.464.3-1.057.5-1.617l1.537-4.546h1.488l-2.113,5.522c-1.008,2.657-1.7,4.018-2.657,4.85a3.818,3.818,0,0,1-1.729.913l-.352-1.185a3.732,3.732,0,0,0,1.232-.688,4.271,4.271,0,0,0,1.185-1.568,1.015,1.015,0,0,0,.112-.336,1.233,1.233,0,0,0-.1-.368l-2.865-7.139Z"/><path class="e" d="M131.327,146.593v3.361h.336l2.914-3.361h1.712l-3.377,3.505c1.249.128,2,.96,2.609,2.353a16.329,16.329,0,0,0,.832,1.889H134.88a10.314,10.314,0,0,1-.72-1.584,2.515,2.515,0,0,0-2.561-1.825h-.272v3.409h-1.393v-7.747Z"/><path class="e" d="M143.1,146.593v1.121h-2.417v6.626H139.3v-6.626h-2.417v-1.121Z"/><path class="e" d="M147.166,149.827h3.682v1.008h-3.682Z"/><path class="e" d="M157.182,146.593v3.265c0,1.232-.016,2-.08,3.105l.048.016c.464-.945.736-1.489,1.249-2.385l2.417-4h1.648v7.747H161.12v-3.281c0-1.265.032-1.921.1-3.169h-.048c-.5.993-.833,1.617-1.281,2.4-.736,1.2-1.584,2.689-2.417,4.05h-1.617v-7.747Z"/><path class="e" d="M169.471,146.593v1.136H166.11v6.611h-1.393v-7.747Z"/><path class="e" d="M170.8,149.122c0-.992-.032-1.792-.064-2.529H172l.064,1.329h.032a3.046,3.046,0,0,1,2.753-1.5c1.873,0,3.281,1.585,3.281,3.938,0,2.785-1.7,4.162-3.521,4.162a2.716,2.716,0,0,1-2.385-1.217h-.032v4.21H170.8Zm1.393,2.065a3.194,3.194,0,0,0,.064.576,2.174,2.174,0,0,0,2.113,1.649c1.489,0,2.353-1.217,2.353-2.993,0-1.553-.816-2.881-2.3-2.881a2.248,2.248,0,0,0-2.129,1.745,2.273,2.273,0,0,0-.1.576Z"/><path class="e" d="M184.191,154.34l-.112-.977h-.048a2.886,2.886,0,0,1-2.369,1.153,2.207,2.207,0,0,1-2.369-2.225c0-1.873,1.665-2.9,4.658-2.881v-.16a1.6,1.6,0,0,0-1.761-1.793,3.863,3.863,0,0,0-2.017.576l-.32-.928a4.808,4.808,0,0,1,2.545-.688c2.369,0,2.945,1.617,2.945,3.169v2.9a10.9,10.9,0,0,0,.128,1.857Zm-.208-3.954c-1.537-.032-3.281.24-3.281,1.745a1.247,1.247,0,0,0,1.329,1.345,1.927,1.927,0,0,0,1.873-1.3,1.464,1.464,0,0,0,.08-.448Z"/><path class="e" d="M259.551,124.352v4.786h.432l3.7-4.786h1.681l-4.082,4.946c1.777.24,2.465,1.329,3.025,2.785a28.285,28.285,0,0,0,1.184,3.057h-1.5a19.089,19.089,0,0,1-.977-2.545c-.5-1.425-1.184-2.4-3.009-2.4h-.448v4.946h-1.377V124.352Z"/><path class="e" d="M273.761,131.2a3.786,3.786,0,0,1-3.857,4.114,3.683,3.683,0,0,1-3.713-3.986,3.783,3.783,0,0,1,3.841-4.114A3.669,3.669,0,0,1,273.761,131.2Zm-6.146.08c0,1.7.977,2.977,2.353,2.977,1.345,0,2.353-1.265,2.353-3.009,0-1.312-.656-2.977-2.321-2.977S267.614,129.81,267.614,131.283Z"/><path class="e" d="M275.614,127.393h1.729l1.409,3.905c.192.577.528,1.521.7,2.129h.032c.176-.576.608-1.809.913-2.657l1.248-3.377h1.745l.544,7.747h-1.344l-.176-3.7c-.048-.833-.112-1.825-.144-2.77h-.048c-.208.7-.417,1.329-.849,2.513l-1.488,3.906h-1.024l-1.377-3.826c-.24-.736-.576-1.857-.768-2.577h-.064c-.032.913-.08,1.937-.128,2.785l-.192,3.666h-1.3Z"/><path class="e" d="M292.129,127.393v7.747H290.72v-6.626h-3.6v6.626h-1.393v-7.747Z"/><path class="e" d="M298.7,135.14l-.112-.977h-.048a2.886,2.886,0,0,1-2.369,1.153,2.207,2.207,0,0,1-2.369-2.225c0-1.873,1.665-2.9,4.658-2.881v-.16a1.6,1.6,0,0,0-1.761-1.793,3.863,3.863,0,0,0-2.017.576l-.32-.928a4.808,4.808,0,0,1,2.545-.688c2.369,0,2.945,1.617,2.945,3.169v2.9a10.9,10.9,0,0,0,.128,1.857Zm-.208-3.954c-1.537-.032-3.281.24-3.281,1.745a1.247,1.247,0,0,0,1.329,1.345,1.927,1.927,0,0,0,1.873-1.3,1.461,1.461,0,0,0,.08-.448Z"/><path class="e" d="M303.486,127.393v3.121h3.682v-3.121h1.393v7.747h-1.393v-3.505h-3.682v3.505h-1.393v-7.747Z"/><path class="e" d="M312.158,127.393v3.265c0,1.232-.016,2-.08,3.105l.048.016c.464-.944.736-1.489,1.249-2.385l2.417-4h1.648v7.747H316.1v-3.281c0-1.265.032-1.921.1-3.169h-.048c-.5.993-.833,1.617-1.281,2.4-.736,1.2-1.584,2.689-2.417,4.05h-1.617v-7.747Z"/><path class="e" d="M325.44,135.14h-1.393v-3.25h-1.041a1.831,1.831,0,0,0-1.3.432,5.362,5.362,0,0,0-1.088,2.177,4.768,4.768,0,0,1-.32.64h-1.5a5.067,5.067,0,0,0,.48-.88,5.951,5.951,0,0,1,1.216-2.337,1.849,1.849,0,0,1,.88-.448v-.048a2.062,2.062,0,0,1-2.049-1.921,1.866,1.866,0,0,1,1.024-1.681,5.425,5.425,0,0,1,2.593-.528,21.57,21.57,0,0,1,2.5.16Zm-1.393-6.819a7.886,7.886,0,0,0-1.168-.08c-.96,0-2.1.272-2.1,1.345,0,.992,1.233,1.345,2.065,1.345h1.2Z"/><path class="e" d="M330.957,129.922c0-.992-.032-1.792-.064-2.529h1.265l.064,1.329h.032a3.046,3.046,0,0,1,2.753-1.5c1.873,0,3.281,1.585,3.281,3.937,0,2.785-1.7,4.162-3.521,4.162a2.716,2.716,0,0,1-2.385-1.217h-.032v4.21h-1.393Zm1.393,2.065a3.194,3.194,0,0,0,.064.576,2.174,2.174,0,0,0,2.113,1.649c1.489,0,2.353-1.217,2.353-2.993,0-1.553-.816-2.881-2.3-2.881a2.248,2.248,0,0,0-2.129,1.745,2.273,2.273,0,0,0-.1.576Z"/><path class="e" d="M340.845,131.522a2.482,2.482,0,0,0,2.657,2.689,5.094,5.094,0,0,0,2.145-.4l.24,1.008a6.271,6.271,0,0,1-2.577.48,3.6,3.6,0,0,1-3.81-3.906c0-2.337,1.376-4.178,3.633-4.178,2.529,0,3.2,2.225,3.2,3.649a5.3,5.3,0,0,1-.048.656Zm4.13-1.008a2.005,2.005,0,0,0-1.953-2.289,2.335,2.335,0,0,0-2.161,2.289Z"/><path class="e" d="M348.764,130.642h.672c1.185,0,1.985-.544,1.985-1.264,0-.688-.624-1.121-1.5-1.121a3.736,3.736,0,0,0-1.873.544l-.352-.865a4.922,4.922,0,0,1,2.577-.7c1.185,0,2.625.528,2.625,2.033a1.974,1.974,0,0,1-1.745,1.761v.032A2.059,2.059,0,0,1,353.262,133c0,1.681-1.713,2.305-3.345,2.305a5.307,5.307,0,0,1-2.513-.625l.368-.944a4.466,4.466,0,0,0,2.049.528c1.168,0,1.9-.56,1.9-1.329,0-1.041-1.088-1.329-2.257-1.329h-.7Z"/><path class="e" d="M355.8,131.522a2.482,2.482,0,0,0,2.657,2.689,5.094,5.094,0,0,0,2.145-.4l.24,1.008a6.271,6.271,0,0,1-2.577.48,3.6,3.6,0,0,1-3.81-3.906c0-2.337,1.376-4.178,3.633-4.178,2.529,0,3.2,2.225,3.2,3.649a5.3,5.3,0,0,1-.048.656Zm4.13-1.008a2.005,2.005,0,0,0-1.953-2.289,2.335,2.335,0,0,0-2.161,2.289Z"/><path class="e" d="M363.036,129.922c0-.992-.032-1.792-.064-2.529h1.265l.064,1.329h.032a3.046,3.046,0,0,1,2.753-1.5c1.873,0,3.281,1.585,3.281,3.937,0,2.785-1.7,4.162-3.521,4.162a2.716,2.716,0,0,1-2.385-1.217h-.032v4.21h-1.393Zm1.393,2.065a3.194,3.194,0,0,0,.064.576,2.174,2.174,0,0,0,2.113,1.649c1.489,0,2.353-1.217,2.353-2.993,0-1.553-.816-2.881-2.3-2.881a2.248,2.248,0,0,0-2.129,1.745,2.273,2.273,0,0,0-.1.576Z"/><path class="e" d="M372.108,127.489a16.488,16.488,0,0,1,2.465-.176c1.3,0,3.441.208,3.441,1.937a1.834,1.834,0,0,1-1.617,1.745v.032c1.136.16,1.969.8,1.969,1.921,0,2.033-2.561,2.289-4.082,2.289-.864,0-1.761-.064-2.177-.1Zm1.329,6.723a8.564,8.564,0,0,0,1.137.064c.944,0,2.353-.224,2.353-1.345s-1.121-1.36-2.465-1.36h-1.024Zm.016-3.57h1.057c1.04,0,2.113-.3,2.113-1.216,0-.768-.672-1.136-2.081-1.136a9.927,9.927,0,0,0-1.088.064Z"/><path class="e" d="M381.436,127.393v3.265c0,1.232-.016,2-.08,3.105l.048.016c.464-.944.736-1.489,1.249-2.385l2.417-4h1.648v7.747h-1.345v-3.281c0-1.265.032-1.921.1-3.169h-.048c-.5.993-.833,1.617-1.281,2.4-.736,1.2-1.584,2.689-2.417,4.05h-1.617v-7.747Z"/><path class="e" d="M389,129.922c0-.992-.032-1.792-.064-2.529H390.2l.064,1.329h.032a3.046,3.046,0,0,1,2.753-1.5c1.873,0,3.281,1.585,3.281,3.937,0,2.785-1.7,4.162-3.521,4.162a2.716,2.716,0,0,1-2.385-1.217H390.4v4.21H389Zm1.393,2.065a3.194,3.194,0,0,0,.064.576,2.174,2.174,0,0,0,2.113,1.649c1.489,0,2.353-1.217,2.353-2.993,0-1.553-.816-2.881-2.3-2.881a2.248,2.248,0,0,0-2.129,1.745,2.273,2.273,0,0,0-.1.576Z"/><path class="e" d="M398.46,127.393l1.7,4.578c.176.512.368,1.121.5,1.585h.032c.144-.464.3-1.057.5-1.617l1.537-4.546h1.488l-2.113,5.522c-1.008,2.657-1.7,4.018-2.657,4.85a3.818,3.818,0,0,1-1.729.913l-.352-1.185a3.732,3.732,0,0,0,1.232-.688,4.271,4.271,0,0,0,1.185-1.568,1.015,1.015,0,0,0,.112-.336,1.233,1.233,0,0,0-.1-.368l-2.865-7.139Z"/><path class="e" d="M406.124,131.522a2.482,2.482,0,0,0,2.657,2.689,5.094,5.094,0,0,0,2.145-.4l.24,1.008a6.271,6.271,0,0,1-2.577.48,3.6,3.6,0,0,1-3.81-3.906c0-2.337,1.376-4.178,3.633-4.178,2.529,0,3.2,2.225,3.2,3.649a5.3,5.3,0,0,1-.048.656Zm4.13-1.008a2.005,2.005,0,0,0-1.953-2.289,2.335,2.335,0,0,0-2.161,2.289Z"/><path class="e" d="M418.526,127.393v1.121h-2.417v6.626h-1.393v-6.626H412.3v-1.121Z"/><path class="e" d="M254.488,146.593v7.747h-1.409v-6.626h-3.6v6.626h-1.393v-7.747Z"/><path class="e" d="M256.773,149.122c0-.992-.032-1.792-.064-2.529h1.265l.064,1.329h.032a3.046,3.046,0,0,1,2.753-1.5c1.873,0,3.281,1.585,3.281,3.938,0,2.785-1.7,4.162-3.521,4.162A2.716,2.716,0,0,1,258.2,153.3h-.032v4.21h-1.393Zm1.393,2.065a3.194,3.194,0,0,0,.064.576,2.174,2.174,0,0,0,2.113,1.649c1.489,0,2.353-1.217,2.353-2.993,0-1.553-.816-2.881-2.3-2.881a2.248,2.248,0,0,0-2.129,1.745,2.273,2.273,0,0,0-.1.576Z"/><path class="e" d="M272.888,150.4a3.786,3.786,0,0,1-3.857,4.114,3.683,3.683,0,0,1-3.713-3.986,3.783,3.783,0,0,1,3.841-4.114A3.669,3.669,0,0,1,272.888,150.4Zm-6.146.08c0,1.7.977,2.977,2.353,2.977,1.345,0,2.353-1.265,2.353-3.009,0-1.312-.656-2.977-2.321-2.977S266.741,149.01,266.741,150.482Z"/><path class="e" d="M276.022,146.593v6.643h3.57v-6.643h1.393v6.69l.8.016-.08,3.505h-1.088l-.064-2.465h-5.923v-7.747Z"/><path class="e" d="M284.181,150.722a2.482,2.482,0,0,0,2.657,2.689,5.094,5.094,0,0,0,2.145-.4l.24,1.008a6.271,6.271,0,0,1-2.577.48,3.6,3.6,0,0,1-3.81-3.906c0-2.337,1.376-4.178,3.633-4.178,2.529,0,3.2,2.225,3.2,3.649a5.3,5.3,0,0,1-.048.656Zm4.13-1.008a2.005,2.005,0,0,0-1.953-2.289,2.335,2.335,0,0,0-2.161,2.289Z"/><path class="e" d="M292.773,146.593v3.121h3.682v-3.121h1.393v7.747h-1.393v-3.505h-3.682v3.505H291.38v-7.747Z"/><path class="e" d="M305.335,146.593v1.121h-2.417v6.626h-1.393v-6.626h-2.417v-1.121Z"/><path class="e" d="M316.919,150.4a3.786,3.786,0,0,1-3.857,4.114,3.683,3.683,0,0,1-3.713-3.986,3.783,3.783,0,0,1,3.841-4.114A3.669,3.669,0,0,1,316.919,150.4Zm-6.146.08c0,1.7.977,2.977,2.353,2.977,1.345,0,2.353-1.265,2.353-3.009,0-1.312-.656-2.977-2.321-2.977S310.773,149.01,310.773,150.482Z"/><path class="e" d="M323.8,146.593v1.121h-2.417v6.626h-1.393v-6.626h-2.417v-1.121Z"/><path class="e" d="M333.9,154.052a5.192,5.192,0,0,1-2.225.448,3.681,3.681,0,0,1-3.857-3.954,3.936,3.936,0,0,1,4.162-4.114,4.7,4.7,0,0,1,1.953.4l-.32,1.088a3.265,3.265,0,0,0-1.633-.368,2.921,2.921,0,0,0-.048,5.826,4,4,0,0,0,1.729-.384Z"/><path class="e" d="M335.508,146.689a16.488,16.488,0,0,1,2.465-.176c1.3,0,3.441.208,3.441,1.937a1.834,1.834,0,0,1-1.617,1.745v.032c1.136.16,1.969.8,1.969,1.921,0,2.033-2.561,2.289-4.082,2.289-.864,0-1.761-.064-2.177-.1Zm1.329,6.723a8.564,8.564,0,0,0,1.137.064c.944,0,2.353-.224,2.353-1.345s-1.121-1.36-2.465-1.36h-1.024Zm.016-3.57h1.057c1.04,0,2.113-.3,2.113-1.216,0-.768-.672-1.136-2.081-1.136a9.919,9.919,0,0,0-1.088.064Z"/><path class="e" d="M350.551,150.4a3.786,3.786,0,0,1-3.857,4.114,3.683,3.683,0,0,1-3.713-3.986,3.783,3.783,0,0,1,3.841-4.114A3.669,3.669,0,0,1,350.551,150.4Zm-6.146.08c0,1.7.977,2.977,2.353,2.977,1.345,0,2.353-1.265,2.353-3.009,0-1.312-.656-2.977-2.321-2.977S344.4,149.01,344.4,150.482Z"/><path class="e" d="M353.621,146.593v3.265c0,1.232-.016,2-.08,3.105l.048.016c.464-.945.736-1.489,1.249-2.385l2.417-4H358.9v7.747h-1.345v-3.281c0-1.265.032-1.921.1-3.169h-.048c-.5.993-.833,1.617-1.281,2.4-.736,1.2-1.584,2.689-2.417,4.05h-1.617v-7.747Z"/><path class="e" d="M361.844,146.593l1.1,1.665c.288.432.528.833.784,1.265h.048c.256-.464.512-.864.768-1.281l1.088-1.648h1.521l-2.641,3.746,2.721,4h-1.6L364.5,152.6c-.3-.448-.561-.88-.833-1.345h-.032c-.256.464-.528.88-.816,1.345L361.7,154.34h-1.553l2.753-3.954-2.625-3.793Z"/><path class="e" d="M377.83,146.593v6.69l.8.016-.08,3.505h-1.1l-.064-2.465H372.02l-.064,2.465h-1.1l-.064-3.505.656-.016a6.042,6.042,0,0,0,.769-1.584,10.226,10.226,0,0,0,.448-3.089v-2.017Zm-3.921,2.353a10.26,10.26,0,0,1-.4,2.881,7.4,7.4,0,0,1-.624,1.441h3.569v-5.6h-2.545Z"/><path class="e" d="M387.254,150.4a3.786,3.786,0,0,1-3.857,4.114,3.683,3.683,0,0,1-3.713-3.986,3.783,3.783,0,0,1,3.841-4.114A3.669,3.669,0,0,1,387.254,150.4Zm-6.146.08c0,1.7.977,2.977,2.353,2.977,1.345,0,2.353-1.265,2.353-3.009,0-1.312-.656-2.977-2.321-2.977S381.108,149.01,381.108,150.482Z"/><path class="e" d="M389.477,146.593l1.1,1.665c.288.432.528.833.784,1.265h.048c.256-.464.512-.864.768-1.281l1.088-1.648h1.521l-2.641,3.746,2.721,4h-1.6l-1.136-1.745c-.3-.448-.561-.88-.833-1.345h-.032c-.256.464-.528.88-.816,1.345l-1.121,1.745H387.78l2.753-3.954-2.625-3.793Z"/><path class="e" d="M403.015,150.4a3.786,3.786,0,0,1-3.857,4.114,3.683,3.683,0,0,1-3.713-3.986,3.783,3.783,0,0,1,3.841-4.114A3.669,3.669,0,0,1,403.015,150.4Zm-6.146.08c0,1.7.977,2.977,2.353,2.977,1.345,0,2.353-1.265,2.353-3.009,0-1.312-.656-2.977-2.321-2.977S396.869,149.01,396.869,150.482Z"/><path class="e" d="M410.679,146.593v6.69l.8.016-.08,3.505h-1.1l-.064-2.465h-5.362L404.8,156.8h-1.1l-.064-3.505.656-.016a6.042,6.042,0,0,0,.769-1.584,10.226,10.226,0,0,0,.448-3.089v-2.017Zm-3.921,2.353a10.26,10.26,0,0,1-.4,2.881,7.4,7.4,0,0,1-.624,1.441H409.3v-5.6h-2.545Z"/><path class="e" d="M420.1,150.4a3.786,3.786,0,0,1-3.857,4.114,3.683,3.683,0,0,1-3.713-3.986,3.783,3.783,0,0,1,3.841-4.114A3.669,3.669,0,0,1,420.1,150.4Zm-6.146.08c0,1.7.977,2.977,2.353,2.977,1.345,0,2.353-1.265,2.353-3.009,0-1.312-.656-2.977-2.321-2.977S413.957,149.01,413.957,150.482Z"/><path class="e" d="M421.844,146.689a16.488,16.488,0,0,1,2.465-.176c1.3,0,3.441.208,3.441,1.937a1.834,1.834,0,0,1-1.617,1.745v.032c1.136.16,1.969.8,1.969,1.921,0,2.033-2.561,2.289-4.082,2.289-.864,0-1.761-.064-2.177-.1Zm1.329,6.723a8.564,8.564,0,0,0,1.137.064c.944,0,2.353-.224,2.353-1.345s-1.121-1.36-2.465-1.36h-1.024Zm.016-3.57h1.057c1.04,0,2.113-.3,2.113-1.216,0-.768-.672-1.136-2.081-1.136a9.919,9.919,0,0,0-1.088.064Z"/><path class="e" d="M45.314,327.328v4.546c0,1.713-.032,3.122-.128,4.562l.032.016c.544-1.121,1.216-2.289,2-3.569l3.49-5.555H52.1v10.789H50.789v-4.594c0-1.745.016-3.025.128-4.386l-.048-.016a32.853,32.853,0,0,1-2,3.633l-3.377,5.362H44V327.328Z"/><path class="e" d="M57.681,330.466a16.488,16.488,0,0,1,2.465-.176c1.3,0,3.441.208,3.441,1.937a1.834,1.834,0,0,1-1.617,1.745V334c1.136.16,1.969.8,1.969,1.921,0,2.033-2.561,2.289-4.082,2.289-.864,0-1.761-.064-2.177-.1Zm1.329,6.723a8.564,8.564,0,0,0,1.137.064c.944,0,2.353-.224,2.353-1.345s-1.121-1.36-2.465-1.36H59.01Zm.016-3.57h1.057c1.04,0,2.113-.3,2.113-1.216,0-.768-.672-1.136-2.081-1.136a9.919,9.919,0,0,0-1.088.064Z"/><path class="e" d="M67.074,330.37v2.641a6.658,6.658,0,0,1,1.265-.1c1.665,0,3.345.688,3.345,2.593a2.192,2.192,0,0,1-.8,1.792,4.883,4.883,0,0,1-3.121.9,19.077,19.077,0,0,1-2.081-.112V330.37Zm0,6.771a7.821,7.821,0,0,0,.977.064c1.072,0,2.241-.448,2.241-1.648,0-1.249-1.12-1.633-2.177-1.633a6.421,6.421,0,0,0-1.041.08Zm6.979-6.771v7.747H72.66V330.37Z"/><path class="e" d="M85.956,330.37v7.747H84.547V331.49h-3.6v6.626H79.553V330.37Z"/><path class="e" d="M95.252,334.179a3.786,3.786,0,0,1-3.857,4.114,3.683,3.683,0,0,1-3.713-3.986,3.783,3.783,0,0,1,3.841-4.114A3.669,3.669,0,0,1,95.252,334.179Zm-6.146.08c0,1.7.977,2.977,2.353,2.977,1.345,0,2.353-1.265,2.353-3.009,0-1.312-.656-2.977-2.321-2.977S89.106,332.787,89.106,334.259Z"/><path class="e" d="M102.9,330.37v7.747h-1.393v-6.643H98.85v2.017c0,2.177-.208,3.634-1.216,4.29a2.264,2.264,0,0,1-1.537.48l-.144-1.1a1.746,1.746,0,0,0,.768-.32c.72-.528.8-1.617.8-3.346V330.37Z"/><path class="e" d="M105.65,330.37l1.7,4.578c.176.512.368,1.121.5,1.585h.032c.144-.464.3-1.057.5-1.617l1.537-4.546H111.4l-2.113,5.522c-1.008,2.657-1.7,4.018-2.657,4.85a3.815,3.815,0,0,1-1.729.913l-.352-1.185a3.732,3.732,0,0,0,1.232-.688,4.271,4.271,0,0,0,1.185-1.568,1.015,1.015,0,0,0,.112-.336,1.233,1.233,0,0,0-.1-.368l-2.865-7.139Z"/><path class="e" d="M113.954,330.37v2.545c0,.977.368,1.649,1.6,1.649a2.912,2.912,0,0,0,1.665-.544V330.37h1.393v7.747h-1.393v-3.105h-.032a4.065,4.065,0,0,1-2.1.592,2.3,2.3,0,0,1-2.545-2.529V330.37Z"/><path class="e" d="M125.2,338.117l-.112-.977h-.048a2.886,2.886,0,0,1-2.369,1.153,2.207,2.207,0,0,1-2.369-2.225c0-1.873,1.665-2.9,4.658-2.881v-.16a1.6,1.6,0,0,0-1.761-1.793,3.863,3.863,0,0,0-2.017.576l-.32-.928a4.808,4.808,0,0,1,2.545-.688c2.369,0,2.945,1.617,2.945,3.169v2.9a10.9,10.9,0,0,0,.128,1.857Zm-.208-3.954c-1.537-.032-3.281.24-3.281,1.745a1.247,1.247,0,0,0,1.329,1.345,1.927,1.927,0,0,0,1.873-1.3,1.461,1.461,0,0,0,.08-.448Z"/><path class="e" d="M129.409,334.5a2.482,2.482,0,0,0,2.657,2.689,5.094,5.094,0,0,0,2.145-.4l.24,1.008a6.271,6.271,0,0,1-2.577.48,3.6,3.6,0,0,1-3.81-3.906c0-2.337,1.376-4.178,3.633-4.178,2.529,0,3.2,2.225,3.2,3.649a5.3,5.3,0,0,1-.048.656Zm4.13-1.008a2.005,2.005,0,0,0-1.953-2.289,2.335,2.335,0,0,0-2.161,2.289Z"/><path class="e" d="M141.811,330.37v1.121h-2.417v6.626H138V331.49h-2.417V330.37Z"/><path class="e" d="M143.617,334.5a2.482,2.482,0,0,0,2.657,2.689,5.094,5.094,0,0,0,2.145-.4l.24,1.008a6.271,6.271,0,0,1-2.577.48,3.6,3.6,0,0,1-3.81-3.906c0-2.337,1.376-4.178,3.633-4.178,2.529,0,3.2,2.225,3.2,3.649a5.3,5.3,0,0,1-.048.656Zm4.13-1.008a2.005,2.005,0,0,0-1.953-2.289,2.335,2.335,0,0,0-2.161,2.289Z"/><path class="e" d="M155.361,330.37v2.545c0,.977.368,1.649,1.6,1.649a2.912,2.912,0,0,0,1.665-.544V330.37h1.393v7.747h-1.393v-3.105h-.032a4.065,4.065,0,0,1-2.1.592,2.3,2.3,0,0,1-2.545-2.529V330.37Z"/><path class="e" d="M166.61,338.117l-.112-.977h-.048a2.886,2.886,0,0,1-2.369,1.153,2.207,2.207,0,0,1-2.369-2.225c0-1.873,1.665-2.9,4.658-2.881v-.16a1.6,1.6,0,0,0-1.761-1.793,3.863,3.863,0,0,0-2.017.576l-.32-.928a4.808,4.808,0,0,1,2.545-.688c2.369,0,2.945,1.617,2.945,3.169v2.9a10.9,10.9,0,0,0,.128,1.857Zm-.208-3.954c-1.537-.032-3.281.24-3.281,1.745a1.247,1.247,0,0,0,1.329,1.345,1.927,1.927,0,0,0,1.873-1.3,1.461,1.461,0,0,0,.08-.448Z"/><path class="e" d="M175.555,337.829a5.192,5.192,0,0,1-2.225.448,3.681,3.681,0,0,1-3.857-3.954,3.936,3.936,0,0,1,4.162-4.114,4.7,4.7,0,0,1,1.953.4l-.32,1.088a3.262,3.262,0,0,0-1.632-.368,2.921,2.921,0,0,0-.048,5.826,4,4,0,0,0,1.729-.384Z"/><path class="e" d="M182.69,330.37v1.121h-2.417v6.626h-1.393V331.49h-2.417V330.37Z"/><path class="e" d="M185.281,330.37v2.625a7.853,7.853,0,0,1,1.281-.08c1.745,0,3.585.544,3.585,2.609a2.194,2.194,0,0,1-.816,1.777,5.38,5.38,0,0,1-3.361.9,19.077,19.077,0,0,1-2.081-.112V330.37Zm0,6.771a8.106,8.106,0,0,0,1.041.064c1.057,0,2.417-.352,2.417-1.648,0-1.345-1.409-1.633-2.449-1.633a6.632,6.632,0,0,0-1.009.08Z"/><path class="e" d="M18.858,352.818h.672c1.185,0,1.985-.544,1.985-1.264,0-.688-.624-1.121-1.5-1.121a3.736,3.736,0,0,0-1.873.544l-.352-.865a4.922,4.922,0,0,1,2.577-.7c1.185,0,2.625.528,2.625,2.033a1.974,1.974,0,0,1-1.745,1.761v.032a2.059,2.059,0,0,1,2.113,1.937c0,1.681-1.713,2.305-3.345,2.305a5.307,5.307,0,0,1-2.513-.625l.368-.944a4.466,4.466,0,0,0,2.049.528c1.168,0,1.9-.56,1.9-1.329,0-1.041-1.088-1.329-2.257-1.329h-.7Z"/><path class="e" d="M29.4,357.316l-.112-.977h-.048a2.886,2.886,0,0,1-2.369,1.153,2.207,2.207,0,0,1-2.369-2.225c0-1.873,1.665-2.9,4.658-2.881v-.16a1.6,1.6,0,0,0-1.761-1.793,3.863,3.863,0,0,0-2.017.576l-.32-.928a4.808,4.808,0,0,1,2.545-.688c2.369,0,2.945,1.617,2.945,3.169v2.9a10.9,10.9,0,0,0,.128,1.857Zm-.208-3.954c-1.537-.032-3.281.24-3.281,1.745a1.247,1.247,0,0,0,1.329,1.345,1.927,1.927,0,0,0,1.873-1.3,1.464,1.464,0,0,0,.08-.448Z"/><path class="e" d="M32.826,352.1c0-.992-.032-1.792-.064-2.529h1.265l.064,1.329h.032a3.046,3.046,0,0,1,2.753-1.5c1.873,0,3.281,1.585,3.281,3.938,0,2.785-1.7,4.162-3.521,4.162a2.716,2.716,0,0,1-2.385-1.217h-.032v4.21H32.826Zm1.393,2.065a3.194,3.194,0,0,0,.064.576,2.174,2.174,0,0,0,2.113,1.649c1.489,0,2.353-1.217,2.353-2.993,0-1.553-.816-2.881-2.3-2.881a2.248,2.248,0,0,0-2.129,1.745,2.273,2.273,0,0,0-.1.576Z"/><path class="e" d="M42.714,353.7a2.482,2.482,0,0,0,2.657,2.689,5.094,5.094,0,0,0,2.145-.4l.24,1.008a6.271,6.271,0,0,1-2.577.48,3.6,3.6,0,0,1-3.81-3.906c0-2.337,1.376-4.178,3.633-4.178,2.529,0,3.2,2.225,3.2,3.649a5.3,5.3,0,0,1-.048.656Zm4.13-1.008a2.005,2.005,0,0,0-1.953-2.289,2.335,2.335,0,0,0-2.161,2.289Z"/><path class="e" d="M50.633,352.818h.672c1.185,0,1.985-.544,1.985-1.264,0-.688-.624-1.121-1.5-1.121a3.736,3.736,0,0,0-1.873.544l-.352-.865a4.922,4.922,0,0,1,2.577-.7c1.185,0,2.625.528,2.625,2.033a1.974,1.974,0,0,1-1.745,1.761v.032a2.059,2.059,0,0,1,2.113,1.937c0,1.681-1.713,2.305-3.345,2.305a5.307,5.307,0,0,1-2.513-.625l.368-.944a4.466,4.466,0,0,0,2.049.528c1.168,0,1.9-.56,1.9-1.329,0-1.041-1.088-1.329-2.257-1.329h-.7Z"/><path class="e" d="M57.673,353.7a2.482,2.482,0,0,0,2.657,2.689,5.094,5.094,0,0,0,2.145-.4l.24,1.008a6.271,6.271,0,0,1-2.577.48,3.6,3.6,0,0,1-3.81-3.906c0-2.337,1.376-4.178,3.633-4.178,2.529,0,3.2,2.225,3.2,3.649a5.3,5.3,0,0,1-.048.656Zm4.13-1.008a2.005,2.005,0,0,0-1.953-2.289,2.335,2.335,0,0,0-2.161,2.289Z"/><path class="e" d="M64.905,352.1c0-.992-.032-1.792-.064-2.529h1.265l.064,1.329H66.2a3.046,3.046,0,0,1,2.753-1.5c1.873,0,3.281,1.585,3.281,3.938,0,2.785-1.7,4.162-3.521,4.162a2.716,2.716,0,0,1-2.385-1.217H66.3v4.21H64.905Zm1.393,2.065a3.194,3.194,0,0,0,.064.576,2.174,2.174,0,0,0,2.113,1.649c1.489,0,2.353-1.217,2.353-2.993,0-1.553-.816-2.881-2.3-2.881a2.248,2.248,0,0,0-2.129,1.745,2.273,2.273,0,0,0-.1.576Z"/><path class="e" d="M73.977,349.666a16.488,16.488,0,0,1,2.465-.176c1.3,0,3.441.208,3.441,1.937a1.834,1.834,0,0,1-1.617,1.745v.032c1.136.16,1.969.8,1.969,1.921,0,2.033-2.561,2.289-4.082,2.289-.864,0-1.761-.064-2.177-.1Zm1.329,6.723a8.564,8.564,0,0,0,1.137.064c.944,0,2.353-.224,2.353-1.345s-1.121-1.36-2.465-1.36H75.305Zm.016-3.57h1.057c1.04,0,2.113-.3,2.113-1.216,0-.768-.672-1.136-2.081-1.136a9.927,9.927,0,0,0-1.088.064Z"/><path class="e" d="M83.305,349.569v3.265c0,1.232-.016,2-.08,3.105l.048.016c.464-.945.736-1.489,1.249-2.385l2.417-4h1.648v7.747H87.243v-3.281c0-1.265.032-1.921.1-3.169h-.048c-.5.993-.833,1.617-1.281,2.4-.736,1.2-1.584,2.689-2.417,4.05H81.977v-7.747Z"/><path class="e" d="M90.873,352.1c0-.992-.032-1.792-.064-2.529h1.265l.064,1.329h.032a3.046,3.046,0,0,1,2.753-1.5c1.873,0,3.281,1.585,3.281,3.938,0,2.785-1.7,4.162-3.521,4.162a2.716,2.716,0,0,1-2.385-1.217h-.032v4.21H90.873Zm1.393,2.065a3.194,3.194,0,0,0,.064.576,2.174,2.174,0,0,0,2.113,1.649c1.489,0,2.353-1.217,2.353-2.993,0-1.553-.816-2.881-2.3-2.881a2.248,2.248,0,0,0-2.129,1.745,2.273,2.273,0,0,0-.1.576Z"/><path class="e" d="M106.987,353.379a3.786,3.786,0,0,1-3.857,4.114,3.683,3.683,0,0,1-3.713-3.986,3.783,3.783,0,0,1,3.841-4.114A3.669,3.669,0,0,1,106.987,353.379Zm-6.146.08c0,1.7.977,2.977,2.353,2.977,1.345,0,2.353-1.265,2.353-3.009,0-1.312-.656-2.977-2.321-2.977S100.841,351.986,100.841,353.459Z"/><path class="e" d="M108.729,349.666a16.488,16.488,0,0,1,2.465-.176c1.3,0,3.441.208,3.441,1.937a1.834,1.834,0,0,1-1.617,1.745v.032c1.136.16,1.969.8,1.969,1.921,0,2.033-2.561,2.289-4.082,2.289-.864,0-1.761-.064-2.177-.1Zm1.329,6.723a8.564,8.564,0,0,0,1.137.064c.944,0,2.353-.224,2.353-1.345s-1.121-1.36-2.465-1.36h-1.024Zm.016-3.57h1.057c1.04,0,2.113-.3,2.113-1.216,0-.768-.672-1.136-2.081-1.136a9.927,9.927,0,0,0-1.088.064Z"/><path class="e" d="M121.05,357.316l-.112-.977h-.048a2.886,2.886,0,0,1-2.369,1.153,2.207,2.207,0,0,1-2.369-2.225c0-1.873,1.665-2.9,4.658-2.881v-.16a1.6,1.6,0,0,0-1.761-1.793,3.863,3.863,0,0,0-2.017.576l-.32-.928a4.808,4.808,0,0,1,2.545-.688c2.369,0,2.945,1.617,2.945,3.169v2.9a10.9,10.9,0,0,0,.128,1.857Zm-.208-3.954c-1.537-.032-3.281.24-3.281,1.745a1.247,1.247,0,0,0,1.329,1.345,1.927,1.927,0,0,0,1.873-1.3,1.464,1.464,0,0,0,.08-.448Z"/><path class="e" d="M125.833,349.569v3.121h3.682v-3.121h1.393v7.747h-1.393v-3.505h-3.682v3.505h-1.393v-7.747Z"/><path class="e" d="M134.569,349.569v3.121h3.682v-3.121h1.393v7.747h-1.393v-3.505h-3.682v3.505h-1.393v-7.747Z"/><path class="e" d="M148.955,353.379a3.786,3.786,0,0,1-3.857,4.114,3.683,3.683,0,0,1-3.713-3.986,3.783,3.783,0,0,1,3.841-4.114A3.669,3.669,0,0,1,148.955,353.379Zm-6.146.08c0,1.7.977,2.977,2.353,2.977,1.345,0,2.353-1.265,2.353-3.009,0-1.312-.656-2.977-2.321-2.977S142.809,351.986,142.809,353.459Z"/><path class="e" d="M155.451,349.569v1.136h-3.362v6.611H150.7v-7.747Z"/><path class="e" d="M163.58,353.379a3.786,3.786,0,0,1-3.857,4.114,3.683,3.683,0,0,1-3.713-3.986,3.783,3.783,0,0,1,3.841-4.114A3.669,3.669,0,0,1,163.58,353.379Zm-6.146.08c0,1.7.977,2.977,2.353,2.977,1.345,0,2.353-1.265,2.353-3.009,0-1.312-.656-2.977-2.321-2.977S157.433,351.986,157.433,353.459Z"/><path class="e" d="M174.587,349.569v6.69l.8.016-.08,3.505h-1.1l-.064-2.465h-5.362l-.064,2.465h-1.1l-.064-3.505.656-.016a6.042,6.042,0,0,0,.769-1.584,10.226,10.226,0,0,0,.448-3.089v-2.017Zm-3.921,2.353a10.26,10.26,0,0,1-.4,2.881,7.4,7.4,0,0,1-.624,1.441h3.569v-5.6h-2.545Z"/><path class="e" d="M184.012,353.379a3.786,3.786,0,0,1-3.857,4.114,3.683,3.683,0,0,1-3.713-3.986,3.783,3.783,0,0,1,3.841-4.114A3.669,3.669,0,0,1,184.012,353.379Zm-6.146.08c0,1.7.977,2.977,2.353,2.977,1.345,0,2.353-1.265,2.353-3.009,0-1.312-.656-2.977-2.321-2.977S177.865,351.986,177.865,353.459Z"/><path class="e" d="M186.233,349.569l1.1,1.665c.288.432.528.833.784,1.265h.048c.256-.464.512-.864.768-1.281l1.088-1.648h1.521l-2.641,3.746,2.721,4h-1.6l-1.136-1.745c-.3-.448-.561-.88-.833-1.345h-.032c-.256.464-.528.88-.816,1.345l-1.121,1.745h-1.553l2.753-3.954-2.625-3.793Z"/><path class="e" d="M199.772,353.379a3.786,3.786,0,0,1-3.857,4.114,3.683,3.683,0,0,1-3.713-3.986,3.783,3.783,0,0,1,3.841-4.114A3.669,3.669,0,0,1,199.772,353.379Zm-6.146.08c0,1.7.977,2.977,2.353,2.977,1.345,0,2.353-1.265,2.353-3.009,0-1.312-.656-2.977-2.321-2.977S193.626,351.986,193.626,353.459Z"/><path class="e" d="M207.436,349.569v6.69l.8.016-.08,3.505h-1.1l-.064-2.465h-5.362l-.064,2.465h-1.1l-.064-3.505.656-.016a6.042,6.042,0,0,0,.769-1.584,10.226,10.226,0,0,0,.448-3.089v-2.017Zm-3.921,2.353a10.26,10.26,0,0,1-.4,2.881,7.4,7.4,0,0,1-.624,1.441h3.569v-5.6h-2.545Z"/><path class="e" d="M214.2,357.316l-.112-.977h-.048a2.886,2.886,0,0,1-2.369,1.153,2.207,2.207,0,0,1-2.369-2.225c0-1.873,1.665-2.9,4.658-2.881v-.16a1.6,1.6,0,0,0-1.761-1.793,3.863,3.863,0,0,0-2.017.576l-.32-.928a4.808,4.808,0,0,1,2.545-.688c2.369,0,2.945,1.617,2.945,3.169v2.9a10.9,10.9,0,0,0,.128,1.857ZM214,353.363c-1.537-.032-3.281.24-3.281,1.745a1.247,1.247,0,0,0,1.329,1.345,1.927,1.927,0,0,0,1.873-1.3,1.464,1.464,0,0,0,.08-.448Z"/><path class="e" d="M266.286,327.461a13.513,13.513,0,0,1,2.545-.224,4.457,4.457,0,0,1,2.961.784,2.262,2.262,0,0,1,.9,1.9,2.561,2.561,0,0,1-1.825,2.369v.032a2.78,2.78,0,0,1,2.225,2.705,2.908,2.908,0,0,1-.912,2.161,5.417,5.417,0,0,1-3.729,1.009,16.2,16.2,0,0,1-2.161-.128Zm1.393,4.418h1.265c1.473,0,2.337-.768,2.337-1.809,0-1.265-.96-1.761-2.369-1.761a5.946,5.946,0,0,0-1.232.1Zm0,5.17a7.4,7.4,0,0,0,1.168.064c1.441,0,2.77-.528,2.77-2.1,0-1.473-1.265-2.081-2.785-2.081h-1.153Z"/><path class="e" d="M276.271,330.358V333a6.658,6.658,0,0,1,1.265-.1c1.665,0,3.345.688,3.345,2.593a2.192,2.192,0,0,1-.8,1.792,4.883,4.883,0,0,1-3.121.9,19.077,19.077,0,0,1-2.081-.112v-7.715Zm0,6.771a7.821,7.821,0,0,0,.977.064c1.072,0,2.241-.448,2.241-1.648,0-1.249-1.12-1.633-2.177-1.633a6.421,6.421,0,0,0-1.041.08Zm6.979-6.771v7.747h-1.393v-7.747Z"/><path class="e" d="M288.75,330.455a16.488,16.488,0,0,1,2.465-.176c1.3,0,3.441.208,3.441,1.937a1.834,1.834,0,0,1-1.617,1.745v.032c1.136.16,1.969.8,1.969,1.921,0,2.033-2.561,2.289-4.082,2.289-.864,0-1.761-.064-2.177-.1Zm1.329,6.723a8.564,8.564,0,0,0,1.137.064c.944,0,2.353-.224,2.353-1.345s-1.121-1.36-2.465-1.36h-1.024Zm.016-3.57h1.057c1.04,0,2.113-.3,2.113-1.216,0-.768-.672-1.136-2.081-1.136a9.919,9.919,0,0,0-1.088.064Z"/><path class="e" d="M298.143,330.358V333a6.658,6.658,0,0,1,1.265-.1c1.665,0,3.345.688,3.345,2.593a2.192,2.192,0,0,1-.8,1.792,4.883,4.883,0,0,1-3.121.9,19.077,19.077,0,0,1-2.081-.112v-7.715Zm0,6.771a7.821,7.821,0,0,0,.977.064c1.072,0,2.241-.448,2.241-1.648,0-1.249-1.12-1.633-2.177-1.633a6.421,6.421,0,0,0-1.041.08Zm6.979-6.771v7.747h-1.393v-7.747Z"/><path class="e" d="M312.945,337.817a5.192,5.192,0,0,1-2.225.448,3.681,3.681,0,0,1-3.857-3.954,3.936,3.936,0,0,1,4.162-4.114,4.7,4.7,0,0,1,1.953.4l-.32,1.088a3.262,3.262,0,0,0-1.632-.368,2.921,2.921,0,0,0-.048,5.826,4,4,0,0,0,1.729-.384Z"/><path class="e" d="M315.983,330.358v3.361h.336l2.914-3.361h1.712l-3.377,3.505c1.249.128,2,.96,2.609,2.353a16.329,16.329,0,0,0,.832,1.889h-1.473a10.314,10.314,0,0,1-.72-1.584,2.514,2.514,0,0,0-2.561-1.825h-.272v3.409H314.59v-7.747Z"/><path class="e" d="M326.7,338.105l-.112-.977h-.048a2.886,2.886,0,0,1-2.369,1.153,2.207,2.207,0,0,1-2.369-2.225c0-1.873,1.665-2.9,4.658-2.881v-.16a1.6,1.6,0,0,0-1.761-1.793,3.863,3.863,0,0,0-2.017.576l-.32-.928a4.808,4.808,0,0,1,2.545-.688c2.369,0,2.945,1.617,2.945,3.169v2.9a10.9,10.9,0,0,0,.128,1.857Zm-.208-3.954c-1.537-.032-3.281.24-3.281,1.745a1.247,1.247,0,0,0,1.329,1.345,1.927,1.927,0,0,0,1.873-1.3,1.461,1.461,0,0,0,.08-.448Z"/><path class="e" d="M330.767,333.607h.672c1.185,0,1.985-.544,1.985-1.264,0-.688-.624-1.121-1.5-1.121a3.736,3.736,0,0,0-1.873.544l-.352-.865a4.922,4.922,0,0,1,2.577-.7c1.185,0,2.625.528,2.625,2.033a1.974,1.974,0,0,1-1.745,1.761v.032a2.059,2.059,0,0,1,2.113,1.937c0,1.681-1.713,2.305-3.345,2.305a5.307,5.307,0,0,1-2.513-.625l.368-.944a4.466,4.466,0,0,0,2.049.528c1.168,0,1.9-.56,1.9-1.329,0-1.041-1.088-1.329-2.257-1.329h-.7Z"/><path class="e" d="M338.382,330.358V333a6.658,6.658,0,0,1,1.265-.1c1.665,0,3.345.688,3.345,2.593a2.192,2.192,0,0,1-.8,1.792,4.883,4.883,0,0,1-3.121.9,19.077,19.077,0,0,1-2.081-.112v-7.715Zm0,6.771a7.821,7.821,0,0,0,.977.064c1.072,0,2.241-.448,2.241-1.648,0-1.249-1.12-1.633-2.177-1.633a6.426,6.426,0,0,0-1.041.08Zm6.979-6.771v7.747h-1.393v-7.747Z"/><path class="e" d="M347.63,330.455a16.488,16.488,0,0,1,2.465-.176c1.3,0,3.441.208,3.441,1.937a1.834,1.834,0,0,1-1.617,1.745v.032c1.136.16,1.969.8,1.969,1.921,0,2.033-2.561,2.289-4.082,2.289-.864,0-1.761-.064-2.177-.1Zm1.329,6.723a8.564,8.564,0,0,0,1.137.064c.944,0,2.353-.224,2.353-1.345s-1.121-1.36-2.465-1.36h-1.024Zm.016-3.57h1.057c1.04,0,2.113-.3,2.113-1.216,0-.768-.672-1.136-2.081-1.136a9.927,9.927,0,0,0-1.088.064Z"/><path class="e" d="M359.952,338.105l-.112-.977h-.048a2.886,2.886,0,0,1-2.369,1.153,2.207,2.207,0,0,1-2.369-2.225c0-1.873,1.665-2.9,4.658-2.881v-.16a1.6,1.6,0,0,0-1.761-1.793,3.863,3.863,0,0,0-2.017.576l-.32-.928a4.808,4.808,0,0,1,2.545-.688c2.369,0,2.945,1.617,2.945,3.169v2.9a10.9,10.9,0,0,0,.128,1.857Zm-.208-3.954c-1.537-.032-3.281.24-3.281,1.745a1.247,1.247,0,0,0,1.329,1.345,1.927,1.927,0,0,0,1.873-1.3,1.461,1.461,0,0,0,.08-.448Z"/><path class="e" d="M364.159,334.488a2.482,2.482,0,0,0,2.657,2.689,5.094,5.094,0,0,0,2.145-.4l.24,1.008a6.271,6.271,0,0,1-2.577.48,3.6,3.6,0,0,1-3.81-3.906c0-2.337,1.376-4.178,3.633-4.178,2.529,0,3.2,2.225,3.2,3.649a5.3,5.3,0,0,1-.048.656Zm4.13-1.008a2.005,2.005,0,0,0-1.953-2.289,2.335,2.335,0,0,0-2.161,2.289Z"/><path class="e" d="M376.56,330.358v1.121h-2.417v6.626h-1.393v-6.626h-2.417v-1.121Z"/><path class="e" d="M378.367,334.488a2.482,2.482,0,0,0,2.657,2.689,5.094,5.094,0,0,0,2.145-.4l.24,1.008a6.271,6.271,0,0,1-2.577.48,3.6,3.6,0,0,1-3.81-3.906c0-2.337,1.376-4.178,3.633-4.178,2.529,0,3.2,2.225,3.2,3.649a5.3,5.3,0,0,1-.048.656Zm4.13-1.008a2.005,2.005,0,0,0-1.953-2.289,2.335,2.335,0,0,0-2.161,2.289Z"/><path class="e" d="M394.353,337.817a5.192,5.192,0,0,1-2.225.448,3.681,3.681,0,0,1-3.857-3.954,3.936,3.936,0,0,1,4.162-4.114,4.7,4.7,0,0,1,1.953.4l-.32,1.088a3.265,3.265,0,0,0-1.633-.368,2.921,2.921,0,0,0-.048,5.826,4,4,0,0,0,1.729-.384Z"/><path class="e" d="M395.966,330.455a16.488,16.488,0,0,1,2.465-.176c1.3,0,3.441.208,3.441,1.937a1.834,1.834,0,0,1-1.617,1.745v.032c1.136.16,1.969.8,1.969,1.921,0,2.033-2.561,2.289-4.082,2.289-.864,0-1.761-.064-2.177-.1Zm1.329,6.723a8.564,8.564,0,0,0,1.137.064c.944,0,2.353-.224,2.353-1.345s-1.121-1.36-2.465-1.36h-1.024Zm.016-3.57h1.057c1.04,0,2.113-.3,2.113-1.216,0-.768-.672-1.136-2.081-1.136a9.919,9.919,0,0,0-1.088.064Z"/><path class="e" d="M411.009,334.168a3.786,3.786,0,0,1-3.857,4.114,3.683,3.683,0,0,1-3.713-3.986,3.783,3.783,0,0,1,3.841-4.114A3.669,3.669,0,0,1,411.009,334.168Zm-6.146.08c0,1.7.977,2.977,2.353,2.977,1.345,0,2.353-1.265,2.353-3.009,0-1.312-.656-2.977-2.321-2.977S404.862,332.775,404.862,334.248Z"/><path class="e" d="M413.566,334.488a2.482,2.482,0,0,0,2.657,2.689,5.094,5.094,0,0,0,2.145-.4l.24,1.008a6.271,6.271,0,0,1-2.577.48,3.6,3.6,0,0,1-3.81-3.906c0-2.337,1.376-4.178,3.633-4.178,2.529,0,3.2,2.225,3.2,3.649a5.3,5.3,0,0,1-.048.656Zm4.13-1.008a2.005,2.005,0,0,0-1.953-2.289,2.335,2.335,0,0,0-2.161,2.289Zm-4.082-5.314a.82.82,0,0,1,.816-.816.783.783,0,0,1,.784.816.793.793,0,0,1-.784.816A.809.809,0,0,1,413.614,328.166Zm2.977,0a.806.806,0,0,1,.8-.816.783.783,0,0,1,.784.816.793.793,0,1,1-1.584,0Z"/><path class="e" d="M249.991,349.559h1.729l1.409,3.905c.192.577.528,1.521.7,2.129h.032c.176-.576.608-1.809.913-2.657l1.248-3.377h1.745l.544,7.747H256.97l-.176-3.7c-.048-.833-.112-1.825-.144-2.77H256.6c-.208.7-.417,1.329-.849,2.513l-1.488,3.906h-1.024l-1.377-3.826c-.24-.736-.576-1.857-.768-2.577h-.064c-.032.913-.08,1.937-.128,2.785l-.192,3.666h-1.3Z"/><path class="e" d="M261.5,349.559v3.121h3.682v-3.121h1.393v7.747h-1.393V353.8H261.5v3.505H260.1v-7.747Z"/><path class="e" d="M269.655,353.688a2.482,2.482,0,0,0,2.657,2.689,5.094,5.094,0,0,0,2.145-.4l.24,1.008a6.271,6.271,0,0,1-2.577.48,3.6,3.6,0,0,1-3.81-3.906c0-2.337,1.376-4.178,3.633-4.178,2.529,0,3.2,2.225,3.2,3.649a5.3,5.3,0,0,1-.048.656Zm4.13-1.008a2.005,2.005,0,0,0-1.953-2.289,2.335,2.335,0,0,0-2.161,2.289Z"/><path class="e" d="M278.248,349.559v3.121h3.682v-3.121h1.393v7.747h-1.393V353.8h-3.682v3.505h-1.393v-7.747Z"/><path class="e" d="M286.92,349.559v3.265c0,1.232-.016,2-.08,3.105l.048.016c.464-.944.736-1.489,1.249-2.385l2.417-4H292.2v7.747h-1.344v-3.281c0-1.265.032-1.921.1-3.169h-.048c-.5.993-.833,1.617-1.281,2.4-.736,1.2-1.584,2.689-2.417,4.05h-1.617v-7.747Z"/><path class="e" d="M295.271,353.688a2.482,2.482,0,0,0,2.657,2.689,5.094,5.094,0,0,0,2.145-.4l.24,1.008a6.271,6.271,0,0,1-2.577.48,3.6,3.6,0,0,1-3.81-3.906c0-2.337,1.376-4.178,3.633-4.178,2.529,0,3.2,2.225,3.2,3.649a5.3,5.3,0,0,1-.048.656Zm4.13-1.008a2.005,2.005,0,0,0-1.953-2.289,2.335,2.335,0,0,0-2.161,2.289Z"/><path class="e" d="M302.087,359.258a2.152,2.152,0,0,0,1.44-1.953.54.54,0,0,1-.16.016.882.882,0,0,1-.944-.913.921.921,0,0,1,.977-.928c.688,0,1.1.592,1.1,1.553a3.18,3.18,0,0,1-2.1,2.993Z"/><path class="e" d="M311.111,349.559v3.361h.336l2.914-3.361h1.712l-3.377,3.505c1.249.128,2,.96,2.609,2.353a16.329,16.329,0,0,0,.832,1.889h-1.473a10.314,10.314,0,0,1-.72-1.584,2.514,2.514,0,0,0-2.561-1.825h-.272v3.409h-1.393v-7.747Z"/><path class="e" d="M321.832,357.306l-.112-.977h-.048a2.886,2.886,0,0,1-2.369,1.153,2.207,2.207,0,0,1-2.369-2.225c0-1.873,1.665-2.9,4.658-2.881v-.16a1.6,1.6,0,0,0-1.761-1.793,3.863,3.863,0,0,0-2.017.576l-.32-.928a4.808,4.808,0,0,1,2.545-.688c2.369,0,2.945,1.617,2.945,3.169v2.9a10.9,10.9,0,0,0,.128,1.857Zm-.208-3.954c-1.537-.032-3.281.24-3.281,1.745a1.247,1.247,0,0,0,1.329,1.345,1.927,1.927,0,0,0,1.873-1.3,1.461,1.461,0,0,0,.08-.448Z"/><path class="e" d="M326.647,349.559v3.361h.336l2.914-3.361h1.712l-3.377,3.505c1.249.128,2,.96,2.609,2.353a16.329,16.329,0,0,0,.832,1.889H330.2a10.314,10.314,0,0,1-.72-1.584,2.514,2.514,0,0,0-2.561-1.825h-.272v3.409h-1.393v-7.747Z"/><path class="e" d="M336.663,349.559l1.7,4.578c.176.512.368,1.121.5,1.585h.032c.144-.464.3-1.057.5-1.617l1.537-4.546h1.489l-2.113,5.522c-1.008,2.657-1.7,4.018-2.657,4.85a3.815,3.815,0,0,1-1.729.913l-.352-1.185a3.732,3.732,0,0,0,1.232-.688,4.271,4.271,0,0,0,1.185-1.568,1.015,1.015,0,0,0,.112-.336,1.233,1.233,0,0,0-.1-.368l-2.865-7.139Z"/><path class="e" d="M349.433,349.559v7.747H348.04v-6.643h-2.657v2.017c0,2.177-.208,3.634-1.216,4.29a2.264,2.264,0,0,1-1.537.48l-.144-1.1a1.746,1.746,0,0,0,.768-.32c.72-.528.8-1.617.8-3.346v-3.121Z"/><path class="e" d="M352.182,349.559l1.7,4.578c.176.512.368,1.121.5,1.585h.032c.144-.464.3-1.057.5-1.617l1.537-4.546h1.489l-2.113,5.522c-1.008,2.657-1.7,4.018-2.657,4.85a3.815,3.815,0,0,1-1.729.913l-.352-1.185a3.732,3.732,0,0,0,1.232-.688,4.271,4.271,0,0,0,1.185-1.568,1.015,1.015,0,0,0,.112-.336,1.233,1.233,0,0,0-.1-.368l-2.865-7.139Z"/><path class="e" d="M360.486,349.559V352.1c0,.977.368,1.649,1.6,1.649a2.912,2.912,0,0,0,1.665-.544v-3.649h1.393v7.747h-1.393V354.2h-.032a4.065,4.065,0,0,1-2.1.592,2.3,2.3,0,0,1-2.545-2.529v-2.705Z"/><path class="e" d="M368.791,349.559V356.2H371.5v-6.643h1.376V356.2h2.705v-6.643h1.393v7.747h-9.556v-7.747Z"/><path class="e" d="M380.55,349.559v3.265c0,1.232-.016,2-.08,3.105l.048.016c.464-.944.736-1.489,1.249-2.385l2.417-4h1.648v7.747h-1.345v-3.281c0-1.265.032-1.921.1-3.169h-.048c-.5.993-.833,1.617-1.281,2.4-.736,1.2-1.584,2.689-2.417,4.05h-1.617v-7.747Z"/><path class="e" d="M393.3,349.559v1.121h-2.417v6.626h-1.393v-6.626h-2.417v-1.121Z"/><path class="e" d="M395.894,349.559v2.625a7.853,7.853,0,0,1,1.281-.08c1.745,0,3.585.544,3.585,2.609a2.194,2.194,0,0,1-.816,1.777,5.38,5.38,0,0,1-3.361.9,19.077,19.077,0,0,1-2.081-.112v-7.715Zm0,6.771a8.106,8.106,0,0,0,1.041.064c1.057,0,2.417-.352,2.417-1.648,0-1.345-1.409-1.633-2.449-1.633a6.632,6.632,0,0,0-1.009.08Z"/><path class="e" d="M407.029,349.559v3.265c0,1.232-.016,2-.08,3.105l.048.016c.464-.944.736-1.489,1.249-2.385l2.417-4h1.648v7.747h-1.345v-3.281c0-1.265.032-1.921.1-3.169h-.048c-.5.993-.833,1.617-1.281,2.4-.736,1.2-1.584,2.689-2.417,4.05H405.7v-7.747Z"/><path class="e" d="M419.318,349.559v1.136h-3.361v6.611h-1.393v-7.747Z"/><path class="e" d="M420.645,352.087c0-.992-.032-1.792-.064-2.529h1.265l.064,1.329h.032a3.046,3.046,0,0,1,2.753-1.5c1.873,0,3.281,1.585,3.281,3.938,0,2.785-1.7,4.162-3.521,4.162a2.716,2.716,0,0,1-2.385-1.217h-.032v4.21h-1.393Zm1.393,2.065a3.194,3.194,0,0,0,.064.576,2.174,2.174,0,0,0,2.113,1.649c1.489,0,2.353-1.217,2.353-2.993,0-1.553-.816-2.881-2.3-2.881a2.248,2.248,0,0,0-2.129,1.745,2.273,2.273,0,0,0-.1.576Z"/><path class="e" d="M430.1,349.559l1.7,4.578c.176.512.368,1.121.5,1.585h.032c.144-.464.3-1.057.5-1.617l1.537-4.546h1.488l-2.113,5.522c-1.008,2.657-1.7,4.018-2.657,4.85a3.818,3.818,0,0,1-1.729.913L429,359.659a3.732,3.732,0,0,0,1.232-.688,4.271,4.271,0,0,0,1.185-1.568,1.015,1.015,0,0,0,.112-.336,1.233,1.233,0,0,0-.1-.368l-2.865-7.139Z"/><path class="f" d="M176.943,38.435a188.176,188.176,0,0,1,96.133-.023"/><line class="f" x1="267.56" y1="42.028" x2="273.079" y2="38.412"/><line class="f" x1="270.292" y1="32.437" x2="273.079" y2="38.412"/><line class="f" x1="267.56" y1="42.028" x2="273.079" y2="38.412"/><line class="f" x1="270.292" y1="32.437" x2="273.079" y2="38.412"/><path class="f" d="M176.943,38.435a188.176,188.176,0,0,1,96.133-.023"/><path class="f" d="M405.372,171.135a188.176,188.176,0,0,1,.023,96.133"/><line class="f" x1="401.78" y1="261.752" x2="405.396" y2="267.271"/><line class="f" x1="411.371" y1="264.484" x2="405.396" y2="267.271"/><line class="f" x1="401.78" y1="261.752" x2="405.396" y2="267.271"/><line class="f" x1="411.371" y1="264.484" x2="405.396" y2="267.271"/><path class="f" d="M405.372,171.135a188.176,188.176,0,0,1,.023,96.133"/><path class="f" d="M272.672,399.565a188.176,188.176,0,0,1-96.133.023"/><line class="f" x1="182.055" y1="395.972" x2="176.536" y2="399.588"/><line class="f" x1="179.324" y1="405.563" x2="176.536" y2="399.588"/><line class="f" x1="182.055" y1="395.972" x2="176.536" y2="399.588"/><line class="f" x1="179.324" y1="405.563" x2="176.536" y2="399.588"/><path class="f" d="M272.672,399.565a188.176,188.176,0,0,1-96.133.023"/><path class="e" d="M362.708,277c.06-.76.1-1.53.1-2.31C362.808,275.48,362.778,276.25,362.708,277Z"/><path class="e" d="M362.708,277.03a19.678,19.678,0,0,1-1.92,7.24A21.729,21.729,0,0,0,362.708,277.03Z"/><path class="e" d="M359.728,278.77c.06-.36.12-.73.17-1.1C359.858,278.05,359.8,278.41,359.728,278.77Z"/><path class="e" d="M359.728,278.77a16.1,16.1,0,0,1-.49,2.02A20.556,20.556,0,0,0,359.728,278.77Z"/><path class="e" d="M354.808,287.65a14.639,14.639,0,0,0,3.97-5.56,15.356,15.356,0,0,1-4.21,6.08,1.3,1.3,0,0,0-.19.22A1.4,1.4,0,0,1,354.808,287.65Z"/><path class="e" d="M352.078,311.28a1.36,1.36,0,1,1,0,2.72h-20.4a1.36,1.36,0,1,1,0-2.72Z"/><path class="e" d="M356.538,290.06c-.38.66-1.06,1.92-1.54,3.01-.01,0-.01,0-.01.01a22.721,22.721,0,0,1-3.31,1.84c.07-.51.13-.92.19-1.17a26.581,26.581,0,0,1,2.43-5.24.834.834,0,0,1,.08-.12,1.31,1.31,0,0,0,.31,1.17,1.361,1.361,0,0,0,1.92.13,17.322,17.322,0,0,0,4.16-5.37A18.136,18.136,0,0,1,356.538,290.06Z"/><path class="e" d="M342.138,304.49a1.355,1.355,0,1,1-1.24,1.35A1.352,1.352,0,0,1,342.138,304.49Z"/><path class="e" d="M354.988,293.08a8.337,8.337,0,0,0-.48,1.31c-.27,1.14-.8,7.69-1.06,11.55a1.357,1.357,0,0,1-1.36,1.26h-9.83a.487.487,0,0,1-.12-.01,1.355,1.355,0,0,0,0-2.7.487.487,0,0,1,.12-.01h8.57c.16-2.35.53-7.15.85-9.56A22.721,22.721,0,0,0,354.988,293.08Z"/><path class="e" d="M330.838,305.94c-.27-3.86-.79-10.41-1.07-11.55a7.435,7.435,0,0,0-.48-1.31,22.883,22.883,0,0,0,3.32,1.85c.31,2.41.68,7.2.85,9.55h8.56a.487.487,0,0,1,.12.01,1.355,1.355,0,0,0,0,2.7.487.487,0,0,1-.12.01h-9.83A1.347,1.347,0,0,1,330.838,305.94Z"/><path class="e" d="M329.908,288.39a2.089,2.089,0,0,0-.2-.22,15.286,15.286,0,0,1-4.21-6.08,14.639,14.639,0,0,0,3.97,5.56A1.356,1.356,0,0,1,329.908,288.39Z"/><path class="e" d="M324.548,278.77c.13.7.3,1.37.49,2.03A16.257,16.257,0,0,1,324.548,278.77Z"/><path class="e" d="M324.548,278.77c-.09-.45-.16-.92-.21-1.4C324.4,277.85,324.468,278.32,324.548,278.77Z"/><path class="e" d="M324.218,275.88c.02.51.06,1.01.12,1.49s.12.95.21,1.4a16.257,16.257,0,0,0,.49,2.03c.06.21.14.43.21.64s.16.44.25.65a15.286,15.286,0,0,0,4.21,6.08,2.089,2.089,0,0,1,.2.22v.01a1.361,1.361,0,0,1-2.23,1.29,17.355,17.355,0,0,1-4.17-5.37c-.01-.02-.02-.03-.02-.05a21.97,21.97,0,0,1-1.92-7.24.019.019,0,0,1,0-.03,1.21,1.21,0,0,1-.01-.19c-.06-.67-.09-1.36-.09-2.05v-.07a20.67,20.67,0,0,1,41.34,0c0,.78-.04,1.55-.1,2.31,0,.01-.01.02,0,.03a21.729,21.729,0,0,1-1.92,7.24c-.01.02-.01.03-.02.05a17.322,17.322,0,0,1-4.16,5.37,1.361,1.361,0,0,1-1.92-.13.845.845,0,0,1-.12-1.39,15.356,15.356,0,0,0,4.21-6.08c.09-.21.17-.43.25-.65s.15-.43.21-.65a16.1,16.1,0,0,0,.49-2.02c.07-.36.13-.72.17-1.1.08-.58.13-1.18.16-1.79.02-.39.03-.79.03-1.19a17.95,17.95,0,0,0-35.9,0C324.188,275.1,324.2,275.49,324.218,275.88Z"/><path class="e" d="M323.508,284.32a17.355,17.355,0,0,0,4.17,5.37,1.361,1.361,0,0,0,2.23-1.29.444.444,0,0,1,.08.11,26.581,26.581,0,0,1,2.43,5.24c.06.25.12.66.19,1.18a22.883,22.883,0,0,1-3.32-1.85.01.01,0,0,0-.01-.01,32.885,32.885,0,0,0-1.53-3.01A18.165,18.165,0,0,1,323.508,284.32Z"/><path class="e" d="M321.568,277.03a21.97,21.97,0,0,0,1.92,7.24A19.678,19.678,0,0,1,321.568,277.03Z"/><path class="e" d="M321.468,274.76c0,.69.03,1.38.09,2.05C321.5,276.14,321.468,275.46,321.468,274.76Z"/><path class="g" d="M320.851,286.072a20.756,20.756,0,0,0,4.845,6.559,37.575,37.575,0,0,1,1.748,3.439,26.28,26.28,0,1,1,29.388,0c.548-1.245,1.325-2.685,1.76-3.439a20.722,20.722,0,0,0,4.833-6.559c.011-.023.011-.034.023-.057a22.485,22.485,0,0,0,2.194-8.273c-.011-.011,0-.023,0-.034.08-.857.114-1.737.114-2.639a23.618,23.618,0,0,0-47.236,0v.08c0,.8.034,1.577.1,2.342a1.383,1.383,0,0,0,.011.217.021.021,0,0,0,0,.034,22.485,22.485,0,0,0,2.194,8.273C320.828,286.038,320.839,286.049,320.851,286.072Z"/><path class="h" d="M99.441,70.963H93.515V65.037a3.037,3.037,0,0,0-6.074,0v5.926H81.515a3.037,3.037,0,1,0,0,6.074h5.926v5.926a3.037,3.037,0,0,0,6.074,0V77.037h5.926a3.037,3.037,0,0,0,0-6.074Z"/><circle class="b" cx="337.973" cy="74.5" r="32.5"/><path class="c" d="M338.223,73.75,349.9,42.617A33.25,33.25,0,0,0,338.223,40.5Z"/><ellipse class="i" cx="107.081" cy="253.146" rx="8.955" ry="11.854"/><path class="j" d="M84.473,296.8a23,23,0,0,1,46,0"/><path class="j" d="M107.5,298.953a16.351,16.351,0,0,1-23.025-2.133"/><circle class="c" cx="113.028" cy="295.204" r="3" transform="translate(-162.524 140.311) rotate(-39.708)"/><g class="d"><circle class="c" cx="85.473" cy="311" r="3" transform="translate(-178.972 126.351) rotate(-39.708)"/><circle class="c" cx="96.473" cy="311" r="3" transform="translate(-176.435 133.379) rotate(-39.708)"/><circle class="c" cx="107.473" cy="311" r="3" transform="translate(-173.897 140.406) rotate(-39.708)"/><circle class="c" cx="118.473" cy="311" r="3" transform="translate(-171.36 147.434) rotate(-39.708)"/><circle class="c" cx="129.473" cy="311" r="3" transform="translate(-168.822 154.462) rotate(-39.708)"/></g></svg>