<svg xmlns="http://www.w3.org/2000/svg" viewBox="0 0 450 450"><defs><style>.a,.b,.f,.i,.j{fill:none;stroke:#fff;}.a,.b,.i{stroke-miterlimit:10;}.a,.f{stroke-width:2px;}.b,.i,.j{stroke-width:3px;}.c,.g{fill:#ff3b3f;}.d,.h{opacity:0.5;}.e,.h{fill:#fff;}.f,.i,.j{stroke-linecap:round;}.f,.j{stroke-linejoin:round;}.g{opacity:0.76;}</style></defs><title>how_it_works_new</title><path class="a" d="M155.4,74.2A21.8,21.8,0,0,1,133.7,96H90.2a21.8,21.8,0,0,1,0-43.5h43.5A21.8,21.8,0,0,1,155.4,74.2Z"/><path class="a" d="M155.4,74.2A21.8,21.8,0,0,1,133.7,96H90.2a21.8,21.8,0,0,1,0-43.5h43.5A21.8,21.8,0,0,1,155.4,74.2Z"/><path class="a" d="M155.4,74.2A21.8,21.8,0,0,1,133.7,96H90.2a21.8,21.8,0,0,1,0-43.5h43.5A21.8,21.8,0,0,1,155.4,74.2Z"/><path class="b" d="M155.4,74.2A21.8,21.8,0,0,1,133.7,96H90.2a21.8,21.8,0,0,1,0-43.5h43.5A21.8,21.8,0,0,1,155.4,74.2Z"/><path class="c" d="M125.6,74.6a3,3,0,0,1-1.5-5.7L136,62.4a3,3,0,0,1,2.9,5.3L127,74.3A3,3,0,0,1,125.6,74.6Z"/><g class="d"><path class="e" d="M125.6,86a3,3,0,0,1-1.5-5.7L136,73.7a3,3,0,0,1,2.9,5.3L127,85.6A3,3,0,0,1,125.6,86Z"/></g><path class="e" d="M31.2,131.9H27.4l-1,3.2H25l3.6-10.5h1.5l3.6,10.5H32.2Zm-.3-1.1-.5-1.6c-.4-1.2-.7-2.3-1.1-3.5h-.1c-.3,1.2-.7,2.4-1,3.5l-.5,1.6Z"/><path class="e" d="M38.2,127.4h1.1v1.1h0a3.7,3.7,0,0,1,2.6-1.3c1.6,0,2.4,1.1,2.4,3v4.9H43.2v-4.8c0-1.5-.4-2.1-1.5-2.1s-1.3.4-2.1,1.2v5.6H38.2Z"/><path class="e" d="M49.9,127.2c2,0,3.1,1.4,3.1,3.6a4.6,4.6,0,0,1,0,.7H47.7a2.6,2.6,0,0,0,2.6,2.7,3.5,3.5,0,0,0,1.9-.6l.5.9a4.6,4.6,0,0,1-2.6.8,3.7,3.7,0,0,1-3.7-4.1C46.4,128.7,48.1,127.2,49.9,127.2Zm2,3.5c0-1.6-.7-2.5-1.9-2.5a2.4,2.4,0,0,0-2.2,2.5Z"/><path class="e" d="M54.1,127.4h1.3l1.2,4.5L57,134h.1l.5-2.2,1.2-4.5h1.3l1.2,4.5.5,2.2h.1l.5-2.2,1.1-4.5h1.2l-2.1,7.8H61.1L60,131l-.5-2.2h-.1c-.2.8-.3,1.5-.5,2.3l-1.1,4.2H56.2Z"/><path class="e" d="M71,135.8v2.6H69.7V127.4h1.1v.9h0a4,4,0,0,1,2.5-1.1c2,0,3.1,1.6,3.1,4s-1.6,4.2-3.4,4.2a3.6,3.6,0,0,1-2.2-.9Zm1.9-1.6c1.3,0,2.2-1.2,2.2-3.1s-.6-2.9-2-2.9a3.3,3.3,0,0,0-2.1,1.1v4.1A3.1,3.1,0,0,0,72.9,134.2Z"/><path class="e" d="M78.6,127.4h1.1v1.4h0a2.7,2.7,0,0,1,2.2-1.6l.8.2-.3,1.2h-.8c-.7,0-1.4.5-2,1.8v5H78.6Z"/><path class="e" d="M87,127.2c1.9,0,3.6,1.5,3.6,4.1s-1.7,4.1-3.6,4.1-3.6-1.5-3.6-4.1S85.1,127.2,87,127.2Zm0,7.1c1.3,0,2.2-1.2,2.2-3s-.9-3-2.2-3-2.2,1.2-2.2,3S85.7,134.2,87,134.2Z"/><path class="e" d="M95.5,127.2a3.2,3.2,0,0,1,2.2.9v-4.3h1.3v11.4H97.8v-.9h0a3.5,3.5,0,0,1-2.4,1.1c-2,0-3.2-1.5-3.2-4.1S93.7,127.2,95.5,127.2Zm.1,7.1a2.6,2.6,0,0,0,2-1.1v-4.1a2.7,2.7,0,0,0-1.9-.8c-1.2,0-2.2,1.2-2.2,3S94.3,134.2,95.6,134.2Z"/><path class="e" d="M101.4,127.4h1.3v4.8c0,1.5.4,2.1,1.5,2.1s1.4-.4,2.1-1.3v-5.5h1.3v7.8h-1.1v-1.2h0a3.3,3.3,0,0,1-2.6,1.4c-1.6,0-2.4-1.1-2.4-3Z"/><path class="e" d="M113.4,127.2a3.2,3.2,0,0,1,2.3.9l-.7.8a2.4,2.4,0,0,0-1.6-.7c-1.4,0-2.4,1.2-2.4,3s1,3,2.4,3a2.8,2.8,0,0,0,1.8-.8l.6.9a3.9,3.9,0,0,1-2.5,1c-2.1,0-3.6-1.5-3.6-4.1A3.8,3.8,0,0,1,113.4,127.2Z"/><path class="e" d="M117.8,128.4h-1.2v-1h1.2l.2-2.2h1.1v2.2h2.1v1.1h-2.1v4.3c0,1,.3,1.5,1.2,1.5l.9-.2.3,1-1.4.3c-1.7,0-2.2-1.1-2.2-2.6Z"/><path class="e" d="M125.9,124.9a.9.9,0,0,1,1.8,0,.9.9,0,0,1-1.8,0Zm.2,2.4h1.3v7.8h-1.3Z"/><path class="e" d="M129.9,133.4a3.5,3.5,0,0,0,2.3.9c1,0,1.5-.5,1.5-1.2s-.9-1.2-1.8-1.5-2.3-.9-2.3-2.2,1-2.2,2.7-2.2a3.9,3.9,0,0,1,2.4.9l-.6.8a2.9,2.9,0,0,0-1.8-.7c-1,0-1.4.5-1.4,1.1s.8,1,1.7,1.3,2.4.9,2.4,2.4-1,2.3-2.8,2.3a4.7,4.7,0,0,1-2.9-1.1Z"/><path class="e" d="M140.1,127.4h1.1v1.4h0a2.7,2.7,0,0,1,2.2-1.6l.8.2-.3,1.2h-.8c-.7,0-1.4.5-2,1.8v5h-1.3Z"/><path class="e" d="M148.4,127.2c2,0,3.1,1.4,3.1,3.6a4.6,4.6,0,0,1,0,.7h-5.2a2.6,2.6,0,0,0,2.6,2.7,3.5,3.5,0,0,0,1.9-.6l.5.9a4.6,4.6,0,0,1-2.6.8,3.7,3.7,0,0,1-3.7-4.1C144.9,128.7,146.6,127.2,148.4,127.2Zm2,3.5c0-1.6-.7-2.5-1.9-2.5a2.4,2.4,0,0,0-2.2,2.5Z"/><path class="e" d="M153.4,123.7h1.3v9.9c0,.4.2.6.4.6h.3l.2,1h-.8c-1,0-1.4-.6-1.4-1.8Z"/><path class="e" d="M160.4,127.2c2,0,3.1,1.4,3.1,3.6a4.6,4.6,0,0,1,0,.7h-5.2a2.6,2.6,0,0,0,2.6,2.7,3.5,3.5,0,0,0,1.9-.6l.5.9a4.6,4.6,0,0,1-2.6.8,3.7,3.7,0,0,1-3.7-4.1C156.9,128.7,158.6,127.2,160.4,127.2Zm2,3.5c0-1.6-.7-2.5-1.9-2.5a2.4,2.4,0,0,0-2.2,2.5Z"/><path class="e" d="M169.6,130.2c0-1-.3-2-1.6-2a4.2,4.2,0,0,0-2.3.8l-.5-.9a5.8,5.8,0,0,1,3.1-1c1.9,0,2.7,1.3,2.7,3.2v4.8h-1.1v-.9h0a4.2,4.2,0,0,1-2.6,1.1,2.1,2.1,0,0,1-2.3-2.2C164.8,131.4,166.3,130.6,169.6,130.2Zm-2.1,4.1a3.2,3.2,0,0,0,2.1-1v-2.2c-2.6.3-3.5,1-3.5,2A1.2,1.2,0,0,0,167.5,134.3Z"/><path class="e" d="M173.2,133.4a3.5,3.5,0,0,0,2.3.9c1,0,1.5-.5,1.5-1.2s-.9-1.2-1.8-1.5-2.3-.9-2.3-2.2,1-2.2,2.7-2.2a3.9,3.9,0,0,1,2.4.9l-.6.8a2.9,2.9,0,0,0-1.8-.7c-1,0-1.4.5-1.4,1.1s.8,1,1.7,1.3,2.4.9,2.4,2.4-1,2.3-2.8,2.3a4.7,4.7,0,0,1-2.9-1.1Z"/><path class="e" d="M183,127.2c2,0,3.1,1.4,3.1,3.6a4.6,4.6,0,0,1,0,.7h-5.2a2.6,2.6,0,0,0,2.6,2.7,3.5,3.5,0,0,0,1.9-.6l.5.9a4.6,4.6,0,0,1-2.6.8,3.7,3.7,0,0,1-3.7-4.1C179.5,128.7,181.2,127.2,183,127.2Zm2,3.5c0-1.6-.7-2.5-1.9-2.5a2.4,2.4,0,0,0-2.2,2.5Z"/><path class="e" d="M190.8,127.2a3.2,3.2,0,0,1,2.2.9v-4.3h1.3v11.4h-1.1v-.9h0a3.5,3.5,0,0,1-2.4,1.1c-2,0-3.2-1.5-3.2-4.1S189.1,127.2,190.8,127.2Zm.1,7.1a2.6,2.6,0,0,0,2-1.1v-4.1a2.7,2.7,0,0,0-1.9-.8c-1.2,0-2.2,1.2-2.2,3S189.6,134.2,191,134.2Z"/><path class="e" d="M196.3,137.1a2.2,2.2,0,0,0,1.4-2h-.2a.9.9,0,0,1-.9-.9.9.9,0,0,1,1-.9c.7,0,1.1.6,1.1,1.6a3.2,3.2,0,0,1-2.1,3Z"/><path class="e" d="M50.5,149.4c0-1-.3-2-1.6-2a4.2,4.2,0,0,0-2.3.8l-.5-.9a5.8,5.8,0,0,1,3.1-1c1.9,0,2.7,1.3,2.7,3.2v4.8H50.7v-.9h0a4.2,4.2,0,0,1-2.6,1.1,2.1,2.1,0,0,1-2.3-2.2C45.7,150.6,47.2,149.8,50.5,149.4Zm-2.1,4.1a3.2,3.2,0,0,0,2.1-1v-2.2c-2.6.3-3.5,1-3.5,2A1.2,1.2,0,0,0,48.4,153.5Z"/><path class="e" d="M58.1,154.1h0a1.4,1.4,0,0,1-.7-1.3,1.8,1.8,0,0,1,.8-1.4h0a2.7,2.7,0,0,1,1.9-4.9l1.1.2H64v1H62.4a2.3,2.3,0,0,1,.6,1.6,2.7,2.7,0,0,1-2.8,2.7l-1.2-.3a1.2,1.2,0,0,0-.5.9c0,.5.3.8,1.4.8h1.5c1.8,0,2.7.6,2.7,1.9s-1.5,2.7-3.9,2.7-3.2-.8-3.2-2.1A2.2,2.2,0,0,1,58.1,154.1Zm2.3,2.9c1.5,0,2.5-.8,2.5-1.6s-.6-1-1.6-1H58.9a1.6,1.6,0,0,0-.8,1.3C58.1,156.5,58.9,157,60.4,157Zm1.5-7.9a1.7,1.7,0,1,0-3.3,0,1.7,1.7,0,1,0,3.3,0Z"/><path class="e" d="M69.7,149.4c0-1-.3-2-1.6-2a4.2,4.2,0,0,0-2.3.8l-.5-.9a5.8,5.8,0,0,1,3.1-1c1.9,0,2.7,1.3,2.7,3.2v4.8H70v-.9h0a4.2,4.2,0,0,1-2.6,1.1,2.1,2.1,0,0,1-2.3-2.2C65,150.6,66.4,149.8,69.7,149.4Zm-2.1,4.1a3.2,3.2,0,0,0,2.1-1v-2.2c-2.6.3-3.5,1-3.5,2A1.2,1.2,0,0,0,67.6,153.5Z"/><path class="e" d="M73.5,146.6h1.1v1.1h0a3.4,3.4,0,0,1,2.4-1.3,2,2,0,0,1,2.1,1.5,3.7,3.7,0,0,1,2.6-1.5c1.6,0,2.4,1.1,2.4,3v4.9H83v-4.8c0-1.5-.5-2.1-1.4-2.1a2.9,2.9,0,0,0-2,1.2v5.6H78.3v-4.8c0-1.5-.5-2.1-1.5-2.1a2.9,2.9,0,0,0-2,1.2v5.6H73.5Z"/><path class="e" d="M89.7,146.4c2,0,3.1,1.4,3.1,3.6a4.6,4.6,0,0,1,0,.7H87.5a2.6,2.6,0,0,0,2.6,2.7,3.5,3.5,0,0,0,1.9-.6l.5.9a4.6,4.6,0,0,1-2.6.8,3.7,3.7,0,0,1-3.7-4.1C86.2,147.9,87.9,146.4,89.7,146.4Zm2,3.5c0-1.6-.7-2.5-1.9-2.5a2.4,2.4,0,0,0-2.2,2.5Z"/><path class="e" d="M94.2,156.3a2.2,2.2,0,0,0,1.4-2h-.2a.9.9,0,0,1-.9-.9.9.9,0,0,1,1-.9c.7,0,1.1.6,1.1,1.6a3.2,3.2,0,0,1-2.1,3Z"/><path class="e" d="M105.5,144l-.9-.2c-.7,0-1.1.5-1.1,1.5v1.2h1.6v1.1h-1.6v6.7h-1.3v-6.7h-1.1v-1h1.1v-1.2c0-1.6.7-2.6,2.3-2.6l1.3.3Z"/><path class="e" d="M109.5,146.4c1.9,0,3.6,1.5,3.6,4.1s-1.7,4.1-3.6,4.1-3.6-1.5-3.6-4.1S107.6,146.4,109.5,146.4Zm0,7.1c1.3,0,2.2-1.2,2.2-3s-.9-3-2.2-3-2.2,1.2-2.2,3S108.2,153.4,109.5,153.4Z"/><path class="e" d="M115.1,146.6h1.1V148h0a2.7,2.7,0,0,1,2.2-1.6l.8.2-.3,1.2h-.8c-.7,0-1.4.5-2,1.8v5h-1.3Z"/><path class="e" d="M126.8,146.4c2,0,3.1,1.4,3.1,3.6a4.6,4.6,0,0,1,0,.7h-5.3a2.6,2.6,0,0,0,2.6,2.7,3.5,3.5,0,0,0,1.9-.6l.5.9a4.6,4.6,0,0,1-2.6.8,3.7,3.7,0,0,1-3.7-4.1C123.3,147.9,125.1,146.4,126.8,146.4Zm2,3.5c0-1.6-.7-2.5-1.9-2.5a2.4,2.4,0,0,0-2.2,2.5Z"/><path class="e" d="M133.2,150.3l-2.4-3.7h1.4l1,1.7.8,1.3h.1l.7-1.3.9-1.7h1.4l-2.4,3.9,2.5,3.9h-1.4l-1.1-1.8-.8-1.4h-.1l-.8,1.4-1.1,1.8h-1.4Z"/><path class="e" d="M143.1,149.4c0-1-.3-2-1.6-2a4.2,4.2,0,0,0-2.3.8l-.5-.9a5.8,5.8,0,0,1,3.1-1c1.9,0,2.7,1.3,2.7,3.2v4.8h-1.1v-.9h0a4.2,4.2,0,0,1-2.6,1.1,2.1,2.1,0,0,1-2.3-2.2C138.3,150.6,139.8,149.8,143.1,149.4Zm-2.1,4.1a3.2,3.2,0,0,0,2.1-1v-2.2c-2.6.3-3.5,1-3.5,2A1.2,1.2,0,0,0,141,153.5Z"/><path class="e" d="M146.9,146.6H148v1.1h0a3.4,3.4,0,0,1,2.4-1.3,2,2,0,0,1,2.1,1.5,3.7,3.7,0,0,1,2.6-1.5c1.6,0,2.4,1.1,2.4,3v4.9h-1.3v-4.8c0-1.5-.5-2.1-1.4-2.1a2.9,2.9,0,0,0-2,1.2v5.6h-1.3v-4.8c0-1.5-.5-2.1-1.5-2.1a2.9,2.9,0,0,0-2,1.2v5.6h-1.3Z"/><path class="e" d="M161.5,155v2.6h-1.3V146.6h1.1v.9h0a4,4,0,0,1,2.5-1.1c2,0,3.1,1.6,3.1,4s-1.6,4.2-3.4,4.2a3.6,3.6,0,0,1-2.2-.9Zm1.9-1.6c1.3,0,2.2-1.2,2.2-3.1s-.6-2.9-2-2.9a3.3,3.3,0,0,0-2.1,1.1v4.1A3.1,3.1,0,0,0,163.4,153.4Z"/><path class="e" d="M169.1,142.9h1.3v9.9c0,.4.2.6.4.6h.3l.2,1h-.8c-1,0-1.4-.6-1.4-1.8Z"/><path class="e" d="M176,146.4c2,0,3.1,1.4,3.1,3.6a4.6,4.6,0,0,1,0,.7h-5.2a2.6,2.6,0,0,0,2.6,2.7,3.5,3.5,0,0,0,1.9-.6l.5.9a4.6,4.6,0,0,1-2.6.8,3.7,3.7,0,0,1-3.7-4.1C172.6,147.9,174.3,146.4,176,146.4Zm2,3.5c0-1.6-.7-2.5-1.9-2.5a2.4,2.4,0,0,0-2.2,2.5Z"/><path class="e" d="M268.5,125.8h-3.2v-1.1H273v1.1h-3.2v9.4h-1.3Z"/><path class="e" d="M274.8,123.7h1.3v4.7a3.7,3.7,0,0,1,2.6-1.3c1.6,0,2.4,1.1,2.4,3v4.9h-1.3v-4.8c0-1.5-.4-2.1-1.5-2.1s-1.3.4-2.1,1.2v5.6h-1.3Z"/><path class="e" d="M286.4,127.2c2,0,3.1,1.4,3.1,3.6a4.6,4.6,0,0,1,0,.7h-5.2a2.6,2.6,0,0,0,2.6,2.7,3.5,3.5,0,0,0,1.9-.6l.5.9a4.6,4.6,0,0,1-2.6.8,3.7,3.7,0,0,1-3.7-4.1C282.9,128.7,284.6,127.2,286.4,127.2Zm2,3.5c0-1.6-.7-2.5-1.9-2.5a2.4,2.4,0,0,0-2.2,2.5Z"/><path class="e" d="M297.8,127.2a3.2,3.2,0,0,1,2.3.9l-.7.8a2.3,2.3,0,0,0-1.6-.7c-1.4,0-2.4,1.2-2.4,3s1,3,2.4,3a2.8,2.8,0,0,0,1.8-.8l.6.9a3.9,3.9,0,0,1-2.5,1c-2.1,0-3.6-1.5-3.6-4.1A3.8,3.8,0,0,1,297.8,127.2Z"/><path class="e" d="M304.6,127.2c1.9,0,3.6,1.5,3.6,4.1s-1.7,4.1-3.6,4.1-3.6-1.5-3.6-4.1S302.7,127.2,304.6,127.2Zm0,7.1c1.3,0,2.2-1.2,2.2-3s-.9-3-2.2-3-2.2,1.2-2.2,3S303.3,134.2,304.6,134.2Z"/><path class="e" d="M310.3,127.4h1.1v1.1h0a3.4,3.4,0,0,1,2.4-1.3,2,2,0,0,1,2.1,1.5,3.7,3.7,0,0,1,2.6-1.5c1.6,0,2.4,1.1,2.4,3v4.9h-1.3v-4.8c0-1.5-.5-2.1-1.4-2.1a2.9,2.9,0,0,0-2,1.2v5.6H315v-4.8c0-1.5-.5-2.1-1.5-2.1a2.9,2.9,0,0,0-2,1.2v5.6h-1.3Z"/><path class="e" d="M324.8,135.8v2.6h-1.3V127.4h1.1v.9h0a4,4,0,0,1,2.5-1.1c2,0,3.1,1.6,3.1,4s-1.6,4.2-3.4,4.2a3.6,3.6,0,0,1-2.2-.9Zm1.9-1.6c1.3,0,2.2-1.2,2.2-3.1s-.6-2.9-2-2.9a3.3,3.3,0,0,0-2.1,1.1v4.1A3.1,3.1,0,0,0,326.7,134.2Z"/><path class="e" d="M336.6,130.2c0-1-.3-2-1.6-2a4.2,4.2,0,0,0-2.3.8l-.5-.9a5.8,5.8,0,0,1,3.1-1c1.9,0,2.7,1.3,2.7,3.2v4.8h-1.1v-.9h0a4.2,4.2,0,0,1-2.6,1.1,2.1,2.1,0,0,1-2.3-2.2C331.8,131.4,333.3,130.6,336.6,130.2Zm-2.1,4.1a3.2,3.2,0,0,0,2.1-1v-2.2c-2.6.3-3.5,1-3.5,2A1.2,1.2,0,0,0,334.5,134.3Z"/><path class="e" d="M340.4,127.4h1.1v1.1h0a3.7,3.7,0,0,1,2.6-1.3c1.6,0,2.4,1.1,2.4,3v4.9h-1.3v-4.8c0-1.5-.4-2.1-1.5-2.1s-1.3.4-2.1,1.2v5.6h-1.3Z"/><path class="e" d="M349.2,137.4c.9,0,1.4-.7,1.8-1.7l.2-.6-3.1-7.8h1.4l1.6,4.3.8,2.2h.1l.7-2.2,1.4-4.3h1.3l-2.9,8.4c-.5,1.5-1.3,2.7-2.9,2.7l-.9-.2.3-1Z"/><path class="e" d="M361.1,135.8v2.6h-1.3V127.4h1.1v.9h0a4,4,0,0,1,2.5-1.1c2,0,3.1,1.6,3.1,4s-1.6,4.2-3.4,4.2a3.6,3.6,0,0,1-2.2-.9Zm1.9-1.6c1.3,0,2.2-1.2,2.2-3.1s-.6-2.9-2-2.9a3.3,3.3,0,0,0-2.1,1.1v4.1A3.1,3.1,0,0,0,363.1,134.2Z"/><path class="e" d="M368.7,123.7H370v9.9c0,.4.2.6.4.6h.3l.2,1h-.8c-1,0-1.4-.6-1.4-1.8Z"/><path class="e" d="M375.7,127.2c2,0,3.1,1.4,3.1,3.6a4.6,4.6,0,0,1,0,.7h-5.2a2.6,2.6,0,0,0,2.6,2.7,3.5,3.5,0,0,0,1.9-.6l.5.9a4.6,4.6,0,0,1-2.6.8,3.7,3.7,0,0,1-3.7-4.1C372.2,128.7,373.9,127.2,375.7,127.2Zm2,3.5c0-1.6-.7-2.5-1.9-2.5a2.4,2.4,0,0,0-2.2,2.5Z"/><path class="e" d="M383.5,127.2a3.2,3.2,0,0,1,2.2.9v-4.3H387v11.4h-1.1v-.9h0a3.5,3.5,0,0,1-2.4,1.1c-2,0-3.2-1.5-3.2-4.1S381.8,127.2,383.5,127.2Zm.1,7.1a2.6,2.6,0,0,0,2-1.1v-4.1a2.7,2.7,0,0,0-1.9-.8c-1.2,0-2.2,1.2-2.2,3S382.3,134.2,383.7,134.2Z"/><path class="e" d="M390.2,134.9h0a1.4,1.4,0,0,1-.7-1.3,1.8,1.8,0,0,1,.8-1.4h0a2.7,2.7,0,0,1,1.9-4.9l1.1.2H396v1h-1.6a2.3,2.3,0,0,1,.6,1.6,2.7,2.7,0,0,1-2.8,2.7l-1.2-.3a1.2,1.2,0,0,0-.5.9c0,.5.3.8,1.4.8h1.5c1.8,0,2.7.6,2.7,1.9s-1.5,2.7-3.9,2.7-3.2-.8-3.2-2.1A2.2,2.2,0,0,1,390.2,134.9Zm2.3,2.9c1.5,0,2.5-.8,2.5-1.6s-.6-1-1.6-1H391a1.6,1.6,0,0,0-.8,1.3C390.2,137.3,391,137.8,392.4,137.8Zm1.5-7.9a1.7,1.7,0,1,0-3.3,0,1.7,1.7,0,1,0,3.3,0Z"/><path class="e" d="M400.4,127.2c2,0,3.1,1.4,3.1,3.6a4.6,4.6,0,0,1,0,.7h-5.2a2.6,2.6,0,0,0,2.6,2.7,3.5,3.5,0,0,0,1.9-.6l.5.9a4.6,4.6,0,0,1-2.6.8,3.7,3.7,0,0,1-3.7-4.1C396.9,128.7,398.6,127.2,400.4,127.2Zm2,3.5c0-1.6-.7-2.5-1.9-2.5a2.4,2.4,0,0,0-2.2,2.5Z"/><path class="e" d="M405.2,133.4a3.5,3.5,0,0,0,2.3.9c1,0,1.5-.5,1.5-1.2s-.9-1.2-1.8-1.5-2.3-.9-2.3-2.2,1-2.2,2.7-2.2a3.9,3.9,0,0,1,2.4.9l-.6.8a2.9,2.9,0,0,0-1.8-.7c-1,0-1.4.5-1.4,1.1s.8,1,1.7,1.3,2.4.9,2.4,2.4-1,2.3-2.8,2.3a4.7,4.7,0,0,1-2.9-1.1Z"/><path class="e" d="M252,149.4c0-1-.3-2-1.6-2a4.2,4.2,0,0,0-2.3.8l-.5-.9a5.8,5.8,0,0,1,3.1-1c1.9,0,2.7,1.3,2.7,3.2v4.8h-1.1v-.9h0a4.2,4.2,0,0,1-2.6,1.1,2.1,2.1,0,0,1-2.3-2.2C247.2,150.6,248.7,149.8,252,149.4Zm-2.1,4.1a3.2,3.2,0,0,0,2.1-1v-2.2c-2.6.3-3.5,1-3.5,2A1.2,1.2,0,0,0,249.9,153.5Z"/><path class="e" d="M260.3,155v2.6H259V146.6h1.1v.9h0a4,4,0,0,1,2.5-1.1c2,0,3.1,1.6,3.1,4s-1.6,4.2-3.4,4.2a3.6,3.6,0,0,1-2.2-.9Zm1.9-1.6c1.3,0,2.2-1.2,2.2-3.1s-.6-2.9-2-2.9a3.3,3.3,0,0,0-2.1,1.1v4.1A3.1,3.1,0,0,0,262.2,153.4Z"/><path class="e" d="M270.8,146.4c2,0,3.1,1.4,3.1,3.6a4.6,4.6,0,0,1,0,.7h-5.2a2.6,2.6,0,0,0,2.6,2.7,3.5,3.5,0,0,0,1.9-.6l.5.9a4.6,4.6,0,0,1-2.6.8,3.7,3.7,0,0,1-3.7-4.1C267.3,147.9,269,146.4,270.8,146.4Zm2,3.5c0-1.6-.7-2.5-1.9-2.5a2.4,2.4,0,0,0-2.2,2.5Z"/><path class="e" d="M275.8,146.6h1.1V148h0a2.7,2.7,0,0,1,2.2-1.6l.8.2-.3,1.2h-.8c-.7,0-1.4.5-2,1.8v5h-1.3Z"/><path class="e" d="M284.4,146.4a3.2,3.2,0,0,1,2.3.9l-.7.8a2.4,2.4,0,0,0-1.6-.7c-1.4,0-2.4,1.2-2.4,3s1,3,2.4,3a2.8,2.8,0,0,0,1.8-.8l.6.9a3.9,3.9,0,0,1-2.5,1c-2.1,0-3.6-1.5-3.6-4.1A3.8,3.8,0,0,1,284.4,146.4Z"/><path class="e" d="M291.1,146.4c2,0,3.1,1.4,3.1,3.6a4.6,4.6,0,0,1,0,.7h-5.2a2.6,2.6,0,0,0,2.6,2.7,3.5,3.5,0,0,0,1.9-.6l.5.9a4.6,4.6,0,0,1-2.6.8,3.7,3.7,0,0,1-3.7-4.1C287.6,147.9,289.3,146.4,291.1,146.4Zm2,3.5c0-1.6-.7-2.5-1.9-2.5a2.4,2.4,0,0,0-2.2,2.5Z"/><path class="e" d="M296.1,146.6h1.1v1.1h0a3.7,3.7,0,0,1,2.6-1.3c1.6,0,2.4,1.1,2.4,3v4.9H301v-4.8c0-1.5-.4-2.1-1.5-2.1s-1.3.4-2.1,1.2v5.6h-1.3Z"/><path class="e" d="M305.1,147.6h-1.2v-1h1.2l.2-2.2h1.1v2.2h2.1v1.1h-2.1V152c0,1,.3,1.5,1.2,1.5l.9-.2.3,1-1.4.3c-1.7,0-2.2-1.1-2.2-2.6Z"/><path class="e" d="M314.4,149.4c0-1-.3-2-1.6-2a4.2,4.2,0,0,0-2.3.8l-.5-.9a5.8,5.8,0,0,1,3.1-1c1.9,0,2.7,1.3,2.7,3.2v4.8h-1.1v-.9h0a4.2,4.2,0,0,1-2.6,1.1,2.1,2.1,0,0,1-2.3-2.2C309.6,150.6,311.1,149.8,314.4,149.4Zm-2.1,4.1a3.2,3.2,0,0,0,2.1-1v-2.2c-2.6.3-3.5,1-3.5,2A1.2,1.2,0,0,0,312.3,153.5Z"/><path class="e" d="M318.7,154.1h0a1.4,1.4,0,0,1-.7-1.3,1.8,1.8,0,0,1,.8-1.4h0a2.7,2.7,0,0,1,1.9-4.9l1.1.2h2.7v1H323a2.3,2.3,0,0,1,.6,1.6,2.7,2.7,0,0,1-2.8,2.7l-1.2-.3a1.2,1.2,0,0,0-.5.9c0,.5.3.8,1.4.8H322c1.8,0,2.7.6,2.7,1.9s-1.5,2.7-3.9,2.7-3.2-.8-3.2-2.1A2.2,2.2,0,0,1,318.7,154.1ZM321,157c1.5,0,2.5-.8,2.5-1.6s-.6-1-1.6-1h-2.4a1.6,1.6,0,0,0-.8,1.3C318.7,156.5,319.6,157,321,157Zm1.5-7.9a1.7,1.7,0,1,0-3.3,0,1.7,1.7,0,1,0,3.3,0Z"/><path class="e" d="M328.9,146.4c2,0,3.1,1.4,3.1,3.6a4.6,4.6,0,0,1,0,.7h-5.2a2.6,2.6,0,0,0,2.6,2.7,3.5,3.5,0,0,0,1.9-.6l.5.9a4.6,4.6,0,0,1-2.6.8,3.7,3.7,0,0,1-3.7-4.1C325.4,147.9,327.1,146.4,328.9,146.4Zm2,3.5c0-1.6-.7-2.5-1.9-2.5a2.4,2.4,0,0,0-2.2,2.5Z"/><path class="e" d="M340.2,146.4c1.9,0,3.6,1.5,3.6,4.1s-1.7,4.1-3.6,4.1-3.6-1.5-3.6-4.1S338.3,146.4,340.2,146.4Zm0,7.1c1.3,0,2.2-1.2,2.2-3s-.9-3-2.2-3-2.2,1.2-2.2,3S338.9,153.4,340.2,153.4Z"/><path class="e" d="M349.4,144l-.9-.2c-.7,0-1.1.5-1.1,1.5v1.2H349v1.1h-1.6v6.7h-1.3v-6.7H345v-1h1.1v-1.2c0-1.6.7-2.6,2.3-2.6l1.3.3Z"/><path class="e" d="M353.5,144.1a.9.9,0,0,1,1.8,0,.9.9,0,0,1-1.8,0Zm.2,2.4h1.3v7.8h-1.3Z"/><path class="e" d="M357.9,147.6h-1.2v-1H358l.2-2.2h1.1v2.2h2.1v1.1h-2.1V152c0,1,.3,1.5,1.2,1.5l.9-.2.3,1-1.4.3c-1.7,0-2.2-1.1-2.2-2.6Z"/><path class="e" d="M362.9,152.6a3.5,3.5,0,0,0,2.3.9c1,0,1.5-.5,1.5-1.2s-.9-1.2-1.8-1.5-2.3-.9-2.3-2.2,1-2.2,2.7-2.2a3.9,3.9,0,0,1,2.4.9l-.6.8a2.9,2.9,0,0,0-1.8-.7c-1,0-1.4.5-1.4,1.1s.8,1,1.7,1.3,2.4.9,2.4,2.4-1,2.3-2.8,2.3a4.7,4.7,0,0,1-2.9-1.1Z"/><path class="e" d="M375.9,146.4c2,0,3.1,1.4,3.1,3.6a4.6,4.6,0,0,1,0,.7h-5.2a2.6,2.6,0,0,0,2.6,2.7,3.5,3.5,0,0,0,1.9-.6l.5.9a4.6,4.6,0,0,1-2.6.8,3.7,3.7,0,0,1-3.7-4.1C372.5,147.9,374.2,146.4,375.9,146.4Zm2,3.5c0-1.6-.7-2.5-1.9-2.5a2.4,2.4,0,0,0-2.2,2.5Z"/><path class="e" d="M385.1,149.4c0-1-.3-2-1.6-2a4.2,4.2,0,0,0-2.3.8l-.5-.9a5.8,5.8,0,0,1,3.1-1c1.9,0,2.7,1.3,2.7,3.2v4.8h-1.1v-.9h0a4.2,4.2,0,0,1-2.6,1.1,2.1,2.1,0,0,1-2.3-2.2C380.4,150.6,381.8,149.8,385.1,149.4Zm-2.1,4.1a3.2,3.2,0,0,0,2.1-1v-2.2c-2.6.3-3.5,1-3.5,2A1.2,1.2,0,0,0,383,153.5Z"/><path class="e" d="M388.9,146.6H390V148h0a2.7,2.7,0,0,1,2.2-1.6l.8.2-.3,1.2h-.8c-.7,0-1.4.5-2,1.8v5h-1.3Z"/><path class="e" d="M394.5,146.6h1.1v1.1h0a3.7,3.7,0,0,1,2.6-1.3c1.6,0,2.4,1.1,2.4,3v4.9h-1.3v-4.8c0-1.5-.4-2.1-1.5-2.1s-1.3.4-2.1,1.2v5.6h-1.3Z"/><path class="e" d="M403,144.1a.9.9,0,0,1,1.8,0,.9.9,0,0,1-1.8,0Zm.2,2.4h1.3v7.8h-1.3Z"/><path class="e" d="M407.2,146.6h1.1v1.1h0a3.7,3.7,0,0,1,2.6-1.3c1.6,0,2.4,1.1,2.4,3v4.9h-1.3v-4.8c0-1.5-.4-2.1-1.5-2.1s-1.3.4-2.1,1.2v5.6h-1.3Z"/><path class="e" d="M416.5,154.1h0a1.4,1.4,0,0,1-.7-1.3,1.8,1.8,0,0,1,.8-1.4h0a2.7,2.7,0,0,1,1.9-4.9l1.1.2h2.7v1h-1.6a2.3,2.3,0,0,1,.6,1.6,2.7,2.7,0,0,1-2.8,2.7l-1.2-.3a1.2,1.2,0,0,0-.5.9c0,.5.3.8,1.4.8h1.5c1.8,0,2.7.6,2.7,1.9s-1.5,2.7-3.9,2.7-3.2-.8-3.2-2.1A2.2,2.2,0,0,1,416.5,154.1Zm2.3,2.9c1.5,0,2.5-.8,2.5-1.6s-.6-1-1.6-1h-2.4a1.6,1.6,0,0,0-.8,1.3C416.5,156.5,417.3,157,418.7,157Zm1.5-7.9a1.7,1.7,0,1,0-3.3,0,1.7,1.7,0,1,0,3.3,0Z"/><path class="e" d="M423.8,152.6a3.5,3.5,0,0,0,2.3.9c1,0,1.5-.5,1.5-1.2s-.9-1.2-1.8-1.5-2.3-.9-2.3-2.2,1-2.2,2.7-2.2a3.9,3.9,0,0,1,2.4.9l-.6.8a2.9,2.9,0,0,0-1.8-.7c-1,0-1.4.5-1.4,1.1s.8,1,1.7,1.3,2.4.9,2.4,2.4-1,2.3-2.8,2.3a4.7,4.7,0,0,1-2.9-1.1Z"/><path class="e" d="M44.7,334.9H40.8l-1,3.2H38.5L42,327.6h1.5l3.6,10.5H45.7Zm-.3-1.1-.5-1.6c-.4-1.2-.7-2.3-1.1-3.5h-.1c-.3,1.2-.7,2.4-1,3.5l-.5,1.6Z"/><path class="e" d="M48.4,330.3h1.1v1.1h0a3.7,3.7,0,0,1,2.6-1.3c1.6,0,2.4,1.1,2.4,3v4.9H53.3v-4.8c0-1.5-.4-2.1-1.5-2.1s-1.3.4-2.1,1.2v5.6H48.4Z"/><path class="e" d="M60,330.1a3.2,3.2,0,0,1,2.2.9v-4.3h1.3v11.4H62.4v-.9h0a3.5,3.5,0,0,1-2.4,1.1c-2,0-3.2-1.5-3.2-4.1S58.2,330.1,60,330.1Zm.1,7.1a2.6,2.6,0,0,0,2-1.1v-4.1a2.7,2.7,0,0,0-1.9-.8c-1.2,0-2.2,1.2-2.2,3S58.8,337.2,60.1,337.2Z"/><path class="e" d="M69.4,340.4c.9,0,1.4-.7,1.8-1.7l.2-.6-3.1-7.8h1.4l1.6,4.3.8,2.2h.1l.7-2.2,1.4-4.3h1.3l-2.9,8.4c-.5,1.5-1.3,2.7-2.9,2.7l-.9-.2.3-1Z"/><path class="e" d="M79.7,330.1c1.9,0,3.6,1.5,3.6,4.1s-1.7,4.1-3.6,4.1-3.6-1.5-3.6-4.1S77.8,330.1,79.7,330.1Zm0,7.1c1.3,0,2.2-1.2,2.2-3s-.9-3-2.2-3-2.2,1.2-2.2,3S78.4,337.2,79.7,337.2Z"/><path class="e" d="M85.3,330.3h1.3v4.8c0,1.5.4,2.1,1.5,2.1s1.4-.4,2.1-1.3v-5.5h1.3v7.8H90.4v-1.2h0a3.3,3.3,0,0,1-2.6,1.4c-1.6,0-2.4-1.1-2.4-3Z"/><path class="e" d="M97.3,330.3h1.1v1.4h0a2.7,2.7,0,0,1,2.2-1.6l.8.2-.3,1.2h-.8c-.7,0-1.4.5-2,1.8v5H97.3Z"/><path class="e" d="M105.6,330.1c2,0,3.1,1.4,3.1,3.6a4.6,4.6,0,0,1,0,.7h-5.2a2.6,2.6,0,0,0,2.6,2.7,3.5,3.5,0,0,0,1.9-.6l.5.9a4.6,4.6,0,0,1-2.6.8,3.7,3.7,0,0,1-3.7-4.1C102.1,331.7,103.8,330.1,105.6,330.1Zm2,3.5c0-1.6-.7-2.5-1.9-2.5a2.4,2.4,0,0,0-2.2,2.5Z"/><path class="e" d="M113.8,330.1a3.2,3.2,0,0,1,2.3.9l-.7.8a2.4,2.4,0,0,0-1.6-.7c-1.4,0-2.4,1.2-2.4,3s1,3,2.4,3a2.8,2.8,0,0,0,1.8-.8l.6.9a3.9,3.9,0,0,1-2.5,1c-2.1,0-3.6-1.5-3.6-4.1A3.8,3.8,0,0,1,113.8,330.1Z"/><path class="e" d="M120.5,330.1c2,0,3.1,1.4,3.1,3.6a4.6,4.6,0,0,1,0,.7h-5.2a2.6,2.6,0,0,0,2.6,2.7,3.5,3.5,0,0,0,1.9-.6l.5.9a4.6,4.6,0,0,1-2.6.8,3.7,3.7,0,0,1-3.7-4.1C117,331.7,118.7,330.1,120.5,330.1Zm2,3.5c0-1.6-.7-2.5-1.9-2.5a2.4,2.4,0,0,0-2.2,2.5Z"/><path class="e" d="M125.3,327.9a.9.9,0,0,1,1.8,0,.9.9,0,0,1-1.8,0Zm.2,2.4h1.3v7.8h-1.3Z"/><path class="e" d="M128.4,330.3h1.4l1.5,4.4.7,2.3h.1l.7-2.3,1.5-4.4h1.3l-2.8,7.8h-1.5Z"/><path class="e" d="M139.8,330.1c2,0,3.1,1.4,3.1,3.6a4.6,4.6,0,0,1,0,.7h-5.2a2.6,2.6,0,0,0,2.6,2.7,3.5,3.5,0,0,0,1.9-.6l.5.9a4.6,4.6,0,0,1-2.6.8,3.7,3.7,0,0,1-3.7-4.1C136.3,331.7,138,330.1,139.8,330.1Zm2,3.5c0-1.6-.7-2.5-1.9-2.5a2.4,2.4,0,0,0-2.2,2.5Z"/><path class="e" d="M152.5,333.2c0-1-.3-2-1.6-2a4.2,4.2,0,0,0-2.3.8l-.5-.9a5.8,5.8,0,0,1,3.1-1c1.9,0,2.7,1.3,2.7,3.2v4.8h-1.1v-.9h0a4.2,4.2,0,0,1-2.6,1.1,2.1,2.1,0,0,1-2.3-2.2C147.7,334.4,149.1,333.6,152.5,333.2Zm-2.1,4.1a3.2,3.2,0,0,0,2.1-1v-2.2c-2.6.3-3.5,1-3.5,2A1.2,1.2,0,0,0,150.3,337.3Z"/><path class="e" d="M159.3,336.4a3.5,3.5,0,0,0,2.3.9c1,0,1.5-.5,1.5-1.2s-.9-1.2-1.8-1.5-2.3-.9-2.3-2.2,1-2.2,2.7-2.2a3.9,3.9,0,0,1,2.4.9l-.6.8a2.9,2.9,0,0,0-1.8-.7c-1,0-1.4.5-1.4,1.1s.8,1,1.7,1.3,2.4.9,2.4,2.4-1,2.3-2.8,2.3a4.7,4.7,0,0,1-2.9-1.1Z"/><path class="e" d="M166.2,326.7h1.3v4.7a3.7,3.7,0,0,1,2.6-1.3c1.6,0,2.4,1.1,2.4,3v4.9h-1.3v-4.8c0-1.5-.4-2.1-1.5-2.1s-1.3.4-2.1,1.2v5.6h-1.3Z"/><path class="e" d="M179.3,333.2c0-1-.3-2-1.6-2a4.2,4.2,0,0,0-2.3.8l-.5-.9a5.8,5.8,0,0,1,3.1-1c1.9,0,2.7,1.3,2.7,3.2v4.8h-1.1v-.9h0a4.2,4.2,0,0,1-2.6,1.1,2.1,2.1,0,0,1-2.3-2.2C174.5,334.4,176,333.6,179.3,333.2Zm-2.1,4.1a3.2,3.2,0,0,0,2.1-1v-2.2c-2.6.3-3.5,1-3.5,2A1.2,1.2,0,0,0,177.2,337.3Z"/><path class="e" d="M183.1,330.3h1.1v1.4h0a2.7,2.7,0,0,1,2.2-1.6l.8.2-.3,1.2h-.8c-.7,0-1.4.5-2,1.8v5h-1.3Z"/><path class="e" d="M191.4,330.1c2,0,3.1,1.4,3.1,3.6a4.6,4.6,0,0,1,0,.7h-5.2a2.6,2.6,0,0,0,2.6,2.7,3.5,3.5,0,0,0,1.9-.6l.5.9a4.6,4.6,0,0,1-2.6.8,3.7,3.7,0,0,1-3.7-4.1C187.9,331.7,189.6,330.1,191.4,330.1Zm2,3.5c0-1.6-.7-2.5-1.9-2.5a2.4,2.4,0,0,0-2.2,2.5Z"/><path class="e" d="M42.5,349.3c1.9,0,3.6,1.5,3.6,4.1s-1.7,4.1-3.6,4.1-3.6-1.5-3.6-4.1S40.6,349.3,42.5,349.3Zm0,7.1c1.3,0,2.2-1.2,2.2-3s-.9-3-2.2-3-2.2,1.2-2.2,3S41.2,356.4,42.5,356.4Z"/><path class="e" d="M51.7,347l-.9-.2c-.7,0-1.1.5-1.1,1.5v1.2h1.6v1.1H49.7v6.7H48.4v-6.7H47.3v-1h1.1v-1.2c0-1.6.7-2.6,2.3-2.6l1.3.3Z"/><path class="e" d="M56.3,350.6H55.1v-1h1.2l.2-2.2h1.1v2.2h2.1v1.1H57.6v4.3c0,1,.3,1.5,1.2,1.5l.9-.2.3,1-1.4.3c-1.7,0-2.2-1.1-2.2-2.6Z"/><path class="e" d="M61.5,345.9h1.3v4.7a3.7,3.7,0,0,1,2.6-1.3c1.6,0,2.4,1.1,2.4,3v4.9H66.4v-4.8c0-1.5-.4-2.1-1.5-2.1s-1.3.4-2.1,1.2v5.6H61.5Z"/><path class="e" d="M73.1,349.3c2,0,3.1,1.4,3.1,3.6a4.6,4.6,0,0,1,0,.7H70.9a2.6,2.6,0,0,0,2.6,2.7,3.5,3.5,0,0,0,1.9-.6l.5.9a4.6,4.6,0,0,1-2.6.8,3.7,3.7,0,0,1-3.7-4.1C69.6,350.9,71.3,349.3,73.1,349.3Zm2,3.5c0-1.6-.7-2.5-1.9-2.5a2.4,2.4,0,0,0-2.2,2.5Z"/><path class="e" d="M82.6,358v2.6H81.3V349.5h1.1v.9h0a4,4,0,0,1,2.5-1.1c2,0,3.1,1.6,3.1,4s-1.6,4.2-3.4,4.2a3.6,3.6,0,0,1-2.2-.9Zm1.9-1.6c1.3,0,2.2-1.2,2.2-3.1s-.6-2.9-2-2.9a3.3,3.3,0,0,0-2.1,1.1v4.1A3.1,3.1,0,0,0,84.5,356.4Z"/><path class="e" d="M90.2,345.9h1.3v9.9c0,.4.2.6.4.6h.3l.2,1h-.8c-1,0-1.4-.6-1.4-1.8Z"/><path class="e" d="M97.2,349.3c2,0,3.1,1.4,3.1,3.6a4.6,4.6,0,0,1,0,.7H95a2.6,2.6,0,0,0,2.6,2.7,3.5,3.5,0,0,0,1.9-.6l.5.9a4.6,4.6,0,0,1-2.6.8,3.7,3.7,0,0,1-3.7-4.1C93.7,350.9,95.4,349.3,97.2,349.3Zm2,3.5c0-1.6-.7-2.5-1.9-2.5a2.4,2.4,0,0,0-2.2,2.5Z"/><path class="e" d="M105,349.3a3.2,3.2,0,0,1,2.2.9v-4.3h1.3v11.4h-1.1v-.9h0a3.5,3.5,0,0,1-2.4,1.1c-2,0-3.2-1.5-3.2-4.1S103.3,349.3,105,349.3Zm.1,7.1a2.6,2.6,0,0,0,2-1.1v-4.1a2.7,2.7,0,0,0-1.9-.8c-1.2,0-2.2,1.2-2.2,3S103.8,356.4,105.2,356.4Z"/><path class="e" d="M111.6,357h0a1.4,1.4,0,0,1-.7-1.3,1.8,1.8,0,0,1,.8-1.4h0a2.7,2.7,0,0,1,1.9-4.9l1.1.2h2.7v1h-1.6a2.3,2.3,0,0,1,.6,1.6,2.7,2.7,0,0,1-2.8,2.7l-1.2-.3a1.2,1.2,0,0,0-.5.9c0,.5.3.8,1.4.8h1.5c1.8,0,2.7.6,2.7,1.9s-1.5,2.7-3.9,2.7-3.2-.8-3.2-2.1A2.2,2.2,0,0,1,111.6,357Zm2.3,2.9c1.5,0,2.5-.8,2.5-1.6s-.6-1-1.6-1h-2.4a1.6,1.6,0,0,0-.8,1.3C111.7,359.5,112.5,360,113.9,360Zm1.5-7.9a1.7,1.7,0,1,0-3.3,0,1.7,1.7,0,1,0,3.3,0Z"/><path class="e" d="M121.9,349.3c2,0,3.1,1.4,3.1,3.6a4.6,4.6,0,0,1,0,.7h-5.2a2.6,2.6,0,0,0,2.6,2.7,3.5,3.5,0,0,0,1.9-.6l.5.9a4.6,4.6,0,0,1-2.6.8,3.7,3.7,0,0,1-3.7-4.1C118.4,350.9,120.1,349.3,121.9,349.3Zm2,3.5c0-1.6-.7-2.5-1.9-2.5a2.4,2.4,0,0,0-2.2,2.5Z"/><path class="e" d="M129.7,349.3a3.2,3.2,0,0,1,2.2.9v-4.3h1.3v11.4h-1.1v-.9h0a3.5,3.5,0,0,1-2.4,1.1c-2,0-3.2-1.5-3.2-4.1S127.9,349.3,129.7,349.3Zm.1,7.1a2.6,2.6,0,0,0,2-1.1v-4.1a2.7,2.7,0,0,0-1.9-.8c-1.2,0-2.2,1.2-2.2,3S128.5,356.4,129.8,356.4Z"/><path class="e" d="M141.9,349.3c2,0,3.1,1.4,3.1,3.6a4.6,4.6,0,0,1,0,.7h-5.2a2.6,2.6,0,0,0,2.6,2.7,3.5,3.5,0,0,0,1.9-.6l.5.9a4.6,4.6,0,0,1-2.6.8,3.7,3.7,0,0,1-3.7-4.1C138.4,350.9,140.1,349.3,141.9,349.3Zm2,3.5c0-1.6-.7-2.5-1.9-2.5a2.4,2.4,0,0,0-2.2,2.5Z"/><path class="e" d="M151.1,352.4c0-1-.3-2-1.6-2a4.2,4.2,0,0,0-2.3.8l-.5-.9a5.8,5.8,0,0,1,3.1-1c1.9,0,2.7,1.3,2.7,3.2v4.8h-1.1v-.9h0a4.2,4.2,0,0,1-2.6,1.1,2.1,2.1,0,0,1-2.3-2.2C146.3,353.6,147.8,352.8,151.1,352.4Zm-2.1,4.1a3.2,3.2,0,0,0,2.1-1v-2.2c-2.6.3-3.5,1-3.5,2A1.2,1.2,0,0,0,149,356.5Z"/><path class="e" d="M154.9,349.5H156v1.4h0a2.7,2.7,0,0,1,2.2-1.6l.8.2-.3,1.2h-.8c-.7,0-1.4.5-2,1.8v5h-1.3Z"/><path class="e" d="M160.4,349.5h1.1v1.1h0a3.7,3.7,0,0,1,2.6-1.3c1.6,0,2.4,1.1,2.4,3v4.9h-1.3v-4.8c0-1.5-.4-2.1-1.5-2.1s-1.3.4-2.1,1.2v5.6h-1.3Z"/><path class="e" d="M169,347.1a.9.9,0,0,1,1.8,0,.9.9,0,0,1-1.8,0Zm.2,2.4h1.3v7.8h-1.3Z"/><path class="e" d="M173.1,349.5h1.1v1.1h0a3.7,3.7,0,0,1,2.6-1.3c1.6,0,2.4,1.1,2.4,3v4.9H178v-4.8c0-1.5-.4-2.1-1.5-2.1s-1.3.4-2.1,1.2v5.6h-1.3Z"/><path class="e" d="M182.4,357h0a1.4,1.4,0,0,1-.7-1.3,1.8,1.8,0,0,1,.8-1.4h0a2.7,2.7,0,0,1,1.9-4.9l1.1.2h2.7v1h-1.6a2.3,2.3,0,0,1,.6,1.6,2.7,2.7,0,0,1-2.8,2.7l-1.2-.3a1.2,1.2,0,0,0-.5.9c0,.5.3.8,1.4.8h1.5c1.8,0,2.7.6,2.7,1.9s-1.5,2.7-3.9,2.7-3.2-.8-3.2-2.1A2.2,2.2,0,0,1,182.4,357Zm2.3,2.9c1.5,0,2.5-.8,2.5-1.6s-.6-1-1.6-1h-2.4a1.6,1.6,0,0,0-.8,1.3C182.4,359.5,183.3,360,184.7,360Zm1.5-7.9a1.7,1.7,0,1,0-3.3,0,1.7,1.7,0,1,0,3.3,0Z"/><path class="e" d="M189.7,355.6a3.5,3.5,0,0,0,2.3.9c1,0,1.5-.5,1.5-1.2s-.9-1.2-1.8-1.5-2.3-.9-2.3-2.2,1-2.2,2.7-2.2a3.9,3.9,0,0,1,2.4.9l-.6.8a2.9,2.9,0,0,0-1.8-.7c-1,0-1.4.5-1.4,1.1s.8,1,1.7,1.3,2.4.9,2.4,2.4-1,2.3-2.8,2.3a4.7,4.7,0,0,1-2.9-1.1Z"/><path class="e" d="M255.9,334l-3.2-6.4h1.4l1.4,3,1,2.3h.1l1.1-2.3,1.3-3h1.4l-3.2,6.4v4.1h-1.3Z"/><path class="e" d="M264.1,330.1c1.9,0,3.6,1.5,3.6,4.1s-1.7,4.1-3.6,4.1-3.6-1.5-3.6-4.1S262.2,330.1,264.1,330.1Zm0,7.1c1.3,0,2.2-1.2,2.2-3s-.9-3-2.2-3-2.2,1.2-2.2,3S262.8,337.2,264.1,337.2Z"/><path class="e" d="M269.6,330.3H271v4.8c0,1.5.4,2.1,1.5,2.1s1.4-.4,2.1-1.3v-5.5h1.3v7.8h-1.1v-1.2h0a3.3,3.3,0,0,1-2.6,1.4c-1.6,0-2.4-1.1-2.4-3Z"/><path class="e" d="M281.7,326.7H283v9.9c0,.4.2.6.4.6h.3l.2,1h-.8c-1,0-1.4-.6-1.4-1.8Z"/><path class="e" d="M288.7,330.1c2,0,3.1,1.4,3.1,3.6a4.6,4.6,0,0,1,0,.7h-5.2a2.6,2.6,0,0,0,2.6,2.7,3.5,3.5,0,0,0,1.9-.6l.5.9a4.6,4.6,0,0,1-2.6.8,3.7,3.7,0,0,1-3.7-4.1C285.2,331.7,286.9,330.1,288.7,330.1Zm2,3.5c0-1.6-.7-2.5-1.9-2.5a2.4,2.4,0,0,0-2.2,2.5Z"/><path class="e" d="M297.9,333.2c0-1-.3-2-1.6-2a4.2,4.2,0,0,0-2.3.8l-.5-.9a5.8,5.8,0,0,1,3.1-1c1.9,0,2.7,1.3,2.7,3.2v4.8h-1.1v-.9h0a4.2,4.2,0,0,1-2.6,1.1,2.1,2.1,0,0,1-2.3-2.2C293.1,334.4,294.6,333.5,297.9,333.2Zm-2.1,4.1a3.2,3.2,0,0,0,2.1-1V334c-2.6.3-3.5,1-3.5,2A1.2,1.2,0,0,0,295.8,337.2Z"/><path class="e" d="M300.5,330.3h1.4l1.5,4.4.7,2.3h.1l.7-2.3,1.5-4.4h1.3l-2.8,7.8h-1.5Z"/><path class="e" d="M312,330.1c2,0,3.1,1.4,3.1,3.6a4.6,4.6,0,0,1,0,.7h-5.2a2.6,2.6,0,0,0,2.6,2.7,3.5,3.5,0,0,0,1.9-.6l.5.9a4.6,4.6,0,0,1-2.6.8,3.7,3.7,0,0,1-3.7-4.1C308.5,331.7,310.2,330.1,312,330.1Zm2,3.5c0-1.6-.7-2.5-1.9-2.5a2.4,2.4,0,0,0-2.2,2.5Z"/><path class="e" d="M323.8,327.8l-.9-.2c-.7,0-1.1.5-1.1,1.5v1.2h1.6v1.1h-1.6v6.7h-1.3v-6.7h-1.1v-1h1.1v-1.2c0-1.6.7-2.6,2.3-2.6l1.3.3Z"/><path class="e" d="M327.7,330.1c2,0,3.1,1.4,3.1,3.6a4.6,4.6,0,0,1,0,.7h-5.2a2.6,2.6,0,0,0,2.6,2.7,3.5,3.5,0,0,0,1.9-.6l.5.9a4.6,4.6,0,0,1-2.6.8,3.7,3.7,0,0,1-3.7-4.1C324.2,331.7,325.9,330.1,327.7,330.1Zm2,3.5c0-1.6-.7-2.5-1.9-2.5a2.4,2.4,0,0,0-2.2,2.5Z"/><path class="e" d="M335.6,330.1c2,0,3.1,1.4,3.1,3.6a4.6,4.6,0,0,1,0,.7h-5.2a2.6,2.6,0,0,0,2.6,2.7,3.5,3.5,0,0,0,1.9-.6l.5.9a4.6,4.6,0,0,1-2.6.8,3.7,3.7,0,0,1-3.7-4.1C332.1,331.7,333.8,330.1,335.6,330.1Zm2,3.5c0-1.6-.7-2.5-1.9-2.5a2.4,2.4,0,0,0-2.2,2.5Z"/><path class="e" d="M343.4,330.1a3.2,3.2,0,0,1,2.2.9v-4.3h1.3v11.4h-1.1v-.9h0a3.5,3.5,0,0,1-2.4,1.1c-2,0-3.2-1.5-3.2-4.1S341.7,330.1,343.4,330.1Zm.1,7.1a2.6,2.6,0,0,0,2-1.1v-4.1a2.7,2.7,0,0,0-1.9-.8c-1.2,0-2.2,1.2-2.2,3S342.2,337.2,343.6,337.2Z"/><path class="e" d="M349.5,326.7h1.3v4.5a3.8,3.8,0,0,1,2.4-1.1c2,0,3.1,1.6,3.1,4s-1.6,4.2-3.4,4.2a3.5,3.5,0,0,1-2.2-1h0v.8h-1.1Zm3.2,10.5c1.3,0,2.2-1.2,2.2-3.1s-.6-2.9-2-2.9a3.2,3.2,0,0,0-2.1,1.1v4.1A3,3,0,0,0,352.7,337.2Z"/><path class="e" d="M362.6,333.2c0-1-.3-2-1.6-2a4.2,4.2,0,0,0-2.3.8l-.5-.9a5.8,5.8,0,0,1,3.1-1c1.9,0,2.7,1.3,2.7,3.2v4.8h-1.1v-.9h0a4.2,4.2,0,0,1-2.6,1.1,2.1,2.1,0,0,1-2.3-2.2C357.8,334.4,359.3,333.5,362.6,333.2Zm-2.1,4.1a3.2,3.2,0,0,0,2.1-1V334c-2.6.3-3.5,1-3.5,2A1.2,1.2,0,0,0,360.4,337.2Z"/><path class="e" d="M369.5,330.1a3.2,3.2,0,0,1,2.3.9l-.7.8a2.4,2.4,0,0,0-1.6-.7c-1.4,0-2.4,1.2-2.4,3s1,3,2.4,3a2.8,2.8,0,0,0,1.8-.8l.6.9a3.9,3.9,0,0,1-2.5,1c-2.1,0-3.6-1.5-3.6-4.1A3.8,3.8,0,0,1,369.5,330.1Z"/><path class="e" d="M373.7,326.7h1.3v7.7h0l3.3-4.1h1.5l-2.6,3.1,3,4.7h-1.4l-2.3-3.7-1.5,1.7v2h-1.3Z"/><path class="e" d="M392.6,338.3a8.3,8.3,0,0,1-2.4-1.2,4.4,4.4,0,0,1-3,1.2,2.9,2.9,0,0,1-3.2-2.9c0-1.4,1-2.3,2.1-3a5.6,5.6,0,0,1-.7-2.5,2.4,2.4,0,0,1,2.4-2.5,1.9,1.9,0,0,1,2.1,2.1c0,1.4-1.2,2.3-2.4,3.1a13.6,13.6,0,0,0,2.7,2.9,9.2,9.2,0,0,0,1.5-3.1h1.2a11.9,11.9,0,0,1-1.8,3.8,7,7,0,0,0,2,1Zm-5.3-1.1a3.1,3.1,0,0,0,2-.8,15.9,15.9,0,0,1-2.8-3.1,2.8,2.8,0,0,0-1.3,2A1.9,1.9,0,0,0,387.4,337.2Zm-.3-5.5c1-.6,1.8-1.3,1.8-2.2s-.3-1.2-1-1.2a1.4,1.4,0,0,0-1.3,1.5A4.4,4.4,0,0,0,387,331.7Z"/><path class="e" d="M397.5,327.9a.9.9,0,0,1,1.8,0,.9.9,0,0,1-1.8,0Zm.2,2.4h1.3v7.8h-1.3Z"/><path class="e" d="M404.5,330.1a3.2,3.2,0,0,1,2.2.9v-4.3H408v11.4h-1.1v-.9h0a3.5,3.5,0,0,1-2.4,1.1c-2,0-3.2-1.5-3.2-4.1S402.8,330.1,404.5,330.1Zm.1,7.1a2.6,2.6,0,0,0,2-1.1v-4.1a2.7,2.7,0,0,0-1.9-.8c-1.2,0-2.2,1.2-2.2,3S403.3,337.2,404.7,337.2Z"/><path class="e" d="M413.5,330.1c2,0,3.1,1.4,3.1,3.6a4.6,4.6,0,0,1,0,.7h-5.2a2.6,2.6,0,0,0,2.6,2.7,3.5,3.5,0,0,0,1.9-.6l.5.9a4.6,4.6,0,0,1-2.6.8,3.7,3.7,0,0,1-3.7-4.1C410,331.7,411.7,330.1,413.5,330.1Zm2,3.5c0-1.6-.7-2.5-1.9-2.5a2.4,2.4,0,0,0-2.2,2.5Z"/><path class="e" d="M422.7,333.2c0-1-.3-2-1.6-2a4.2,4.2,0,0,0-2.3.8l-.5-.9a5.8,5.8,0,0,1,3.1-1c1.9,0,2.7,1.3,2.7,3.2v4.8h-1.1v-.9h0a4.2,4.2,0,0,1-2.6,1.1,2.1,2.1,0,0,1-2.3-2.2C417.9,334.4,419.4,333.5,422.7,333.2Zm-2.1,4.1a3.2,3.2,0,0,0,2.1-1V334c-2.6.3-3.5,1-3.5,2A1.2,1.2,0,0,0,420.6,337.2Z"/><path class="e" d="M426.3,336.3a3.5,3.5,0,0,0,2.3.9c1,0,1.5-.5,1.5-1.2s-.9-1.2-1.8-1.5-2.3-.9-2.3-2.2,1-2.2,2.7-2.2a3.9,3.9,0,0,1,2.4.9l-.6.8a2.9,2.9,0,0,0-1.8-.7c-1,0-1.4.5-1.4,1.1s.8,1,1.7,1.3,2.4.9,2.4,2.4-1,2.3-2.8,2.3a4.7,4.7,0,0,1-2.9-1.1Z"/><path class="e" d="M295.3,352.4c0-1-.3-2-1.6-2a4.2,4.2,0,0,0-2.3.8l-.5-.9a5.8,5.8,0,0,1,3.1-1c1.9,0,2.7,1.3,2.7,3.2v4.8h-1.1v-.9h0a4.2,4.2,0,0,1-2.6,1.1,2.1,2.1,0,0,1-2.3-2.2C290.5,353.6,292,352.7,295.3,352.4Zm-2.1,4.1a3.2,3.2,0,0,0,2.1-1v-2.2c-2.6.3-3.5,1-3.5,2A1.2,1.2,0,0,0,293.2,356.4Z"/><path class="e" d="M299.1,345.9h1.3v4.5a3.8,3.8,0,0,1,2.4-1.1c2,0,3.1,1.6,3.1,4s-1.6,4.2-3.4,4.2a3.5,3.5,0,0,1-2.2-1h0v.8h-1.1Zm3.2,10.5c1.3,0,2.2-1.2,2.2-3.1s-.6-2.9-2-2.9a3.2,3.2,0,0,0-2.1,1.1v4.1A3,3,0,0,0,302.3,356.4Z"/><path class="e" d="M311,349.3c1.9,0,3.6,1.5,3.6,4.1s-1.7,4.1-3.6,4.1-3.6-1.5-3.6-4.1S309.1,349.3,311,349.3Zm0,7.1c1.3,0,2.2-1.2,2.2-3s-.9-3-2.2-3-2.2,1.2-2.2,3S309.6,356.4,311,356.4Z"/><path class="e" d="M316.5,349.5h1.3v4.8c0,1.5.4,2.1,1.5,2.1s1.4-.4,2.1-1.3v-5.5h1.3v7.8h-1.1v-1.2h0a3.3,3.3,0,0,1-2.6,1.4c-1.6,0-2.4-1.1-2.4-3Z"/><path class="e" d="M325.5,350.6h-1.2v-1h1.2l.2-2.2h1.1v2.2H329v1.1h-2.1v4.3c0,1,.3,1.5,1.2,1.5l.9-.2.3,1-1.4.3c-1.7,0-2.2-1.1-2.2-2.6Z"/><path class="e" d="M334.2,350.6H333v-1h1.2l.2-2.2h1.1v2.2h2.1v1.1h-2.1v4.3c0,1,.3,1.5,1.2,1.5l.9-.2.3,1-1.4.3c-1.7,0-2.2-1.1-2.2-2.6Z"/><path class="e" d="M339.4,345.9h1.3v4.7a3.7,3.7,0,0,1,2.6-1.3c1.6,0,2.4,1.1,2.4,3v4.9h-1.3v-4.8c0-1.5-.4-2.1-1.5-2.1s-1.3.4-2.1,1.2v5.6h-1.3Z"/><path class="e" d="M351,349.3c2,0,3.1,1.4,3.1,3.6a4.6,4.6,0,0,1,0,.7h-5.2a2.6,2.6,0,0,0,2.6,2.7,3.5,3.5,0,0,0,1.9-.6l.5.9a4.6,4.6,0,0,1-2.6.8,3.7,3.7,0,0,1-3.7-4.1C347.5,350.9,349.2,349.3,351,349.3Zm2,3.5c0-1.6-.7-2.5-1.9-2.5a2.4,2.4,0,0,0-2.2,2.5Z"/><path class="e" d="M359.8,357h0a1.4,1.4,0,0,1-.7-1.3,1.8,1.8,0,0,1,.8-1.4h0a2.7,2.7,0,0,1,1.9-4.9l1.1.2h2.7v1h-1.6a2.3,2.3,0,0,1,.6,1.6,2.7,2.7,0,0,1-2.8,2.7l-1.2-.3a1.2,1.2,0,0,0-.5.9c0,.5.3.8,1.4.8h1.5c1.8,0,2.7.6,2.7,1.9s-1.5,2.7-3.9,2.7-3.2-.8-3.2-2.1A2.2,2.2,0,0,1,359.8,357Zm2.3,2.9c1.5,0,2.5-.8,2.5-1.6s-.6-1-1.6-1h-2.4a1.6,1.6,0,0,0-.8,1.3C359.8,359.5,360.7,360,362.1,360Zm1.5-7.9a1.7,1.7,0,1,0-3.3,0,1.7,1.7,0,1,0,3.3,0Z"/><path class="e" d="M371.5,352.4c0-1-.3-2-1.6-2a4.2,4.2,0,0,0-2.3.8l-.5-.9a5.8,5.8,0,0,1,3.1-1c1.9,0,2.7,1.3,2.7,3.2v4.8h-1.1v-.9h0a4.2,4.2,0,0,1-2.6,1.1,2.1,2.1,0,0,1-2.3-2.2C366.7,353.6,368.1,352.7,371.5,352.4Zm-2.1,4.1a3.2,3.2,0,0,0,2.1-1v-2.2c-2.6.3-3.5,1-3.5,2A1.2,1.2,0,0,0,369.3,356.4Z"/><path class="e" d="M375.2,349.5h1.1v1.1h0a3.4,3.4,0,0,1,2.4-1.3,2,2,0,0,1,2.1,1.5,3.7,3.7,0,0,1,2.6-1.5c1.6,0,2.4,1.1,2.4,3v4.9h-1.3v-4.8c0-1.5-.5-2.1-1.4-2.1a2.9,2.9,0,0,0-2,1.2v5.6H380v-4.8c0-1.5-.5-2.1-1.5-2.1a2.9,2.9,0,0,0-2,1.2v5.6h-1.3Z"/><path class="e" d="M391.4,349.3c2,0,3.1,1.4,3.1,3.6a4.6,4.6,0,0,1,0,.7h-5.2a2.6,2.6,0,0,0,2.6,2.7,3.5,3.5,0,0,0,1.9-.6l.5.9a4.6,4.6,0,0,1-2.6.8,3.7,3.7,0,0,1-3.7-4.1C387.9,350.9,389.6,349.3,391.4,349.3Zm2,3.5c0-1.6-.7-2.5-1.9-2.5a2.4,2.4,0,0,0-2.2,2.5Z"/><path class="f" d="M176.9,38.4a188.2,188.2,0,0,1,96.1,0"/><line class="f" x1="267.6" y1="42" x2="273.1" y2="38.4"/><line class="f" x1="270.3" y1="32.4" x2="273.1" y2="38.4"/><line class="f" x1="267.6" y1="42" x2="273.1" y2="38.4"/><line class="f" x1="270.3" y1="32.4" x2="273.1" y2="38.4"/><path class="f" d="M176.9,38.4a188.2,188.2,0,0,1,96.1,0"/><path class="f" d="M405.4,171.1a188.2,188.2,0,0,1,0,96.1"/><line class="f" x1="401.8" y1="261.8" x2="405.4" y2="267.3"/><line class="f" x1="411.4" y1="264.5" x2="405.4" y2="267.3"/><line class="f" x1="401.8" y1="261.8" x2="405.4" y2="267.3"/><line class="f" x1="411.4" y1="264.5" x2="405.4" y2="267.3"/><path class="f" d="M405.4,171.1a188.2,188.2,0,0,1,0,96.1"/><path class="f" d="M272.7,399.6a188.2,188.2,0,0,1-96.1,0"/><line class="f" x1="182.1" y1="396" x2="176.5" y2="399.6"/><line class="f" x1="179.3" y1="405.6" x2="176.5" y2="399.6"/><line class="f" x1="182.1" y1="396" x2="176.5" y2="399.6"/><line class="f" x1="179.3" y1="405.6" x2="176.5" y2="399.6"/><path class="f" d="M272.7,399.6a188.2,188.2,0,0,1-96.1,0"/><path class="e" d="M362.7,277c.1-.8.1-1.5.1-2.3C362.8,275.5,362.8,276.3,362.7,277Z"/><path class="e" d="M362.7,277a19.7,19.7,0,0,1-1.9,7.2A21.7,21.7,0,0,0,362.7,277Z"/><path class="e" d="M359.7,278.8l.2-1.1C359.9,278.1,359.8,278.4,359.7,278.8Z"/><path class="e" d="M359.7,278.8a16.1,16.1,0,0,1-.5,2A20.6,20.6,0,0,0,359.7,278.8Z"/><path class="e" d="M354.8,287.7a14.6,14.6,0,0,0,4-5.6,15.4,15.4,0,0,1-4.2,6.1l-.2.2A1.4,1.4,0,0,1,354.8,287.7Z"/><path class="e" d="M352.1,311.3a1.4,1.4,0,1,1,0,2.7H331.7a1.4,1.4,0,1,1,0-2.7Z"/><path class="e" d="M356.5,290.1c-.4.7-1.1,1.9-1.5,3h0a22.7,22.7,0,0,1-3.3,1.8c.1-.5.1-.9.2-1.2a26.6,26.6,0,0,1,2.4-5.2h.1a1.3,1.3,0,0,0,.3,1.2,1.4,1.4,0,0,0,1.9.1,17.3,17.3,0,0,0,4.2-5.4A18.1,18.1,0,0,1,356.5,290.1Z"/><path class="e" d="M342.1,304.5a1.4,1.4,0,1,1-1.2,1.3A1.4,1.4,0,0,1,342.1,304.5Z"/><path class="e" d="M355,293.1a8.3,8.3,0,0,0-.5,1.3c-.3,1.1-.8,7.7-1.1,11.6a1.4,1.4,0,0,1-1.4,1.3h-9.9a1.4,1.4,0,0,0,0-2.7h8.7c.2-2.4.5-7.2.9-9.6A22.7,22.7,0,0,0,355,293.1Z"/><path class="e" d="M330.8,305.9c-.3-3.9-.8-10.4-1.1-11.6a7.4,7.4,0,0,0-.5-1.3,22.9,22.9,0,0,0,3.3,1.9c.3,2.4.7,7.2.8,9.6h8.7a1.4,1.4,0,0,0,0,2.7h-9.9A1.3,1.3,0,0,1,330.8,305.9Z"/><path class="e" d="M329.9,288.4l-.2-.2a15.3,15.3,0,0,1-4.2-6.1,14.6,14.6,0,0,0,4,5.6A1.4,1.4,0,0,1,329.9,288.4Z"/><path class="e" d="M324.5,278.8c.1.7.3,1.4.5,2A16.3,16.3,0,0,1,324.5,278.8Z"/><path class="e" d="M324.5,278.8c-.1-.4-.2-.9-.2-1.4Z"/><path class="e" d="M324.2,275.9c0,.5.1,1,.1,1.5s.1.9.2,1.4a16.3,16.3,0,0,0,.5,2l.2.6.3.6a15.3,15.3,0,0,0,4.2,6.1l.2.2h0a1.4,1.4,0,0,1-2.2,1.3,17.4,17.4,0,0,1-4.2-5.4h0a22,22,0,0,1-1.9-7.2,0,0,0,0,1,0,0,1.2,1.2,0,0,1,0-.2c-.1-.7-.1-1.4-.1-2.1h0a20.7,20.7,0,0,1,41.3,0c0,.8,0,1.6-.1,2.3s0,0,0,0a21.7,21.7,0,0,1-1.9,7.2h0a17.3,17.3,0,0,1-4.2,5.4,1.4,1.4,0,0,1-1.9-.1,1.3,1.3,0,0,1-.3-1.2l.2-.2a15.4,15.4,0,0,0,4.2-6.1l.3-.6.2-.6a16.1,16.1,0,0,0,.5-2c.1-.4.1-.7.2-1.1s.1-1.2.2-1.8,0-.8,0-1.2a17.9,17.9,0,0,0-35.9,0C324.2,275.1,324.2,275.5,324.2,275.9Z"/><path class="e" d="M323.5,284.3a17.4,17.4,0,0,0,4.2,5.4,1.4,1.4,0,0,0,2.2-1.3h.1a26.6,26.6,0,0,1,2.4,5.2c.1.3.1.7.2,1.2a22.9,22.9,0,0,1-3.3-1.9h0a32.9,32.9,0,0,0-1.5-3A18.2,18.2,0,0,1,323.5,284.3Z"/><path class="e" d="M321.6,277a22,22,0,0,0,1.9,7.2A19.7,19.7,0,0,1,321.6,277Z"/><path class="e" d="M321.5,274.8c0,.7,0,1.4.1,2.1S321.5,275.5,321.5,274.8Z"/><path class="g" d="M320.9,286.1a20.8,20.8,0,0,0,4.8,6.6,37.6,37.6,0,0,1,1.7,3.4,26.3,26.3,0,1,1,29.4,0c.5-1.2,1.3-2.7,1.8-3.4a20.7,20.7,0,0,0,4.8-6.6h0a22.5,22.5,0,0,0,2.2-8.3s0,0,0,0,.1-1.7.1-2.6a23.6,23.6,0,0,0-47.2,0h0c0,.8,0,1.6.1,2.3a1.4,1.4,0,0,0,0,.2,0,0,0,0,0,0,0,22.5,22.5,0,0,0,2.2,8.3Z"/><path class="h" d="M99.4,71H93.5V65a3,3,0,0,0-6.1,0V71H81.5a3,3,0,1,0,0,6.1h5.9V83a3,3,0,0,0,6.1,0V77h5.9a3,3,0,0,0,0-6.1Z"/><circle class="b" cx="338" cy="74.5" r="32.5"/><path class="c" d="M338.2,73.8l11.7-31.1a33.3,33.3,0,0,0-11.7-2.1Z"/><ellipse class="i" cx="107.1" cy="253.1" rx="9" ry="11.9"/><path class="j" d="M84.5,296.8a23,23,0,0,1,46,0"/><path class="j" d="M107.5,299a16.4,16.4,0,0,1-23-2.1"/><circle class="c" cx="113" cy="295.2" r="3" transform="translate(-162.5 140.3) rotate(-39.7)"/><g class="d"><circle class="c" cx="85.5" cy="311" r="3" transform="translate(-179 126.4) rotate(-39.7)"/><circle class="c" cx="96.5" cy="311" r="3" transform="translate(-176.4 133.4) rotate(-39.7)"/><circle class="c" cx="107.5" cy="311" r="3" transform="translate(-173.9 140.4) rotate(-39.7)"/><circle class="c" cx="118.5" cy="311" r="3" transform="translate(-171.4 147.4) rotate(-39.7)"/><circle class="c" cx="129.5" cy="311" r="3" transform="translate(-168.8 154.5) rotate(-39.7)"/></g></svg>