<svg xmlns="http://www.w3.org/2000/svg" viewBox="0 0 404.84 404.84"><defs><style>.a,.f,.h,.i{opacity:0.5;}.b,.i{fill:#ff3b3f;}.c{isolation:isolate;}.d{fill:#1e223e;}.e,.f,.g,.h,.j,.k{fill:none;stroke:#000;}.e,.f,.g,.h,.j{stroke-linecap:round;}.e,.f,.k{stroke-miterlimit:10;}.e,.f,.g,.h,.k{stroke-width:2px;}.g,.h,.j{stroke-linejoin:round;}.j{stroke-width:0.75px;}</style></defs><title>russian</title><g class="a"><circle class="b" cx="152.104" cy="47.976" r="1.219" transform="translate(-7.381 49.379) rotate(-18.01)"/><path class="b" d="M155.8,46.821a1.219,1.219,0,1,1,1.508.827A1.217,1.217,0,0,1,155.8,46.821Z"/><circle class="b" cx="161.886" cy="45.144" r="1.219" transform="translate(-6.135 41.417) rotate(-14.311)"/><circle class="b" cx="166.84" cy="43.968" r="1.219" transform="translate(-5.549 36.832) rotate(-12.393)"/><path class="b" d="M170.633,43.18a1.219,1.219,0,1,1,1.42.969A1.218,1.218,0,0,1,170.633,43.18Z"/><circle class="b" cx="176.852" cy="42.105" r="1.219" transform="translate(-4.332 27.216) rotate(-8.694)"/><circle class="b" cx="181.897" cy="41.419" r="1.219" transform="translate(-3.616 21.752) rotate(-6.776)"/><path class="b" d="M185.749,41.005a1.219,1.219,0,1,1,1.319,1.1A1.217,1.217,0,0,1,185.749,41.005Z"/><circle class="b" cx="192.043" cy="40.543" r="1.219" transform="translate(-1.9 10.37) rotate(-3.078)"/></g><path d="M69.5,262.507l-9.382,4.1-.53-1.212,8.366-3.659-1.906-4.355-8.364,3.659-.531-1.212,9.382-4.1Z"/><path d="M67.65,273.251a3.593,3.593,0,0,1-5.145-1.48,3.5,3.5,0,0,1,1.762-4.862,3.592,3.592,0,0,1,5.139,1.467A3.483,3.483,0,0,1,67.65,273.251Zm-2.727-5.16c-1.434.734-2.093,2.114-1.5,3.277.582,1.137,2.086,1.441,3.562.687,1.108-.567,2.232-1.842,1.512-3.249S66.169,267.455,64.923,268.09Z"/><path d="M72.339,274.172l-2.758,1.6.159.276,4.147.789.816,1.405-4.486-1.1c.489,1.086.165,2.1-.687,3.263a15.527,15.527,0,0,0-1.153,1.584l-.7-1.21a9.834,9.834,0,0,1,.957-1.346,2.385,2.385,0,0,0,.277-2.971l-.129-.224-2.8,1.625-.663-1.144,6.358-3.69Z"/><path d="M75.677,279.769l-2.77,3.712c-.317.4-.7.871-1.006,1.213l.017.024c.443-.124,1-.3,1.543-.438l4.412-1.121.768,1.186-5.487,1.165c-2.634.568-4.073.722-5.23.386a3.622,3.622,0,0,1-1.619-.905l.763-.892a3.517,3.517,0,0,0,1.183.626,4.026,4.026,0,0,0,1.86.135.967.967,0,0,0,.325-.084,1.212,1.212,0,0,0,.244-.266l4.206-5.964Z"/><path d="M82.838,290.166l-5.95,4.311-.785-1.082,5.091-3.687-2-2.767L74.1,290.629l-.774-1.07,5.95-4.311Z"/><path d="M81.011,299.669l.653-.665-.028-.035a2.736,2.736,0,0,1-2.263-1.062,2.1,2.1,0,0,1,.229-3.075c1.383-1.116,3.132-.5,4.9,1.721l.118-.1a1.515,1.515,0,0,0,.274-2.368,3.666,3.666,0,0,0-1.628-1.145l.494-.79a4.556,4.556,0,0,1,2.025,1.469c1.412,1.748.563,3.138-.583,4.063l-2.139,1.727a10.443,10.443,0,0,0-1.295,1.2Zm2.794-2.511c-.892-1.153-2.134-2.278-3.243-1.382a1.183,1.183,0,0,0-.2,1.782,1.83,1.83,0,0,0,2.074.609,1.4,1.4,0,0,0,.378-.208Z"/><path d="M89.594,298.424l-2.3,2.071c-.868.783-1.42,1.259-2.239,1.914l.02.045c.96-.272,1.517-.426,2.474-.633l4.354-.836,1.046,1.161-5.461,4.917-.853-.948,2.313-2.081c.891-.8,1.374-1.2,2.294-1.944l-.03-.034c-1.015.28-1.667.439-2.5.621-1.314.242-2.9.59-4.389.867L83.292,302.4l5.46-4.916Zm2.8-1.358c-.455.471-.613,1.043-.207,1.494.437.485,1,.386,1.548,0l.641.711a1.838,1.838,0,0,1-2.751-.241,1.769,1.769,0,0,1,.119-2.681Z"/><path d="M100.808,309.908l-5.075,5.317-.967-.923,4.342-4.548-2.472-2.36-4.342,4.548-.956-.912,5.077-5.316Z"/><path d="M100.842,313.178c.611-.717,1.081-1.314,1.512-1.865l.913.779-.772,1,.023.02a2.89,2.89,0,0,1,2.914.61c1.354,1.155,1.394,3.167-.057,4.865-1.717,2.011-3.791,1.958-5.107.834a2.578,2.578,0,0,1-.973-2.349l-.022-.019-2.595,3.038-1-.858Zm-.269,2.349a3.053,3.053,0,0,0-.309.456,2.063,2.063,0,0,0,.51,2.492c1.074.918,2.447.571,3.544-.71.957-1.121,1.187-2.584.111-3.5a2.134,2.134,0,0,0-2.612-.053,2.184,2.184,0,0,0-.425.356Z"/><path d="M112.081,323.784a3.592,3.592,0,0,1-5.275.89,3.493,3.493,0,0,1-.514-5.142,3.586,3.586,0,0,1,5.262-.9A3.479,3.479,0,0,1,112.081,323.784Zm-4.687-3.47c-.975,1.28-.973,2.808.065,3.6,1.016.771,2.5.4,3.506-.921.755-.99,1.214-2.625-.042-3.58S108.24,319.2,107.394,320.314Z"/><path d="M120.272,325.011l-3.571,5.253.62.439-1.933,2.708-.868-.59,1.266-1.968-4.208-2.863-1.366,1.9-.866-.589,1.82-2.786.524.339a5.821,5.821,0,0,0,1.448-.834,9.762,9.762,0,0,0,2-2.186l1.076-1.583Zm-4.334-.245a9.666,9.666,0,0,1-1.852,2.047,6.907,6.907,0,0,1-1.259.8l2.8,1.905,2.99-4.4-2-1.358Z"/><path d="M122.579,326.469l-.884,4.549c-.109.5-.254,1.09-.379,1.529l.025.017c.346-.306.768-.707,1.2-1.066l3.489-2.927,1.207.734-4.438,3.434c-2.129,1.656-3.358,2.42-4.548,2.622a3.64,3.64,0,0,1-1.852-.114l.3-1.135a3.535,3.535,0,0,0,1.339.051,4.048,4.048,0,0,0,1.734-.687.939.939,0,0,0,.257-.218,1.212,1.212,0,0,0,.1-.345l1.2-7.2Z"/><path d="M129.431,330.51l-1.522,2.8.279.152,3.951-1.479,1.427.776-4.4,1.39c.982.673,1.231,1.706,1.106,3.143a15.508,15.508,0,0,0-.162,1.951l-1.228-.668a9.869,9.869,0,0,1,.118-1.647,2.383,2.383,0,0,0-1.306-2.68l-.228-.124-1.545,2.841-1.16-.631,3.511-6.455Z"/><path d="M139.358,335.567l-.463.957-2.063-1-2.743,5.657L132.9,340.6l2.743-5.657-2.062-1,.463-.957Z"/><path d="M141.564,336.55l-.97,2.313a6.276,6.276,0,0,1,1.142.379c1.458.611,2.676,1.831,1.976,3.5a2.076,2.076,0,0,1-1.357,1.274,4.638,4.638,0,0,1-3.061-.361,18.531,18.531,0,0,1-1.779-.86l2.83-6.752Zm-2.484,5.926a7.432,7.432,0,0,0,.831.415c.938.393,2.125.43,2.565-.621.457-1.093-.382-1.84-1.306-2.228a6.21,6.21,0,0,0-.939-.312Zm8.592-3.363-2.845,6.779-1.218-.512,2.844-6.779Z"/><path d="M170.977,343.018l-.818,4.234c-.31,1.6-.593,2.9-.942,4.227l.027.021c.708-.945,1.546-1.913,2.507-2.965L176,343.991l1.3.251-1.945,10.049-1.223-.236.829-4.279c.314-1.625.56-2.815.909-4.062l-.041-.023a31.027,31.027,0,0,1-2.52,3.024L169.2,353.1l-1.387-.268,1.944-10.05Z"/><path d="M180.221,347.567l-.383,2.937,3.465.449.381-2.937,1.312.171-.947,7.29-1.311-.17.429-3.3-3.464-.45-.429,3.3-1.311-.17.946-7.29Z"/><path d="M187.08,348.484a15.67,15.67,0,0,1,2.344.011c1.228.092,3.241.442,3.118,2.079a1.74,1.74,0,0,1-1.655,1.534v.03a1.877,1.877,0,0,1,1.725,1.959c-.146,1.924-2.587,1.982-4.026,1.873-.817-.062-1.661-.187-2.052-.247Zm.775,6.456a8.064,8.064,0,0,0,1.07.143c.894.067,2.242-.043,2.322-1.1s-.962-1.366-2.234-1.463l-.969-.073Zm.271-3.375,1,.074c.985.075,2.021-.136,2.087-1,.055-.729-.555-1.124-1.888-1.226a9.532,9.532,0,0,0-1.034-.017Z"/><path d="M195.308,352.851a2.356,2.356,0,0,0,2.456,2.616,4.823,4.823,0,0,0,2.045-.328l.2.963a5.957,5.957,0,0,1-2.458.394,3.416,3.416,0,0,1-3.521-3.8c.057-2.218,1.407-3.932,3.549-3.877,2.4.061,2.984,2.188,2.95,3.54a4.848,4.848,0,0,1-.062.621Zm3.942-.857a1.9,1.9,0,0,0-1.8-2.22,2.217,2.217,0,0,0-2.105,2.12Z"/><path d="M207.625,356a4.921,4.921,0,0,1-2.1.475,3.491,3.491,0,0,1-3.746-3.665,3.736,3.736,0,0,1,3.855-4,4.481,4.481,0,0,1,1.862.338l-.279,1.039a3.107,3.107,0,0,0-1.558-.313,2.772,2.772,0,0,0,.085,5.529,3.781,3.781,0,0,0,1.631-.4Z"/><path d="M214.194,348.481l.072,1.062-2.289.157.431,6.275-1.319.09-.43-6.275-2.289.158-.072-1.062Z"/><path d="M216.538,348.246l.359,3.077c.135,1.161.2,1.887.265,2.934l.047.01c.334-.94.53-1.483.915-2.383l1.837-4.036,1.553-.182.852,7.3-1.267.148-.359-3.091c-.14-1.191-.182-1.813-.259-3l-.046,0c-.358.989-.605,1.614-.942,2.4-.562,1.211-1.2,2.706-1.832,4.08l-1.521.178-.852-7.3Z"/><path d="M224.065,349.715c-.162-.928-.323-1.671-.474-2.354l1.183-.207.276,1.232.031,0a2.888,2.888,0,0,1,2.327-1.857c1.752-.306,3.327.945,3.712,3.146.455,2.6-.907,4.168-2.613,4.467a2.578,2.578,0,0,1-2.428-.748l-.03,0,.688,3.938-1.3.227Zm1.639,1.7a3.034,3.034,0,0,0,.155.528,2.06,2.06,0,0,0,2.245,1.2c1.391-.243,2-1.521,1.71-3.184-.253-1.452-1.233-2.561-2.625-2.316a2.129,2.129,0,0,0-1.705,1.979,2.161,2.161,0,0,0,0,.556Z"/><path d="M232.411,345.724l2.535,3.877c.271.437.576.959.793,1.361l.03-.007c.034-.46.058-1.041.117-1.6l.463-4.528,1.377-.314-.79,5.554c-.372,2.671-.723,4.074-1.435,5.047a3.608,3.608,0,0,1-1.407,1.209l-.575-1.021a3.541,3.541,0,0,0,1-.9,4.068,4.068,0,0,0,.765-1.7.924.924,0,0,0,.032-.334,1.171,1.171,0,0,0-.166-.321l-4.156-6Z"/><path d="M240.04,343.874l.845,2.981c.32,1.125.5,1.831.73,2.855l.049,0c.18-.981.287-1.549.522-2.5l1.171-4.278,1.5-.428,2,7.073-1.228.348-.849-3c-.327-1.154-.469-1.763-.733-2.919l-.043.014c-.2,1.034-.343,1.69-.548,2.522-.361,1.287-.751,2.865-1.158,4.323l-1.476.418-2.006-7.072Zm.018-3.114c.221.616.664,1.011,1.249.846.629-.178.789-.729.679-1.393l.92-.261a1.837,1.837,0,0,1-1.429,2.363,1.769,1.769,0,0,1-2.354-1.29Z"/><path d="M212.817,35.2l-.356,4.271,4.937.412.355-4.271,1.334.111-.852,10.206-1.334-.112.4-4.785-4.937-.412-.4,4.785-1.317-.109.852-10.206Z"/><path d="M224.378,46.763l.021-.932-.045-.007a2.738,2.738,0,0,1-2.375.774,2.093,2.093,0,0,1-1.937-2.4c.243-1.76,1.941-2.5,4.752-2.1l.021-.151a1.514,1.514,0,0,0-1.42-1.914,3.657,3.657,0,0,0-1.971.279l-.18-.915a4.557,4.557,0,0,1,2.481-.313c2.226.308,2.557,1.9,2.354,3.361l-.377,2.722a10.316,10.316,0,0,0-.122,1.762Zm.32-3.742c-1.44-.231-3.114-.2-3.311,1.212a1.181,1.181,0,0,0,1.072,1.436,1.827,1.827,0,0,0,1.929-.974,1.4,1.4,0,0,0,.134-.411Z"/><path d="M233.191,40.823,233,41.884l-3.138-.571-1.122,6.17-1.3-.237,1.314-7.231Z"/><path d="M234.089,43.439c.209-.919.349-1.667.475-2.354l1.171.268-.222,1.243.028.007a2.891,2.891,0,0,1,2.866-.812c1.732.395,2.7,2.159,2.2,4.335-.588,2.577-2.448,3.493-4.137,3.107a2.578,2.578,0,0,1-1.95-1.629L234.5,47.6l-.889,3.9-1.288-.294Zm.853,2.2a3.025,3.025,0,0,0-.062.546,2.064,2.064,0,0,0,1.607,1.973c1.377.313,2.434-.63,2.809-2.273.328-1.436-.147-2.838-1.524-3.152a2.131,2.131,0,0,0-2.338,1.164,2.169,2.169,0,0,0-.211.514Z"/><path d="M245.19,51.337l.15-.92L245.3,50.4a2.736,2.736,0,0,1-2.459.441,2.093,2.093,0,0,1-1.589-2.642c.482-1.709,2.266-2.216,4.994-1.43l.042-.146a1.516,1.516,0,0,0-1.146-2.09,3.67,3.67,0,0,0-1.99.006l-.053-.93a4.561,4.561,0,0,1,2.5.028c2.163.61,2.272,2.234,1.872,3.651l-.746,2.646a10.407,10.407,0,0,0-.361,1.727Zm.829-3.663c-1.394-.425-3.057-.626-3.444.748a1.182,1.182,0,0,0,.866,1.569,1.831,1.831,0,0,0,2.044-.7,1.451,1.451,0,0,0,.188-.389Z"/><path d="M255.934,47.075l-2.022,6.019.715.257-1.132,3.13-.993-.335.688-2.237-4.824-1.622-.8,2.2-.994-.335,1-3.172.595.183a5.736,5.736,0,0,0,1.17-1.193,9.694,9.694,0,0,0,1.338-2.645l.61-1.814Zm-4.239.931a9.751,9.751,0,0,1-1.231,2.471,6.819,6.819,0,0,1-1,1.107l3.212,1.08,1.7-5.041-2.29-.769Z"/><path d="M259.456,56.289l.239-.9-.043-.017a2.74,2.74,0,0,1-2.492.2,2.1,2.1,0,0,1-1.324-2.787c.648-1.654,2.474-1.983,5.112-.935l.056-.141a1.516,1.516,0,0,0-.937-2.193,3.649,3.649,0,0,0-1.98-.188l.039-.931a4.553,4.553,0,0,1,2.485.271c2.094.819,2.045,2.447,1.507,3.819l-1,2.561a10.3,10.3,0,0,0-.529,1.685Zm1.184-3.565c-1.348-.561-2.983-.923-3.5.406a1.183,1.183,0,0,0,.709,1.648,1.833,1.833,0,0,0,2.1-.5,1.381,1.381,0,0,0,.225-.369Z"/><path d="M267.358,55.031l.577.27c1.02.474,1.926.327,2.214-.293.275-.592-.088-1.214-.846-1.565a3.532,3.532,0,0,0-1.828-.282l.043-.885a4.67,4.67,0,0,1,2.5.426c1.02.475,2.047,1.506,1.444,2.8a1.874,1.874,0,0,1-2.205.815l-.014.027a1.953,1.953,0,0,1,1.041,2.512c-.672,1.445-2.395,1.3-3.8.643a5.032,5.032,0,0,1-1.912-1.542l.7-.665a4.246,4.246,0,0,0,1.551,1.275c1,.467,1.861.28,2.17-.38.416-.9-.4-1.579-1.409-2.046l-.606-.283Z"/><path d="M274.433,63.275l.334-.87-.041-.021a2.738,2.738,0,0,1-2.5-.069,2.093,2.093,0,0,1-1.018-2.91c.819-1.576,2.669-1.708,5.181-.384l.071-.134a1.515,1.515,0,0,0-.7-2.279,3.65,3.65,0,0,0-1.95-.4l.138-.921a4.565,4.565,0,0,1,2.442.535c1.994,1.04,1.771,2.651,1.09,3.958l-1.269,2.438a10.391,10.391,0,0,0-.707,1.618Zm1.558-3.418c-1.279-.7-2.866-1.235-3.525.031a1.183,1.183,0,0,0,.528,1.714,1.827,1.827,0,0,0,2.144-.27,1.384,1.384,0,0,0,.264-.343Z"/><path d="M283.9,60.153l-.872,4.548c-.109.5-.253,1.09-.377,1.529l.026.017c.345-.307.766-.708,1.2-1.068l3.479-2.934,1.208.731-4.428,3.442c-2.123,1.662-3.351,2.427-4.538,2.63a3.627,3.627,0,0,1-1.851-.108l.3-1.135a3.5,3.5,0,0,0,1.338.047,4.02,4.02,0,0,0,1.731-.691.917.917,0,0,0,.256-.216,1.131,1.131,0,0,0,.1-.347l1.183-7.2Z"/><path d="M290.788,64.447l-1.348,2a1.344,1.344,0,0,0,.387,2.146,2.758,2.758,0,0,0,1.6.453l1.933-2.873,1.1.737-4.1,6.1-1.1-.737,1.644-2.445-.024-.018a3.863,3.863,0,0,1-1.965-.644,2.179,2.179,0,0,1-.665-3.339l1.433-2.13Z"/><path d="M295.294,76.634l.469-.807-.037-.026a2.737,2.737,0,0,1-2.455-.464,2.094,2.094,0,0,1-.545-3.035c1.061-1.425,2.908-1.263,5.177.443l.091-.121a1.515,1.515,0,0,0-.325-2.361,3.664,3.664,0,0,0-1.862-.7l.281-.888a4.563,4.563,0,0,1,2.328.917c1.8,1.341,1.326,2.9.447,4.08l-1.64,2.206a10.3,10.3,0,0,0-.952,1.486Zm2.08-3.126c-1.152-.9-2.634-1.675-3.485-.53a1.182,1.182,0,0,0,.25,1.775,1.827,1.827,0,0,0,2.159.073,1.369,1.369,0,0,0,.315-.295Z"/><path d="M302.015,81.591a4.911,4.911,0,0,1-1.918-.978,3.492,3.492,0,0,1-.535-5.212,3.733,3.733,0,0,1,5.518-.6,4.462,4.462,0,0,1,1.215,1.448l-.879.621a3.1,3.1,0,0,0-1-1.236,2.771,2.771,0,0,0-3.471,4.3,3.808,3.808,0,0,0,1.511.734Z"/><path d="M311.718,80.752l-.7.8L309.3,80.027l-4.172,4.709-.988-.876,4.169-4.709-1.717-1.521.705-.8Z"/><path d="M313.6,82.535l-2.157,2.224c-.814.84-1.332,1.353-2.105,2.062l.022.043c.939-.337,1.485-.527,2.426-.8l4.29-1.129,1.123,1.089L312.081,91.3l-.915-.888,2.168-2.235c.835-.862,1.29-1.288,2.159-2.1l-.033-.031c-.993.348-1.635.552-2.458.79-1.295.331-2.856.784-4.322,1.162l-1.1-1.069,5.119-5.277Z"/><path d="M316.522,90.97a2.357,2.357,0,0,0-.147,3.586,4.833,4.833,0,0,0,1.666,1.23l-.544.819a5.948,5.948,0,0,1-2-1.479,3.417,3.417,0,0,1,.245-5.175c1.624-1.512,3.794-1.748,5.254-.181,1.638,1.757.527,3.664-.462,4.586a4.981,4.981,0,0,1-.486.392Zm3.374,2.215a1.9,1.9,0,0,0,.325-2.838,2.218,2.218,0,0,0-2.989-.02Z"/><path class="b" d="M89.627,82.177l-1.788,1.674-.6-.646,4.352-4.074.6.645-1.8,1.682,4.9,5.232-.768.719Z"/><path class="b" d="M98.867,79.556a2.825,2.825,0,0,1-.138,4.207,2.748,2.748,0,0,1-4.043-.407,2.823,2.823,0,0,1,.128-4.2A2.736,2.736,0,0,1,98.867,79.556Zm-3.406,3.072a1.807,1.807,0,1,0,2.623-2.335c-.646-.736-1.834-1.346-2.768-.526S94.735,81.8,95.461,82.628Z"/><path class="b" d="M98.937,75.832l1.578,1.95.2-.157.111-3.319.993-.8-.313,3.619a2.426,2.426,0,0,1,2.619.141,12.262,12.262,0,0,0,1.369.705l-.854.692a7.816,7.816,0,0,1-1.162-.582,1.877,1.877,0,0,0-2.343.144l-.157.127,1.6,1.978-.807.654-3.639-4.5Z"/><path class="b" d="M104.97,74.972a1.854,1.854,0,0,0,2.793.416,3.8,3.8,0,0,0,1.1-1.2l.6.495a4.673,4.673,0,0,1-1.324,1.442,2.686,2.686,0,0,1-4.025-.625c-1.048-1.4-1.051-3.112.3-4.124a2.451,2.451,0,0,1,3.548.745,3.782,3.782,0,0,1,.265.414Zm2.016-2.452a1.5,1.5,0,0,0-2.191-.492,1.743,1.743,0,0,0-.266,2.335Z"/><path class="b" d="M108.43,68.618l1.321,1.918,2.262-1.56-1.321-1.917.855-.591,3.281,4.76-.855.59-1.485-2.154-2.261,1.562,1.484,2.152-.855.59-3.282-4.76Z"/><path class="b" d="M113.97,64.89l1.043,1.673a4.85,4.85,0,0,1,.762-.561c1.054-.657,2.389-.885,3.141.32a1.63,1.63,0,0,1,.2,1.45,3.638,3.638,0,0,1-1.622,1.8,14,14,0,0,1-1.36.75l-3.046-4.884Zm2.672,4.286a5.744,5.744,0,0,0,.643-.344c.681-.424,1.242-1.169.768-1.928-.492-.791-1.353-.591-2.021-.174a4.672,4.672,0,0,0-.628.46Zm1.745-7.04,3.058,4.9-.881.549-3.059-4.9Z"/><path class="b" d="M124.586,61.75l-3.412-3.581.84-.458,1.554,1.724c.4.434.746.844,1.158,1.3l.043-.023c.033-.686.063-1.328.124-2.014l.224-2.682.87-.475L125.4,61.3l.922,2.982-.809.441Z"/><path class="b" d="M127.111,55.005l.835-.413,1.18,4.414a4.854,4.854,0,0,0,.32.893c.5,1.006,1.217,1.359,2.2.873.8-.4,1.193-1.335.736-3.015l-1.258-4.733.814-.4,1.263,4.771c.6,2.22.009,3.5-1.244,4.118a2.22,2.22,0,0,1-3.312-1.123,6.4,6.4,0,0,1-.384-1.049Z"/><path class="b" d="M134.017,51.7l2.021-.89c1.345-.592,2.473-.488,3.022.757.774,1.76-.194,3.113-2.021,3.917l-1.146.506.7,3.136-.852.375Zm2.752,3.082c1.476-.65,2-1.587,1.5-2.735-.366-.831-1.088-.929-2.138-.467l-1.1.486.705,3.172Z"/><path class="b" d="M140.221,49.064l.863-.35,1.5,7.849-.863.35Z"/><path class="b" d="M143.175,47.911l4.051-1.511.125.781-3.188,1.189.42,2.559,2.7-1.006.119.8-2.674,1,.455,2.965,3.29-1.227.119.8-4.14,1.544Z"/><path class="b" d="M275.507,327.419l-2.121,1.223-.441-.765,5.16-2.978.441.765-2.13,1.229L280,333.1l-.909.525Z"/><path class="b" d="M284.951,326.638a2.823,2.823,0,0,1-.817,4.125,2.746,2.746,0,0,1-3.923-1.058,2.821,2.821,0,0,1,.807-4.119A2.737,2.737,0,0,1,284.951,326.638Zm-3.858,2.476a1.806,1.806,0,1,0,2.966-1.877c-.518-.832-1.59-1.627-2.644-.969S280.511,328.182,281.092,329.114Z"/><path class="b" d="M285.381,322.918l1.413,2.071.207-.142.382-3.3,1.056-.72-.607,3.58a2.426,2.426,0,0,1,2.6.354,12.427,12.427,0,0,0,1.306.815l-.906.618a7.692,7.692,0,0,1-1.111-.674,1.876,1.876,0,0,0-2.345-.05l-.168.116,1.434,2.1-.859.587-3.256-4.776Z"/><path class="b" d="M291.459,322.434a1.853,1.853,0,0,0,2.788.434,3.811,3.811,0,0,0,1.108-1.191l.591.5a4.684,4.684,0,0,1-1.331,1.432,2.685,2.685,0,0,1-4.019-.65c-1.037-1.4-1.029-3.117.324-4.118a2.447,2.447,0,0,1,3.539.767,3.949,3.949,0,0,1,.263.414ZM293.488,320a1.5,1.5,0,0,0-2.187-.5,1.74,1.74,0,0,0-.279,2.331Z"/><path class="b" d="M294.735,316.085,296.2,317.9l2.138-1.726-1.463-1.812.808-.653,3.633,4.5-.809.652-1.643-2.034-2.139,1.726,1.644,2.035-.808.652-3.633-4.5Z"/><path class="b" d="M299.733,311.953l1.311,1.473a4.97,4.97,0,0,1,.657-.681c.928-.826,2.207-1.277,3.152-.215a1.637,1.637,0,0,1,.442,1.4A3.637,3.637,0,0,1,304,315.974a13.978,13.978,0,0,1-1.214.97l-3.83-4.3Zm3.359,3.773a5.414,5.414,0,0,0,.577-.448c.6-.532,1.025-1.361.432-2.03-.621-.7-1.436-.354-2.023.171a4.485,4.485,0,0,0-.541.561Zm.53-7.236,3.846,4.317-.776.691-3.845-4.316Z"/><path class="b" d="M309.379,306.676l-4.291-2.464.676-.678,1.979,1.212c.508.3.957.6,1.481.917l.033-.034c-.162-.667-.315-1.291-.452-1.967l-.549-2.636.7-.7,1.08,5.691,1.731,2.6-.649.652Z"/><path class="b" d="M309.53,299.674l.628-.687,2.7,3.682a4.648,4.648,0,0,0,.624.715,1.485,1.485,0,0,0,2.367.014c.6-.662.627-1.677-.408-3.076l-2.892-3.952.612-.671,2.909,3.986c1.368,1.848,1.279,3.256.337,4.287a2.22,2.22,0,0,1-3.493.157,6.459,6.459,0,0,1-.739-.837Z"/><path class="b" d="M314.354,294.246l1.414-1.7c.941-1.13,2-1.54,3.045-.668,1.478,1.231,1.212,2.876-.066,4.408l-.8.965,2.024,2.5-.6.716Zm3.838,1.533c1.032-1.238,1.087-2.312.124-3.116-.7-.581-1.39-.348-2.124.533l-.771.927,2.044,2.528Z"/><path class="b" d="M318.449,289.187l.572-.734,5.216,6.052-.573.736Z"/><path class="b" d="M320.209,286.858l2.555-3.49.536.583-2.013,2.749,1.758,1.908,1.7-2.324.538.6-1.688,2.306,2.013,2.229,2.076-2.835.537.6-2.613,3.57Z"/><g class="c"><path d="M30.589,224.141v1.4H25.026V229a14.365,14.365,0,0,1,1.587-.1,6.123,6.123,0,0,1,3.327.86,3.545,3.545,0,0,1,1.645,3.155,3.788,3.788,0,0,1-1.071,2.791,6.542,6.542,0,0,1-4.55,1.434,19.629,19.629,0,0,1-2.6-.152V224.141Zm-5.563,11.605a7.193,7.193,0,0,0,1.4.1,3.778,3.778,0,0,0,2.716-.994,2.648,2.648,0,0,0,.707-1.893,2.414,2.414,0,0,0-1.052-2.1,4.3,4.3,0,0,0-2.447-.649c-.382,0-.9.038-1.319.076Z"/><path d="M35.29,227.774v3.9c0,1.473-.02,2.39-.1,3.709l.058.02c.555-1.128.879-1.778,1.491-2.849l2.887-4.78H41.6v9.254H39.993v-3.92c0-1.51.038-2.294.115-3.785H40.05c-.593,1.186-.994,1.931-1.529,2.868-.88,1.434-1.894,3.212-2.888,4.837H33.7v-9.254Z"/><path d="M45.094,231.656h.8c1.414,0,2.37-.65,2.37-1.511,0-.822-.745-1.339-1.8-1.339a4.468,4.468,0,0,0-2.237.65l-.42-1.032a5.878,5.878,0,0,1,3.078-.842c1.414,0,3.135.631,3.135,2.429a2.357,2.357,0,0,1-2.084,2.1v.039a2.46,2.46,0,0,1,2.524,2.313c0,2.007-2.046,2.753-4,2.753a6.342,6.342,0,0,1-3-.746l.439-1.128a5.341,5.341,0,0,0,2.447.631c1.4,0,2.275-.669,2.275-1.587,0-1.242-1.3-1.587-2.7-1.587h-.842Z"/><path d="M54.193,227.774V231.5h4.4v-3.729h1.664v9.254H58.59V232.84h-4.4v4.188H52.53v-9.254Z"/><path d="M63.942,232.707a2.964,2.964,0,0,0,3.174,3.212,6.085,6.085,0,0,0,2.562-.478l.287,1.2a7.48,7.48,0,0,1-3.078.574,4.3,4.3,0,0,1-4.551-4.665c0-2.792,1.645-4.99,4.34-4.99,3.021,0,3.824,2.657,3.824,4.359a6.244,6.244,0,0,1-.058.783Zm4.933-1.2c.019-1.07-.44-2.734-2.333-2.734a2.789,2.789,0,0,0-2.581,2.734Z"/><path d="M79.176,236.684a6.2,6.2,0,0,1-2.658.535,4.4,4.4,0,0,1-4.607-4.723,4.7,4.7,0,0,1,4.971-4.914,5.625,5.625,0,0,1,2.333.479l-.383,1.3a3.9,3.9,0,0,0-1.95-.439,3.488,3.488,0,0,0-.057,6.959,4.77,4.77,0,0,0,2.064-.459Z"/><path d="M82.768,227.774v3.155a7.893,7.893,0,0,1,1.511-.115c1.988,0,4,.822,4,3.1a2.622,2.622,0,0,1-.956,2.142,5.834,5.834,0,0,1-3.729,1.07,22.992,22.992,0,0,1-2.485-.134v-9.216Zm0,8.088a9.42,9.42,0,0,0,1.167.076c1.28,0,2.677-.535,2.677-1.97,0-1.491-1.339-1.949-2.6-1.949a7.741,7.741,0,0,0-1.243.095Zm8.336-8.088v9.254H89.441v-9.254Z"/></g><g class="c"><path class="d" d="M306.215,224.141l2.563,5.487c.325.765.631,1.511.937,2.275h.038c.229-.669.479-1.415.8-2.332l2.007-5.431h1.76l-2.7,6.615a24.816,24.816,0,0,1-2.409,4.895,3.641,3.641,0,0,1-2.925,1.587,2.89,2.89,0,0,1-.937-.114l.173-1.357a2.334,2.334,0,0,0,.611.058c1.339-.02,2.122-1.3,2.523-2.218a.778.778,0,0,0-.057-.784l-4.283-8.681Z"/><path class="d" d="M316.518,227.774v3.04c0,1.166.44,1.97,1.912,1.97a3.475,3.475,0,0,0,1.988-.65v-4.359h1.664v9.254h-1.664v-3.709h-.038a4.859,4.859,0,0,1-2.5.707,2.742,2.742,0,0,1-3.04-3.021v-3.231Z"/><path class="d" d="M329.957,237.028l-.134-1.166h-.058a3.444,3.444,0,0,1-2.829,1.376,2.637,2.637,0,0,1-2.83-2.657c0-2.237,1.988-3.461,5.563-3.441v-.191a1.907,1.907,0,0,0-2.1-2.142,4.61,4.61,0,0,0-2.409.688l-.383-1.108a5.747,5.747,0,0,1,3.04-.822c2.83,0,3.519,1.931,3.519,3.785v3.461a13.081,13.081,0,0,0,.152,2.218Zm-.248-4.723c-1.836-.038-3.92.287-3.92,2.084A1.489,1.489,0,0,0,327.376,236a2.3,2.3,0,0,0,2.237-1.549,1.777,1.777,0,0,0,.1-.535Z"/><path class="d" d="M340.642,236.684a6.2,6.2,0,0,1-2.658.535,4.4,4.4,0,0,1-4.607-4.723,4.7,4.7,0,0,1,4.971-4.914,5.625,5.625,0,0,1,2.333.479l-.383,1.3a3.9,3.9,0,0,0-1.95-.439,3.488,3.488,0,0,0-.057,6.959,4.77,4.77,0,0,0,2.064-.459Z"/><path class="d" d="M349.166,227.774v1.339h-2.887v7.915h-1.663v-7.915h-2.888v-1.339Z"/><path class="d" d="M352.261,227.774V231.5h4.4v-3.729h1.664v9.254h-1.664V232.84h-4.4v4.188H350.6v-9.254Z"/><path class="d" d="M362.621,227.774v3.9c0,1.473-.02,2.39-.1,3.709l.058.02c.555-1.128.879-1.778,1.491-2.849l2.887-4.78h1.97v9.254h-1.606v-3.92c0-1.51.038-2.294.115-3.785h-.058c-.593,1.186-.994,1.931-1.529,2.868-.88,1.434-1.894,3.212-2.888,4.837h-1.931v-9.254Z"/><path class="d" d="M373.324,227.774v4.016h.4l3.479-4.016h2.046l-4.034,4.188c1.491.152,2.39,1.146,3.116,2.811a19.463,19.463,0,0,0,.994,2.256h-1.759a12.283,12.283,0,0,1-.86-1.893,3,3,0,0,0-3.06-2.18h-.325v4.072h-1.663v-9.254Z"/><path class="d" d="M382.365,227.774v3.9c0,1.473-.02,2.39-.1,3.709l.058.02c.555-1.128.879-1.778,1.491-2.849l2.887-4.78h1.97v9.254h-1.606v-3.92c0-1.51.038-2.294.115-3.785h-.058c-.593,1.186-.994,1.931-1.529,2.868-.88,1.434-1.894,3.212-2.888,4.837h-1.931v-9.254Z"/></g><ellipse class="e" cx="334.019" cy="151.463" rx="8.692" ry="11.505"/><path class="f" d="M372.486,141.68c0,6.354-3.892,11.505-8.692,11.505s-8.692-5.151-8.692-11.505,3.892-11.505,8.692-11.505S372.486,135.326,372.486,141.68Zm-14.82-8.158.536-.65a12.9,12.9,0,0,0,4.085,5.218c2.928,2.157,10.159,4.677,10.159,4.677"/><path class="g" d="M312.076,199.071a22.324,22.324,0,1,1,44.647,0"/><path class="h" d="M341.471,188.395a22.324,22.324,0,1,1,44.647,0"/><circle class="b" cx="348.958" cy="195.189" r="2.912"/><circle class="i" cx="379.047" cy="184.512" r="2.912"/><circle class="i" cx="369.341" cy="184.512" r="2.912"/><line class="j" x1="322.968" y1="107.857" x2="330.651" y2="109.622"/><line class="j" x1="333.494" y1="102.277" x2="330.651" y2="109.622"/><line class="j" x1="322.968" y1="107.857" x2="330.651" y2="109.622"/><line class="j" x1="333.494" y1="102.277" x2="330.651" y2="109.622"/><line class="j" x1="65.91" y1="251.834" x2="58.563" y2="248.976"/><line class="j" x1="54.687" y1="255.832" x2="58.563" y2="248.976"/><line class="j" x1="65.91" y1="251.834" x2="58.563" y2="248.976"/><line class="j" x1="54.687" y1="255.832" x2="58.563" y2="248.976"/><line class="j" x1="168.127" y1="341.607" x2="160.619" y2="344.01"/><line class="j" x1="161.923" y1="351.777" x2="160.619" y2="344.01"/><line class="j" x1="168.127" y1="341.607" x2="160.619" y2="344.01"/><line class="j" x1="161.923" y1="351.777" x2="160.619" y2="344.01"/><line class="j" x1="168.127" y1="341.607" x2="160.619" y2="344.01"/><line class="j" x1="161.923" y1="351.777" x2="160.619" y2="344.01"/><line class="j" x1="168.127" y1="341.607" x2="160.619" y2="344.01"/><line class="j" x1="161.923" y1="351.777" x2="160.619" y2="344.01"/><g class="a"><circle class="b" cx="268.247" cy="335.614" r="1.219" transform="translate(-120.014 151.639) rotate(-26.012)"/><circle class="b" cx="263.374" cy="337.885" r="1.219" transform="translate(-114.531 136.093) rotate(-23.963)"/><circle class="b" cx="258.424" cy="339.98" r="1.219" transform="translate(-108.24 121.058) rotate(-21.921)"/><circle class="b" cx="253.402" cy="341.898" r="1.219" transform="translate(-101.152 106.529) rotate(-19.878)"/></g><g class="a"><circle class="b" cx="339.298" cy="263.448" r="1.219" transform="translate(-43.914 457.552) rotate(-64.691)"/><path class="b" d="M337.381,267.355a1.219,1.219,0,1,1-1.637.524A1.216,1.216,0,0,1,337.381,267.355Z"/><path class="b" d="M334.77,272.275a1.219,1.219,0,1,1-1.654.466A1.22,1.22,0,0,1,334.77,272.275Z"/><path class="b" d="M331.984,277.1a1.219,1.219,0,1,1-1.671.406A1.218,1.218,0,0,1,331.984,277.1Z"/><path class="b" d="M329.03,281.822a1.219,1.219,0,1,1-1.686.346A1.215,1.215,0,0,1,329.03,281.822Z"/></g><g class="a"><circle class="b" cx="71.094" cy="112.55" r="1.219" transform="translate(-61.987 115.908) rotate(-59.166)"/><path class="b" d="M73.377,108.845a1.219,1.219,0,1,1,1.68-.364A1.217,1.217,0,0,1,73.377,108.845Z"/><path class="b" d="M76.451,104.2a1.219,1.219,0,1,1,1.691-.3A1.22,1.22,0,0,1,76.451,104.2Z"/><path class="b" d="M79.687,99.666a1.219,1.219,0,1,1,1.7-.244A1.218,1.218,0,0,1,79.687,99.666Z"/><path class="b" d="M83.083,95.25a1.219,1.219,0,1,1,1.711-.182A1.215,1.215,0,0,1,83.083,95.25Z"/></g><rect class="k" x="24.808" y="149.741" width="70.482" height="49.577" rx="2" ry="2"/><path class="k" d="M51.982,149.144v-3.5c0-.7,1.07-1.274,2.389-1.274H65.727c1.32,0,2.389.571,2.389,1.274v3.5"/><line class="k" x1="24.21" y1="168.257" x2="95.888" y2="168.257"/><line class="e" x1="43.922" y1="168.257" x2="43.922" y2="173.633"/><line class="e" x1="47.506" y1="168.257" x2="47.506" y2="173.633"/><line class="e" x1="76.176" y1="168.257" x2="76.176" y2="173.633"/><line class="e" x1="72.593" y1="168.257" x2="72.593" y2="173.633"/></svg>