<svg xmlns="http://www.w3.org/2000/svg" viewBox="0 0 404.8 404.8"><defs><style>.a,.i{fill:#ff3b3f;}.b,.f,.h,.i{opacity:0.5;}.c{isolation:isolate;}.d{fill:#1e223e;}.e,.f,.g,.h,.j,.k{fill:none;stroke:#000;}.e,.f,.g,.h,.j{stroke-linecap:round;}.e,.f,.k{stroke-miterlimit:10;}.e,.f,.g,.h,.k{stroke-width:2px;}.g,.h,.j{stroke-linejoin:round;}.j{stroke-width:0.75px;}</style></defs><title>diagram_token flow simple</title><path d="M69,284.2l-2.3.9-.6-1,9.9-4,.5.8-.9.5h0a4.2,4.2,0,0,1,2.4,1.5c.7,1.1.4,2.3-1.1,3.2s-5.3,1.1-6.4-.6a2.1,2.1,0,0,1-.1-2.1h0Zm5.8-2.3-3.3,1.3a1.7,1.7,0,0,0-.1,1.8c.8,1.2,3.1,1.3,4.8.2s1.3-1.5.8-2.2A3.4,3.4,0,0,0,74.7,281.9Z"/><path d="M77,294.5l-.6-.8,1-.6h0a4.2,4.2,0,0,1-2.6-1.3,1.6,1.6,0,0,1,.4-2.5l.9-.5,4.4-2,.7.9-4.2,1.9-.8.4a1,1,0,0,0-.3,1.6,3.5,3.5,0,0,0,2.4,1l4.8-2.2.7.9Z"/><path d="M85.3,293.2l.6.7-1.2.8h0a3,3,0,0,1,2.7.8,1.7,1.7,0,0,1,.3.6l-1.1.3a1.5,1.5,0,0,0-.3-.6c-.5-.6-1.5-.8-2.8-.5l-4.2,2.2-.7-.9Z"/><path d="M90.4,299a2.4,2.4,0,0,1,.6,2H90a1.5,1.5,0,0,0-.4-1.4c-1-1.1-3.2-1-4.7.3s-1.2,1.8-.4,2.7a2.7,2.7,0,0,0,1.6.8l-.2.9a3.8,3.8,0,0,1-2.2-1.2,2.6,2.6,0,0,1,.4-4C86.2,297.2,89,297.4,90.4,299Z"/><path d="M95.8,300.1l.8.8-3.1,2-.8.5h0a4.1,4.1,0,0,1,2.7,1,1.6,1.6,0,0,1-.1,2.5l-.8.6-4,2.6-.8-.8,3.9-2.5.7-.5a1,1,0,0,0,.1-1.6,3.6,3.6,0,0,0-2.5-.7l-4.5,2.9-.8-.8Z"/><path d="M100.4,309.2a2,2,0,0,1,.5,2h0l.8-.5.7.6-6.1,4.4-.7-.7.8-.7h0a3.7,3.7,0,0,1-2.7-.8c-.9-.9-.9-2.1.3-3.4S98.9,307.8,100.4,309.2Zm-3,4.5,2.7-2a1.7,1.7,0,0,0-.4-1.8c-1.1-1-3.4-.6-4.7.9s-.9,1.7-.3,2.3A3,3,0,0,0,97.4,313.7Z"/><path d="M99.8,316.4a2.4,2.4,0,0,0,.8,2.1,1.4,1.4,0,0,0,2,.1c.3-.4.3-.8-.1-1.9s-.5-2,0-2.6a2.3,2.3,0,0,1,3.4,0,2.9,2.9,0,0,1,1,2.2h-.9a2.1,2.1,0,0,0-.7-1.5,1.3,1.3,0,0,0-1.8,0c-.4.5-.1,1.1.2,1.8s.5,2.1,0,2.7-2.4,1-3.6-.1a3.2,3.2,0,0,1-1-2.7Z"/><path d="M111.2,318.3c1.3,1,1.1,2.3.2,3.5a4.8,4.8,0,0,1-1.1,1l-3.8-2.9c-1.4,1.3-1.1,2.6-.1,3.4a3,3,0,0,0,1.7.5v.9a4.1,4.1,0,0,1-2.4-.8,2.8,2.8,0,0,1-.4-4.2C106.9,317.4,109.7,317.1,111.2,318.3Zm-1.1,3.4.5-.6a1.4,1.4,0,0,0-.1-2.2,2.9,2.9,0,0,0-3.5.4Z"/><path d="M112.3,329.4l-1.7,1.7-1-.6,7.6-7.6.8.5-.6.8h0a4.2,4.2,0,0,1,2.8.5c1.1.7,1.2,2,.3,3.4s-4.4,3.1-6.1,2a2.1,2.1,0,0,1-.9-1.9h0Zm4.4-4.4-2.5,2.5a1.7,1.7,0,0,0,.7,1.7c1.2.8,3.4,0,4.5-1.7s.6-1.8-.1-2.3A3.4,3.4,0,0,0,116.7,325Z"/><path d="M124,327.3l.8.5-.9,1.1h.1a3,3,0,0,1,2.8-.2l.5.5-.9.7-.5-.4c-.6-.4-1.7-.2-2.8.5l-3.2,3.5-1-.6Z"/><path d="M124.9,333.3c1.3-2.4,4-3.2,5.8-2.3s1.8,2.3.9,3.9-4,3.2-5.8,2.3S124.1,334.9,124.9,333.3Zm1.1.5c-.6,1.2-.5,2.1.4,2.6s3.2-.2,4.2-2,.5-2.1-.4-2.6S127,331.9,126,333.8Z"/><path d="M139.6,335.1l1.8-2.4,1.1.5-6.7,8.8-.9-.4.6-.9h-.1a3.7,3.7,0,0,1-2.9,0c-1.2-.6-1.5-1.8-.8-3.3s4-3.7,5.8-2.8a2,2,0,0,1,1.1,1.7h0Zm-3.5,4.7,2-2.7a1.7,1.7,0,0,0-.9-1.6c-1.3-.6-3.4.5-4.3,2.3s-.3,1.9.4,2.3A3.1,3.1,0,0,0,136.1,339.7Z"/><path d="M143.5,345.3l-.9-.4.5-1h-.1a4.2,4.2,0,0,1-2.9.2,1.6,1.6,0,0,1-.9-2.4l.5-.9,2.7-4,1.1.4-2.6,3.9-.4.8a1,1,0,0,0,.6,1.5,3.5,3.5,0,0,0,2.5-.4l3-4.4,1.1.4Z"/><path d="M152.6,340.7a2.4,2.4,0,0,1,1.5,1.5l-.9.5a1.5,1.5,0,0,0-1-1.1c-1.4-.5-3.3.7-4,2.6s-.2,2.1.9,2.5a2.7,2.7,0,0,0,1.8-.1l.2.9a3.8,3.8,0,0,1-2.5,0,2.6,2.6,0,0,1-1.6-3.7C148,341.2,150.6,339.9,152.6,340.7Z"/><path d="M155.9,343l-1-.3.4-.8,1.1.3,1.1-1.8.9.3-1,1.8,1.8.6-.5.8-1.8-.6-2.1,3.8-.2.5c-.2.6,0,.9.6,1.2h.8v.9a3.4,3.4,0,0,1-1.4-.1,1.5,1.5,0,0,1-1.2-2.1l.3-.8Z"/><path d="M158.1,348.5a2.4,2.4,0,0,0,1.5,1.5,1.4,1.4,0,0,0,1.8-.8c.1-.5-.1-.9-.9-1.7s-1.3-1.6-1.1-2.4a2.3,2.3,0,0,1,3-1.5,3,3,0,0,1,1.8,1.5l-.8.5a2.1,2.1,0,0,0-1.3-1.1,1.3,1.3,0,0,0-1.7.7c-.2.6.4,1.1.9,1.6s1.3,1.7,1.1,2.5-1.7,1.9-3.3,1.5a3.2,3.2,0,0,1-2.1-2Z"/><path d="M186.7,348.3h1.2l-2.2,7.2h-1.1Zm.5-2.2a.9.9,0,0,1,1-.8.7.7,0,0,1,.7.8.9.9,0,0,1-1,.8A.7.7,0,0,1,187.2,346.2Z"/><path d="M190.3,348.7h1l-.2,1.1h.1a4.1,4.1,0,0,1,2.7-1.1c1.2.1,1.7.8,1.6,1.9a4.1,4.1,0,0,1-.2,1l-1.2,4.6h-1.2l1.2-4.5a4.5,4.5,0,0,0,.2-.9c0-.7-.3-1.2-1-1.2a3.6,3.6,0,0,0-2.3,1.2l-1.4,5.2h-1.2Z"/><path d="M197.2,349h1.2l.5,4.3.2,2.2h.1l1.1-2.2,2.2-4.2h1.2l-4,7.3h-1.4Z"/><path d="M207.5,348.7c1.7-.1,2.3,1.1,2.4,2.6a4.8,4.8,0,0,1-.2,1.5l-4.8.2c-.2,1.9.8,2.7,2.1,2.6a3,3,0,0,0,1.6-.7l.5.8a4.1,4.1,0,0,1-2.4.9,2.8,2.8,0,0,1-3-3C203.6,350.8,205.6,348.8,207.5,348.7Zm1.3,3.3a3.9,3.9,0,0,0,0-.8c0-.8-.4-1.6-1.5-1.6a2.9,2.9,0,0,0-2.4,2.5Z"/><path d="M211.4,354.3a2.4,2.4,0,0,0,2,.9,1.4,1.4,0,0,0,1.5-1.4c0-.5-.4-.8-1.5-1.3s-1.8-1-1.8-1.9a2.3,2.3,0,0,1,2.3-2.4,3,3,0,0,1,2.2.8l-.6.7a2.1,2.1,0,0,0-1.6-.6,1.3,1.3,0,0,0-1.3,1.3c.1.6.7.9,1.4,1.2s1.8,1.1,1.9,1.9-1,2.4-2.6,2.5a3.2,3.2,0,0,1-2.6-1.2Z"/><path d="M218.4,349h-1.1v-.9l1.1-.2.3-2.1h1l-.2,2.1,1.9-.2v1l-1.9.2-.4,4.3a3.2,3.2,0,0,0,0,.5c.1.6.3.9,1,.8l.7-.3.4.8a3.4,3.4,0,0,1-1.3.5,1.5,1.5,0,0,1-1.9-1.4,6.9,6.9,0,0,1,0-.8Z"/><path d="M202.7,37.7h1l-.2,1.4h.1a3,3,0,0,1,2.3-1.6h.7l-.4,1h-.6c-.7,0-1.6.6-2.2,1.8l-1,4.7h-1.2Z"/><path d="M210.5,37.8c1.7.1,2.2,1.3,2.1,2.8a4.8,4.8,0,0,1-.3,1.4l-4.8-.2c-.4,1.9.6,2.7,1.9,2.8a3,3,0,0,0,1.7-.6l.4.8a4.1,4.1,0,0,1-2.4.7,2.8,2.8,0,0,1-2.7-3.2C206.5,39.4,208.6,37.7,210.5,37.8Zm1,3.4a3.8,3.8,0,0,0,.1-.8c0-.8-.3-1.7-1.3-1.7a2.9,2.9,0,0,0-2.6,2.3Z"/><path d="M214.4,38.1h1.1l-.2,4.3-.2,2.1h.1l1.1-2,2.4-4.1h1.1l-.2,4.3v2.1h.1l1.1-2,2.4-4.1h1.1l-4.1,7-1.4-.2.2-4,.2-2.2h-.1l-1.1,2.1-2.2,3.8h-1.4Z"/><path d="M228.8,39.8a2,2,0,0,1,1.6,1.4h.1l.4-.9.9.2-2.7,7-.9-.2.3-1.1h-.1a3.7,3.7,0,0,1-2.7.8c-1.3-.2-1.9-1.3-1.7-3S226.8,39.5,228.8,39.8Zm0,5.4,1.2-3.1c-.3-.8-.7-1.2-1.3-1.3s-3.1,1.4-3.4,3.4.2,1.9,1,2.1A3,3,0,0,0,228.8,45.2Z"/><path d="M234.4,41l.9.2-.5,1.3h.1a3,3,0,0,1,2.6-1.1l.7.3-.6.9-.6-.3c-.7-.1-1.7.3-2.5,1.4l-1.9,4.4-1.1-.2Z"/><path d="M244.1,42.8l1.3-2.7,1.1.3-4.8,9.9-.9-.2.4-1h-.1a3.7,3.7,0,0,1-2.8.6c-1.3-.3-1.8-1.4-1.4-3.1s3.1-4.4,5.1-3.9a1.9,1.9,0,0,1,1.4,1.5h0Zm-2.5,5.3,1.5-3a1.7,1.7,0,0,0-1.2-1.4c-1.4-.4-3.2,1.1-3.7,3.1s.1,2,.8,2.2A3.1,3.1,0,0,0,241.6,48.1Z"/><path d="M249.6,45.1l1,.2.6-1.1c.7-1.3,1.8-1.9,2.9-1.6a2.5,2.5,0,0,1,1.1.7l-.6.7a1.5,1.5,0,0,0-.7-.5c-.6-.2-1.2.2-1.6,1l-.6,1.1,1.4.4-.5.8-1.4-.5-3.2,5.7-1.1-.3,3.2-5.7-.9-.3Z"/><path d="M251.7,50.4c.9-2.6,3.5-3.8,5.4-3.2s2.1,2,1.5,3.7-3.5,3.8-5.4,3.2S251,52.2,251.7,50.4Zm1.1.3c-.5,1.3-.2,2.1.8,2.5s3.1-.7,3.8-2.6.2-2.1-.8-2.5S253.5,48.8,252.8,50.7Z"/><path d="M262,49.4l.9.4-.7,1.2h.1a3,3,0,0,1,2.7-.6l.6.4-.8.8-.5-.4c-.7-.3-1.7,0-2.7.9l-2.6,4-1.1-.4Z"/><path d="M272.3,53.7a2.4,2.4,0,0,1,1.3,1.6l-.9.4a1.5,1.5,0,0,0-.9-1.2c-1.3-.6-3.3.3-4.2,2.2s-.4,2.1.7,2.6a2.7,2.7,0,0,0,1.8.1v.9a3.8,3.8,0,0,1-2.5-.2,2.6,2.6,0,0,1-1.2-3.8C267.7,53.8,270.3,52.8,272.3,53.7Z"/><path d="M272.3,59c1.3-2.5,4-3.3,5.8-2.4s1.8,2.2,1,3.9-4,3.3-5.8,2.4S271.4,60.6,272.3,59Zm1.1.5c-.6,1.2-.5,2.1.4,2.6s3.2-.2,4.1-2,.5-2.1-.4-2.6S274.3,57.7,273.4,59.5Z"/><path d="M282.7,59.4l.8.5-.7.9h.1a4.1,4.1,0,0,1,2.9.2,1.6,1.6,0,0,1,.6,2.5l-.6.8-3.2,3.6-1-.6,3.1-3.5.5-.7a1,1,0,0,0-.4-1.5,3.6,3.6,0,0,0-2.6,0l-3.6,4-1-.6Z"/><path d="M289.2,64.5l-.9-.6.6-.6,1,.6,1.6-1.4.8.5-1.5,1.5,1.6,1-.7.7-1.6-1-3,3.1-.3.4a.8.8,0,0,0,.3,1.3l.8.2-.2.8a3.4,3.4,0,0,1-1.4-.5,1.5,1.5,0,0,1-.6-2.3l.5-.6Z"/><path d="M293.9,66.5l.8.5-.9,1.1h0a3,3,0,0,1,2.8,0l.5.5-.9.6-.5-.5c-.6-.4-1.6-.4-2.8.3l-3.4,3.3-.9-.7Z"/><path d="M298.2,69.6l.9.7-5.6,5.1-.9-.7Zm1.5-1.6a.9.9,0,0,1,1.2-.2.7.7,0,0,1,.2,1,.9.9,0,0,1-1.2.2A.7.7,0,0,1,299.7,68Z"/><path d="M295.5,76.8l8.4-7.1.9.7-2.3,1.9-1.2.9h0a4.2,4.2,0,0,1,2.6.7c1,.8,1.1,2.1,0,3.4s-4.7,2.8-6.3,1.5a2,2,0,0,1-.7-2h0l-.8.5Zm5.1-2.8-2.7,2.3a1.7,1.7,0,0,0,.5,1.8c1.2.9,3.4.3,4.7-1.3s.8-1.8.1-2.3A3.5,3.5,0,0,0,300.6,73.9Z"/><path d="M305.9,85.4l-.7-.6.8-.8h0a4.2,4.2,0,0,1-2.8-.7,1.6,1.6,0,0,1-.1-2.5l.8-.7,3.8-2.9.9.8-3.7,2.8-.7.6a1,1,0,0,0,.1,1.6,3.5,3.5,0,0,0,2.5.4l4.2-3.2.9.8Z"/><path d="M313.2,83.4l-.8-.7.7-.5.9.7,1.8-1.1.7.7-1.7,1.2,1.3,1.3-.8.6L314,84.2l-3.5,2.4-.4.4a.8.8,0,0,0,0,1.3l.7.4-.4.8a3.3,3.3,0,0,1-1.2-.7,1.5,1.5,0,0,1-.1-2.4l.6-.5Z"/><path d="M317.4,86.3l.8.8L312,91.2l-.8-.8Zm1.7-1.4a.9.9,0,0,1,1.2,0,.7.7,0,0,1,0,1,.9.9,0,0,1-1.2,0A.7.7,0,0,1,319.2,84.9Z"/><path d="M315.7,91.1c2.1-1.9,4.8-1.8,6.2-.3s1,2.7-.4,4-4.9,1.8-6.2.3S314.4,92.3,315.7,91.1Zm.8.8c-1,.9-1.1,1.8-.4,2.6s3,.8,4.6-.6,1.2-1.8.5-2.6S318.1,90.5,316.6,91.9Z"/><path d="M325.4,95l.6.7-.9.6h0a4.1,4.1,0,0,1,2.6,1.2,1.6,1.6,0,0,1-.3,2.5l-.9.6-4.2,2.3-.7-.9,4.1-2.2.7-.5a1,1,0,0,0,.2-1.6,3.6,3.6,0,0,0-2.4-.9l-4.7,2.5-.7-.9Z"/><path class="a" d="M91.6,86l-4.2-2.6.7-.7L90,84l1.5,1h0l-.4-2-.5-2.6.7-.7.9,5.7L93.9,88l-.7.6Z"/><path class="a" d="M92.3,78.8l.7-.6,2.3,4,.5.8a1.5,1.5,0,0,0,2.4.3c.7-.6.8-1.6-.1-3.1l-2.4-4.2.7-.6,2.4,4.3c1.2,2,.9,3.4-.1,4.3a2.2,2.2,0,0,1-3.5-.2l-.6-.9Z"/><path class="a" d="M98.1,73.9l1.7-1.4c1.1-.9,2.3-1.1,3.1,0s.6,3.1-.9,4.3l-1,.8,1.5,2.8-.7.6Zm3.5,2.3c1.3-1,1.5-2,.7-3s-1.3-.6-2.2.1l-.9.8,1.5,2.9Z"/><path class="a" d="M103.4,69.7l.7-.6,3.5,7.2-.7.6Z"/><path class="a" d="M106,67.9l3.5-2.5.3.7L107,68l1.1,2.4,2.3-1.7.3.7-2.3,1.6,1.2,2.7,2.9-2,.3.7-3.6,2.6Z"/><path class="a" d="M114.7,62.9l-1.9,1.2-.3-.8,4.6-2.9.3.8-1.9,1.2,2.6,6.7-.8.5Z"/><path class="a" d="M119.5,64.5c-1.2-2.1-1-5,.9-6.1s3-.2,4,1.5,1.1,5-.9,6.1S120.5,66.2,119.5,64.5Zm.8-.5c.8,1.3,1.8,1.9,2.8,1.3s1.4-3.3.5-4.8-1.8-1.9-2.8-1.3S119.4,62.4,120.3,64Z"/><path class="a" d="M125.1,56l.8-.4,1.1,3.8h0l1.7-5.2.9-.5-1.2,4,3.8,3.5-.9.4-3.3-3.1-.7,2.2.7,2.6-.8.4Z"/><path class="a" d="M131.3,52.9l3.9-1.8.2.8-3.1,1.4.6,2.5,2.6-1.2.2.8-2.6,1.2.7,2.9,3.2-1.5.2.8-4,1.9Z"/><path class="a" d="M137,50.4l.9-.4,3.6,4,1.1,1.3h0c-.2-.8-.5-1.6-.6-2.4l-.8-4.2.8-.3,1.6,7.8-.9.4-3.6-3.9L138,51.2h0c.2.8.4,1.6.6,2.4l.8,4.2-.8.3Z"/><path class="a" d="M145.1,53.7a2.4,2.4,0,0,0,2.3.3,1.5,1.5,0,0,0,1.1-2c-.2-.5-.7-.7-1.4-.9l-1-.2a2.1,2.1,0,0,1-1.8-1.3,2.3,2.3,0,0,1,1.5-2.9,2.8,2.8,0,0,1,2.5.3l-.4.7a2.2,2.2,0,0,0-1.9-.2,1.3,1.3,0,0,0-.9,1.7c.2.6.7.7,1.4.9l1,.2a2,2,0,0,1,1.7,1.3,2.5,2.5,0,0,1-1.7,3.2,3,3,0,0,1-2.9-.4Z"/><path class="a" d="M251.6,344.8l-2.8-4.1.9-.3,1.3,2,.9,1.5h0l.4-2,.7-2.6.9-.3-1.5,5.6.4,3.1-.9.3Z"/><path class="a" d="M254.8,338.6l.9-.3.8,4.5a4.7,4.7,0,0,0,.3.9c.4,1,1.1,1.4,2.1,1s1.3-1.2,1-2.9l-.9-4.8.8-.3.9,4.9c.4,2.3-.3,3.5-1.6,4a2.2,2.2,0,0,1-3.2-1.4,6.5,6.5,0,0,1-.3-1.1Z"/><path class="a" d="M261.5,335.8l2-.9c1.3-.6,2.5-.5,3,.7s-.2,3.1-2,3.9l-1.1.5.7,3.1-.8.4Zm2.8,3c1.5-.7,2-1.6,1.5-2.8s-1.1-.9-2.1-.4l-1.1.5.7,3.2Z"/><path class="a" d="M267.4,333l.8-.4,2.1,7.7-.8.4Z"/><path class="a" d="M270,331.7l3.8-2,.2.8-3,1.6.7,2.5,2.5-1.4.2.8-2.5,1.3.8,2.9,3.1-1.6.2.8-3.9,2.1Z"/><path class="a" d="M278.7,327.7l-1.9,1.2-.3-.8,4.7-2.8.3.8-2,1.2,2.4,6.7-.8.5Z"/><path class="a" d="M283.5,329.3c-1.3-2-1.4-4.9.5-6.1s3-.4,4.1,1.2,1.4,4.9-.5,6.1S284.6,330.9,283.5,329.3Zm.7-.6c.8,1.3,1.9,1.8,2.9,1.1s1.2-3.3.1-4.9-1.9-1.8-2.9-1.1S283.3,327.2,284.3,328.7Z"/><path class="a" d="M288.1,320.5l.7-.6,1.7,3.6h0l.9-5.4.8-.6-.6,4.2,4.3,2.8-.8.6-3.7-2.5-.4,2.3,1.1,2.4-.7.6Z"/><path class="a" d="M293.3,316.5l3.4-2.7.4.7-2.6,2.1,1.2,2.3,2.2-1.8.4.7-2.2,1.8,1.4,2.7,2.7-2.2.4.7-3.4,2.8Z"/><path class="a" d="M297.9,312.8l.7-.6,4.7,2.6,1.5.9h0l-1.4-2.1-2.1-3.7.7-.6,4,6.9-.7.6-4.6-2.6-1.5-.9h0l1.4,2.1,2.2,3.7-.7.6Z"/><path class="a" d="M306.6,313a2.4,2.4,0,0,0,2.2-.6,1.5,1.5,0,0,0,.2-2.2,1.6,1.6,0,0,0-1.6-.2l-1,.2a2.1,2.1,0,0,1-2.1-.5,2.3,2.3,0,0,1,.2-3.3,2.8,2.8,0,0,1,2.4-.8v.8a2.2,2.2,0,0,0-1.8.6,1.3,1.3,0,0,0-.1,1.9c.4.4,1,.4,1.6.2l1-.2a2,2,0,0,1,2.1.5,2.5,2.5,0,0,1-.3,3.6,3,3,0,0,1-2.8.8Z"/><g class="b"><circle class="a" cx="152.1" cy="48" r="1.2" transform="translate(-7.4 49.4) rotate(-18)"/><path class="a" d="M155.8,46.8a1.2,1.2,0,1,1,1.5.8A1.2,1.2,0,0,1,155.8,46.8Z"/><circle class="a" cx="161.9" cy="45.1" r="1.2" transform="translate(-6.1 41.4) rotate(-14.3)"/><circle class="a" cx="166.8" cy="44" r="1.2" transform="translate(-5.5 36.8) rotate(-12.4)"/><path class="a" d="M170.6,43.2a1.2,1.2,0,1,1,1.4,1A1.2,1.2,0,0,1,170.6,43.2Z"/><circle class="a" cx="176.9" cy="42.1" r="1.2" transform="translate(-4.3 27.2) rotate(-8.7)"/><circle class="a" cx="181.9" cy="41.4" r="1.2" transform="translate(-3.6 21.8) rotate(-6.8)"/><path class="a" d="M185.7,41a1.2,1.2,0,1,1,1.3,1.1A1.2,1.2,0,0,1,185.7,41Z"/><circle class="a" cx="192" cy="40.5" r="1.2" transform="translate(-1.9 10.4) rotate(-3.1)"/></g><g class="c"><path d="M14.4,223.5h2.2v5a4.3,4.3,0,0,1,2.7-1.2c2.4,0,3.7,1.9,3.7,4.8s-1.9,5.1-4,5.1a3.8,3.8,0,0,1-2.6-1.2h-.1l-.2,1H14.4Zm4.1,11.9c1.2,0,2.2-1.1,2.2-3.2s-.6-3-2-3a3,3,0,0,0-2.1,1.1v4.4A2.9,2.9,0,0,0,18.5,235.4Z"/><path d="M25.1,227.6h2.2v5.6c0,1.5.4,2.1,1.5,2.1s1.4-.4,2.1-1.3v-6.4H33V237H31.2l-.2-1.4H31a3.8,3.8,0,0,1-3,1.6c-2,0-2.9-1.4-2.9-3.7Z"/><path d="M35.9,234.5a4.2,4.2,0,0,0,2.6,1.1c1,0,1.5-.5,1.5-1.1s-1-1.1-2-1.5-2.6-1.2-2.6-2.7,1.3-2.8,3.4-2.8a5.1,5.1,0,0,1,3.1,1.1l-1,1.3a3.5,3.5,0,0,0-2.1-.8c-.9,0-1.4.4-1.4,1s.9,1,2,1.4,2.7,1.1,2.7,2.8-1.3,2.9-3.7,2.9a5.9,5.9,0,0,1-3.6-1.3Z"/><path d="M43.8,224.8a1.4,1.4,0,1,1,1.4,1.2A1.3,1.3,0,0,1,43.8,224.8Zm.2,2.9h2.2V237H44Z"/><path d="M49,227.6h1.8l.2,1.3h.1a4.4,4.4,0,0,1,3.1-1.5c2,0,2.9,1.4,2.9,3.7V237H54.8v-5.6c0-1.5-.4-2.1-1.5-2.1a3,3,0,0,0-2.1,1.2V237H49Z"/><path d="M63.4,227.4c2.5,0,3.9,1.8,3.9,4.5a4.7,4.7,0,0,1-.1,1h-6a2.7,2.7,0,0,0,2.8,2.7,3.9,3.9,0,0,0,2.2-.7l.7,1.4a5.9,5.9,0,0,1-3.2,1c-2.6,0-4.6-1.8-4.6-4.9S61.2,227.4,63.4,227.4Zm2,4.1c0-1.5-.6-2.4-1.9-2.4s-2.1.8-2.3,2.4Z"/><path d="M69.5,234.5a4.2,4.2,0,0,0,2.6,1.1c1,0,1.5-.5,1.5-1.1s-1-1.1-2-1.5-2.6-1.2-2.6-2.7,1.3-2.8,3.4-2.8a5.1,5.1,0,0,1,3.1,1.1l-1,1.3a3.5,3.5,0,0,0-2.1-.8c-.9,0-1.4.4-1.4,1s.9,1,2,1.4,2.7,1.1,2.7,2.8-1.3,2.9-3.7,2.9a5.9,5.9,0,0,1-3.6-1.3Z"/><path d="M77.8,234.5a4.2,4.2,0,0,0,2.6,1.1c1,0,1.5-.5,1.5-1.1s-1-1.1-2-1.5-2.6-1.2-2.6-2.7,1.3-2.8,3.4-2.8a5.1,5.1,0,0,1,3.1,1.1l-1,1.3a3.5,3.5,0,0,0-2.1-.8c-.9,0-1.4.4-1.4,1s.9,1,2,1.4,2.7,1.1,2.7,2.8-1.3,2.9-3.7,2.9a5.9,5.9,0,0,1-3.6-1.3Z"/><path d="M89.6,227.4c2.5,0,3.9,1.8,3.9,4.5a4.7,4.7,0,0,1-.1,1h-6a2.7,2.7,0,0,0,2.8,2.7,3.9,3.9,0,0,0,2.2-.7l.7,1.4a5.9,5.9,0,0,1-3.2,1c-2.6,0-4.6-1.8-4.6-4.9S87.4,227.4,89.6,227.4Zm2,4.1c0-1.5-.6-2.4-1.9-2.4s-2.1.8-2.3,2.4Z"/><path d="M95.7,234.5a4.2,4.2,0,0,0,2.6,1.1c1,0,1.5-.5,1.5-1.1s-1-1.1-2-1.5-2.6-1.2-2.6-2.7,1.3-2.8,3.4-2.8a5.1,5.1,0,0,1,3.1,1.1l-1,1.3a3.5,3.5,0,0,0-2.1-.8c-.9,0-1.4.4-1.4,1s.9,1,2,1.4,2.7,1.1,2.7,2.8-1.3,2.9-3.7,2.9a5.9,5.9,0,0,1-3.6-1.3Z"/></g><g class="c"><path class="d" d="M305.8,234.5a4.2,4.2,0,0,0,2.6,1.1c1,0,1.5-.5,1.5-1.1s-1-1.1-2-1.5-2.6-1.2-2.6-2.7,1.3-2.8,3.4-2.8a5.1,5.1,0,0,1,3.1,1.1l-1,1.3a3.5,3.5,0,0,0-2.1-.8c-.9,0-1.4.4-1.4,1s.9,1,2,1.4,2.7,1.1,2.7,2.8-1.3,2.9-3.7,2.9a5.9,5.9,0,0,1-3.6-1.3Z"/><path class="d" d="M313.8,227.6H316v5.6c0,1.5.4,2.1,1.5,2.1s1.4-.4,2.1-1.3v-6.4h2.2V237H320l-.2-1.4h-.1a3.8,3.8,0,0,1-3,1.6c-2,0-2.9-1.4-2.9-3.7Z"/><path class="d" d="M326.7,237.8v2.9h-2.2V227.6h1.8l.2,1h.1a4.6,4.6,0,0,1,2.8-1.2c2.3,0,3.7,1.9,3.7,4.8s-1.9,5.1-4,5.1a3.8,3.8,0,0,1-2.4-1Zm1.9-2.4c1.2,0,2.2-1.1,2.2-3.2s-.6-3-2-3a3,3,0,0,0-2.1,1.1v4.4A3,3,0,0,0,328.6,235.4Z"/><path class="d" d="M337.5,237.8v2.9h-2.2V227.6h1.8l.2,1h.1a4.6,4.6,0,0,1,2.8-1.2c2.3,0,3.7,1.9,3.7,4.8s-1.9,5.1-4,5.1a3.8,3.8,0,0,1-2.4-1Zm1.9-2.4c1.2,0,2.2-1.1,2.2-3.2s-.6-3-2-3a3,3,0,0,0-2.1,1.1v4.4A3,3,0,0,0,339.4,235.4Z"/><path class="d" d="M349.9,227.4c2.4,0,4.5,1.8,4.5,4.9s-2.1,4.9-4.5,4.9-4.5-1.8-4.5-4.9S347.6,227.4,349.9,227.4Zm0,8c1.4,0,2.2-1.2,2.2-3.1s-.8-3.1-2.2-3.1-2.2,1.2-2.2,3.1S348.6,235.5,349.9,235.5Z"/><path class="d" d="M356.6,227.6h1.8l.2,1.7h.1a3.2,3.2,0,0,1,2.7-1.9l1.1.2-.4,1.9-1-.2c-.7,0-1.6.5-2.2,1.9V237h-2.2Z"/><path class="d" d="M364.1,229.4h-1.3v-1.6h1.5l.3-2.6h1.8v2.6h2.4v1.7h-2.4v4.5c0,1.1.4,1.6,1.3,1.6l1-.2.4,1.6a6,6,0,0,1-1.9.3c-2.2,0-3-1.4-3-3.4Z"/><path class="d" d="M374.1,227.4c2.5,0,3.9,1.8,3.9,4.5a4.7,4.7,0,0,1-.1,1h-6a2.7,2.7,0,0,0,2.8,2.7,3.9,3.9,0,0,0,2.2-.7l.7,1.4a5.9,5.9,0,0,1-3.2,1c-2.6,0-4.6-1.8-4.6-4.9S371.9,227.4,374.1,227.4Zm2,4.1c0-1.5-.6-2.4-1.9-2.4s-2.1.8-2.3,2.4Z"/><path class="d" d="M380.1,227.6h1.8l.2,1.7h.1a3.2,3.2,0,0,1,2.7-1.9l1.1.2-.4,1.9-1-.2c-.7,0-1.6.5-2.2,1.9V237h-2.2Z"/><path class="d" d="M387.2,234.5a4.2,4.2,0,0,0,2.6,1.1c1,0,1.5-.5,1.5-1.1s-1-1.1-2-1.5-2.6-1.2-2.6-2.7,1.3-2.8,3.4-2.8a5.1,5.1,0,0,1,3.1,1.1l-1,1.3a3.5,3.5,0,0,0-2.1-.8c-.9,0-1.4.4-1.4,1s.9,1,2,1.4,2.7,1.1,2.7,2.8-1.3,2.9-3.7,2.9a5.9,5.9,0,0,1-3.6-1.3Z"/></g><ellipse class="e" cx="334" cy="151.5" rx="8.7" ry="11.5"/><path class="f" d="M372.5,141.7c0,6.4-3.9,11.5-8.7,11.5s-8.7-5.2-8.7-11.5,3.9-11.5,8.7-11.5S372.5,135.3,372.5,141.7Zm-14.8-8.2.5-.6a12.9,12.9,0,0,0,4.1,5.2c2.9,2.2,10.2,4.7,10.2,4.7"/><path class="g" d="M312.1,199.1a22.3,22.3,0,1,1,44.6,0"/><path class="h" d="M341.5,188.4a22.3,22.3,0,1,1,44.6,0"/><circle class="a" cx="349" cy="195.2" r="2.9"/><circle class="i" cx="379" cy="184.5" r="2.9"/><circle class="i" cx="369.3" cy="184.5" r="2.9"/><line class="j" x1="323" y1="107.9" x2="330.7" y2="109.6"/><line class="j" x1="333.5" y1="102.3" x2="330.7" y2="109.6"/><line class="j" x1="323" y1="107.9" x2="330.7" y2="109.6"/><line class="j" x1="333.5" y1="102.3" x2="330.7" y2="109.6"/><line class="j" x1="75.4" y1="276.4" x2="68.4" y2="272.7"/><line class="j" x1="63.8" y1="279.1" x2="68.4" y2="272.7"/><line class="j" x1="75.4" y1="276.4" x2="68.4" y2="272.7"/><line class="j" x1="63.8" y1="279.1" x2="68.4" y2="272.7"/><line class="j" x1="183.9" y1="344.4" x2="176.7" y2="347.5"/><line class="j" x1="178.7" y1="355.1" x2="176.7" y2="347.5"/><line class="j" x1="183.9" y1="344.4" x2="176.7" y2="347.5"/><line class="j" x1="178.7" y1="355.1" x2="176.7" y2="347.5"/><g class="b"><circle class="a" cx="242.4" cy="345.8" r="1.2" transform="translate(-85.1 79.3) rotate(-15.8)"/><circle class="a" cx="237.2" cy="347.2" r="1.2" transform="translate(-75.9 66.5) rotate(-13.8)"/><circle class="a" cx="232" cy="348.4" r="1.2" transform="translate(-66.1 54.5) rotate(-11.7)"/><circle class="a" cx="226.7" cy="349.4" r="1.2" transform="translate(-55.6 43.2) rotate(-9.7)"/></g><g class="b"><path class="a" d="M340.8,258.3a1.2,1.2,0,1,1-1.6.7A1.2,1.2,0,0,1,340.8,258.3Z"/><circle class="a" cx="338.3" cy="264" r="1.2" transform="translate(-43.7 459.6) rotate(-65.1)"/><path class="a" d="M336.7,267.5a1.2,1.2,0,0,1,.5,1.6,1.2,1.2,0,0,1-1.6.5,1.2,1.2,0,0,1-.5-1.6A1.2,1.2,0,0,1,336.7,267.5Z"/><path class="a" d="M334.4,271.9a1.2,1.2,0,0,1,.5,1.7,1.2,1.2,0,0,1-2.1-1.2A1.2,1.2,0,0,1,334.4,271.9Z"/><circle class="a" cx="331.4" cy="277.4" r="1.2" transform="translate(-75.4 423.1) rotate(-59.6)"/><path class="a" d="M329.4,280.6a1.2,1.2,0,1,1-1.3,2.1,1.2,1.2,0,0,1,1.3-2.1Z"/><circle class="a" cx="326" cy="285.8" r="1.2" transform="translate(-94.1 393) rotate(-55.6)"/><path class="a" d="M323.8,288.9a1.2,1.2,0,0,1,.3,1.7,1.2,1.2,0,0,1-1.7.3,1.2,1.2,0,0,1-.3-1.7A1.2,1.2,0,0,1,323.8,288.9Z"/><path class="a" d="M320.8,293a1.2,1.2,0,0,1,.2,1.7,1.2,1.2,0,1,1-.2-1.7Z"/><circle class="a" cx="316.9" cy="297.8" r="1.2" transform="translate(-114.8 349.9) rotate(-50.1)"/><path class="a" d="M314.4,300.7a1.2,1.2,0,1,1-1.7.1A1.2,1.2,0,0,1,314.4,300.7Z"/></g><g class="b"><circle class="a" cx="72.4" cy="107.1" r="1.2" transform="translate(-56.9 105.2) rotate(-55.1)"/><path class="a" d="M74.9,103.5a1.2,1.2,0,1,1,1.7-.2A1.2,1.2,0,0,1,74.9,103.5Z"/><path class="a" d="M78.3,99.1a1.2,1.2,0,1,1,1.7-.2A1.2,1.2,0,0,1,78.3,99.1Z"/><path class="a" d="M81.8,94.8a1.2,1.2,0,1,1,1.7-.1A1.2,1.2,0,0,1,81.8,94.8Z"/><path class="a" d="M85.5,90.7a1.2,1.2,0,1,1,1.7-.1A1.2,1.2,0,0,1,85.5,90.7Z"/></g><rect class="k" x="24.8" y="149.7" width="70.5" height="49.58" rx="2" ry="2"/><path class="k" d="M52,149.1v-3.5c0-.7,1.1-1.3,2.4-1.3H65.7c1.3,0,2.4.6,2.4,1.3v3.5"/><line class="k" x1="24.2" y1="168.3" x2="95.9" y2="168.3"/><line class="e" x1="43.9" y1="168.3" x2="43.9" y2="173.6"/><line class="e" x1="47.5" y1="168.3" x2="47.5" y2="173.6"/><line class="e" x1="76.2" y1="168.3" x2="76.2" y2="173.6"/><line class="e" x1="72.6" y1="168.3" x2="72.6" y2="173.6"/></svg>