<svg xmlns="http://www.w3.org/2000/svg" viewBox="0 0 400 400"><defs><style>.a{isolation:isolate;}.b{fill:#010101;}.c{fill:#e73936;}.d,.e,.f,.g,.k{fill:none;stroke:#010101;stroke-width:2px;}.d,.e,.f,.g{stroke-linecap:round;}.d,.e,.k{stroke-miterlimit:10;}.e,.g,.i,.j{opacity:0.5;}.f,.g{stroke-linejoin:round;}.h,.i{fill:#e84146;}</style></defs><title>chinese_diagram</title><g class="a"><path class="b" d="M44.5,220l-.6.7a17.5,17.5,0,0,0,7.7,5.3L50,228.5a23.7,23.7,0,0,1-7.7-5.9,24.1,24.1,0,0,1-7.8,6.2l-1.6-2.4a19.1,19.1,0,0,0,8.2-6.4ZM33.6,235.2h2.7V228H39v7.2h2.7v-9.4h2.7v3.6h4.7v2.4H44.4v3.4h6.5v2.4H33.6Z"/><path class="b" d="M57.4,220.3h2.7V235h2.4V220.3h2.7v10.1a66.7,66.7,0,0,0,3-7l2.4,1q-1.4,3.5-3.4,7.7l-2-.9V235h5.4v2.6H52.2V235h5.3v-3.7l-2.1.9q-1.5-4.3-3.1-8l2.2-1q1.6,3.6,2.9,7Z"/></g><g class="a"><path class="b" d="M331.2,226.7v2.2a17.4,17.4,0,0,1-4.2,5.1,21.4,21.4,0,0,0,6.6,1.6q-.8,1.3-1.5,2.7a20,20,0,0,1-7.6-2.6,23.6,23.6,0,0,1-7.8,2.7,22.2,22.2,0,0,0-1.5-2.6,22.6,22.6,0,0,0,6.9-1.9,21.2,21.2,0,0,1-3.6-4l1.7-1h-2.9v-2.3h5.9v-2.1h-7.3v-2.3h7.3v-2.4H326v2.4h7.3v2.3H326v2.1Zm-6.7,5.9A13.4,13.4,0,0,0,328,229h-7.1A14.3,14.3,0,0,0,324.6,232.6Z"/><path class="b" d="M334.5,223.3h1.9v-3.2h2.6v3.2h1.7v2.3h-1.7v2.9l1.4-.3q0,.8.1,2.5l-1.5.3v4.8a2.8,2.8,0,0,1-.4,1.7,1.8,1.8,0,0,1-1.3.7H335l-.5-2.5h1.4q.5,0,.5-.7v-3.6l-1.9.4v-2.7l2-.3v-3.3h-1.9Zm6.2,2.7h4.7v-1.5h-3.7v-2.2h3.7v-2.1H348v2.1h3.8v2.2H348V226h5v2.2H340.7Zm.9,6.9,1.2-.9h-2v-2.2H348v-1.2h2.6v1.2h2.2V232h-2.2v2.9a3.8,3.8,0,0,1-.7,2.4,2.5,2.5,0,0,1-1.8,1h-3.3q-.2-1.3-.5-2.4h2.4q1.3,0,1.3-1.5V232h-4.2l2,2.3-2,1.4Z"/><path class="b" d="M353.7,225.2h6.4v-1.4h-4.9v-2.2h4.9v-1.7h2.5v1.7h4.5v2a28.3,28.3,0,0,0,2.4-2.8l1.9,1.4a30.1,30.1,0,0,1-2.8,2.9h3.4v2.2h-6.2l-2.4,1.4h6.5v9.6h-2.5v-.8h-8.7v.8h-2.5v-6.7l-2,.6a22.7,22.7,0,0,0-.8-2.3,32.9,32.9,0,0,0,8.4-2.5h-8.3Zm13.8,5.7h-8.7v1.3h8.7Zm-8.7,4.6h8.7v-1.3h-8.7Zm8.1-11.8h-4.3v1.4h2.7Z"/></g><g class="a"><path class="b" d="M101.6,342.1l2-.6v-3h-1.8v-1h1.8v-2.7h1v2.7h1.7v1h-1.7v2.7l1.4-.5q0,.4,0,1.1l-1.5.5v4.3q0,1.5-1.3,1.5h-1.3l-.2-1.2H103q.6,0,.6-.7v-3.7l-1.9.6Zm5.2-.1v-1h7v.9a10,10,0,0,1-2.6,3.6,11,11,0,0,0,4.1,1.4l-.7,1a11.2,11.2,0,0,1-4.3-1.8,13,13,0,0,1-4.4,1.9l-.6-1a12.4,12.4,0,0,0,4.2-1.6,8.1,8.1,0,0,1-2.1-3.6Zm6.9-3h1.5l-.2,1h-1.4q-1.6,0-1.6-1.5v-2.1h-3v.5a4.3,4.3,0,0,1-2.1,3.9l-.7-.8a3.3,3.3,0,0,0,1.8-3.1v-1.5h5.1v3Q112.9,339,113.6,339Zm-1,3h-4.3a6.4,6.4,0,0,0,2,3A8.3,8.3,0,0,0,112.6,342Z"/><path class="b" d="M119.2,337.8l.5,1-3.4,2.6-.7-.9Zm3.7,5.1a10.6,10.6,0,0,1-.2,2.3l5.9,2.1-.6,1-5.8-2.2q-.9,1.6-5.8,2.3l-.6-1.1q4.5-.4,5.5-1.7a4.7,4.7,0,0,0,.5-2.7Zm-6.2-8,2.3,1.5-.7.8-2.2-1.6Zm.9,6.6h9.5v4.5H126v-3.5h-7.4v3.5h-1.1Zm1.8-1q4.1-1.1,4.4-3.6h-2.2a11.3,11.3,0,0,1-1.1,1.8l-.9-.6a8.9,8.9,0,0,0,1.8-3.5l1,.2L122,336h6.5v.9l-.9,1.9-1-.4.7-1.4h-2.4l-.2.8a6.6,6.6,0,0,0,4.4,2.7l-.7,1a7.7,7.7,0,0,1-4.2-2.7q-.9,1.6-4.1,2.7Z"/></g><g class="a"><path class="c" d="M262.2,322.3l-3.5,6.7v3.9h-1.4V329l-3.4-6.7h1.6l2.3,4.7.3.7h0l.3-.7,2.4-4.7Z"/><path class="c" d="M271.5,328.5q0,4.5-4.1,4.5t-3.9-4.3v-6.4h1.4v6.4q0,3.2,2.7,3.2t2.6-3.1v-6.5h1.4Z"/><path class="c" d="M275.5,328.9v4h-1.4V322.3h3a3.9,3.9,0,0,1,2.7.8,3,3,0,0,1,.9,2.4,3.2,3.2,0,0,1-1.1,2.5,3.9,3.9,0,0,1-2.8.9Zm0-5.4v4.2h1.3a2.8,2.8,0,0,0,1.9-.6,2,2,0,0,0,.7-1.6q0-2-2.4-2Z"/><path class="c" d="M285.1,323.4h-1v8.3h1v1.2h-3.4v-1.2h1v-8.3h-1v-1.2h3.4Z"/><path class="c" d="M292.5,332.9h-5.7V322.3h5.5v1.2h-4.1v3.4H292v1.2h-3.8v3.6h4.3Z"/><path class="c" d="M297.4,327.8a23.5,23.5,0,0,0,3.4-6.6l1.1.4q-.6,1.6-1.3,3v10.1h-1.1v-8a21.1,21.1,0,0,1-1.6,2.4Zm4-1.8,3.2-.4q-.2-1.7-.2-4.3h1.2a40.3,40.3,0,0,0,.2,4.2l5-.5v1l-5,.6q.8,5.7,3,6.8.6.2.8-.4a18.8,18.8,0,0,0,.4-2.2l1.1.4a20.3,20.3,0,0,1-.5,2.4,1.4,1.4,0,0,1-1.5,1.2,3.1,3.1,0,0,1-2.2-1.4q-1.6-1.8-2.2-6.6l-3.2.3Zm5.5-3.6.7-.7,2.5,2-.8.8Z"/><path class="c" d="M314,333.1h-1.1v-7.5h4.8v-2.5l-5.4.2-.2-1q7-.1,12.2-.5l.2,1-5.6.3v2.5h4.9v5.6a1.6,1.6,0,0,1-1.8,1.7h-1.8l-.2-1.1h1.8q.9,0,.9-.8v-4.5h-3.8v8h-1.1v-8H314Z"/></g><g class="a"><path class="c" d="M73.6,62.6l-3.5,6.7v3.9H68.7V69.3l-3.4-6.7h1.6l2.3,4.7.3.7h0l.3-.7,2.4-4.7Z"/><path class="c" d="M82.8,68.9q0,4.5-4.1,4.5T74.9,69V62.6h1.4V69q0,3.2,2.7,3.2t2.6-3.1V62.6h1.4Z"/><path class="c" d="M86.8,69.2v4H85.5V62.6h3a3.9,3.9,0,0,1,2.7.8,3,3,0,0,1,.9,2.4A3.2,3.2,0,0,1,91,68.3a3.9,3.9,0,0,1-2.8.9Zm0-5.4V68h1.3a2.8,2.8,0,0,0,1.9-.6,2,2,0,0,0,.6-1.6q0-2-2.4-2Z"/><path class="c" d="M96.4,63.8h-1V72h1v1.2H93V72h1V63.8H93V62.6h3.4Z"/><path class="c" d="M103.8,73.2H98.1V62.6h5.5v1.2H99.5v3.4h3.8v1.2H99.5V72h4.3Z"/><path class="c" d="M108.7,68.1a23.5,23.5,0,0,0,3.4-6.6l1.1.4q-.6,1.6-1.3,3V75h-1.1V67a21.3,21.3,0,0,1-1.6,2.4Zm4-1.8,3.2-.4q-.2-1.7-.2-4.3h1.2a40.3,40.3,0,0,0,.2,4.2l5-.5v1l-5,.6q.8,5.7,3,6.8.6.2.8-.4a19.2,19.2,0,0,0,.4-2.2l1.1.4a20.3,20.3,0,0,1-.5,2.4,1.4,1.4,0,0,1-1.5,1.2,3.1,3.1,0,0,1-2.2-1.4q-1.6-1.8-2.2-6.6l-3.2.3Zm5.5-3.6.7-.7,2.5,2-.8.8Z"/><path class="c" d="M125.3,73.5h-1.1V66H129V63.5l-5.4.2-.2-1q7-.1,12.2-.5l.2,1-5.6.3V66H135v5.6a1.6,1.6,0,0,1-1.8,1.7h-1.8l-.2-1.1h1.8q.9,0,.9-.8V67h-3.8v8H129V67h-3.7Z"/></g><g class="a"><path class="b" d="M63,312.2h1V315a17.7,17.7,0,0,1-.4,4.1l.4-.4,2.4,2.6-.9.7-2.1-2.5a7.4,7.4,0,0,1-2.4,3.2l-.7-.8a5.9,5.9,0,0,0,2.1-2.5,11.1,11.1,0,0,0,.5-4ZM61.1,310h4.6V314a15.6,15.6,0,0,0,2-4.7l1.1.2-.7,1.9h5.2q-.1,6.6-.2,8.8a2.1,2.1,0,0,1-2.3,2.2H68.5l-.2-1.1,2.4.2a1.4,1.4,0,0,0,1.5-1.4q.1-2.3.1-7.6H67.8l-1.1,2.2-1-.5v4.5h-1V311H62.1v7.6h-1Zm8.3,5.6.9-.3q.6,2,1.2,4.1l-1,.3-.2-.8-2.6.2-1.2.2-.4-.9a1.8,1.8,0,0,0,.7-.8,34.4,34.4,0,0,0,1.4-4.4l1,.2q-.8,2.5-1.6,4.7l2.5-.2Z"/><path class="b" d="M74.8,321.8q4.7-.9,6.2-3.5H74.6v-1h7q.4-1,.5-5.6h1.1a27.1,27.1,0,0,1-.4,5.6h5.2v1H82.3l-.2.5q2.2,1.1,5.6,3l-.6,1a62.8,62.8,0,0,0-5.5-3.2,10.8,10.8,0,0,1-6,3.3Zm.3-10.7v-1H87.3v.9a21.9,21.9,0,0,1-1.5,3l-1-.4a17,17,0,0,0,1.3-2.5Zm.6,3.5.6-.7,3.2,2.1-.6.8Zm1.4-2.2.6-.7,3.1,2-.6.9Z"/><path class="b" d="M89.8,314.7h6.5q.9-1.4,1.7-2.7l1.1.7-1.5,2h4v1H90.9v1a13.1,13.1,0,0,1-.4,3.6,6.2,6.2,0,0,1-1.4,2.5l-.7-.9a4.8,4.8,0,0,0,1.1-2,12.3,12.3,0,0,0,.3-3.1Zm-1.1-3.9h6.2l-.7-1.1,1-.5.9,1.7h5.7v1H88.7Zm2.9,1.8.9-.6,1.5,2-1,.7Z"/><path class="b" d="M103.1,316.4h5.2v6.3h-1v-.9h-3.1v.9h-1Zm4.2,1h-3.1v3.5h3.1Zm-2.8-7.5h9.4v5.4h-1.1v-.4h-7.2v.4h-1.1Zm8.3,1h-7.2v3.1h7.2Zm-2.8,5.6h5.2v6.3h-1v-.9h-3.1v.9h-1Zm4.2,1h-3.1v3.5h3.1Z"/></g><g class="a"><path class="b" d="M263.5,61.6h1.1v7.8h-1.1V66.8l-3.3,1.5-.4-1.1,3.6-1.5Zm10,12.2-.8,1.1a8.2,8.2,0,0,1-6-3.6q-1.4,2.9-6.1,3.8l-.7-1q4.5-.7,5.7-3h-5.4v-.9H266l.3-.9h1.1l-.2.9h6.1v.9h-5.6Q269.5,73.6,273.5,73.8ZM260.3,63.2l.7-.7,2,1.8-.8.7Zm4.6,2.3a9.1,9.1,0,0,0,2.6-3.9l1,.2L268,63h4.8v.8q-1.8,4.2-7,5.3a4.4,4.4,0,0,0-.6-1,10.4,10.4,0,0,0,3.4-1.1l-1.8-1.5.7-.7,2,1.6a6.9,6.9,0,0,0,2.1-2.6h-4.1a10.2,10.2,0,0,1-1.8,2.3Z"/><path class="b" d="M276,63.4v5q0,4.4-1.2,6.5l-.8-.7q1.1-1.8,1.1-5.8v-6h6.7v1Zm.4,1.6h5.1v1h-3q0,1.1,0,2h2.6q-.1,3.5-.2,5t-1.5,1.6h-1.2l-.2-1h1.1q.8,0,.8-.9t.2-3.8h-1.7q-.1,1.3-.2,2a7.7,7.7,0,0,1-1.7,4.1l-.7-.8a6.5,6.5,0,0,0,1.4-3.4,43.9,43.9,0,0,0,.2-4.8h-1.2Zm5.5-.6h1.2c0-1,0-1.9,0-2.8h1v2.8h2.8q-.2,6.1-.2,8.1T285,74.7h-1.6q-.1-.6-.2-1.2h1.6q.8,0,.8-1t.2-7.1h-1.8v1.8q-.1,5.2-2.5,7.8l-.7-.9a10.2,10.2,0,0,0,2.2-6.7v-2h-1.2Z"/><path class="b" d="M294.1,68.7h1.1a9.9,9.9,0,0,1-.3,2.8l6.3,2.6-.6,1q-3.2-1.5-6.1-2.7-1.3,2-5.8,2.7l-.6-1q4.5-.7,5.5-2.3A5.8,5.8,0,0,0,294.1,68.7Zm-6-3.7h6.1V63.3h-4.7v-1h10.4v1h-4.6V65h6v1H288.1Zm1.5,2.1h10.2V72h-1.1V68.1h-8v4h-1.1Z"/><path class="b" d="M303.5,75h-1V65.8h2.9V64.3h-3.3v-.9h3.3V61.6h1v1.8h3.2v.9h-3.2v1.5h2.9v7.7q0,1.5-1.4,1.5h-1.1l-.2-1h1.2q.5,0,.5-.7V66.7h-4.9Zm1.9-.6V71.7h-1.6v-.8h1.6V69.7H304v-.8h3.9v.8h-1.5v1.2H308v.8h-1.6v2.7Zm-1.4-7.2.7-.4.9,1.5-.7.4Zm2,1.2a9.4,9.4,0,0,0,.8-1.6l.8.3-.9,1.6Zm3.6-3.1h2.1q0-1.4,0-3.6h1q0,1.8,0,3.6h2.7v.9h-2.7q.8,5.6,2.6,8l-.8.8a14.5,14.5,0,0,1-2.1-5.8,11.6,11.6,0,0,1-2.3,5.8l-.8-.7q2.4-2.7,2.5-8.3h-2.1Zm3.5-2.5.7-.5,1.3,1.8-.8.5Z"/></g><ellipse class="d" cx="330.4" cy="159" rx="8.7" ry="11.5"/><path class="e" d="M368.9,149.2c0,6.4-3.9,11.5-8.7,11.5s-8.7-5.2-8.7-11.5,3.9-11.5,8.7-11.5S368.9,142.8,368.9,149.2ZM354,141m.5-.6a12.9,12.9,0,0,0,4.1,5.2c2.9,2.2,10.2,4.7,10.2,4.7"/><path class="f" d="M308.5,206.6a22.3,22.3,0,0,1,44.6,0"/><path class="g" d="M337.8,195.9a22.3,22.3,0,0,1,44.6,0"/><circle class="h" cx="345.3" cy="202.7" r="2.9"/><circle class="i" cx="375.4" cy="192" r="2.9"/><circle class="i" cx="365.7" cy="192" r="2.9"/><g class="j"><path class="h" d="M340.8,256.9a1.2,1.2,0,1,1-1.5.7A1.2,1.2,0,0,1,340.8,256.9Z"/><circle class="h" cx="338.7" cy="262.8" r="1.2" transform="translate(-29.4 482.4) rotate(-68.6)"/><path class="h" d="M337.3,266.3a1.2,1.2,0,0,1,.6,1.6,1.2,1.2,0,0,1-1.6.6,1.2,1.2,0,0,1-.6-1.6A1.2,1.2,0,0,1,337.3,266.3Z"/><path class="h" d="M335.3,270.9a1.2,1.2,0,0,1,.6,1.6,1.2,1.2,0,0,1-2.2-1A1.2,1.2,0,0,1,335.3,270.9Z"/><circle class="h" cx="332.5" cy="276.5" r="1.2" transform="translate(-64.2 448.6) rotate(-63.2)"/><path class="h" d="M330.8,279.8a1.2,1.2,0,1,1-1.2,2.1,1.2,1.2,0,0,1,1.2-2.1Z"/><circle class="h" cx="327.7" cy="285.3" r="1.2" transform="translate(-85.3 420.1) rotate(-59.1)"/><path class="h" d="M325.7,288.5a1.2,1.2,0,0,1,.4,1.7,1.2,1.2,0,0,1-1.7.4,1.2,1.2,0,0,1-.4-1.7A1.2,1.2,0,0,1,325.7,288.5Z"/><path class="h" d="M323,292.7a1.2,1.2,0,0,1,.3,1.7,1.2,1.2,0,1,1-.3-1.7Z"/><circle class="h" cx="319.4" cy="297.8" r="1.2" transform="translate(-109.8 378.5) rotate(-53.6)"/><path class="h" d="M317.1,300.8a1.2,1.2,0,1,1-1.7.2A1.2,1.2,0,0,1,317.1,300.8Z"/></g><g class="j"><path class="h" d="M72.8,299.4a1.2,1.2,0,1,1,.2-1.7A1.2,1.2,0,0,1,72.8,299.4Z"/><circle class="h" cx="68.9" cy="294.6" r="1.2" transform="translate(-164.1 101.6) rotate(-37.2)"/><path class="h" d="M66.6,291.5a1.2,1.2,0,0,1-1.7-.3,1.2,1.2,0,0,1,.3-1.7,1.2,1.2,0,0,1,1.7.3A1.2,1.2,0,0,1,66.6,291.5Z"/><path class="h" d="M63.8,287.4a1.2,1.2,0,0,1-1.7-.3,1.2,1.2,0,1,1,1.7.3Z"/><circle class="h" cx="60.4" cy="282.2" r="1.2" transform="translate(-139.5 74.1) rotate(-31.8)"/><path class="h" d="M58.4,278.9a1.2,1.2,0,1,1-1.2-2.1,1.2,1.2,0,0,1,1.2,2.1Z"/><circle class="h" cx="55.4" cy="273.5" r="1.2" transform="translate(-120.7 57.1) rotate(-27.7)"/><path class="h" d="M53.7,270.1a1.2,1.2,0,0,1-1.6-.6,1.2,1.2,0,0,1,.6-1.6,1.2,1.2,0,0,1,1.6.6A1.2,1.2,0,0,1,53.7,270.1Z"/><path class="h" d="M51.5,265.6a1.2,1.2,0,0,1-1.6-.6,1.2,1.2,0,1,1,1.6.6Z"/><circle class="h" cx="49.1" cy="259.8" r="1.2" transform="translate(-94.6 37.9) rotate(-22.2)"/><path class="h" d="M47.7,256.3a1.2,1.2,0,1,1,.7-1.6A1.2,1.2,0,0,1,47.7,256.3Z"/></g><g class="j"><path class="h" d="M59.6,126.2a1.2,1.2,0,1,1,1.6-.5A1.2,1.2,0,0,1,59.6,126.2Z"/><circle class="h" cx="62.6" cy="120.8" r="1.2" transform="translate(-73.2 113) rotate(-59.3)"/><path class="h" d="M64.6,117.5a1.2,1.2,0,0,1-.4-1.7,1.2,1.2,0,0,1,1.7-.4,1.2,1.2,0,0,1,.4,1.7A1.2,1.2,0,0,1,64.6,117.5Z"/><path class="h" d="M67.3,113.3a1.2,1.2,0,0,1-.3-1.7,1.2,1.2,0,1,1,.3,1.7Z"/><circle class="h" cx="70.9" cy="108.2" r="1.2" transform="translate(-58.3 101.7) rotate(-53.9)"/><path class="h" d="M73.2,105.2a1.2,1.2,0,1,1,1.5-1.9,1.2,1.2,0,0,1-1.5,1.9Z"/><circle class="h" cx="77.1" cy="100.3" r="1.2" transform="translate(-49.3 94.5) rotate(-49.8)"/><path class="h" d="M79.6,97.5a1.2,1.2,0,0,1-.1-1.7,1.2,1.2,0,0,1,1.7-.1,1.2,1.2,0,0,1,.1,1.7A1.2,1.2,0,0,1,79.6,97.5Z"/><path class="h" d="M82.9,93.8a1.2,1.2,0,0,1,0-1.7,1.2,1.2,0,1,1,0,1.7Z"/><circle class="h" cx="87.3" cy="89.3" r="1.2" transform="translate(-37.6 86.5) rotate(-44.3)"/><path class="h" d="M90.1,86.7a1.2,1.2,0,1,1,1.7.1A1.2,1.2,0,0,1,90.1,86.7Z"/></g><g class="j"><path class="h" d="M296,84.8a1.2,1.2,0,1,1,.2,1.7A1.2,1.2,0,0,1,296,84.8Z"/><circle class="h" cx="300.7" cy="88.8" r="1.2" transform="translate(34.6 254.6) rotate(-48.4)"/><path class="h" d="M303.6,91.3a1.2,1.2,0,0,1,1.7-.1,1.2,1.2,0,0,1,0,1.7,1.2,1.2,0,0,1-1.7,0A1.2,1.2,0,0,1,303.6,91.3Z"/><path class="h" d="M307.2,94.8a1.2,1.2,0,0,1,1.7,0,1.2,1.2,0,1,1-1.7,0Z"/><circle class="h" cx="311.5" cy="99.3" r="1.2" transform="translate(15.8 238.7) rotate(-42.9)"/><path class="h" d="M314,102.1a1.2,1.2,0,1,1,1.6,1.8,1.2,1.2,0,0,1-1.6-1.8Z"/><circle class="h" cx="318.1" cy="106.9" r="1.2" transform="translate(3.3 223.2) rotate(-38.8)"/><path class="h" d="M320.4,109.9a1.2,1.2,0,0,1,1.7.2,1.2,1.2,0,0,1-.2,1.7,1.2,1.2,0,0,1-1.7-.2A1.2,1.2,0,0,1,320.4,109.9Z"/><path class="h" d="M323.4,113.9a1.2,1.2,0,0,1,1.7.3,1.2,1.2,0,1,1-1.7-.3Z"/><circle class="h" cx="326.9" cy="119" r="1.2" transform="translate(-11.6 199.5) rotate(-33.4)"/><path class="h" d="M329,122.2a1.2,1.2,0,1,1-.4,1.7A1.2,1.2,0,0,1,329,122.2Z"/></g><rect class="k" x="21.2" y="157.2" width="70.5" height="49.58" rx="2" ry="2"/><path class="k" d="M48.4,156.6v-3.5c0-.7,1.1-1.3,2.4-1.3H62.1c1.3,0,2.4.6,2.4,1.3v3.5"/><line class="k" x1="20.6" y1="175.8" x2="92.3" y2="175.8"/><line class="d" x1="40.3" y1="175.8" x2="40.3" y2="181.1"/><line class="d" x1="43.9" y1="175.8" x2="43.9" y2="181.1"/><line class="d" x1="72.6" y1="175.8" x2="72.6" y2="181.1"/><line class="d" x1="69" y1="175.8" x2="69" y2="181.1"/><g class="j"><path class="h" d="M242.9,61.3l5.6-3.2a.8.8,0,0,0-.8-1.3L242.2,60a.8.8,0,0,0,.8,1.3Z"/><path class="h" d="M245.2,51.5l2.3,6.2c.3.9,1.8.5,1.4-.4l-2.3-6.2c-.3-.9-1.8-.5-1.4.4Z"/></g><g class="j"><path class="h" d="M326,128.2l6.2,1.8a.8.8,0,0,0,.4-1.4l-6.2-1.8a.8.8,0,0,0-.4,1.4Z"/><path class="h" d="M334.6,123l-2.8,5.9c-.4.9.9,1.6,1.3.8l2.8-5.9c.4-.9-.9-1.6-1.3-.8Z"/></g><g class="j"><path class="h" d="M52.2,250.4l-5.8-2.8c-.9-.4-1.6.9-.8,1.3l5.8,2.8c.9.4,1.6-.9.8-1.3Z"/><path class="h" d="M42.9,253.9l3.8-5.4c.6-.8-.7-1.5-1.3-.8l-3.8,5.4c-.6.8.7,1.5,1.3.8Z"/></g><g class="j"><circle class="h" cx="149.8" cy="54" r="1.2" transform="translate(-8.5 37.1) rotate(-13.7)"/><circle class="h" cx="154.7" cy="52.9" r="1.2" transform="translate(-7.7 33.8) rotate(-12.2)"/><circle class="h" cx="159.5" cy="51.9" r="1.2" transform="translate(-6.8 30.4) rotate(-10.7)"/><circle class="h" cx="164.4" cy="51" r="1.2" transform="matrix(0.99, -0.16, 0.16, 0.99, -6.01, 26.69)"/><circle class="h" cx="169.4" cy="50.3" r="1.2" transform="translate(-5.2 22.8) rotate(-7.6)"/><circle class="h" cx="174.3" cy="49.7" r="1.2" transform="translate(-4.3 18.7) rotate(-6.1)"/><circle class="h" cx="179.3" cy="49.3" r="1.2" transform="translate(-3.3 14.3) rotate(-4.5)"/><circle class="h" cx="184.3" cy="48.9" r="1.2" transform="translate(-2.3 9.7) rotate(-3)"/><circle class="h" cx="189.2" cy="48.7" r="1.2" transform="translate(-1.2 5) rotate(-1.5)"/><circle class="h" cx="194.2" cy="48.7" r="1.2"/><circle class="h" cx="199.2" cy="48.7" r="1.2" transform="translate(145.3 246.6) rotate(-88.5)"/><circle class="h" cx="204.2" cy="48.9" r="1.2" transform="translate(144.7 250.3) rotate(-87)"/><circle class="h" cx="209.1" cy="49.3" r="1.2" transform="translate(143.6 253.9) rotate(-85.5)"/><circle class="h" cx="214.1" cy="49.7" r="1.2" transform="matrix(0.11, -0.99, 0.99, 0.11, 142.14, 257.4)"/><circle class="h" cx="219.1" cy="50.3" r="1.2" transform="translate(140.4 260.9) rotate(-82.5)"/><circle class="h" cx="224" cy="51" r="1.2" transform="matrix(0.16, -0.99, 0.99, 0.16, 138.25, 264.14)"/><circle class="h" cx="228.9" cy="51.9" r="1.2" transform="translate(135.7 267.3) rotate(-79.4)"/><circle class="h" cx="233.8" cy="52.9" r="1.2" transform="translate(132.9 270.3) rotate(-77.9)"/><circle class="h" cx="238.6" cy="54" r="1.2" transform="translate(129.7 273) rotate(-76.3)"/></g><g class="j"><path class="h" d="M146.5,345.1l-5.4,3.6c-.8.5,0,1.8.8,1.3l5.4-3.6c.8-.5,0-1.8-.8-1.3Z"/><path class="h" d="M144.8,355l-2.7-6c-.4-.9-1.7-.1-1.3.8l2.7,6c.4.9,1.7.1,1.3-.8Z"/></g><g class="j"><circle class="h" cx="240" cy="352" r="1.2" transform="translate(-76.6 67) rotate(-13.7)"/><circle class="h" cx="235.1" cy="353.1" r="1.2" transform="translate(-69.2 57.5) rotate(-12.2)"/><circle class="h" cx="230.2" cy="354.1" r="1.2" transform="translate(-61.5 48.7) rotate(-10.7)"/><circle class="h" cx="225.3" cy="355" r="1.2" transform="matrix(0.99, -0.16, 0.16, 0.99, -53.37, 40.16)"/><circle class="h" cx="220.4" cy="355.7" r="1.2" transform="translate(-44.9 32.1) rotate(-7.6)"/><circle class="h" cx="215.4" cy="356.3" r="1.2" transform="translate(-36.5 24.8) rotate(-6.1)"/><circle class="h" cx="210.5" cy="356.7" r="1.2" transform="translate(-27.6 17.8) rotate(-4.5)"/><circle class="h" cx="205.5" cy="357.1" r="1.2" transform="translate(-18.5 11.3) rotate(-3)"/><circle class="h" cx="200.5" cy="357.3" r="1.2" transform="translate(-9.4 5.5) rotate(-1.5)"/><circle class="h" cx="195.5" cy="357.3" r="1.2"/><circle class="h" cx="190.6" cy="357.3" r="1.2" transform="translate(-171.6 538.4) rotate(-88.5)"/><circle class="h" cx="185.6" cy="357.1" r="1.2" transform="translate(-180.7 523.8) rotate(-87)"/><circle class="h" cx="180.6" cy="356.7" r="1.2" transform="translate(-189.2 508.8) rotate(-85.5)"/><circle class="h" cx="175.6" cy="356.3" r="1.2" transform="translate(-197.2 493.5) rotate(-84)"/><circle class="h" cx="170.7" cy="355.7" r="1.2" transform="translate(-204.3 478.2) rotate(-82.5)"/><circle class="h" cx="165.8" cy="355" r="1.2" transform="translate(-210.9 462.6) rotate(-80.9)"/><circle class="h" cx="160.9" cy="354.1" r="1.2" transform="translate(-216.9 446.9) rotate(-79.4)"/><circle class="h" cx="156" cy="353.1" r="1.2" transform="matrix(0.21, -0.98, 0.98, 0.21, -222.09, 431.31)"/><circle class="h" cx="151.1" cy="352" r="1.2" transform="translate(-226.7 415.5) rotate(-76.3)"/></g></svg>