<?xml version="1.0" standalone="no"?>
<!DOCTYPE svg PUBLIC "-//W3C//DTD SVG 20010904//EN"
 "http://www.w3.org/TR/2001/REC-SVG-20010904/DTD/svg10.dtd">
<svg version="1.0" xmlns="http://www.w3.org/2000/svg"
 width="700.000000pt" height="700.000000pt" viewBox="0 0 700.000000 700.000000"
 preserveAspectRatio="xMidYMid meet">
<metadata>
Created by potrace 1.11, written by Peter Selinger 2001-2013
</metadata>
<g transform="translate(0.000000,700.000000) scale(0.100000,-0.100000)"
fill="#000000" stroke="none">
<path d="M3040 6964 c-938 -127 -1784 -624 -2347 -1381 -377 -507 -603 -1086
-675 -1728 -19 -178 -17 -586 6 -760 21 -164 48 -311 82 -450 313 -1244 1295
-2226 2539 -2539 297 -74 519 -100 855 -100 336 0 558 26 855 100 184 47 475
148 586 205 l39 20 -2 1577 c-3 1471 -4 1581 -21 1637 -56 191 -138 271 -304
295 -148 21 -291 -26 -381 -125 -55 -60 -82 -110 -115 -212 -21 -67 -21 -80
-25 -805 l-3 -738 -454 0 -455 0 0 2510 0 2510 -37 -1 c-21 -1 -85 -8 -143
-15z m-605 -2430 c104 -20 192 -48 288 -92 l77 -35 0 -384 c0 -305 -3 -383
-12 -377 -7 4 -32 21 -56 37 -75 51 -204 105 -291 122 -308 63 -615 -129 -697
-435 -23 -87 -23 -243 0 -330 22 -81 74 -181 126 -242 55 -64 159 -131 255
-165 72 -25 93 -28 215 -28 125 0 141 2 220 31 74 26 136 60 218 120 l22 16 0
-385 0 -385 -77 -32 c-476 -199 -1053 -119 -1447 198 -315 255 -486 612 -486
1017 0 544 284 1001 765 1230 264 125 600 171 880 119z"/>
<path d="M4130 5558 l0 -1380 77 82 c129 138 237 209 389 259 234 76 545 65
762 -27 265 -113 423 -326 504 -678 l22 -99 3 -1383 4 -1384 42 38 c68 62 214
221 298 326 413 517 659 1104 745 1783 23 174 25 582 6 760 -118 1060 -677
1979 -1557 2560 -364 240 -762 408 -1182 499 l-113 24 0 -1380z"/>
</g>
</svg>
