<svg xmlns="http://www.w3.org/2000/svg" xmlns:xlink="http://www.w3.org/1999/xlink" width="154" height="124" viewBox="0 0 154 124"><defs><path id="a" d="M0 0h154.2v123.96H0z"/></defs><clipPath id="b"><use xlink:href="#a" overflow="visible"/></clipPath><g clip-path="url(#b)"><defs><path id="c" d="M1 1h152.2v121.96H1z"/></defs><clipPath id="d"><use xlink:href="#c" overflow="visible"/></clipPath><path clip-path="url(#d)" fill="#231F20" d="M3.62 87.02v8.92l4.52.03c1.75 0 3.05-.16 3.88-.5.84-.33 1.5-.86 1.97-1.6.47-.73.71-1.55.71-2.45 0-.89-.24-1.68-.72-2.4s-1.1-1.23-1.88-1.54c-.77-.31-2.06-.46-3.86-.46H3.62zM1 84.46h5.22c2.91 0 4.89.12 5.92.36 1.56.36 2.83 1.12 3.8 2.29.97 1.17 1.46 2.62 1.46 4.33 0 1.43-.33 2.69-1.01 3.77-.67 1.08-1.63 1.9-2.88 2.46s-2.97.83-5.17.85l9.43 12.18h-3.24L5.1 98.51H3.62v12.18H1V84.46m21.65 0h2.62v26.23h-2.62zm33.06 4.86l-2.07 1.59c-1.14-1.48-2.51-2.61-4.11-3.38-1.6-.77-3.35-1.15-5.27-1.15-2.09 0-4.03.5-5.81 1.51-1.78 1.01-3.17 2.35-4.15 4.05-.98 1.69-1.47 3.6-1.47 5.71 0 3.2 1.1 5.87 3.29 8.01 2.19 2.14 4.96 3.21 8.3 3.21 3.67 0 6.75-1.44 9.22-4.31l2.07 1.57a13.268 13.268 0 0 1-4.9 3.86c-1.96.91-4.14 1.37-6.55 1.37-4.59 0-8.21-1.53-10.86-4.58-2.22-2.58-3.34-5.69-3.34-9.35 0-3.84 1.35-7.07 4.04-9.69 2.7-2.62 6.07-3.94 10.12-3.94 2.45 0 4.66.49 6.63 1.46 1.98.96 3.6 2.32 4.86 4.06m5.22-4.86h2.63v11h13.35v-11h2.63v26.23h-2.63V98.03H63.56v12.66h-2.63zm24.99 0h13.15v2.56H88.54v8.22h10.53v2.57H88.54v12.88h-2.62zm31.3 1.89c-1.94 0-3.78.51-5.52 1.52-1.74 1.01-3.1 2.37-4.07 4.09s-1.47 3.62-1.47 5.73c0 3.12 1.08 5.75 3.24 7.9 2.16 2.15 4.77 3.22 7.82 3.22 2.04 0 3.92-.49 5.66-1.48 1.73-.99 3.08-2.34 4.05-4.05.97-1.71 1.46-3.62 1.46-5.71 0-2.08-.49-3.97-1.46-5.65-.97-1.68-2.34-3.03-4.1-4.04a10.915 10.915 0 0 0-5.61-1.53m-.12-2.55c3.97 0 7.3 1.33 9.98 3.98 2.68 2.65 4.02 5.92 4.02 9.79 0 3.84-1.34 7.1-4.01 9.77-2.67 2.68-5.93 4.02-9.77 4.02-3.89 0-7.17-1.33-9.85-4-2.68-2.66-4.02-5.88-4.02-9.67 0-2.52.61-4.86 1.83-7.01 1.22-2.15 2.89-3.84 4.99-5.06 2.1-1.22 4.38-1.82 6.83-1.82m16.89.66h3.07l6.28 10.2 6.32-10.2h3.02l-7.82 12.67 8.34 13.56h-3.07l-6.81-11.07-6.83 11.07h-3.07l8.38-13.54zm-15.32 34.65h34.53v.41h-34.53zm0 1.64h27.54v.41h-27.54zM8.81 120.7h26.72v.42H8.81zM1 119.06h34.53v.41H1zm45.04-.46l-.39.3c-.21-.28-.47-.49-.77-.64-.3-.15-.63-.22-.99-.22-.4 0-.76.09-1.1.29-.34.19-.6.44-.78.76-.18.32-.28.68-.28 1.08 0 .6.21 1.1.62 1.51.41.4.93.61 1.56.61.69 0 1.27-.28 1.74-.82l.39.3c-.25.31-.55.56-.92.73-.37.17-.78.25-1.23.25-.87 0-1.55-.29-2.05-.86-.42-.49-.63-1.07-.63-1.76 0-.73.25-1.33.76-1.83s1.14-.74 1.91-.74c.46 0 .88.09 1.25.27.36.18.67.44.91.77"/><path clip-path="url(#d)" fill="#231F20" d="M43.87 117.76c-.72 0-1.29.22-1.76.68-.47.46-.7 1.01-.7 1.68 0 .63.19 1.18.58 1.63.46.53 1.08.79 1.89.79.42 0 .81-.07 1.15-.24.27-.13.51-.3.71-.51l-.07-.05c-.48.5-1.08.74-1.76.74-.68 0-1.25-.22-1.71-.66-.45-.44-.68-1-.68-1.65 0-.44.1-.83.31-1.18.2-.35.49-.63.86-.84.7-.4 1.59-.4 2.28-.08.27.13.51.31.72.54l.07-.05c-.2-.23-.44-.41-.72-.54-.35-.17-.74-.26-1.17-.26m.01 5.2c-.92 0-1.66-.32-2.2-.93-.45-.52-.68-1.16-.68-1.9 0-.78.28-1.44.82-1.97.54-.53 1.23-.8 2.05-.8.49 0 .94.1 1.34.29.4.2.73.47.99.83l.12.16-.71.55-.13-.16c-.2-.26-.43-.45-.7-.58-.57-.27-1.32-.27-1.9.06-.31.17-.54.4-.71.69-.17.28-.25.61-.25.98 0 .55.18.99.56 1.36.38.37.84.55 1.42.55.64 0 1.15-.24 1.58-.75l.13-.14.71.54-.13.16c-.26.34-.6.6-1 .79-.39.17-.83.27-1.31.27m11.71-4.29l-.85 1.78h1.69l-.84-1.78zm.06-1.05l2.31 4.95h-.54l-.78-1.63h-2.13l-.77 1.63h-.54l2.34-4.95h.11"/><path clip-path="url(#d)" fill="#231F20" d="M55.07 120.25h1.04l-.52-1.1-.52 1.1zm1.69.41h-2.34l1.17-2.47 1.17 2.47m.79 1.7h.08l-2.04-4.39-2.07 4.39h.09l.77-1.63h2.39l.78 1.63m.73.41h-.98l-.78-1.63h-1.87l-.77 1.63h-1.01l2.53-5.35h.38l2.5 5.35m7.98-4.61v1.68l.84.01c.34 0 .59-.03.74-.09.16-.06.28-.16.37-.3a.83.83 0 0 0 0-.92.699.699 0 0 0-.35-.29c-.15-.06-.39-.09-.72-.09h-.88zm-.49-.48h.98c.57 0 .94.02 1.14.07.28.07.51.21.69.43.18.21.27.49.27.81 0 .33-.08.6-.26.81-.17.21-.42.36-.72.43-.23.05-.65.08-1.26.08h-.35v2.3h-.49v-4.93"/><path clip-path="url(#d)" fill="#231F20" d="M66.47 119.64l.64.01c.38 0 .57-.04.66-.08.12-.05.21-.12.27-.22.07-.11.1-.22.1-.35 0-.13-.03-.24-.1-.34a.491.491 0 0 0-.26-.21c-.08-.03-.26-.07-.65-.07h-.67v1.26zm.63.42l-1.04-.01v-2.09h1.08c.36 0 .62.04.8.11.18.07.34.2.45.37.11.18.17.36.17.57s-.05.4-.17.57c-.12.17-.27.3-.47.38-.19.06-.45.1-.82.1m-1.13 2.36h.08v-2.3h.56c.6 0 1-.03 1.21-.08.26-.06.46-.18.61-.36.15-.18.22-.4.22-.69a1.013 1.013 0 0 0-.8-1.04c-.12-.03-.41-.06-1.09-.06h-.78v4.53m.49.41h-.9v-5.35h1.19c.59 0 .98.03 1.19.08.32.08.59.25.8.5.21.25.32.57.32.95s-.1.7-.31.94c-.2.25-.48.42-.84.5-.24.06-.67.09-1.3.09h-.15v2.29m10.39-5.15h.5v4.94h-.5z"/><path clip-path="url(#d)" fill="#231F20" d="M77.06 122.42h.08v-4.53h-.08v4.53zm.5.41h-.91v-5.35h.91v5.35zm8.57-4.67v-.48h2.71v.48h-1.1v4.46h-.51v-4.46z"/><path clip-path="url(#d)" fill="#231F20" d="M87.44 122.42h.09v-4.46h1.1v-.07h-2.29v.07h1.1v4.46zm.5.41h-.92v-4.46h-1.1v-.9h3.12v.9h-1.1v4.46m11.1-4.1l-.85 1.79h1.69l-.84-1.79zm.06-1.05l2.3 4.94h-.53l-.77-1.62h-2.13l-.77 1.63h-.55l2.33-4.94h.12"/><path clip-path="url(#d)" fill="#231F20" d="M98.52 120.32h1.04l-.52-1.1-.52 1.1zm1.69.4h-2.34l1.17-2.47 1.17 2.47m.8 1.7h.08l-2.05-4.38-2.07 4.38h.1l.77-1.63h2.39l.78 1.63m.72.41h-.99l-.78-1.63H98.1l-.77 1.63h-1.01l2.53-5.35h.38l2.5 5.35m8-5.15h.49v4.47h1.9v.47h-2.39z"/><path clip-path="url(#d)" fill="#231F20" d="M109.93 122.42h1.98v-.06h-1.9v-4.47h-.08v4.53zm2.4.41h-2.81v-5.35h.9v4.47h1.9v.88"/><path clip-path="url(#d)" fill="#FFF" d="M112.91 39.83c0 19.68-16.01 35.63-35.75 35.63-19.75 0-35.75-15.95-35.75-35.63 0-19.68 16-35.63 35.75-35.63 19.74 0 35.75 15.96 35.75 35.63"/><path clip-path="url(#d)" fill="#393536" d="M102.84 62.8l-2.22 2.13v-2.6h2.22z"/><path clip-path="url(#d)" fill="#BDBCBC" d="M65.27 37.04l-22.54.05c-.04.65-.09 1.32-.06 1.98.99 18.52 15.47 35.14 34.46 35.14 2.56 0 5.24-.63 7.73-1.14l-.11-18.92-.03-4.36-.01-1.34-19.44-11.41z"/><path clip-path="url(#d)" fill="#FFF" d="M86.46 53.35s-9.12 4.01-14.1 9.45c0 0 1.24 5.58 3.72 11.43l1.74-.15 10.08-1.71-1.44-19.02z"/><path clip-path="url(#d)" fill="#393536" d="M86.29 54.86s-8.06 3.37-12.57 8.3c0 0 1.39 5.84 3.77 11.31 0 0 4.78.17 10.28-2.03l-1.48-17.58z"/><path clip-path="url(#d)" fill="#BDBCBC" d="M100.79 14.29s-4.58-.04-5.15.02l-9.51-7.48c1.24 4.51-.23 11.43-3.59 17.52-3.36 5.3-7.69 9.28-12.94 12.28l35.75 22.39 5.75-22.42c-.01-1.63-1.13-12.67-10.31-22.31"/><path clip-path="url(#d)" fill="#231F20" d="M45.6 37.96h18.64l40.36 22.05-37.22-23.44S87.81 27.19 84.77 6.2C63.14 1 42.58 18.1 42.75 40.43c1.04 26.32 24.83 33.03 25.97 32.65 0 0-24.42-7.28-23.12-35.12M82.35 8.79c.08 2.87 1.28 16.5-18.11 26.43H45.88C52.03 6.87 77.78 7.65 82.35 8.79"/><path clip-path="url(#d)" fill="#393536" d="M99.5 62.21l-5.3-2.76.25 9.32c3.19-1.95 5.04-3.58 5.04-3.58l.01-2.98z"/><path clip-path="url(#d)" fill="#8D8B8B" d="M77.86 30.28c-2.53 2.64-5.54 4.77-8.26 6.34l11.91 7.46-6.95-7.51 3.3-6.29zm15.26-13.52s-6.99-9.93-6.99-9.91c.8 7.74-1.18 12.09-1.54 13.07l4.19 1.17 4.34-4.33z"/><path clip-path="url(#d)" fill="#E9E9E9" d="M93.11 27.12l14.78 7.76 3.22-1.44s2.71 13.58-5.57 26.01L93.11 27.12z"/><path clip-path="url(#d)" fill="#8D8B8B" d="M102.55 57.27l2.86 1.85s1.25-1.54 2.01-3.35h-3.3l-1.57 1.5z"/><path clip-path="url(#d)" fill="#9C9A9B" d="M85.06 73.26l-.63.1V34.28h.63z"/><path clip-path="url(#d)" fill="#FFF" d="M85.68 73.16l-.62.09V34.29h.62z"/><path clip-path="url(#d)" fill="#FFF" d="M101.57 34.89c0 5.03-4.08 9.1-9.11 9.1-5.03 0-9.11-4.08-9.11-9.1 0-5.03 4.08-9.1 9.11-9.1 5.04-.01 9.11 4.07 9.11 9.1"/><path clip-path="url(#d)" fill="#231F20" d="M93.97 42.25c-4.07 0-7.37-3.3-7.37-7.36s3.3-7.35 7.37-7.37c2.22-.01 4.54 1.15 4.54 1.15-1.83-1.62-3.96-2.26-6.05-2.26-4.68 0-8.48 3.79-8.48 8.48a8.47 8.47 0 0 0 8.48 8.47c2.41 0 4.8-1.17 6.05-2.4 0 0-2.56 1.29-4.54 1.29"/><path clip-path="url(#d)" fill="#231F20" d="M77.1 3.91c-19.86 0-35.96 16.1-35.96 35.96s16.1 35.96 35.96 35.96 35.96-16.1 35.96-35.96S96.96 3.91 77.1 3.91m0 71.45c-19.6 0-35.49-15.89-35.49-35.49S57.5 4.38 77.1 4.38s35.49 15.89 35.49 35.49S96.7 75.36 77.1 75.36"/><path clip-path="url(#d)" fill="#FFF" d="M77.1 5C57.84 5 42.23 20.61 42.23 39.87c0 19.26 15.61 34.87 34.87 34.87 19.26 0 34.87-15.61 34.87-34.87C111.97 20.61 96.36 5 77.1 5m0 69.11c-18.91 0-34.24-15.33-34.24-34.24 0-18.91 15.33-34.24 34.24-34.24 18.91 0 34.24 15.33 34.24 34.24 0 18.91-15.33 34.24-34.24 34.24"/></g></svg>