<?xml version="1.0" encoding="utf-8"?>
<!-- Generator: Adobe Illustrator 22.1.0, SVG Export Plug-In . SVG Version: 6.00 Build 0)  -->
<svg version="1.1" id="Layer_1" xmlns="http://www.w3.org/2000/svg" xmlns:xlink="http://www.w3.org/1999/xlink" x="0px" y="0px"
	 viewBox="0 0 75 75" style="enable-background:new 0 0 75 75;" xml:space="preserve">
<style type="text/css">
	.st0{opacity:0.5;fill:none;stroke:#FFFFFF;stroke-width:2;stroke-miterlimit:10;enable-background:new    ;}
	.st1{fill:none;stroke:#FF3B3F;stroke-width:2;stroke-miterlimit:10;enable-background:new    ;}
</style>
<title>icon</title>
<path class="st0" d="M53.4,64.7c-0.7,0-1.3,0-2-0.1c0.5,1.1,1.3,2.1,2.2,2.9c-2.9-0.6-5.5-2.1-7.6-4.3c-3.9-1.7-6.5-4.7-6.5-8.1
	c0-5.3,6.2-9.6,13.9-9.6c5.1,0,9.6,1.9,12,4.8c0.5,0.6,0.9,1.2,1.2,2c0.4,0.9,0.6,1.9,0.6,2.9C67.3,60.4,61.1,64.7,53.4,64.7z"/>
<path class="st1" d="M34.5,45.5c-1.3,0-2.6-0.1-3.9-0.2c1,2.2,2.4,4.1,4.2,5.7c-6.2-1.5-11.4-4.4-14.7-8.3
	c-7.6-3.3-12.6-9.1-12.6-15.8c0-10.3,12.1-18.6,27-18.6c10,0,18.7,3.7,23.3,9.3c1,1.1,1.8,2.4,2.4,3.8c0.8,1.8,1.2,3.7,1.2,5.6
	C61.5,37.2,49.4,45.5,34.5,45.5z"/>
</svg>
