<svg xmlns="http://www.w3.org/2000/svg" viewBox="0 0 75 75"><defs><style>.a,.b{fill:none;stroke-miterlimit:10;stroke-width:2px;opacity:0.5;}.a{stroke:#fff;}.b{stroke:#ff3b3f;}</style></defs><title>icon</title><path class="a" d="M53.38,64.68a18.49,18.49,0,0,1-2-.1,9.07,9.07,0,0,0,2.17,2.9A14,14,0,0,1,46,63.21c-3.91-1.69-6.51-4.7-6.51-8.13,0-5.3,6.23-9.6,13.9-9.6,5.14,0,9.62,1.92,12,4.78a8.38,8.38,0,0,1,1.25,1.95,7,7,0,0,1,.63,2.87C67.29,60.38,61.06,64.68,53.38,64.68Z"/><path class="b" d="M34.48,45.54a35.89,35.89,0,0,1-3.91-.21A17.5,17.5,0,0,0,34.79,51c-6.21-1.45-11.42-4.43-14.66-8.29-7.6-3.29-12.65-9.13-12.65-15.79,0-10.3,12.09-18.64,27-18.64,10,0,18.68,3.73,23.35,9.28a16.7,16.7,0,0,1,2.42,3.78,13.58,13.58,0,0,1,1.23,5.58C61.48,37.19,49.39,45.54,34.48,45.54Z"/></svg>