<svg xmlns="http://www.w3.org/2000/svg" viewBox="0 0 75 75"><defs><style>.a{fill:#1e223e;}.b{fill:#fff;}.b,.c{opacity:0.5;}.c{fill:#ff3b3f;}</style></defs><title>icons</title><rect class="a" x="-587.04" y="-126.38" width="2737" height="2544.92"/><path class="b" d="M53.4,64.7a18.49,18.49,0,0,1-2-.1,9.07,9.07,0,0,0,2.17,2.9A14,14,0,0,1,46,63.23c-3.91-1.69-6.51-4.7-6.51-8.13,0-5.3,6.23-9.6,13.9-9.6,5.14,0,9.62,1.92,12,4.78a8.38,8.38,0,0,1,1.25,1.95,7,7,0,0,1,.63,2.87C67.31,60.4,61.08,64.7,53.4,64.7Z"/><path class="c" d="M61.5,26.91c0,10.3-12.09,18.64-27,18.64a35.49,35.49,0,0,1-3.91-.21A34.49,34.49,0,0,1,20.15,42.7C12.55,39.41,7.5,33.57,7.5,26.91c0-10.3,12.09-18.64,27-18.64,10,0,18.68,3.73,23.35,9.28a16.09,16.09,0,0,1,2.42,3.78A13.48,13.48,0,0,1,61.5,26.91Z"/><path class="c" d="M61.5,26.91c0,10.3-12.09,18.64-27,18.64a35.49,35.49,0,0,1-3.91-.21,13.47,13.47,0,0,1-1.23-5.58c0-10.3,12.09-18.64,27-18.64a35.5,35.5,0,0,1,3.91.21A13.48,13.48,0,0,1,61.5,26.91Z"/><path class="c" d="M34.5,45.56a35.49,35.49,0,0,1-3.91-.21A17.55,17.55,0,0,0,34.81,51c-6.21-1.45-11.42-4.44-14.66-8.29a14.43,14.43,0,0,1-3.65-9.36c0-10.3,12.09-18.64,27-18.64a36.06,36.06,0,0,1,14.35,2.85,16.09,16.09,0,0,1,2.42,3.78,13.48,13.48,0,0,1,1.23,5.58C61.5,37.21,49.41,45.56,34.5,45.56Z"/></svg>