<svg xmlns="http://www.w3.org/2000/svg" viewBox="0 0 75 75"><defs><style>.a{fill:#1e223e;}.b{opacity:0.5;}.c{fill:#fff;}.d{fill:#ff3b3f;}</style></defs><title>icons</title><rect class="a" x="-587.06" y="-239.4" width="2737" height="2544.92"/><g class="b"><path class="c" d="M55.16,67.63l-1.85-.43a14.34,14.34,0,0,1-7.64-4.29c-4.15-1.83-6.62-5-6.62-8.43,0-5.5,6.38-10,14.22-10,5,0,9.71,1.87,12.24,4.89a8.78,8.78,0,0,1,1.3,2,7.38,7.38,0,0,1,.67,3c0,5.5-6.38,10-14.22,10q-.58,0-1.13,0a8.79,8.79,0,0,0,1.62,1.94ZM53.26,45.5c-7.29,0-13.23,4-13.23,9,0,3.08,2.29,5.91,6.13,7.57l.11,0,.08.09a12.44,12.44,0,0,0,5.51,3.57,8.75,8.75,0,0,1-1-1.7l-.36-.79.87.1a17.79,17.79,0,0,0,1.93.1c7.29,0,13.23-4,13.23-9a6.4,6.4,0,0,0-.58-2.63A7.84,7.84,0,0,0,64.75,50C62.4,47.24,58,45.5,53.26,45.5Z"/></g><g class="b"><path class="d" d="M36.65,51.34l-1.85-.43c-6.16-1.45-11.35-4.38-14.66-8.26-7.94-3.47-12.68-9.44-12.68-16,0-10.42,12.17-18.89,27.14-18.89,9.6,0,18.58,3.58,23.42,9.33a17,17,0,0,1,2.46,3.84,14,14,0,0,1,1.26,5.71c0,10.42-12.17,18.9-27.14,18.9-1,0-2,0-3-.13a17.27,17.27,0,0,0,3.66,4.64Zm-2-42.59c-14.42,0-26.15,8-26.15,17.9,0,6.17,4.56,11.83,12.19,15.13l.11,0,.08.09a25.43,25.43,0,0,0,12.45,7.57,17,17,0,0,1-3-4.43l-.36-.79.86.09a35.1,35.1,0,0,0,3.8.2c14.42,0,26.15-8,26.15-17.91a13,13,0,0,0-1.17-5.31,16,16,0,0,0-2.31-3.61C52.61,12.2,43.93,8.76,34.61,8.76Z"/></g></svg>