<?xml version="1.0" encoding="UTF-8" standalone="no"?>
<svg
   xmlns:dc="http://purl.org/dc/elements/1.1/"
   xmlns:cc="http://creativecommons.org/ns#"
   xmlns:rdf="http://www.w3.org/1999/02/22-rdf-syntax-ns#"
   xmlns:svg="http://www.w3.org/2000/svg"
   xmlns="http://www.w3.org/2000/svg"
   xmlns:sodipodi="http://sodipodi.sourceforge.net/DTD/sodipodi-0.dtd"
   xmlns:inkscape="http://www.inkscape.org/namespaces/inkscape"
   enable-background="new 0 0 40 40"
   id="Слой_1"
   version="1.1"
   viewBox="0 0 40 40"
   xml:space="preserve"
   inkscape:version="0.91 r13725"
   sodipodi:docname="early3.svg"><metadata
     id="metadata19"><rdf:RDF><cc:Work
         rdf:about=""><dc:format>image/svg+xml</dc:format><dc:type
           rdf:resource="http://purl.org/dc/dcmitype/StillImage" /><dc:title></dc:title></cc:Work></rdf:RDF></metadata><defs
     id="defs17"><marker
       inkscape:stockid="Arrow1Lend"
       orient="auto"
       refY="0.0"
       refX="0.0"
       id="Arrow1Lend"
       style="overflow:visible;"
       inkscape:isstock="true"><path
         id="path4154"
         d="M 0.0,0.0 L 5.0,-5.0 L -12.5,0.0 L 5.0,5.0 L 0.0,0.0 z "
         style="fill-rule:evenodd;stroke:#000000;stroke-width:1.0pt;"
         transform="scale(0.8) rotate(180) translate(12.5,0)" /></marker><marker
       inkscape:stockid="Arrow1Lstart"
       orient="auto"
       refY="0.0"
       refX="0.0"
       id="Arrow1Lstart"
       style="overflow:visible"
       inkscape:isstock="true"><path
         id="path4151"
         d="M 0.0,0.0 L 5.0,-5.0 L -12.5,0.0 L 5.0,5.0 L 0.0,0.0 z "
         style="fill-rule:evenodd;stroke:#000000;stroke-width:1.0pt"
         transform="scale(0.8) translate(12.5,0)" /></marker></defs><sodipodi:namedview
     pagecolor="#ffffff"
     bordercolor="#666666"
     borderopacity="1"
     objecttolerance="10"
     gridtolerance="10"
     guidetolerance="10"
     inkscape:pageopacity="0"
     inkscape:pageshadow="2"
     inkscape:window-width="705"
     inkscape:window-height="480"
     id="namedview15"
     showgrid="false"
     inkscape:zoom="2.95"
     inkscape:cx="33.658106"
     inkscape:cy="56.156993"
     inkscape:window-x="0"
     inkscape:window-y="0"
     inkscape:window-maximized="0"
     inkscape:current-layer="Слой_1" /><g
     id="g3"
     style="opacity:0.99;fill:#ff3b3f;fill-opacity:1"><path
       d="M9.4,29.8c-2.4,0-4.9-0.9-6.7-2.8c-3.7-3.7-3.7-9.8,0-13.5c3.3-3.3,8.5-3.7,12.3-1c0.4,0.3,0.5,1,0.2,1.4   c-0.3,0.4-0.9,0.5-1.4,0.2c-3-2.2-7.1-1.9-9.7,0.8c-2.9,2.9-2.9,7.7,0,10.6c2.9,2.9,7.7,2.9,10.6,0c0.1-0.1,0.2-0.2,0.3-0.4   c0.4-0.4,1-0.5,1.4-0.1c0.4,0.4,0.5,1,0.1,1.4c-0.1,0.2-0.3,0.3-0.4,0.4C14.2,28.9,11.8,29.8,9.4,29.8z"
       id="path5"
       style="fill:#ff3b3f;fill-opacity:1" /></g><g
     id="g7"
     style="opacity:1;fill:#ff3b3f;fill-opacity:1"><path
       d="M9.4,24.6c-1.1,0-2.2-0.4-3-1.3c-0.8-0.8-1.3-1.9-1.3-3c0-1.1,0.4-2.2,1.3-3c0.8-0.8,1.9-1.3,3-1.3c1.1,0,2.2,0.4,3,1.3   c0.4,0.4,0.4,1,0,1.4c-0.4,0.4-1,0.4-1.4,0c-0.9-0.9-2.4-0.9-3.2,0c-0.4,0.4-0.7,1-0.7,1.6c0,0.6,0.2,1.2,0.7,1.6   c0.9,0.9,2.4,0.9,3.2,0c0.4-0.4,1-0.4,1.4,0c0.4,0.4,0.4,1,0,1.4C11.6,24.2,10.5,24.6,9.4,24.6z"
       id="path9"
       style="fill:#ff3b3f;fill-opacity:1" /></g><g
     id="g11"
     style="opacity:1;fill:#ff3b3f;fill-opacity:1"><path
       d="M36,25.8c-1.4,0-2.1-0.8-2.6-1.3c-0.5-0.5-0.7-0.7-1.2-0.7c-0.5,0-0.7,0.2-1.2,0.7c-0.5,0.6-1.2,1.3-2.6,1.3   c-1.4,0-2.1-0.8-2.6-1.3c-0.5-0.5-0.7-0.7-1.2-0.7s-0.7,0.2-1.2,0.7c-0.5,0.6-1.2,1.3-2.6,1.3c-1.4,0-2.1-0.8-2.6-1.3   c-0.4-0.4-0.6-0.6-0.9-0.7c-0.5-0.1-0.9-0.7-0.8-1.2s0.7-0.9,1.2-0.8c0.9,0.2,1.5,0.8,1.9,1.2c0.5,0.5,0.7,0.7,1.2,0.7   c0.5,0,0.7-0.2,1.2-0.7c0.5-0.6,1.2-1.3,2.6-1.3c1.4,0,2.1,0.8,2.6,1.3c0.5,0.5,0.7,0.7,1.2,0.7c0.5,0,0.7-0.2,1.2-0.7   c0.5-0.6,1.2-1.3,2.6-1.3c1.4,0,2.1,0.8,2.6,1.3c0.3,0.3,0.5,0.5,0.7,0.6l2.3-3.4l-2.3-3.5H16.6c-0.6,0-1-0.4-1-1s0.4-1,1-1H36   c0.3,0,0.6,0.2,0.8,0.4l3,4.5c0.2,0.3,0.2,0.8,0,1.1l-3,4.5C36.6,25.7,36.3,25.8,36,25.8z"
       id="path13"
       style="fill:#ff3b3f;fill-opacity:1" /></g></svg>