<svg xmlns="http://www.w3.org/2000/svg" viewBox="0 0 75 75"><defs><style>.a,.c,.e{fill:#ff3b3f;}.a,.f{opacity:0.5;}.b,.d,.f{fill:none;stroke-linecap:round;}.b,.c,.d{stroke:#ff3b3f;}.b{stroke-linejoin:round;}.b,.c,.d,.f{stroke-width:2px;}.c{stroke-linecap:square;}.c,.d,.f{stroke-miterlimit:10;}.f{stroke:#fff;}</style></defs><title>icon</title><circle class="a" cx="59.5" cy="54.5" r="1"/><circle class="a" cx="62.5" cy="54.5" r="1"/><circle class="a" cx="65.5" cy="54.5" r="1"/><circle class="a" cx="62.5" cy="51.5" r="1"/><circle class="a" cx="59.5" cy="48.5" r="1"/><circle class="a" cx="62.5" cy="48.5" r="1"/><circle class="a" cx="65.5" cy="48.5" r="1"/><circle class="a" cx="62.5" cy="45.5" r="1"/><circle class="a" cx="59.5" cy="51.5" r="1"/><circle class="a" cx="56.5" cy="51.5" r="1"/><circle class="a" cx="65.5" cy="51.5" r="1"/><circle class="a" cx="53.5" cy="54.5" r="1"/><circle class="a" cx="56.5" cy="54.5" r="1"/><circle class="a" cx="68.5" cy="51.5" r="1"/><circle class="a" cx="68.5" cy="54.5" r="1"/><circle class="a" cx="71.5" cy="54.5" r="1"/><path class="b" d="M56.66,27.85a18.65,18.65,0,0,1-.44,2.41,22.39,22.39,0,0,1-14.52,16l-.08,0a17.63,17.63,0,0,1-1.85.53l-.52.13a16.45,16.45,0,0,1-2.35.38,20.38,20.38,0,0,1-2.48.15,22.47,22.47,0,0,1-14.29-5.15L32.19,31.66l.8-.72.2-.18.9-.78.48-.42L48.82,17a7.15,7.15,0,0,0-1.07,3.78A7.29,7.29,0,0,0,55,28,6.76,6.76,0,0,0,56.66,27.85Z"/><path class="c" d="M59.31,26.64a5.84,5.84,0,0,0,.33.61,6,6,0,0,0,2.61,2.21,5,5,0,0,0,1.2.39,6,6,0,0,0-1.39-4.72,5.78,5.78,0,0,0-.74-.7A5.53,5.53,0,0,0,60,23.58a6.14,6.14,0,0,0-1.21-.39A5.87,5.87,0,0,0,59.31,26.64Z"/><path class="d" d="M62.29,20.77a7.14,7.14,0,0,1-1,3.65A5.67,5.67,0,0,0,60,23.58a6.4,6.4,0,0,0-1.22-.38,5.87,5.87,0,0,0,.57,3.44,6.9,6.9,0,0,1-2.65,1.21A6.76,6.76,0,0,1,55,28a7.29,7.29,0,0,1-7.27-7.28,7.31,7.31,0,0,1,4.31-6.64,7.48,7.48,0,0,1,3-.63A7.28,7.28,0,0,1,62.29,20.77Z"/><path class="b" d="M7.66,53.28a22,22,0,0,0,3.12.22,22.32,22.32,0,0,0,16.48-7.24,22,22,0,0,1-7.14-4Z"/><path class="e" d="M46.53,57.5H44.36L39.77,46.78a17.63,17.63,0,0,0,1.85-.53l.08,0Z"/><line class="f" x1="71.5" y1="58.5" x2="3.5" y2="58.5"/></svg>