<svg xmlns="http://www.w3.org/2000/svg" viewBox="0 0 75 75"><defs><style>.a{fill:#ff3b3f;}</style></defs><title>icon</title><path class="a" d="M44.58,42.59l-.4-.17c-.49-.21-1-.44-1.5-.68h-.77v-.38a55.74,55.74,0,0,1-9.65-6h0L32,35.12c-6.8-5.37-10.45-11-10-15.34v-.09c0-.12,0-.25,0-.37a11.81,11.81,0,0,1,22.62-4.75A11.81,11.81,0,0,1,67.2,19.31c0,.14,0,.28,0,.42v0C68,28,54.84,38.2,45,42.42ZM43.7,40l.88.4c9.9-4.35,20.31-13.11,20.64-19.53h-.08l0-1.05c0-.19,0-.35,0-.52a9.81,9.81,0,0,0-19.62,0c0,.1,0,.21,0,.31l.07,1.26H43.55V19.83c0-.17,0-.34,0-.52a9.81,9.81,0,0,0-19.62,0c0,.11,0,.21,0,.32L24,20.88h-.11c.22,3.49,3.51,8.06,9,12.48l.25.19a53.65,53.65,0,0,0,10.1,6.28Z"/><path class="a" d="M17.71,61.59l-.39-.17C14.07,60,9.5,56.67,9.5,53.51c0-.09,0-.18,0-.27V53.1a4.6,4.6,0,0,1,8.2-2.86,4.61,4.61,0,0,1,2.8-1.67L21,48.5l.35.29a34.51,34.51,0,0,0,4.05,2.8l.39.23.08.44a4.56,4.56,0,0,1,.08.85s0,.07,0,.11c.31,3.23-4.38,6.75-7.81,8.21ZM14.11,50.5a2.6,2.6,0,0,0-2.6,2.6v.33c0,1.71,2.91,4.45,6.21,6,3.12-1.44,6-4.05,6.2-5.67v-.62s0-.05,0-.08a36.63,36.63,0,0,1-3.46-2.39,2.6,2.6,0,0,0-1.75,2.45v1.19H16.53l.18-1.15v0s0-.07,0-.1A2.61,2.61,0,0,0,14.11,50.5Z"/><path class="a" d="M28.93,55.58l-.39-.16a35.29,35.29,0,0,1-4.19-2.12,36.58,36.58,0,0,1-4.29-3c-2.45-2-6.5-5.88-6.11-9.7v0c0-.08,0-.16,0-.23a8,8,0,0,1,15-3.81,8,8,0,0,1,3.19-3.12l.22-.12h.6l.28.22a53.71,53.71,0,0,0,9.92,6.19h.65l0,.33.06,0v.54c.59,5.65-8.35,12.16-14.59,14.79ZM16,41.72c.32,2,2.24,4.55,5.34,7.06a34.54,34.54,0,0,0,4.05,2.8,33.88,33.88,0,0,0,3.56,1.83c6.06-2.66,12.39-7.9,13-11.7v-.35a55.83,55.83,0,0,1-9.37-5.82,5.86,5.86,0,0,0-2.59,4.84c0,.09,0,.18,0,.28L30,41.74H27.86l.05-1.08c0-.09,0-.18,0-.28a6,6,0,0,0-12,0c0,.09,0,.17,0,.26l.09,1.08Z"/></svg>