<svg xmlns="http://www.w3.org/2000/svg" viewBox="0 0 75 75"><defs><style>.a{fill:none;stroke:#fff;stroke-miterlimit:10;stroke-width:2px;}.b{fill:#ff3b3f;}</style></defs><title>icon</title><path class="a" d="M30.5,35.93V61a6.57,6.57,0,0,1,0,.78c-.4,4.67-4.48,5.74-9.2,5.74s-8.37-1.07-8.73-5.74q0-.37,0-.78v-25a2.26,2.26,0,0,1,0-.26,9.57,9.57,0,0,1,6.31-9V10.35c0-2.36,1.31-2.85,2.92-2.85s2.92.49,2.92,2.85V26.9a9.6,9.6,0,0,1,5.83,8.77A2.26,2.26,0,0,1,30.5,35.93Z"/><path class="a" d="M12.51,35.67a2.26,2.26,0,0,0,0,.26v-.26Z"/><path class="a" d="M12.5,61q0,.41,0,.78h0Z"/><path class="a" d="M30.5,35.67v.26a2.26,2.26,0,0,0,0-.26Z"/><path class="a" d="M30.46,61.76a6.57,6.57,0,0,0,0-.78v.78Z"/><path class="a" d="M62.56,35.93V61a6.57,6.57,0,0,1,0,.78c-.4,4.67-4.48,5.74-9.2,5.74S45,66.43,44.59,61.76q0-.37,0-.78v-25a2.26,2.26,0,0,1,0-.26,9.57,9.57,0,0,1,6.31-9V10.35C50.88,8,52.19,7.5,53.8,7.5s2.92.49,2.92,2.85V26.9a9.6,9.6,0,0,1,5.83,8.77A2.26,2.26,0,0,1,62.56,35.93Z"/><path class="a" d="M44.57,35.67a2.26,2.26,0,0,0,0,.26v-.26Z"/><path class="a" d="M44.56,61q0,.41,0,.78h0Z"/><path class="a" d="M62.56,35.67v.26a2.26,2.26,0,0,0,0-.26Z"/><path class="a" d="M62.52,61.76a6.57,6.57,0,0,0,0-.78v.78Z"/><path class="b" d="M65.54,40.77h0c0-.11,0-.21,0-.32a6,6,0,1,0-12,0c0,.11,0,.21,0,.32h0c0-.11,0-.21,0-.32a6,6,0,1,0-12,0c0,.11,0,.21,0,.32h0c-.41,4,6.16,9.5,12,12C59.39,50.28,66,44.78,65.54,40.77Z"/></svg>