<svg xmlns="http://www.w3.org/2000/svg" viewBox="0 0 75 75"><defs><style>.a{opacity:0.25;}.b{fill:#ff3b3f;}.c{fill:#fff;}</style></defs><title>icon</title><g class="a"><path class="b" d="M26.23,44.82A18.66,18.66,0,1,1,44.89,26.16,18.68,18.68,0,0,1,26.23,44.82ZM26.23,8A18.16,18.16,0,1,0,44.39,26.16,18.18,18.18,0,0,0,26.23,8Z"/></g><path class="c" d="M48.21,62.5H41a1,1,0,0,1-1-.93c-.2-2.84-.58-7.65-.78-8.49a17.16,17.16,0,0,0-1.49-3.18,14.9,14.9,0,0,1-4.61-11.3,15.2,15.2,0,1,1,30.4,0c0,4.72-1.49,8.33-4.56,11a1,1,0,0,1-1.32-1.5c2.61-2.3,3.88-5.41,3.88-9.53a13.2,13.2,0,1,0-26.4,0,12.73,12.73,0,0,0,4.06,9.91,1,1,0,0,1,.2.25,19.48,19.48,0,0,1,1.79,3.86c.25,1.05.62,5.79.77,7.89h6.3a1,1,0,0,1,0,2Z"/><path class="c" d="M55.62,62.5H48.39a1,1,0,0,1,0-2h6.3c.15-2.1.51-6.84.77-7.89a19.48,19.48,0,0,1,1.79-3.86,1,1,0,0,1,.2-.25,12.73,12.73,0,0,0,4.06-9.91,13.2,13.2,0,1,0-26.4,0c0,4.11,1.27,7.23,3.88,9.53a1,1,0,0,1-1.32,1.5c-3.07-2.7-4.56-6.31-4.56-11a15.2,15.2,0,1,1,30.4,0,14.9,14.9,0,0,1-4.61,11.3,17.13,17.13,0,0,0-1.49,3.18c-.2.84-.59,5.66-.78,8.49A1,1,0,0,1,55.62,62.5Z"/><path class="c" d="M55.61,67.5h-15a1,1,0,0,1,0-2h15a1,1,0,0,1,0,2Z"/></svg>