<?xml version="1.0" ?><svg data-name="Layer 1" id="Layer_1" viewBox="0 0 100 100" xmlns="http://www.w3.org/2000/svg"><title/><path d="M87.47,32.18v-10H79.94v-10H5V70h7.53V80h7.53V90H95V32.18Zm-79.66,35V15H77.12v7.19H12.53v45Zm7.53,10V25H84.66v7.19H20.06v45Zm76.84,10H22.88V35H92.19Z"/><path d="M37.94,55.88a7.73,7.73,0,1,0-7.73-7.73A7.74,7.74,0,0,0,37.94,55.88Zm0-12.66A4.92,4.92,0,1,1,33,48.15,4.93,4.93,0,0,1,37.94,43.22Z"/><path d="M87.19,72.89,68.28,54,50.7,71.57l-6-6L27.39,82.82h59.8ZM84.38,80H34.18L44.67,69.51l4,4,2,2,2-2L68.28,58,84.38,74.06Z"/></svg>