<svg xmlns="http://www.w3.org/2000/svg" viewBox="0 0 75 75"><defs><style>.a{fill:#ff3b3f;opacity:0.5;}.b{fill:#fff;}</style></defs><title>icon</title><rect class="a" x="7.5" y="7.5" width="60" height="60" rx="6.08" ry="6.08"/><circle class="b" cx="47.5" cy="37.5" r="10"/><circle class="b" cx="37.5" cy="37.5" r="10"/><circle class="a" cx="37.5" cy="37.5" r="10"/><circle class="b" cx="27.5" cy="37.5" r="10"/><path class="b" d="M9.5,18.5h-5a1,1,0,1,1,0-2h5"/><path class="b" d="M9.5,28.5h-5a1,1,0,1,1,0-2h5"/><path class="b" d="M9.5,38.5h-5a1,1,0,1,1,0-2h5"/><path class="b" d="M9.5,48.5h-5a1,1,0,1,1,0-2h5"/><path class="b" d="M9.5,58.5h-5a1,1,0,1,1,0-2h5"/></svg>