<svg xmlns="http://www.w3.org/2000/svg" viewBox="0 0 75 75"><defs><style>.a,.b{fill:none;stroke-miterlimit:10;}.a{stroke:#fff;}.b{stroke:#ff3b3f;}.c{opacity:0.5;}.d{fill:#ff3b3f;}.e{fill:#fff;}</style></defs><title>icon</title><path class="a" d="M57.5,37.5a10,10,0,0,1-15,8.66,10,10,0,0,0,0-17.32,10,10,0,0,1,15,8.66Z"/><path class="b" d="M47.5,37.5a10,10,0,0,1-15,8.66,10,10,0,0,0,0-17.32,10,10,0,0,1,15,8.66Z"/><path class="a" d="M37.5,37.5a10,10,0,1,1-5-8.66A10,10,0,0,1,37.5,37.5Z"/><g class="c"><path class="d" d="M60.65,67.5H14.35A6.86,6.86,0,0,1,7.5,60.65V14.35A6.86,6.86,0,0,1,14.35,7.5H60.65a6.86,6.86,0,0,1,6.85,6.85V60.65A6.86,6.86,0,0,1,60.65,67.5ZM14.35,9.44a4.92,4.92,0,0,0-4.92,4.92V60.65a4.92,4.92,0,0,0,4.92,4.92H60.65a4.92,4.92,0,0,0,4.92-4.92V14.35a4.92,4.92,0,0,0-4.92-4.92Z"/></g><path class="e" d="M9.5,18.5h-5a1,1,0,0,1,0-2h5"/><path class="e" d="M9.5,28.5h-5a1,1,0,0,1,0-2h5"/><path class="e" d="M9.5,38.5h-5a1,1,0,0,1,0-2h5"/><path class="e" d="M9.5,48.5h-5a1,1,0,0,1,0-2h5"/><path class="e" d="M9.5,58.5h-5a1,1,0,0,1,0-2h5"/></svg>