<svg xmlns="http://www.w3.org/2000/svg" viewBox="0 0 75 75"><defs><style>.a{fill:#ff3b3f;}.b{fill:#fff;}.c{opacity:0.5;}</style></defs><title>icons</title><path class="a" d="M46.78,48.24a9.75,9.75,0,0,1-4.88-1.31l-.7-.4.69-.4a8.82,8.82,0,0,0,0-15.28l-.69-.4.7-.4a9.75,9.75,0,1,1,4.88,18.2Zm-3.72-1.75a8.82,8.82,0,1,0,0-16,9.75,9.75,0,0,1,0,16Z"/><path class="a" d="M37.49,48.24a9.75,9.75,0,0,1-4.88-1.31l-.7-.4.69-.4a8.82,8.82,0,0,0,0-15.28l-.69-.4.7-.4a9.91,9.91,0,0,1,9.75,0,9.75,9.75,0,0,1-4.88,18.2Zm-3.72-1.75a9,9,0,0,0,8.13-.36,8.82,8.82,0,0,0,0-15.28,9,9,0,0,0-8.13-.36,9.75,9.75,0,0,1,0,16Z"/><path class="a" d="M28.2,48.24a9.75,9.75,0,1,1,4.88-1.31A9.76,9.76,0,0,1,28.2,48.24Zm0-18.58a8.82,8.82,0,1,0,4.41,1.18A8.83,8.83,0,0,0,28.2,29.67Z"/><path class="b" d="M7.5,19h-5a1,1,0,0,1,0-2h5"/><path class="b" d="M7.5,29h-5a1,1,0,0,1,0-2h5"/><path class="b" d="M7.5,39h-5a1,1,0,0,1,0-2h5"/><path class="b" d="M7.5,49h-5a1,1,0,0,1,0-2h5"/><path class="b" d="M7.5,59h-5a1,1,0,0,1,0-2h5"/><g class="c"><path class="a" d="M60.58,68.42H14.4a6.85,6.85,0,0,1-6.84-6.84V15.4A6.85,6.85,0,0,1,14.4,8.56H60.58a6.85,6.85,0,0,1,6.84,6.84V61.58A6.85,6.85,0,0,1,60.58,68.42ZM14.4,10.49A4.91,4.91,0,0,0,9.49,15.4V61.58a4.91,4.91,0,0,0,4.91,4.91H60.58a4.91,4.91,0,0,0,4.91-4.91V15.4a4.91,4.91,0,0,0-4.91-4.91Z"/></g></svg>