<svg xmlns="http://www.w3.org/2000/svg" viewBox="0 0 75 75"><defs><style>.a{fill:#ff3b3f;}</style></defs><title>icons</title><path class="a" d="M38.5,69.5a31,31,0,1,1,31-31A31,31,0,0,1,38.5,69.5Zm0-60a29,29,0,1,0,29,29A29,29,0,0,0,38.5,9.5Z"/><path class="a" d="M27.11,53.49c-7.15,0-12.75-5.4-12.75-12.29,0-7.27,5.63-12.75,13.09-12.75A11.34,11.34,0,0,1,33,29.85l.51.29v9.07L31.9,38a5.69,5.69,0,0,0-3.36-1.31,4.29,4.29,0,1,0,.12,8.58,4.84,4.84,0,0,0,3.16-1.21l1.68-1.54v9.37l-.55.28A12.81,12.81,0,0,1,27.11,53.49Zm.34-23C21,30.46,16.36,35,16.36,41.21A10.41,10.41,0,0,0,27.11,51.49a11.08,11.08,0,0,0,4.39-.85v-4a6.85,6.85,0,0,1-2.84.63,6.29,6.29,0,1,1-.12-12.58,6.71,6.71,0,0,1,3,.73V31.34A9.47,9.47,0,0,0,27.45,30.46Z"/><path class="a" d="M50.26,67.23V40.58c0-3.45-.9-4.13-2.45-4.13-2.61,0-3,2.59-3,4.13V52.66H35.14v-45l.92-.07c.91-.07,1.7-.1,2.44-.1A31.6,31.6,0,0,1,44,8l.83.15V30.35a8.94,8.94,0,0,1,6-2c5.78,0,9.11,3.68,9.14,10.1V60.9l-.32.3a31.12,31.12,0,0,1-7.93,5.36ZM47.81,34.45c4.45,0,4.45,4.45,4.45,6.13V64a29.13,29.13,0,0,0,5.67-4V38.44c0-3.7-1.26-8.11-7.14-8.11a7,7,0,0,0-6.11,3.05l-.3.4h-1.5l-.08-1v-23A29.58,29.58,0,0,0,38.5,9.5c-.43,0-.88,0-1.36,0V50.66h5.67V40.58C42.81,36.8,44.72,34.45,47.81,34.45Z"/></svg>