<svg xmlns="http://www.w3.org/2000/svg" viewBox="0 0 75 75"><defs><style>.a{fill:#1e223e;}.b{fill:#ff3b3f;}</style></defs><title>icons</title><rect class="a" x="-487.04" y="-126.38" width="2737" height="2544.92"/><path class="b" d="M37.5,7.5a30,30,0,1,1-30,30A30,30,0,0,1,37.5,7.5Zm0,58.06A28.06,28.06,0,1,0,9.44,37.5,28.1,28.1,0,0,0,37.5,65.56Z"/><path class="b" d="M48.52,23A12,12,0,0,1,60.86,34.88c0,7-5.45,12.34-12.67,12.34a11,11,0,0,1-5.36-1.35l-.5-.28V36.81L43.89,38a5.51,5.51,0,0,0,3.25,1.27,4.15,4.15,0,1,0-.12-8.3A4.68,4.68,0,0,0,44,32.12l-1.62,1.49V24.54l.53-.27A12.4,12.4,0,0,1,48.52,23Zm-.33,22.29c6.22,0,10.73-4.37,10.73-10.4a10.08,10.08,0,0,0-10.4-10,10.72,10.72,0,0,0-4.25.82v3.87A6.63,6.63,0,0,1,47,29a6.09,6.09,0,1,1,.12,12.17,6.5,6.5,0,0,1-2.86-.7v4A9.17,9.17,0,0,0,48.19,45.28Z"/><path class="b" d="M26.12,9.7V35.49c0,3.34.87,4,2.37,4,2.52,0,2.9-2.5,2.9-4V23.79h9.36V67.33l-.89.07c-.88.07-1.65.1-2.36.1A30.58,30.58,0,0,1,32.19,67l-.8-.14V45.38a8.65,8.65,0,0,1-5.79,2c-5.6,0-8.82-3.56-8.84-9.78V15.82l.31-.29a30.12,30.12,0,0,1,7.67-5.19Zm2.37,31.72c-4.31,0-4.31-4.31-4.31-5.93V12.8a28.19,28.19,0,0,0-5.49,3.87V37.56c0,3.58,1.22,7.84,6.91,7.84a6.73,6.73,0,0,0,5.91-3l.29-.39h1.45l.08,1V65.26a28.63,28.63,0,0,0,4.17.31c.41,0,.85,0,1.32,0V25.73H33.33v9.76C33.33,39.15,31.48,41.42,28.49,41.42Z"/></svg>