<svg xmlns="http://www.w3.org/2000/svg" viewBox="0 0 747.075 525.053"><defs><style>.a{fill:#fff;}.b{opacity:0.24;}.c{opacity:0.15;}.d{opacity:0.35;}.e{opacity:0.49;}.f{opacity:0.4;}.g{opacity:0.1;}.h{fill:#1d1d1b;}.i{opacity:0.7;}.j{fill:#ff3b3f;}.k{opacity:0.63;}.l{opacity:0.5;}.m{opacity:0.8;}.n{opacity:0.9;}</style></defs><title>landing_illustration_mobie</title><path class="a" d="M100.417,160.584c-1.711,0-3.1-1.77-3.1-3.945s1.392-3.946,3.1-3.946,3.1,1.77,3.1,3.946S102.128,160.584,100.417,160.584Zm0-6.89c-1.159,0-2.1,1.321-2.1,2.945s.943,2.944,2.1,2.944,2.1-1.321,2.1-2.944S101.576,153.694,100.417,153.694Z"/><path class="a" d="M107.215,171.394a.5.5,0,0,1-.5-.5,6.184,6.184,0,1,0-12.367,0,.5.5,0,0,1-1,0,7.185,7.185,0,1,1,14.369,0A.5.5,0,0,1,107.215,171.394Z"/><path class="a" d="M59.366,170.605c-1.73,0-3.137-1.79-3.137-3.99s1.407-3.99,3.137-3.99,3.137,1.79,3.137,3.99S61.095,170.605,59.366,170.605Zm0-6.979c-1.178,0-2.136,1.341-2.136,2.989s.958,2.989,2.136,2.989,2.136-1.341,2.136-2.989S60.543,163.626,59.366,163.626Z"/><path class="a" d="M66.252,181.556a.5.5,0,0,1-.5-.5,6.271,6.271,0,1,0-12.541,0,.5.5,0,0,1-1,0,7.272,7.272,0,0,1,14.543,0A.5.5,0,0,1,66.252,181.556Z"/><path class="a" d="M155.986,142.97c-1.451,0-2.632-1.49-2.632-3.321s1.18-3.321,2.632-3.321,2.631,1.49,2.631,3.321S157.436,142.97,155.986,142.97Zm0-5.641c-.884,0-1.631,1.062-1.631,2.32s.747,2.32,1.631,2.32,1.63-1.063,1.63-2.32S156.869,137.329,155.986,137.329Z"/><path class="a" d="M161.552,151.822a.5.5,0,0,1-.5-.5,4.973,4.973,0,0,0-9.945,0,.5.5,0,0,1-1,0,5.974,5.974,0,1,1,11.947,0A.5.5,0,0,1,161.552,151.822Z"/><path class="a" d="M172.209,124.88a2.3,2.3,0,1,1,1.821-2.249A2.072,2.072,0,0,1,172.209,124.88Zm0-3.5c-.445,0-.821.572-.821,1.248s.376,1.248.821,1.248.82-.571.82-1.248S172.654,121.383,172.209,121.383Z"/><path class="a" d="M175.659,130.367a.5.5,0,0,1-.5-.5,2.892,2.892,0,1,0-5.784,0,.5.5,0,0,1-1,0,3.893,3.893,0,1,1,7.787,0A.5.5,0,0,1,175.659,130.367Z"/><path class="a" d="M129.323,140.241a2.741,2.741,0,1,1,2.143-2.675A2.457,2.457,0,0,1,129.323,140.241Zm0-4.35c-.619,0-1.143.767-1.143,1.674s.523,1.674,1.143,1.674,1.142-.767,1.142-1.674S129.943,135.892,129.323,135.892Z"/><path class="a" d="M133.615,147.067a.5.5,0,0,1-.5-.5,3.719,3.719,0,1,0-7.439,0,.5.5,0,1,1-1,0,4.721,4.721,0,0,1,9.441,0A.5.5,0,0,1,133.615,147.067Z"/><g class="b"><path class="a" d="M113.207,58.87a1.964,1.964,0,0,1-.073-3.834,1.74,1.74,0,0,1,1.614,1.87,2.185,2.185,0,0,1-.373,1.315,1.446,1.446,0,0,1-1.128.648Zm-.035-2.833h-.009c-.267.008-.554.393-.538.933s.333.9.593.9a.481.481,0,0,0,.348-.227,1.185,1.185,0,0,0,.19-.706C113.739,56.4,113.437,56.037,113.172,56.037Z"/></g><g class="b"><path class="a" d="M110.684,63.394a.5.5,0,0,1-.5-.486,3.244,3.244,0,0,1,.876-2.325,3.192,3.192,0,0,1,2.251-1.02,3.243,3.243,0,0,1,3.318,3.151.5.5,0,1,1-.993.03,2.231,2.231,0,0,0-2.3-2.181,2.209,2.209,0,0,0-1.557.706,2.244,2.244,0,0,0-.606,1.609.5.5,0,0,1-.481.515Z"/></g><g class="b"><path class="a" d="M122.4,52.247a1.959,1.959,0,1,1,1.558-1.917A1.768,1.768,0,0,1,122.4,52.247Zm0-2.834c-.268,0-.565.376-.565.916s.3.916.565.916.565-.376.565-.916S122.667,49.413,122.4,49.413Z"/></g><g class="b"><path class="a" d="M125.173,56.693a.5.5,0,0,1-.5-.5,2.231,2.231,0,1,0-4.461,0,.5.5,0,1,1-.993,0,3.224,3.224,0,1,1,6.447,0A.5.5,0,0,1,125.173,56.693Z"/></g><g class="b"><path class="a" d="M106.464,47.547a1.959,1.959,0,0,1,0-3.835,1.959,1.959,0,0,1,0,3.835Zm0-2.834c-.268,0-.565.376-.565.916s.3.916.565.916.565-.376.565-.916S106.731,44.713,106.464,44.713Z"/></g><g class="b"><path class="a" d="M109.237,51.993a.5.5,0,0,1-.5-.5,2.231,2.231,0,1,0-4.461,0,.5.5,0,1,1-.993,0,3.224,3.224,0,1,1,6.447,0A.5.5,0,0,1,109.237,51.993Z"/></g><g class="b"><path class="a" d="M72.683,56.373a1.959,1.959,0,0,1,0-3.835,1.768,1.768,0,0,1,1.558,1.917A1.747,1.747,0,0,1,72.683,56.373Zm0-2.834c-.268,0-.565.376-.565.916s.3.916.565.916.565-.376.565-.916S72.95,53.54,72.683,53.54Z"/></g><g class="b"><path class="a" d="M75.456,60.819a.5.5,0,0,1-.5-.5,2.231,2.231,0,1,0-4.461,0,.5.5,0,1,1-.993,0,3.224,3.224,0,1,1,6.447,0A.5.5,0,0,1,75.456,60.819Z"/></g><g class="b"><path class="a" d="M88.679,49.108a1.959,1.959,0,0,1,0-3.835,1.959,1.959,0,0,1,0,3.835Zm0-2.834c-.268,0-.565.376-.565.916s.3.916.565.916.565-.376.565-.916S88.947,46.274,88.679,46.274Z"/></g><g class="b"><path class="a" d="M91.453,53.554a.5.5,0,0,1-.5-.5,2.231,2.231,0,1,0-4.461,0,.5.5,0,1,1-.993,0,3.224,3.224,0,1,1,6.447,0A.5.5,0,0,1,91.453,53.554Z"/></g><g class="b"><path class="a" d="M65.844,48.611a1.747,1.747,0,0,1-1.558-1.917,1.768,1.768,0,0,1,1.558-1.917,1.959,1.959,0,0,1,0,3.835Zm0-2.834c-.267,0-.565.376-.565.916s.3.916.565.916.565-.376.565-.916S66.111,45.778,65.844,45.778Z"/></g><g class="b"><path class="a" d="M68.617,53.057a.5.5,0,0,1-.5-.5,2.231,2.231,0,1,0-4.461,0,.5.5,0,1,1-.993,0,3.224,3.224,0,1,1,6.447,0A.5.5,0,0,1,68.617,53.057Z"/></g><g class="b"><path class="a" d="M103.621,78.582a2.526,2.526,0,1,1,1.968-2.464A2.26,2.26,0,0,1,103.621,78.582Zm0-3.927c-.529,0-.975.67-.975,1.463s.446,1.463.975,1.463.975-.67.975-1.463S104.15,74.656,103.621,74.656Z"/></g><g class="b"><path class="a" d="M107.465,84.743a.5.5,0,0,1-.5-.5,3.283,3.283,0,1,0-6.565,0,.5.5,0,1,1-.993,0,4.276,4.276,0,1,1,8.551,0A.5.5,0,0,1,107.465,84.743Z"/></g><g class="b"><path class="a" d="M85.746,81.585a2.526,2.526,0,1,1,1.968-2.464A2.26,2.26,0,0,1,85.746,81.585Zm0-3.927c-.529,0-.975.67-.975,1.463s.446,1.463.975,1.463.975-.67.975-1.463S86.275,77.659,85.746,77.659Z"/></g><g class="b"><path class="a" d="M89.59,87.746a.5.5,0,0,1-.5-.5,3.283,3.283,0,1,0-6.565,0,.5.5,0,1,1-.993,0,4.276,4.276,0,1,1,8.551,0A.5.5,0,0,1,89.59,87.746Z"/></g><g class="b"><path class="a" d="M76.312,75.579a2.526,2.526,0,1,1,1.968-2.464A2.26,2.26,0,0,1,76.312,75.579Zm0-3.927c-.529,0-.975.67-.975,1.463s.446,1.463.975,1.463.975-.67.975-1.463S76.841,71.652,76.312,71.652Z"/></g><g class="b"><path class="a" d="M80.156,81.74a.5.5,0,0,1-.5-.5,3.283,3.283,0,1,0-6.565,0,.5.5,0,1,1-.993,0,4.276,4.276,0,1,1,8.551,0A.5.5,0,0,1,80.156,81.74Z"/></g><g class="b"><path class="a" d="M93.194,71.575a2.526,2.526,0,1,1,1.968-2.464A2.26,2.26,0,0,1,93.194,71.575Zm0-3.927c-.529,0-.975.67-.975,1.463s.446,1.463.975,1.463.975-.67.975-1.463S93.723,67.648,93.194,67.648Z"/></g><g class="b"><path class="a" d="M97.038,77.736a.5.5,0,0,1-.5-.5,3.283,3.283,0,1,0-6.565,0,.5.5,0,1,1-.993,0,4.276,4.276,0,1,1,8.551,0A.5.5,0,0,1,97.038,77.736Z"/></g><g class="b"><path class="a" d="M63.4,67.07a2.526,2.526,0,1,1,1.968-2.464A2.26,2.26,0,0,1,63.4,67.07Zm0-3.927c-.529,0-.975.67-.975,1.463s.446,1.463.975,1.463.975-.67.975-1.463S63.931,63.143,63.4,63.143Z"/></g><g class="b"><path class="a" d="M67.246,73.231a.5.5,0,0,1-.5-.5,3.283,3.283,0,1,0-6.565,0,.5.5,0,1,1-.993,0,4.276,4.276,0,1,1,8.551,0A.5.5,0,0,1,67.246,73.231Z"/></g><path class="a" d="M68,116.659a2.522,2.522,0,1,1,1.984-2.464A2.266,2.266,0,0,1,68,116.659Zm0-3.927c-.533,0-.983.67-.983,1.463s.45,1.463.983,1.463.983-.67.983-1.463S68.529,112.732,68,112.732Z"/><path class="a" d="M71.871,122.82a.5.5,0,0,1-.5-.5,3.309,3.309,0,0,0-6.618,0,.5.5,0,0,1-1,0,4.31,4.31,0,0,1,8.62,0A.5.5,0,0,1,71.871,122.82Z"/><path class="a" d="M49.978,119.662a2.522,2.522,0,0,1,0-4.928,2.522,2.522,0,0,1,0,4.928Zm0-3.927c-.533,0-.983.67-.983,1.463s.45,1.463.983,1.463.983-.67.983-1.463S50.511,115.735,49.978,115.735Z"/><path class="a" d="M53.852,125.823a.5.5,0,0,1-.5-.5,3.309,3.309,0,0,0-6.618,0,.5.5,0,1,1-1,0,4.31,4.31,0,0,1,8.62,0A.5.5,0,0,1,53.852,125.823Z"/><path class="a" d="M82.2,111.3a2.522,2.522,0,1,1,1.984-2.464A2.266,2.266,0,0,1,82.2,111.3Zm0-3.927c-.533,0-.983.67-.983,1.463s.45,1.463.983,1.463.983-.67.983-1.463S82.728,107.378,82.2,107.378Z"/><path class="a" d="M86.07,117.466a.5.5,0,0,1-.5-.5,3.309,3.309,0,0,0-6.618,0,.5.5,0,0,1-1,0,4.31,4.31,0,1,1,8.62,0A.5.5,0,0,1,86.07,117.466Z"/><path class="a" d="M57.486,109.652a2.522,2.522,0,1,1,1.984-2.464A2.266,2.266,0,0,1,57.486,109.652Zm0-3.927c-.533,0-.983.67-.983,1.463s.45,1.463.983,1.463.983-.67.983-1.463S58.018,105.725,57.486,105.725Z"/><path class="a" d="M61.36,115.813a.5.5,0,0,1-.5-.5,3.309,3.309,0,0,0-6.618,0,.5.5,0,1,1-1,0,4.31,4.31,0,0,1,8.62,0A.5.5,0,0,1,61.36,115.813Z"/><path class="a" d="M69.182,102.8a2.522,2.522,0,1,1,1.984-2.464A2.266,2.266,0,0,1,69.182,102.8Zm0-3.927c-.533,0-.983.67-.983,1.463s.45,1.463.983,1.463.983-.67.983-1.463S69.714,98.869,69.182,98.869Z"/><path class="a" d="M73.056,108.957a.5.5,0,0,1-.5-.5,3.309,3.309,0,0,0-6.618,0,.5.5,0,0,1-1,0,4.31,4.31,0,1,1,8.62,0A.5.5,0,0,1,73.056,108.957Z"/><path class="a" d="M141.057,121.82a2.123,2.123,0,1,1,1.693-2.079A1.918,1.918,0,0,1,141.057,121.82Zm0-3.157c-.369,0-.692.5-.692,1.078s.323,1.078.692,1.078.692-.5.692-1.078S141.426,118.663,141.057,118.663Z"/><path class="a" d="M144.172,126.774a.5.5,0,0,1-.5-.5,2.562,2.562,0,0,0-5.125,0,.5.5,0,0,1-1,0,3.563,3.563,0,0,1,7.127,0A.5.5,0,0,1,144.172,126.774Z"/><path class="a" d="M86.85,148.693a2.871,2.871,0,1,1,2.238-2.8A2.57,2.57,0,0,1,86.85,148.693Zm0-4.6c-.671,0-1.237.824-1.237,1.8s.567,1.8,1.237,1.8,1.237-.824,1.237-1.8S87.521,144.092,86.85,144.092Z"/><path class="a" d="M91.389,155.911a.5.5,0,0,1-.5-.5,3.962,3.962,0,1,0-7.925,0,.5.5,0,0,1-1,0,4.963,4.963,0,0,1,9.927,0A.5.5,0,0,1,91.389,155.911Z"/><path class="a" d="M122.056,155.942c-1.711,0-3.1-1.77-3.1-3.945a4.481,4.481,0,0,1,1.007-2.906.506.506,0,0,1,.109-.122,2.731,2.731,0,0,1,1.987-.917c1.711,0,3.1,1.77,3.1,3.945,0,.12,0,.238-.013.356v.011C125,154.367,123.669,155.942,122.056,155.942Zm-1.721-5.635a3.788,3.788,0,0,0-.381,1.689c0,1.624.943,2.944,2.1,2.944,1,0,1.833-.977,2.049-2.283a14.021,14.021,0,0,1-2.8-1.333A4.26,4.26,0,0,1,120.335,150.307Zm.653-.845a3.373,3.373,0,0,0,.914,1.057,11.863,11.863,0,0,0,2.237,1.081c-.139-1.437-1.02-2.548-2.083-2.548A1.664,1.664,0,0,0,120.987,149.462Z"/><path class="a" d="M128.74,166.484a.5.5,0,0,1-.5-.5,6.184,6.184,0,1,0-12.367,0,.5.5,0,0,1-1,0,7.185,7.185,0,1,1,14.369,0A.5.5,0,0,1,128.74,166.484Z"/><path class="a" d="M139.776,155.691h-.022a2.8,2.8,0,0,1-2.228-1.228,4.772,4.772,0,0,1,.05-5.475,2.855,2.855,0,0,1,2.25-1.187,2.805,2.805,0,0,1,2.229,1.228,4.553,4.553,0,0,1,.838,2.745h0C142.872,153.94,141.476,155.691,139.776,155.691Zm-1.69-5.648a3.738,3.738,0,0,0-.4,1.683,3.551,3.551,0,0,0,.641,2.14,1.831,1.831,0,0,0,1.433.823h.014c.991,0,1.83-.966,2.055-2.264a14.019,14.019,0,0,1-2.784-1.359A4.258,4.258,0,0,1,138.086,150.044Zm.66-.839a3.374,3.374,0,0,0,.9,1.062,11.849,11.849,0,0,0,2.227,1.1,3.43,3.43,0,0,0-.626-1.743,1.832,1.832,0,0,0-1.434-.823H139.8A1.661,1.661,0,0,0,138.746,149.205Z"/><path class="a" d="M146.345,166.294h0a.5.5,0,0,1-.5-.505,6.183,6.183,0,1,0-12.366-.113.5.5,0,0,1-.5.5h0a.5.5,0,0,1-.5-.505,7.184,7.184,0,0,1,7.182-7.119h.068a7.184,7.184,0,0,1,7.118,7.25A.5.5,0,0,1,146.345,166.294Z"/><path class="a" d="M186.957,152.021c-1.711,0-3.1-1.77-3.1-3.945a4.479,4.479,0,0,1,1.008-2.908.507.507,0,0,1,.107-.119,2.729,2.729,0,0,1,1.988-.919c1.711,0,3.1,1.77,3.1,3.945S188.668,152.021,186.957,152.021Zm-1.721-5.635a3.788,3.788,0,0,0-.381,1.689c0,1.624.943,2.944,2.1,2.944,1,0,1.834-.977,2.049-2.283a14.02,14.02,0,0,1-2.8-1.333A4.25,4.25,0,0,1,185.237,146.386Zm.652-.846a3.374,3.374,0,0,0,.915,1.057,11.879,11.879,0,0,0,2.237,1.081c-.139-1.437-1.02-2.548-2.083-2.548A1.666,1.666,0,0,0,185.889,145.54Z"/><path class="a" d="M193.641,162.563a.5.5,0,0,1-.5-.5,6.184,6.184,0,0,0-12.367,0,.5.5,0,0,1-1,0,7.185,7.185,0,0,1,14.369,0A.5.5,0,0,1,193.641,162.563Z"/><path class="a" d="M204.142,152.688c-1.711,0-3.1-1.77-3.1-3.945a4.481,4.481,0,0,1,1.007-2.906.506.506,0,0,1,.109-.122,2.731,2.731,0,0,1,1.987-.917c1.711,0,3.1,1.77,3.1,3.945,0,.12,0,.238-.013.356v.011C207.086,151.114,205.756,152.688,204.142,152.688Zm-1.721-5.635a3.788,3.788,0,0,0-.381,1.689c0,1.624.943,2.944,2.1,2.944,1,0,1.833-.977,2.049-2.283a14.021,14.021,0,0,1-2.8-1.333A4.26,4.26,0,0,1,202.421,147.054Zm.653-.845a3.373,3.373,0,0,0,.914,1.057,11.863,11.863,0,0,0,2.237,1.081c-.139-1.437-1.02-2.548-2.083-2.548A1.664,1.664,0,0,0,203.074,146.208Z"/><path class="a" d="M210.826,163.23a.5.5,0,0,1-.5-.5,6.184,6.184,0,1,0-12.367,0,.5.5,0,1,1-1,0,7.185,7.185,0,1,1,14.369,0A.5.5,0,0,1,210.826,163.23Z"/><path class="a" d="M77.175,164.117c-1.711,0-3.1-1.77-3.1-3.945a4.479,4.479,0,0,1,1.008-2.908.5.5,0,0,1,.107-.119,2.73,2.73,0,0,1,1.988-.919c1.711,0,3.1,1.77,3.1,3.946S78.886,164.117,77.175,164.117Zm-1.721-5.635a3.788,3.788,0,0,0-.381,1.689c0,1.624.943,2.944,2.1,2.944,1,0,1.833-.977,2.049-2.283a14.042,14.042,0,0,1-2.8-1.333A4.246,4.246,0,0,1,75.455,158.482Zm.652-.846a3.37,3.37,0,0,0,.915,1.057,11.844,11.844,0,0,0,2.237,1.08c-.139-1.437-1.02-2.547-2.083-2.547A1.664,1.664,0,0,0,76.107,157.637Z"/><path class="a" d="M83.859,174.659a.5.5,0,0,1-.5-.5,6.184,6.184,0,1,0-12.367,0,.5.5,0,1,1-1,0,7.185,7.185,0,0,1,14.369,0A.5.5,0,0,1,83.859,174.659Z"/><path class="a" d="M201.47,135.179a2.613,2.613,0,0,1-2.274-2.847,3.213,3.213,0,0,1,.713-2.069.505.505,0,0,1,.1-.117,2.014,2.014,0,0,1,1.456-.662,2.612,2.612,0,0,1,2.273,2.847c0,.081,0,.162-.008.242,0,.011,0,.021,0,.032A2.548,2.548,0,0,1,201.47,135.179Zm-1.132-3.678a2.485,2.485,0,0,0-.141.83c0,1,.583,1.846,1.273,1.846.558,0,1.046-.553,1.212-1.294a9,9,0,0,1-1.816-.881A2.981,2.981,0,0,1,200.338,131.5Zm.617-.852a2.08,2.08,0,0,0,.5.547,6.7,6.7,0,0,0,1.229.613c-.16-.756-.653-1.324-1.219-1.324A.926.926,0,0,0,200.955,130.649Z"/><path class="a" d="M206.024,142.361a.5.5,0,0,1-.5-.5,4.053,4.053,0,1,0-8.107,0,.5.5,0,0,1-1,0,5.054,5.054,0,1,1,10.109,0A.5.5,0,0,1,206.024,142.361Z"/><path class="a" d="M167.348,149.557c-1.368,0-2.482-1.4-2.482-3.122s1.113-3.122,2.482-3.122,2.481,1.4,2.481,3.122S168.716,149.557,167.348,149.557Zm0-5.244c-.8,0-1.481.971-1.481,2.121s.678,2.121,1.481,2.121,1.48-.971,1.48-2.121S168.15,144.313,167.348,144.313Z"/><path class="a" d="M172.522,157.784a.5.5,0,0,1-.5-.5,4.587,4.587,0,0,0-9.174,0,.5.5,0,1,1-1,0,5.588,5.588,0,0,1,11.176,0A.5.5,0,0,1,172.522,157.784Z"/><path class="a" d="M217.487,140.519c-1.455,0-2.638-1.494-2.638-3.33a3.771,3.771,0,0,1,.841-2.436.508.508,0,0,1,.109-.121,2.327,2.327,0,0,1,1.688-.773c1.455,0,2.638,1.494,2.638,3.33S218.942,140.519,217.487,140.519Zm-1.393-4.535a3.031,3.031,0,0,0-.244,1.205c0,1.262.75,2.329,1.637,2.329.742,0,1.388-.746,1.579-1.729a11.271,11.271,0,0,1-2.247-1.08A3.532,3.532,0,0,1,216.095,135.983Zm.634-.849a2.663,2.663,0,0,0,.685.769,9,9,0,0,0,1.677.821c-.156-1.049-.827-1.865-1.6-1.865A1.245,1.245,0,0,0,216.729,135.135Z"/><path class="a" d="M222.977,149.177a.5.5,0,0,1-.5-.5,4.989,4.989,0,0,0-9.979,0,.5.5,0,0,1-1,0,5.99,5.99,0,0,1,11.981,0A.5.5,0,0,1,222.977,149.177Z"/><path class="a" d="M34.177,204.663a.5.5,0,0,1-.5-.5c0-10.221,16.315-18.87,48.493-25.7,27.917-5.93,68.036-10.454,116.019-13.083l8.125-.447c25.729-1.417,25.729-1.417,54.757-2.072l4.712-.106h.011a.5.5,0,0,1,.011,1l-4.712.107c-29.012.654-29.012.654-54.725,2.07l-8.126.447c-103.949,5.7-163.566,19.469-163.566,37.788A.5.5,0,0,1,34.177,204.663Z"/><path class="a" d="M304.832,246.929l-1.279-.455a11.441,11.441,0,0,1-7.374-8.587L264,70.582a11.422,11.422,0,0,1,9.049-13.359l224.9-37.214a11.384,11.384,0,0,1,13.335,9.053l30.229,159.089a11.4,11.4,0,0,1,.081,3.813l-.179,1.2-1.115-.474a16.115,16.115,0,0,0-2.309-.779,17.379,17.379,0,0,0-7.691-.22L305.238,236.418a3.316,3.316,0,0,0-1.247,5.973l1.455,1.015-.335.715a3.235,3.235,0,0,0-.305,1.453ZM500.1,21.679a9.631,9.631,0,0,0-1.822.176L273.38,59.069a9.534,9.534,0,0,0-7.538,11.159L298.02,237.534a9.569,9.569,0,0,0,5.066,6.7q.021-.081.044-.162l-.211-.147a5.191,5.191,0,0,1,1.954-9.35l225.063-44.728a19.243,19.243,0,0,1,8.524.244c.465.119.927.257,1.381.412a9.7,9.7,0,0,0-.168-2.005L509.443,29.415a9.526,9.526,0,0,0-8.8-7.72C500.466,21.685,500.285,21.679,500.1,21.679Z"/><path class="a" d="M304.437,246.789l-.366-.13-.287-.028a11.471,11.471,0,0,1-10.1-9.206L261.5,70.126a11.407,11.407,0,0,1,9.049-13.359l224.9-37.213a11.435,11.435,0,0,1,5.532.311l-.334,1.831a9.563,9.563,0,0,0-2.367.16L273.38,59.069a9.534,9.534,0,0,0-7.538,11.159L298.02,237.534a9.562,9.562,0,0,0,6.162,7.175l.3.106.416.04-.01.1.178.063-.253.711-.1.988-.247-.024ZM267.619,59.9a9.558,9.558,0,0,0-4.277,9.873l32.179,167.3a9.456,9.456,0,0,0,1.736,3.907,11.332,11.332,0,0,1-1.077-3.091L264,70.582a11.33,11.33,0,0,1,1.756-8.554A11.5,11.5,0,0,1,267.619,59.9Z"/><path class="a" d="M438.1,336.99c-.244,0-.5-.006-.771-.02-4.444-.215-7.454-.962-13.537-4.819L305.114,249.667a5.039,5.039,0,0,1-2.077-3.122l-.087,0-.019-.937v-.054l-.032-.756.079,0a5.074,5.074,0,0,1,.435-1.472l.471-1.005,4.469,3.1,117.134,81.412a19.8,19.8,0,0,0,15.1,3.15l79.267-15.857.338.261c.716.552,1.551,1.125,2.287,1.63l.25.168c.651.438,1.166.783,1.433.991l1.593,1.234-83.019,17.866c-.33.071-.633.14-.92.2A15.2,15.2,0,0,1,438.1,336.99ZM304.8,245.511l.006.147a3.116,3.116,0,0,0,1.374,2.47l118.645,82.461c5.728,3.631,8.406,4.305,12.591,4.508a12.649,12.649,0,0,0,3.98-.446c.293-.067.6-.137.94-.209l78.923-16.984c-.608-.417-1.263-.87-1.875-1.326l-78.436,15.691a21.685,21.685,0,0,1-16.537-3.449l-119.6-83.126C304.808,245.334,304.8,245.422,304.8,245.511Z"/><path class="a" d="M436.774,332.233a21.684,21.684,0,0,1-12.357-3.86L306.357,246.317l-3.438-2.388a5.191,5.191,0,0,1,1.954-9.35l225.063-44.728a19.255,19.255,0,0,1,8.524.243,18.018,18.018,0,0,1,2.574.87,18.922,18.922,0,0,1,3.567,1.948l121.58,84.5a5.585,5.585,0,0,1-2.1,10.064h0l-2.618.519-64.806,12.88-.35-.323q-1.082-1-2.163-2.012c-.69-.638-1.382-1.287-2.076-1.938q-.212.41-.42.821l-.425.84-.839-.429c-.521-.266-12.846-6.589-19.769-12.014-6.551-5.143-13.659-10.692-14.609-11.433-2.658-1.043-5.891-2.06-6.683-2-1.02.675-5.088,6.156-7.535,9.453-1.666,2.243-3.1,4.18-3.891,5.1-1.526,1.79-8.565,17.717-11.945,27.508-.244.7-.535,1.377-.791,1.973a14.957,14.957,0,0,0-.672,1.737l-.37,1.352-1.108-.858c-.218-.169-.734-.515-1.332-.917l-.254-.171c-.652-.448-1.371-.941-2.038-1.438l-78.436,15.691A21.428,21.428,0,0,1,436.774,332.233Zm96.89-140.871a17.324,17.324,0,0,0-3.363.328L305.238,236.418a3.316,3.316,0,0,0-1.247,5.973l4.362,3.031,117.134,81.412a19.8,19.8,0,0,0,15.1,3.15l79.267-15.857.338.261c.716.552,1.551,1.125,2.287,1.63l.25.168.391.263c.1-.247.211-.5.323-.761.256-.6.521-1.211.742-1.846,3.066-8.878,10.318-25.8,12.29-28.111.746-.876,2.167-2.79,3.812-5.006,5.881-7.924,7.56-9.916,8.552-10.153,1.488-.353,6.08,1.367,7.987,2.121l.126.05.106.083s7.682,5.994,14.72,11.52c5.847,4.583,15.7,9.855,18.633,11.389q.286-.551.576-1.1l.574-1.085,1.587,1.488q1.139,1.069,2.278,2.128.906.851,1.8,1.682l66.49-13.212a3.71,3.71,0,0,0,1.391-6.685l-121.578-84.5a17.061,17.061,0,0,0-3.221-1.759,16.127,16.127,0,0,0-2.32-.784A17.268,17.268,0,0,0,533.664,191.362ZM663.9,286.557h0Z"/><path class="a" d="M599.745,303.737l-.351-.323c-1.033-.951-2.059-1.9-3.092-2.867l-1.338-1.248,67.326-13.38-.074,1.214a5.431,5.431,0,0,1-4.4,5.062Zm-.823-3.312q.7.645,1.392,1.288l57.134-11.356a3.51,3.51,0,0,0,2.591-2.078Z"/><path class="a" d="M303.358,246.415l-.1-.617a1.24,1.24,0,0,1-.014-.207v-.625h1.25v.625l.1.617Z"/><g class="c"><rect class="a" x="310.248" y="217.614" width="231.339" height="1.875" transform="translate(-34.44 87.244) rotate(-11.244)"/></g><g class="c"><rect class="a" x="539.922" y="250.52" width="69.574" height="1.875" transform="translate(-39.522 124.016) rotate(-11.91)"/></g><g class="d"><path class="a" d="M433.909,64.2a.625.625,0,0,1-.114-1.24l61.095-11.34a.625.625,0,0,1,.228,1.229l-61.095,11.34A.639.639,0,0,1,433.909,64.2Z"/></g><g class="e"><path class="a" d="M300.117,161.249a.938.938,0,0,1-.163-1.861l92.521-16.449a.938.938,0,0,1,.328,1.846l-92.521,16.449A.957.957,0,0,1,300.117,161.249Z"/></g><g class="e"><path class="a" d="M301.367,166.665a.938.938,0,0,1-.164-1.861l97.73-17.49a.937.937,0,0,1,.331,1.846l-97.73,17.49A.942.942,0,0,1,301.367,166.665Z"/></g><g class="e"><path class="a" d="M302.617,172.081a.938.938,0,0,1-.162-1.861l91.688-16.24a.937.937,0,0,1,.327,1.846l-91.688,16.24A.95.95,0,0,1,302.617,172.081Z"/></g><g class="e"><path class="a" d="M303.867,177.5a.938.938,0,0,1-.164-1.861l88.772-15.824a.937.937,0,0,1,.33,1.846l-88.772,15.824A.935.935,0,0,1,303.867,177.5Z"/></g><g class="e"><path class="a" d="M305.117,182.913a.938.938,0,0,1-.164-1.861l97.73-17.49a.937.937,0,0,1,.331,1.846l-97.73,17.49A.942.942,0,0,1,305.117,182.913Z"/></g><g class="e"><path class="a" d="M306.367,188.33a.938.938,0,0,1-.162-1.861l93.98-16.657a.937.937,0,0,1,.327,1.846l-93.98,16.657A.95.95,0,0,1,306.367,188.33Z"/></g><g class="e"><path class="a" d="M307.617,193.746a.938.938,0,0,1-.164-1.861l79.189-14.157a.937.937,0,1,1,.33,1.846l-79.189,14.157A.93.93,0,0,1,307.617,193.746Z"/></g><g class="e"><path class="a" d="M308.866,199.162a.938.938,0,0,1-.163-1.861l87.73-15.616a.937.937,0,0,1,.328,1.846l-87.73,15.616A.923.923,0,0,1,308.866,199.162Z"/></g><g class="e"><path class="a" d="M310.116,204.578a.938.938,0,0,1-.164-1.861l40.65-7.283a.937.937,0,0,1,.331,1.846l-40.65,7.283A.942.942,0,0,1,310.116,204.578Z"/></g><g class="d"><path class="a" d="M434.419,67.008a.625.625,0,0,1-.114-1.24L495.4,54.428a.625.625,0,0,1,.228,1.229L434.534,67A.639.639,0,0,1,434.419,67.008Z"/></g><g class="d"><path class="a" d="M435.184,69.813a.625.625,0,0,1-.108-1.24l29.136-5.135a.625.625,0,0,1,.217,1.231L435.293,69.8A.634.634,0,0,1,435.184,69.813Z"/></g><g class="d"><path class="a" d="M437.479,81.543a.625.625,0,0,1-.116-1.239l55.91-10.618a.625.625,0,0,1,.233,1.228L437.6,81.532A.614.614,0,0,1,437.479,81.543Z"/></g><g class="d"><path class="a" d="M437.989,84.348a.625.625,0,0,1-.114-1.24L498.97,71.768A.625.625,0,1,1,499.2,73L438.1,84.337A.639.639,0,0,1,437.989,84.348Z"/></g><g class="d"><path class="a" d="M438.754,87.153a.625.625,0,0,1-.111-1.24L491.111,76.4a.625.625,0,1,1,.223,1.23l-52.468,9.513A.617.617,0,0,1,438.754,87.153Z"/></g><g class="d"><path class="a" d="M439.3,89.809a.625.625,0,0,1-.107-1.24L462.318,84.5a.625.625,0,1,1,.216,1.231L439.41,89.8A.627.627,0,0,1,439.3,89.809Z"/></g><g class="d"><path class="a" d="M448.737,137.363a.625.625,0,0,1-.114-1.24l61.095-11.34a.625.625,0,1,1,.228,1.229l-61.095,11.34A.639.639,0,0,1,448.737,137.363Z"/></g><g class="d"><path class="a" d="M449.247,140.168a.625.625,0,0,1-.11-1.24l43.288-7.813a.625.625,0,1,1,.222,1.23l-43.288,7.813A.61.61,0,0,1,449.247,140.168Z"/></g><g class="d"><path class="a" d="M450.012,142.973a.625.625,0,0,1-.108-1.24L479.04,136.6a.625.625,0,0,1,.217,1.231l-29.136,5.135A.634.634,0,0,1,450.012,142.973Z"/></g><g class="d"><path class="a" d="M454.674,167.985a.625.625,0,0,1-.114-1.24l61.095-11.34a.625.625,0,1,1,.228,1.229l-61.095,11.34A.639.639,0,0,1,454.674,167.985Z"/></g><g class="d"><path class="a" d="M455.184,170.79a.625.625,0,0,1-.114-1.24l61.1-11.34a.625.625,0,0,1,.228,1.229l-61.1,11.34A.639.639,0,0,1,455.184,170.79Z"/></g><g class="d"><path class="a" d="M455.949,173.6a.625.625,0,0,1-.108-1.24l29.136-5.135a.625.625,0,0,1,.217,1.231l-29.136,5.135A.634.634,0,0,1,455.949,173.6Z"/></g><g class="f"><path class="a" d="M574.054,40.618a.625.625,0,0,1-.114-1.24L635.832,27.9a.625.625,0,0,1,.228,1.229L574.169,40.608A.639.639,0,0,1,574.054,40.618Z"/></g><g class="f"><path class="a" d="M574.62,43.636a.625.625,0,0,1-.114-1.24L640.64,30.121a.625.625,0,1,1,.228,1.229L574.735,43.625A.639.639,0,0,1,574.62,43.636Z"/></g><g class="f"><path class="a" d="M575.206,46.721a.625.625,0,0,1-.114-1.24l56.053-10.394a.625.625,0,0,1,.228,1.229L575.321,46.711A.639.639,0,0,1,575.206,46.721Z"/></g><g class="f"><path class="a" d="M577.618,59.455a.625.625,0,0,1-.116-1.239l60.8-11.569a.625.625,0,1,1,.233,1.228l-60.8,11.569A.64.64,0,0,1,577.618,59.455Z"/></g><g class="f"><path class="a" d="M578.223,62.462a.625.625,0,0,1-.117-1.239l54.91-10.511a.625.625,0,1,1,.236,1.227l-54.91,10.511A.632.632,0,0,1,578.223,62.462Z"/></g><g class="f"><path class="a" d="M578.809,65.548a.625.625,0,0,1-.111-1.24l57.26-10.394a.625.625,0,1,1,.223,1.23l-57.26,10.394A.617.617,0,0,1,578.809,65.548Z"/></g><g class="f"><path class="a" d="M581.27,78.262a.625.625,0,0,1-.114-1.239l66.622-12.389a.625.625,0,1,1,.228,1.229L581.385,78.251A.613.613,0,0,1,581.27,78.262Z"/></g><g class="f"><path class="a" d="M581.778,81.289a.625.625,0,0,1-.11-1.24l47.391-8.561a.625.625,0,1,1,.222,1.23l-47.391,8.561A.606.606,0,0,1,581.778,81.289Z"/></g><g class="f"><path class="a" d="M582.383,84.375a.625.625,0,0,1-.108-1.24l32.294-5.712a.625.625,0,0,1,.217,1.231l-32.294,5.712A.634.634,0,0,1,582.383,84.375Z"/></g><g class="f"><path class="a" d="M637.924,125.569a.625.625,0,0,1-.114-1.239l62.607-11.7a.625.625,0,1,1,.229,1.229l-62.607,11.7A.619.619,0,0,1,637.924,125.569Z"/></g><g class="f"><path class="a" d="M638.554,129.034a.625.625,0,0,1-.116-1.239L715,113.25a.625.625,0,1,1,.233,1.228l-76.559,14.545A.614.614,0,0,1,638.554,129.034Z"/></g><g class="f"><path class="a" d="M639.13,132.561a.625.625,0,0,1-.112-1.24l69.318-12.655a.625.625,0,0,1,.225,1.23l-69.318,12.655A.647.647,0,0,1,639.13,132.561Z"/></g><g class="f"><path class="a" d="M641.942,147.091a.625.625,0,0,1-.114-1.239l75.88-14.11a.625.625,0,1,1,.228,1.229l-75.88,14.11A.613.613,0,0,1,641.942,147.091Z"/></g><g class="f"><path class="a" d="M642.463,150.58a.625.625,0,0,1-.11-1.24l53.987-9.775a.625.625,0,1,1,.222,1.23l-53.987,9.775A.606.606,0,0,1,642.463,150.58Z"/></g><g class="f"><path class="a" d="M643.285,153.924a.625.625,0,0,1-.107-1.24L703.965,142a.625.625,0,1,1,.216,1.231l-60.788,10.687A.627.627,0,0,1,643.285,153.924Z"/></g><g class="c"><rect class="a" x="395.215" y="289.451" width="28.341" height="1.875" transform="translate(-49.78 87.684) rotate(-11.529)"/></g><g class="c"><rect class="a" x="396.181" y="251.961" width="21.368" height="1.875" transform="translate(-44.03 91.064) rotate(-12.12)"/></g><g class="c"><rect class="a" x="370.35" y="258.21" width="21.368" height="1.875" transform="translate(-45.918 85.779) rotate(-12.12)"/></g><path class="a" d="M657.542,517.867l-4.453-3.157c-34.668-24.577-65.813-63.866-95.212-120.115l-.157-.3.071-.331c7.8-36.273,16.965-65.379,28.034-88.981.652-1.392,1.258-2.654,1.852-3.86.792-1.618,1.547-3.109,2.3-4.557.321-.637.662-1.286,1-1.929l.574-1.085,1.61,1.509q1.128,1.058,2.256,2.106,1.083,1.018,2.155,2.005c1.034.965,2.057,1.913,3.088,2.862,24.69,22.752,49.386,43.557,71.175,61.913,12.98,10.935,25.24,21.263,36.425,31.077l.74.649-.682.7c-.057.059-5.811,6.24-20.126,34.5-14.157,27.963-31.955,78.034-33.54,82.891ZM559.7,394.027c28.914,55.247,59.484,93.994,93.421,118.4.427-1.307,1.252-3.608,2.76-7.8,1.734-4.819,4.55-12.515,8.118-21.816,5.977-15.581,14.738-37.385,22.53-52.776,11.986-23.667,17.957-31.915,19.809-34.21-10.984-9.62-23-19.741-35.7-30.443-21.8-18.369-46.516-39.188-71.238-61.968-1.033-.951-2.059-1.9-3.092-2.866q-1.075-.991-2.158-2.008c-.69-.638-1.382-1.287-2.076-1.937q-.213.41-.42.82c-.756,1.446-1.5,2.923-2.289,4.527-.589,1.2-1.189,2.448-1.836,3.829C576.549,329.179,567.445,358.048,559.7,394.027Z"/><path class="a" d="M524.484,318.145l-1.809-.494a15.577,15.577,0,0,1,.757-1.963c.259-.594.526-1.209.748-1.847,3.066-8.877,10.318-25.8,12.29-28.111.747-.876,2.237-2.883,3.814-5.008,5.881-7.922,7.559-9.914,8.55-10.151,1.482-.35,6.079,1.366,7.986,2.121l.126.05.106.083s7.682,5.994,14.72,11.52c6.8,5.327,18.95,11.558,19.465,11.82l.843.431-.439.839c-.749,1.434-1.5,2.911-2.283,4.515l-1.683-.825c.641-1.31,1.258-2.537,1.871-3.724-2.965-1.55-12.947-6.89-18.931-11.58-6.552-5.143-13.66-10.692-14.609-11.433-2.656-1.042-5.856-2.06-6.682-2-1.019.674-5.087,6.154-7.534,9.451-1.666,2.244-3.1,4.182-3.893,5.107-1.526,1.791-8.564,17.718-11.945,27.508-.247.708-.541,1.384-.8,1.982A14.261,14.261,0,0,0,524.484,318.145Zm24.889-45.786"/><path class="a" d="M559.532,386.466a8.729,8.729,0,0,0-.45-1.018l-.092-.2c-4.832-10.114-33.273-61.431-35.839-64.074-.76-.439-.942-1.732-.471-3.5l1.811.483a3.908,3.908,0,0,0-.171,1.566c.815.783,3.62,4.813,17.3,29.358,8.854,15.892,17.09,31.177,19.159,35.553l.09.195a6.177,6.177,0,0,1,.5,1.226Zm-35.506-66.947.029.013Z"/><polygon class="a" points="590.573 297.917 590.331 297.805 590.811 297 591.15 296.133 590.937 296.79 591.292 296.196 590.937 296.79 590.573 297.917"/><path class="a" d="M431.673,237.972l-.892-1.649.825-.446c.882-.477,1.749-1.022,2.585-1.549,2.264-1.425,4.4-2.773,6.508-2.529l.113.02c9.073,2.189,15.936,2.889,22.223,2.265,10.874-4.905,15.965-2.181,21.354.7.606.324,1.219.652,1.849.973l.835.426-.851,1.67-.836-.426c-.64-.327-1.265-.66-1.881-.99-5.21-2.785-9.709-5.19-19.835-.583l-.14.063-.153.016c-6.535.671-13.613-.031-22.945-2.278-1.451-.13-3.29,1.029-5.243,2.258-.863.543-1.755,1.1-2.692,1.611Z"/><path class="a" d="M547.747,273.13l-.691-.633c-2.423-2.217-4.757-5.48-7.711-9.612-1.16-1.621-2.472-3.456-3.907-5.387-9.936-9-16.946-14.484-22.7-17.743a22.066,22.066,0,0,1-7.269-4.041,40.8,40.8,0,0,0-7.371-4.568c-.989-.327-1.77-.618-2.4-.852-2.614-.973-2.886-1.074-7.734.23l-.905.244-.487-1.81.905-.244c5.275-1.42,5.917-1.278,8.875-.177.659.245,1.406.523,2.384.846l.1.04a42.284,42.284,0,0,1,7.743,4.782,20.429,20.429,0,0,0,6.774,3.776l.208.086c5.913,3.331,13.07,8.915,23.2,18.1l.123.135c1.467,1.972,2.8,3.84,3.981,5.488,2.891,4.042,5.175,7.235,7.452,9.319l.691.633Z"/><path class="a" d="M519.047,315.873a18.126,18.126,0,0,1-1.61-1.42c-.258-.25-.481-.465-.666-.61-1.371-1.065-2.982-4.183-3.571-5.387-2.383-.447-12.846-2.6-20.619-7.2a92.425,92.425,0,0,1-17.649-13.58c-.914-.068-1.563-.1-2.038-.13-1.368-.075-1.578-.087-2.35-.644-.245-.176-.58-.418-1.195-.785l-.163-.1-.112-.152c-.516-.7-1.16-1.525-1.567-1.991-3.359.735-12.94.546-16.235-.395a14.612,14.612,0,0,0-4.445-.629c-.75,1.518-3.111,6.118-5.15,8.169a8.685,8.685,0,0,0-1.615,1.991c1.119,1.515,4.491,6.5,2.73,9.273l-1.582-1.006c.885-1.393-1.147-5.19-2.873-7.442-.77-1.115.779-2.892,2.009-4.135,2.186-2.2,5-8.083,5.026-8.142l.211-.444.485-.079a14.311,14.311,0,0,1,5.719.642c3.141.9,13.409,1.07,15.7.265l.5-.177.41.343a21.689,21.689,0,0,1,2.074,2.494c.586.356.933.606,1.169.776.327.236.327.236,1.356.292.544.03,1.314.072,2.441.16l.364.028.249.267a89.006,89.006,0,0,0,17.485,13.512c8.334,4.932,20.34,7.031,20.46,7.051l.483.083.208.444c.747,1.6,2.287,4.4,3.239,5.144.264.208.519.454.815.739a16.218,16.218,0,0,0,1.449,1.281Z"/><path class="a" d="M435.389,309.075l-.395-.468c-.2-.241-4.99-5.947-5.829-9.084-.872-3.26-.037-12.078.576-14.664.644-2.716,4.971-9.41,5.462-10.164l.086-.113,4-4.477.311-.06a50.039,50.039,0,0,0,6.681-1.753c1.78-.707,5.775-.673,9.3-.644,1.49.013,2.9.025,3.764-.033a17.244,17.244,0,0,0,4.595-1.177c-1.263-.826-2.558-1.478-3.057-1.389l-.321-1.847c1.827-.316,4.954,2,5.867,2.712l1.193.936-1.371.649a22.8,22.8,0,0,1-6.784,1.987c-.936.062-2.311.051-3.9.037-3.016-.026-7.15-.06-8.588.511a48.036,48.036,0,0,1-6.705,1.79l-3.531,3.953c-1.315,2.024-4.694,7.5-5.17,9.513-.626,2.642-1.32,11.014-.589,13.747.55,2.056,3.5,5.969,5.025,7.845a7.226,7.226,0,0,0,2.059-1.4,31.467,31.467,0,0,0,3.146-4.2l1.586,1a32.67,32.67,0,0,1-3.413,4.528,8.939,8.939,0,0,1-3.4,2.089Z"/><path class="a" d="M491.423,230.049l-.739-.577a59.771,59.771,0,0,0-13.164-7.893c-1.127-.52-2.193-1.011-3.221-1.552l-.281-.147-.134-.287a9.8,9.8,0,0,0-2.521-3.08,10.252,10.252,0,0,0-5.49.946l-3.611,2.552-1.082-1.531,3.753-2.644a12.228,12.228,0,0,1,6.863-1.174l.306.021.234.2a12.455,12.455,0,0,1,3.1,3.628c.907.466,1.861.906,2.867,1.37a61.433,61.433,0,0,1,13.532,8.117l.739.577Z"/><path class="a" d="M433.285,234.252a2.653,2.653,0,0,1-.435-.023c-.873-.174-3.844-1.668-4.363-3.864a6.025,6.025,0,0,1,1.211-5.022c.251-.355.92-1.3,15.118-8.572l.341-.175.311.588-.27-.609.834-.395.023.046a72.292,72.292,0,0,1,7.634-2.63,13.3,13.3,0,0,1,4.557-.431,5.579,5.579,0,0,1,1.895-1.116,10.641,10.641,0,0,1,4.906.09,10.256,10.256,0,0,1,3.106,1.817l.721.6-1.2,1.443-.722-.6a8.451,8.451,0,0,0-2.371-1.443,9.024,9.024,0,0,0-3.852-.129,3.833,3.833,0,0,0-1.461.951l-.368.41-.541-.118a10.33,10.33,0,0,0-4.213.341,79.114,79.114,0,0,0-8.193,2.875l0,0c-.1.063-.2.114-.285.156-12.8,6.56-14.3,7.828-14.465,8.016a4.058,4.058,0,0,0-.895,3.479c.285,1.207,2.417,2.359,2.906,2.457,1.055.1,9.626-.778,11.378-2.417l.685-.64,1.28,1.369-.685.641C443.624,233.448,435.393,234.252,433.285,234.252Z"/><path class="a" d="M447.293,231.379c-.231,0-.442-.008-.627-.026a10.952,10.952,0,0,1-4.875-2.187l-.732-.583,1.166-1.465.734.582a9.176,9.176,0,0,0,3.884,1.788c1.945.185,8.032-.961,9.281-1.4l.886-.309.617,1.77-.885.309A47.068,47.068,0,0,1,447.293,231.379Z"/><path class="a" d="M464.365,235.569l-.659-.666a19.367,19.367,0,0,0-2-1.4,36.733,36.733,0,0,1-3.165-2.236,15.9,15.9,0,0,1-3.808-5.925l-.284-.893,1.786-.568.284.893a14.075,14.075,0,0,0,3.224,5.054,35.68,35.68,0,0,0,2.992,2.107,16.9,16.9,0,0,1,2.3,1.652l.659.667Z"/><path class="a" d="M403.547,240.79a14.906,14.906,0,0,1-3.385-.511c-2.84-.673-4.3-1.819-4.328-3.407a3.1,3.1,0,0,1,1.072-2.183,5.283,5.283,0,0,1,3.7-1.566,29.6,29.6,0,0,1,4.274.835c1.164.275,2.367.559,3.407.755a3.361,3.361,0,0,0,1.7-.071,2.886,2.886,0,0,1,1.059-.126c.482.052,1.059.161,1.67.277,1.213.229,3.245.613,3.854.236,1.137-.7,2.978-.618,4.6-.544.569.026,1.1.051,1.5.032,1.511-.069,11.232-.238,11.645-.246l.937-.016.032,1.875-.937.016c-.1,0-10.108.176-11.593.244-.482.022-1.061,0-1.674-.032-1.217-.055-2.886-.132-3.531.267-1.227.757-3.331.36-5.186.01-.574-.108-1.116-.211-1.525-.255a2.068,2.068,0,0,0-.386.077,5.269,5.269,0,0,1-1.407.206,5.326,5.326,0,0,1-.843,1.627c-.127.186-.251.367-.35.544a4.815,4.815,0,0,1-3.642,1.926Q403.883,240.791,403.547,240.79Zm-3.09-5.8a3.6,3.6,0,0,0-2.24,1.036,1.42,1.42,0,0,0-.507.805c.011.589,1.09,1.194,2.885,1.619a10.5,10.5,0,0,0,3.44.438,3.176,3.176,0,0,0,2.183-.975c.124-.221.277-.449.436-.683a5.745,5.745,0,0,0,.505-.836c-.872-.182-1.8-.4-2.71-.617a30.918,30.918,0,0,0-3.924-.786Z"/><path class="a" d="M412.465,240.087l-.986-1.595.8-.493c.02-.013,2.009-1.243,2.9-1.85a9.752,9.752,0,0,0,.915-.7l.7-.626,1.255,1.388-.694.628a11.271,11.271,0,0,1-1.114.855c-.923.632-2.886,1.847-2.969,1.9Z"/><path class="a" d="M450.684,253.061a19.239,19.239,0,0,1-4.384-.812c-1.183-.3-2.524-.647-3.964-.909-3.379-.615-7.248-1.1-8.133-1.2a50.54,50.54,0,0,1-11.6,1.009,57.614,57.614,0,0,1-8.4-1.227,26.817,26.817,0,0,0-2.856-.49h0a22.085,22.085,0,0,1-5.826.433c-1.51-.152-7.443-3.635-8.235-4.448-.921-.947-2.444-5.345-2.544-6.135a4,4,0,0,1,.918-2.434l.563-.749,1.5,1.128-.563.748a3.05,3.05,0,0,0-.555,1.09,23.623,23.623,0,0,0,2.028,5.046A36.089,36.089,0,0,0,405.7,248a21.633,21.633,0,0,0,4.94-.306c.527-.272,1.251-.144,3.923.39a56.161,56.161,0,0,0,8.119,1.192A48.2,48.2,0,0,0,433.8,248.3l.206-.073.228.021c.045.005,4.553.537,8.436,1.244,1.506.274,2.881.626,4.094.937a13.511,13.511,0,0,0,4.4.719l.926-.147.3,1.851-.926.148A4.968,4.968,0,0,1,450.684,253.061Z"/><path class="a" d="M398.485,281.119a3.743,3.743,0,0,1-2.738-1.363l-.208-.216-.044-.3c-.154-1.035-.27-2.879.685-3.6.673-.5,6.99-4.248,7.708-4.673l1.636-.832a21.965,21.965,0,0,0,4.922-4.117,46.128,46.128,0,0,1,5.462-4.31c.722-.523,1.54-1.117,1.684-1.25a64.339,64.339,0,0,0,4.965-5.2,9.066,9.066,0,0,1,2.619-2.353l.234-.145.276.005a15.677,15.677,0,0,0,4.583-.406c1.426-.768,7.82-1.459,9.5-1.586a59.96,59.96,0,0,1,6.787.361,51.861,51.861,0,0,0,5.938.323,19.492,19.492,0,0,0,3.433-1.145,27.106,27.106,0,0,1,2.756-.984,48.3,48.3,0,0,1,7.244-.512,1.962,1.962,0,0,0-.651-.637,4.963,4.963,0,0,0-2.273-.344l-.932.079-.164-1.863.931-.083a6.768,6.768,0,0,1,3.3.547,5.412,5.412,0,0,1,2.173,2.936l.381,1.21-1.268.01a63.154,63.154,0,0,0-8.264.472,26.09,26.09,0,0,0-2.546.915,20.34,20.34,0,0,1-3.844,1.255,43,43,0,0,1-6.369-.309,64.52,64.52,0,0,0-6.491-.36c-2.789.211-7.927.922-8.754,1.368-1.124.606-4,.647-5.222.633a6.756,6.756,0,0,0-1.756,1.552c-.693,1.2-5.266,5.595-5.31,5.636-.212.2-.754.593-1.862,1.4a51.539,51.539,0,0,0-5.156,4.032,24.108,24.108,0,0,1-5.459,4.539,3.919,3.919,0,0,1,.916,2.821c-.02,1.435-1.545,3.015-1.921,3.329a41.663,41.663,0,0,1-5.274,2.816A4.417,4.417,0,0,1,398.485,281.119Zm-1.173-2.453a1.677,1.677,0,0,0,2.109.36,45.833,45.833,0,0,0,4.773-2.519,4.234,4.234,0,0,0,1.24-1.909,2.839,2.839,0,0,0-.278-1.378l-.779-.357c-2.554,1.516-6.358,3.794-7.011,4.242A4.522,4.522,0,0,0,397.312,278.666Z"/><path class="a" d="M405.747,286.995a22.185,22.185,0,0,1-7.6-1.843c-1.645-.923-2.793-4.767-2.8-4.806-.109-.369-.4-1.351.245-1.918a1.137,1.137,0,0,1,1.207-.18l.859.376-.516,1.18,0,.013c.475,1.615,1.41,3.413,1.923,3.7.871.488,5.3,1.832,7.206,1.574,1.3-.176,6.234-3.973,9.323-6.613l.278-.237.364.013a10.1,10.1,0,0,0,2.715-.942c1.527-.688,6.074-4.177,8.791-6.262,1.483-1.138,2.271-1.741,2.583-1.933a25.434,25.434,0,0,1,3.985-1.558l.222-.069.228.042c.031.005,3.1.572,4.916.695a57.252,57.252,0,0,0,7.871-.959l.109-.019.11.007c3.315.2,8.774.5,9.325.471l.933-.057.123,1.866-.933.061c-.781.051-7.769-.363-9.45-.464a56.425,56.425,0,0,1-8.215.965c-1.647-.111-4.129-.542-4.9-.68a22.3,22.3,0,0,0-3.34,1.3c-.245.151-1.3.964-2.426,1.824-3.919,3.008-7.569,5.766-9.162,6.484a12.886,12.886,0,0,1-3.133,1.072c-1.716,1.456-7.864,6.556-10.066,6.855A5.848,5.848,0,0,1,405.747,286.995Z"/><path class="a" d="M475.058,288.06l-.492-.8a46.464,46.464,0,0,1-2.307-4.987,7.839,7.839,0,0,1-1.53,1.14,6.546,6.546,0,0,1-3.01.349l-.934-.074.148-1.868.934.073a5.514,5.514,0,0,0,1.963-.126,8,8,0,0,0,2.014-1.784l1.009-1.276.6,1.513a64.073,64.073,0,0,0,2.71,6.054l.493.8Z"/><path class="a" d="M482.814,233.32a11.893,11.893,0,0,1-2.08-.224c-.121-.022-.22-.041-.29-.05l-.868.078-.167-1.867.934-.084a2.731,2.731,0,0,1,.72.077,7.634,7.634,0,0,0,2.439.141,10.452,10.452,0,0,0,3.245-2.25l.682-.644,1.287,1.363-.681.644c-.431.407-2.66,2.452-4.2,2.731A5.754,5.754,0,0,1,482.814,233.32Zm-2.3-.28h0Z"/><path class="a" d="M433.774,269.05l-.8-.493a7.76,7.76,0,0,1-2.2-2.252l-.493-.8,1.6-.984.491.8a5.884,5.884,0,0,0,1.59,1.644l.8.494Z"/><path class="a" d="M436.419,295.369l-1.871-.1.033-.937a2.887,2.887,0,0,1,2.057-2.43,2.717,2.717,0,0,1,3.212.833l.537.768-1.536,1.075-.538-.768a.846.846,0,0,0-1.023-.15c-.754.28-.831.726-.838.776Z"/><path class="a" d="M446.388,283.279l-.744-.57c-.355-.272-1.37-1.037-1.8-1.3l-.8-.494.987-1.594.8.493c.593.367,1.895,1.365,1.951,1.407l.744.57Z"/><path class="a" d="M416.533,280.474l-.806-.478c-.015-.009-1.487-.882-2.217-1.259l-.832-.431.862-1.665.832.431c.778.4,2.25,1.275,2.312,1.312l.806.478Z"/><path class="a" d="M557.242,391.825l-.864-3.008a74.013,74.013,0,0,0-4.013-10.445c-2.455-5.018-17.444-34.045-17.6-34.338l-.059-.141c-1.675-5.157-12.031-21.144-12.135-21.3l-.511-.786,1.573-1.02.51.786c.43.662,10.5,16.213,12.322,21.672.806,1.561,15.172,29.389,17.579,34.308a71.84,71.84,0,0,1,3.46,8.616,5.763,5.763,0,0,1,.925-.967,4.209,4.209,0,0,0,.8-.79l.253-.819,1.791.552-.276.9a3.945,3.945,0,0,1-1.381,1.612,5.319,5.319,0,0,0-1.448,2.19Zm2.008-7.444Z"/><path class="a" d="M547.943,339.714l-.3-.889A21.908,21.908,0,0,0,544.213,333c-2.417-3.038-3.663-3.734-3.675-3.74l-.809-.439.834-1.642.825.409c.155.077,1.592.849,4.293,4.244a23.309,23.309,0,0,1,3.741,6.394l.3.888Z"/><path class="a" d="M545.393,341.1l-.3-.889a21.908,21.908,0,0,0-3.431-5.824c-2.418-3.038-3.664-3.734-3.676-3.741l-.809-.439.834-1.642.825.409c.155.077,1.592.85,4.294,4.245a23.309,23.309,0,0,1,3.741,6.394l.3.888Z"/><path class="a" d="M542.812,336.57a3.454,3.454,0,0,1-2.724-1.517c-1.113-1.609-.52-2.614-.389-2.8l.54-.767,1.533,1.079-.471.67a1.811,1.811,0,0,0,1.529,1.458l.919.006.045,1.837-.918.031Z"/><path class="a" d="M515.556,308.687a10.459,10.459,0,0,1-1.907-.15l-.919-.186.371-1.838.917.185a11.267,11.267,0,0,0,3.43-.029,18.6,18.6,0,0,0,5.125-2.212l.8-.492.984,1.6-.8.492a20.039,20.039,0,0,1-5.833,2.471A14.737,14.737,0,0,1,515.556,308.687Z"/><g class="g"><path class="a" d="M524.913,263.961l-.712-.611c-.106-.092-10.674-9.159-13.907-11.388s-14.9-8.385-15.017-8.447l-.829-.437.875-1.658.829.437c.484.255,11.887,6.273,15.208,8.562s13.627,11.134,14.064,11.509l.711.611Z"/></g><g class="g"><path class="a" d="M519.648,271.819l-.813-.467c-.121-.069-12.1-6.949-15.075-8.714-2.879-1.708-15.219-5.7-15.342-5.735l-.892-.288.575-1.784.892.287c.516.166,12.666,4.092,15.724,5.907,2.962,1.758,14.931,8.631,15.052,8.7l.813.467Z"/></g><g class="g"><path class="a" d="M517.219,281.477l-.84-.416c-.1-.049-9.983-4.937-13.029-6.289-2.972-1.32-16.248-4.052-16.382-4.08l-.918-.188.377-1.837.919.189c.554.114,13.61,2.8,16.766,4.2,3.081,1.369,12.691,6.121,13.1,6.323l.84.416Z"/></g><g class="g"><path class="a" d="M563.376,402.064l-1.816-.466.233-.908c.133-.518,13.337-51.936,17.59-64.773,3.031-9.151,11.093-26.782,15.629-36.477l.4-.849,1.7.794-.4.849c-4.518,9.658-12.547,27.212-15.547,36.272-4.233,12.777-17.421,64.132-17.554,64.649Z"/></g><g class="g"><path class="a" d="M595.3,299.079l-1.735-.709.355-.868c.065-.158.1-.237.1-.237l.386-.851,1.706.768-.383.853c0,.008-.03.067-.074.177Z"/></g><g class="g"><path class="h" d="M648.354,510.589l-1.764-.633.316-.882c.218-.607,21.836-60.854,27.457-73.837,5.555-12.831,25.375-42.78,26.216-44.049l.518-.781,1.563,1.036-.518.781c-.205.309-20.568,31.079-26.057,43.758-5.6,12.929-27.2,73.119-27.413,73.725Z"/></g><g class="g"><path class="a" d="M599.955,461.814l-1.315-1.337.668-.657c.4-.395,40.311-39.616,51.064-48.814,10.625-9.089,41.582-27.294,42.894-28.064l.809-.475.949,1.617-.808.475c-.32.188-32.127,18.891-42.626,27.872-10.7,9.157-50.566,48.332-50.968,48.727Z"/></g><g class="g"><path class="a" d="M624.669,487.361l-1.76-.647.323-.88c.21-.57,21.021-57.124,27.182-71.037,6.084-13.74,27.851-46.831,28.07-47.163l.516-.783,1.566,1.031-.516.783c-.218.331-21.9,33.293-27.922,46.891-6.136,13.858-26.927,70.356-27.136,70.924Z"/></g><g class="g"><path class="a" d="M585.268,434.9l-1.821-.449.225-.91c.59-2.394,14.514-58.759,19.546-70.686,4.956-11.751,20.659-35.992,21.326-37.018l.51-.786,1.573,1.021-.511.786c-.162.25-16.279,25.128-21.171,36.726-4.973,11.792-19.308,69.822-19.453,70.407Z"/></g><g class="i"><path class="a" d="M322.958,104.49a14.478,14.478,0,1,1,14.478-14.478A14.494,14.494,0,0,1,322.958,104.49Zm0-27.706a13.228,13.228,0,1,0,13.228,13.228A13.243,13.243,0,0,0,322.958,76.784Z"/></g><g class="i"><path class="a" d="M350.143,136.363a27.706,27.706,0,1,1,27.707-27.706A27.737,27.737,0,0,1,350.143,136.363Zm0-54.162A26.456,26.456,0,1,0,376.6,108.657,26.486,26.486,0,0,0,350.143,82.2Z"/></g><path class="j" d="M97.256,132.013c4.39-3.812,8.93-7.753,13.909-8.492,5-.743,10.457,1.855,15.73,4.368,5.1,2.429,10.369,4.942,15.043,4.3,4.692-.644,9.108-4.511,13.379-8.251,4.382-3.837,8.913-7.8,13.9-8.49,4.968-.681,10.385,1.922,15.624,4.44,5.148,2.475,10.471,5.035,15.174,4.333,4.688-.7,9.114-4.541,13.393-8.257,4.39-3.811,8.929-7.753,13.909-8.492,5-.743,10.462,1.854,15.74,4.364,5.1,2.427,10.379,4.938,15.052,4.3a.5.5,0,0,1,.136.992c-4.97.681-10.383-1.893-15.617-4.383-5.143-2.447-10.46-4.978-15.164-4.278s-9.117,4.54-13.4,8.258c-4.388,3.81-8.925,7.749-13.9,8.491-5.007.746-10.471-1.881-15.756-4.421-5.1-2.454-10.382-4.991-15.054-4.351-4.692.644-9.108,4.511-13.379,8.251-4.382,3.837-8.913,7.8-13.9,8.49-4.97.684-10.379-1.9-15.609-4.387-5.138-2.448-10.453-4.978-15.153-4.282s-9.117,4.54-13.4,8.258"/><path class="j" d="M146.043,114.363a.25.25,0,0,1-.034-.5c4.6-.631,8.87-4.5,13-8.239,4.189-3.791,8.521-7.712,13.27-8.364,4.729-.65,9.942,1.963,14.983,4.488,5.016,2.513,10.207,5.113,14.809,4.423s8.872-4.528,13.013-8.243c4.2-3.767,8.538-7.661,13.28-8.367,4.759-.707,10.013,1.9,15.093,4.414,4.97,2.464,10.108,5.011,14.687,4.385a.25.25,0,0,1,.068.5c-4.73.651-9.94-1.934-14.978-4.432-5.01-2.485-10.19-5.055-14.8-4.368-4.592.684-8.876,4.527-13.019,8.245-4.2,3.765-8.535,7.657-13.273,8.366-4.761.712-10.022-1.922-15.107-4.471-4.973-2.491-10.114-5.069-14.691-4.44-4.6.631-8.87,4.5-13,8.239-4.189,3.791-8.521,7.712-13.27,8.364Z"/><path class="j" d="M105.683,107.82a.25.25,0,0,1-.034-.5c3.622-.5,7-3.553,10.263-6.508,3.321-3.006,6.756-6.114,10.531-6.632s7.893,1.555,11.889,3.557c3.962,1.985,8.061,4.04,11.69,3.5s7-3.576,10.272-6.511c3.328-2.986,6.769-6.074,10.537-6.635s7.949,1.5,11.976,3.5c3.926,1.947,7.989,3.96,11.594,3.465a.25.25,0,0,1,.068.5c-3.758.518-7.891-1.532-11.885-3.512-3.958-1.963-8.052-3.994-11.68-3.452s-7,3.576-10.276,6.512c-3.327,2.985-6.766,6.071-10.532,6.634-3.787.565-7.956-1.523-11.988-3.543-3.928-1.968-7.992-4-11.6-3.509-3.622.5-7,3.553-10.263,6.508-3.321,3.006-6.756,6.114-10.531,6.632Z"/><g class="k"><path class="j" d="M80.2,101.119a.25.25,0,0,1-.037-.5c1.3-.2,2.511-1.552,3.679-2.862,1.226-1.375,2.494-2.8,3.976-3.023s3.106.757,4.682,1.708c1.511.912,3.072,1.854,4.38,1.636s2.514-1.563,3.685-2.864c1.229-1.366,2.5-2.778,3.977-3.023s3.128.733,4.715,1.681c1.5.894,3.047,1.819,4.346,1.622a.25.25,0,0,1,.075.495c-1.479.226-3.105-.747-4.678-1.687-1.51-.9-3.072-1.833-4.377-1.617s-2.516,1.563-3.687,2.864c-1.228,1.365-2.5,2.776-3.974,3.023s-3.132-.743-4.721-1.7c-1.5-.9-3.052-1.84-4.348-1.642s-2.511,1.552-3.678,2.861c-1.226,1.375-2.494,2.8-3.977,3.023Z"/></g><path class="j" d="M539.939,145.025a.625.625,0,0,1-.115-1.239c6.295-1.189,11.963-7.33,17.445-13.269,5.623-6.091,11.436-12.39,18.141-13.651,6.738-1.268,14.38,2.724,21.769,6.583,7.144,3.732,14.531,7.59,20.812,6.492a.625.625,0,1,1,.215,1.231c-6.7,1.17-14.277-2.787-21.605-6.615-7.2-3.761-14.645-7.652-20.96-6.463-6.3,1.184-11.969,7.329-17.453,13.27-5.62,6.089-11.431,12.385-18.131,13.649A.608.608,0,0,1,539.939,145.025Z"/><path class="j" d="M555.348,44.046c-5.847,0-12.244-3.341-18.456-6.585-6.944-3.627-14.126-7.376-20.206-6.232A.625.625,0,0,1,516.456,30c6.507-1.224,13.884,2.628,21.015,6.353,6.888,3.6,14.007,7.318,20.061,6.26a.625.625,0,1,1,.215,1.231A13.883,13.883,0,0,1,555.348,44.046Z"/><path class="j" d="M558.941,63.575c-5.847,0-12.244-3.341-18.456-6.585-6.943-3.627-14.124-7.376-20.206-6.232a.625.625,0,0,1-.231-1.229c6.507-1.224,13.884,2.628,21.015,6.353,6.888,3.6,14.01,7.316,20.061,6.26a.625.625,0,1,1,.215,1.231A13.883,13.883,0,0,1,558.941,63.575Z"/><path class="j" d="M562.847,83.73c-5.847,0-12.244-3.341-18.456-6.585-6.944-3.627-14.122-7.374-20.206-6.232a.625.625,0,0,1-.231-1.229c6.506-1.225,13.883,2.628,21.015,6.353,6.888,3.6,14.006,7.316,20.061,6.26a.625.625,0,1,1,.215,1.231A13.883,13.883,0,0,1,562.847,83.73Z"/><path class="j" d="M544.157,165.648a.625.625,0,0,1-.115-1.239c6.295-1.189,11.963-7.33,17.445-13.269,5.623-6.091,11.436-12.39,18.141-13.651,6.739-1.268,14.379,2.724,21.769,6.583,7.144,3.732,14.533,7.588,20.812,6.492a.625.625,0,1,1,.215,1.231c-6.7,1.171-14.277-2.788-21.605-6.615-7.2-3.761-14.643-7.652-20.96-6.463-6.3,1.184-11.969,7.329-17.453,13.27-5.62,6.089-11.431,12.385-18.131,13.649A.608.608,0,0,1,544.157,165.648Z"/><g class="l"><circle class="j" cx="426.453" cy="68.515" r="5.482"/></g><g class="l"><circle class="j" cx="430.023" cy="85.854" r="5.482"/></g><g class="l"><circle class="j" cx="441.282" cy="141.675" r="5.482"/></g><g class="l"><circle class="j" cx="447.219" cy="172.297" r="5.482"/></g><g class="m"><circle class="j" cx="565.959" cy="45.328" r="5.935"/></g><g class="m"><circle class="j" cx="569.824" cy="64.098" r="5.935"/></g><g class="m"><circle class="j" cx="573.688" cy="82.868" r="5.935"/></g><g class="n"><circle class="j" cx="628.712" cy="131.043" r="6.774"/></g><g class="n"><circle class="j" cx="633.123" cy="152.468" r="6.774"/></g><path class="a" d="M326.435,262.673a1.553,1.553,0,0,1-.915-.3l-6.957-5.037a1.562,1.562,0,1,1,1.832-2.531l6.957,5.037a1.562,1.562,0,0,1-.917,2.828Z"/><path class="a" d="M341.122,273.3a1.553,1.553,0,0,1-.915-.3l-6.957-5.037a1.562,1.562,0,1,1,1.832-2.531l6.957,5.037a1.562,1.562,0,0,1-.917,2.828Z"/><path class="a" d="M355.808,283.921a1.553,1.553,0,0,1-.915-.3l-6.957-5.037a1.562,1.562,0,1,1,1.832-2.531l6.957,5.037a1.562,1.562,0,0,1-.917,2.828Z"/><path class="a" d="M371.119,294.233a1.553,1.553,0,0,1-.915-.3l-6.957-5.037a1.562,1.562,0,1,1,1.832-2.531l6.957,5.037a1.562,1.562,0,0,1-.917,2.828Z"/><rect class="a" x="302.569" y="240.627" width="1.875" height="8.589" transform="translate(-73.897 146.587) rotate(-24.299)"/><g class="l"><circle class="a" cx="474.56" cy="86.835" r="1.406"/></g><g class="l"><circle class="a" cx="484.976" cy="140.373" r="1.406"/></g><g class="l"><circle class="a" cx="478.727" cy="86.002" r="1.406"/></g></svg>