<?xml version="1.0" encoding="UTF-8" standalone="no"?>
<svg
   xmlns:dc="http://purl.org/dc/elements/1.1/"
   xmlns:cc="http://creativecommons.org/ns#"
   xmlns:rdf="http://www.w3.org/1999/02/22-rdf-syntax-ns#"
   xmlns:svg="http://www.w3.org/2000/svg"
   xmlns="http://www.w3.org/2000/svg"
   xmlns:sodipodi="http://sodipodi.sourceforge.net/DTD/sodipodi-0.dtd"
   xmlns:inkscape="http://www.inkscape.org/namespaces/inkscape"
   width="1280px"
   height="262px"
   viewBox="0 0 1280 262"
   version="1.1"
   id="svg2"
   inkscape:version="0.91 r13725"
   sodipodi:docname="wave-bot.svg">
  <metadata
     id="metadata28">
    <rdf:RDF>
      <cc:Work
         rdf:about="">
        <dc:format>image/svg+xml</dc:format>
        <dc:type
           rdf:resource="http://purl.org/dc/dcmitype/StillImage" />
      </cc:Work>
    </rdf:RDF>
  </metadata>
  <sodipodi:namedview
     pagecolor="#ffffff"
     bordercolor="#666666"
     borderopacity="1"
     objecttolerance="10"
     gridtolerance="10"
     guidetolerance="10"
     inkscape:pageopacity="0"
     inkscape:pageshadow="2"
     inkscape:window-width="1366"
     inkscape:window-height="705"
     id="namedview26"
     showgrid="false"
     inkscape:zoom="0.65407375"
     inkscape:cx="824.86208"
     inkscape:cy="111.90364"
     inkscape:window-x="-8"
     inkscape:window-y="-8"
     inkscape:window-maximized="1"
     inkscape:current-layer="svg2"
     inkscape:snap-bbox="false"
     inkscape:bbox-paths="true"
     inkscape:snap-page="true" />
  <!-- Generator: Sketch 46.2 (44496) - http://www.bohemiancoding.com/sketch -->
  <title
     id="title4">Group 11</title>
  <desc
     id="desc6">Created with Sketch.</desc>
  <defs
     id="defs8">
    <linearGradient
       x1="971.71496"
       y1="323.8682"
       x2="191.296"
       y2="323.8682"
       id="linearGradient-1"
       gradientTransform="matrix(1.8637445,0,0,0.54917117,-380.04453,21.00002)"
       gradientUnits="userSpaceOnUse">
      <stop
         stop-color="#373172"
         offset="0%"
         id="stop11" />
      <stop
         stop-color="#232148"
         offset="100%"
         id="stop13" />
    </linearGradient>
    <linearGradient
       x1="803.66412"
       y1="269.24042"
       x2="100.72502"
       y2="269.24042"
       id="linearGradient-2"
       gradientTransform="matrix(-1.8209259,0,0,0.54917117,1463.4128,21.00002)"
       gradientUnits="userSpaceOnUse">
      <stop
         stop-color="#5B5785"
         offset="0%"
         id="stop16" />
      <stop
         stop-color="#232148"
         offset="100%"
         id="stop18"
         style="stop-color:#232148;stop-opacity:1" />
    </linearGradient>
  </defs>
  <path
     inkscape:connector-curvature="0"
     style="fill:url(#linearGradient-1);fill-rule:evenodd;stroke:none;stroke-width:1"
     id="Path-2"
     d="M -84.555084,168.4794 C 63.573065,35.139376 293.12472,35.139376 604.09987,168.4794 915.07508,301.81942 1155.9007,262.65963 1326.577,51.00002 l 0,404.76932 L -204,502.00002 -162.05421,203.23438 -84.555084,168.4794 Z" />
  <g
     transform="matrix(0.40373697,0,0,0.40373697,305.6061,-159.64994)"
     id="layer1"
     inkscape:label="Layer 1">
    <g
       transform="matrix(0.99877507,-0.14621738,0.14609451,0.99793582,-33.685568,22.086363)"
       id="g4152">
      <circle
         id="XMLID_2_-5"
         class="st0"
         cx="148.39999"
         cy="903.96216"
         r="148.60001"
         style="fill:#ff3b3f;fill-opacity:1" />
      <path
         id="XMLID_4_-8"
         class="st1"
         d="m 118.4,897.56219 c -5.6,-4.2 -12.3,-7.5 -19.600002,-7.5 -14.6,0 -26.1,11.3 -26.1,26.1 0,15.4 11.1,26.3 26.7,26.3 6.700002,0 14.000002,-2.7 19.000002,-7.3 l 0,32.1 c -8.3,4.2 -17.5,6 -26.700002,6 -31.7,0 -58.2,-23.6 -58.2,-55.9 0,-34.4 26.3,-58.2 59.9,-58.2 8.800002,0 17.500002,2.1 25.000002,6.3 l 0,32.1 z"
         inkscape:connector-curvature="0"
         style="fill:#ffffff;stroke:#ffffff;stroke-width:0.5" />
      <path
         id="XMLID_3_-4"
         class="st1"
         d="m 209.3,858.56219 c -14.8,0 -25.4,5.4 -34.2,17.1 l -0.4,0 0,-63.2 0,0 0,-54.8 c -8.5,-1.5 -17.3,-2.3 -26.3,-2.3 -3.9,0 -7.8,0.2 -11.7,0.5 l 0,40.2 0,16.5 0,156.6 38,0 0,-54.9 c 0,-12.5 4.8,-25.4 19.8,-25.4 15.2,0 17.1,12.9 17.1,25.4 l 0,45.1 0,9.8 0,69.30001 c 14,-6.6 26.8,-15.3 38,-25.7 l 0,-43.60001 0,-9.8 0,-55.7 c -0.1,-27.2 -13.2,-45.1 -40.3,-45.1 z"
         inkscape:connector-curvature="0"
         style="fill:#ffffff;stroke:#ffffff;stroke-width:0.5" />
    </g>
  </g>
  <path
     inkscape:connector-curvature="0"
     style="fill:url(#linearGradient-2);fill-rule:evenodd;stroke:none;stroke-width:1"
     id="path24"
     d="M 1346.7121,138.4794 C 1201.9871,5.139376 977.70927,5.139376 673.87861,138.4794 370.0479,271.81942 134.7551,232.65963 -32,21.00002 l 0,404.76932 1495.4128,46.23068 -40.9821,-298.76564 -75.7186,-34.75498 z" />
</svg>
