<svg xmlns="http://www.w3.org/2000/svg" viewBox="0 0 75 75"><defs><style>.a{fill:none;stroke:#ff3b3f;stroke-miterlimit:10;}</style></defs><title>icon</title><path class="a" d="M52.1,47.3a3,3,0,0,0,1.9-1c1-1,1.9-1.9,1.9-2.4-1.5-6.3-5.3-14.6-5.8-15-7.8-5.3-7.8-5.3-8.7-5.3s-9.2-.5-10.2,0a3.8,3.8,0,0,0-1.9,1.9,9.9,9.9,0,0,1-3.4,2.9c-1,.5-1,1.9-1,1.9s.5,1,2.4,1a11.6,11.6,0,0,0,4.9-1.5,1.7,1.7,0,0,0,1-1.5,28.2,28.2,0,0,0,4.9.5s2.9,3.4,4.4,4.9,8.7,10.2,9.2,11.2A6.5,6.5,0,0,1,52.1,47.3Z"/><path class="a" d="M56,43.9a36.3,36.3,0,0,1,5.3-1h4.3a14.4,14.4,0,0,0-1.4-14.5c-4.4.7-8.9,1.3-9.7,1.3a20,20,0,0,1-4.4-1"/><path class="a" d="M29.8,54.6l1.9,2.9c1.9.9,3.2.8,4.9-1a5.2,5.2,0,0,0,5.8-1.9q3.4,0,4.9-3.9c2.4,0,4.2-.8,4.9-3.4"/><circle class="a" cx="19.9" cy="47.6" r="2.7"/><path class="a" d="M17.9,45.4a2.7,2.7,0,1,1-4.5-2.9h.4a5.8,5.8,0,0,0,1.9,1.9A5.8,5.8,0,0,0,17.9,45.4Z"/><circle class="a" cx="25.2" cy="49.5" r="2.7"/><circle class="a" cx="27.1" cy="54.9" r="2.7"/><line class="a" x1="47.3" y1="50.7" x2="40" y2="41"/><line class="a" x1="42.4" y1="54.6" x2="35.2" y2="44.9"/><line class="a" x1="36.6" y1="56.6" x2="30.3" y2="47.8"/><path class="a" d="M12.5,24.4l2.8.3s1,0,2.4,1.5,3.9,0,6.3,0a20.3,20.3,0,0,0,5.3-1"/><path class="a" d="M18.2,45.1h-.3a6,6,0,0,1-2.1-1,5.9,5.9,0,0,1-1.9-1.9h-.4l-3.9.2H7.9a29.5,29.5,0,0,1,3.3-18.1h1.3"/><path class="a" d="M12.5,24.4l2.8.3s1,0,2.4,1.5,3.9,0,6.3,0a20.3,20.3,0,0,0,5.3-1"/></svg>