<svg xmlns="http://www.w3.org/2000/svg" viewBox="0 0 75 75"><defs><style>.a{fill:none;stroke:#fff;stroke-miterlimit:10;stroke-width:2px;}.b{fill:#fff;opacity:0.33;}</style></defs><title>icon</title><rect class="a" x="19.6" y="8.4" width="34.8" height="58" rx="2.7" ry="2.7"/><path class="b" d="M47.5,52.7v.6H40c0-.1,0-.3,0-.4s.1-.3.2-.7a4.4,4.4,0,0,0-5.4,0c.1.4.2.3.2.7s0,.3,0,.4H27.5v-.6a3.8,3.8,0,0,1,1.3-2.2,3.8,3.8,0,0,1,2-.8h0c6.7-1.1,6.7-1.1,13.3,0h0a3.8,3.8,0,0,1,2,.8A3.8,3.8,0,0,1,47.5,52.7Z"/></svg>