<svg xmlns="http://www.w3.org/2000/svg" viewBox="0 0 75 75"><defs><style>.a,.b,.c{fill:none;stroke-linecap:round;stroke-miterlimit:10;}.a{stroke:#ff3b3f;opacity:0.75;}.b,.c{stroke:#fff;}.b{opacity:0.85;}.c{opacity:0.5;}</style></defs><title>icon</title><line class="a" x1="8.3" y1="7.6" x2="20.8" y2="7.6"/><line class="a" x1="8.3" y1="19.6" x2="20.8" y2="19.6"/><line class="b" x1="9.3" y1="21.6" x2="21.8" y2="21.6"/><line class="b" x1="9.3" y1="54.6" x2="21.8" y2="54.6"/><line class="b" x1="52.3" y1="51.6" x2="67.3" y2="51.6"/><line class="b" x1="52.3" y1="66.6" x2="67.3" y2="66.6"/><line class="a" x1="16.3" y1="15.6" x2="30.8" y2="15.6"/><line class="c" x1="10.8" y1="23.7" x2="59.8" y2="23.7"/><line class="c" x1="10.8" y1="56.7" x2="59.8" y2="56.7"/><line class="c" x1="10.8" y1="58.7" x2="59.8" y2="58.7"/><line class="c" x1="10.8" y1="60.7" x2="53.8" y2="60.7"/><line class="c" x1="10.8" y1="64.7" x2="59.8" y2="64.7"/><line class="c" x1="10.8" y1="62.7" x2="59.8" y2="62.7"/><line class="c" x1="10.8" y1="25.6" x2="57.5" y2="25.6"/><line class="c" x1="10.8" y1="27.6" x2="41" y2="27.6"/><line class="c" x1="10.8" y1="29.6" x2="64.3" y2="29.6"/><line class="c" x1="10.8" y1="31.6" x2="45.3" y2="31.6"/><line class="c" x1="10.8" y1="33.6" x2="38.4" y2="33.6"/><line class="c" x1="10.8" y1="35.6" x2="35.1" y2="35.6"/><line class="c" x1="10.8" y1="37.6" x2="38.4" y2="37.6"/><line class="c" x1="10.8" y1="39.6" x2="56.3" y2="39.6"/><line class="c" x1="10.8" y1="41.6" x2="57.3" y2="41.6"/><line class="c" x1="10.8" y1="43.8" x2="38.8" y2="43.8"/><line class="c" x1="10.8" y1="45.7" x2="59.3" y2="45.7"/><line class="c" x1="10.8" y1="47.6" x2="54.3" y2="47.6"/><line class="c" x1="10.8" y1="49.6" x2="59.8" y2="49.6"/><line class="c" x1="10.8" y1="9.6" x2="62.8" y2="9.6"/><line class="c" x1="10.8" y1="11.6" x2="62.8" y2="11.6"/><line class="c" x1="10.8" y1="13.7" x2="57.8" y2="13.7"/></svg>